{"id":"seed-bolan-shanghai","name":"波兰首都是上海","youtubeUrl":"https://www.youtube.com/watch?v=0cq-7gxfMNY","song":null,"tracks":[{"id":"bass","instrument":"bass","kind":"melodic","name":"Bass","notes":[{"start":10,"end":720,"pitch":41,"velocity":61},{"start":61,"end":429,"pitch":29,"velocity":42},{"start":848,"end":976,"pitch":48,"velocity":68},{"start":863,"end":1441,"pitch":55,"velocity":61},{"start":900,"end":1196,"pitch":36,"velocity":60},{"start":1053,"end":1216,"pitch":48,"velocity":61},{"start":1124,"end":1278,"pitch":64,"velocity":39},{"start":1278,"end":1344,"pitch":52,"velocity":39},{"start":1446,"end":1487,"pitch":48,"velocity":54},{"start":1446,"end":1564,"pitch":55,"velocity":59},{"start":1564,"end":2719,"pitch":55,"velocity":64},{"start":1579,"end":1732,"pitch":48,"velocity":54},{"start":1681,"end":2162,"pitch":60,"velocity":55},{"start":1871,"end":2044,"pitch":64,"velocity":50},{"start":1912,"end":2463,"pitch":48,"velocity":61},{"start":1932,"end":2162,"pitch":36,"velocity":56},{"start":2029,"end":2218,"pitch":52,"velocity":46},{"start":2193,"end":2428,"pitch":64,"velocity":46},{"start":2254,"end":2371,"pitch":60,"velocity":52},{"start":2361,"end":2458,"pitch":36,"velocity":52},{"start":2468,"end":2566,"pitch":48,"velocity":72},{"start":2550,"end":2638,"pitch":60,"velocity":58},{"start":2622,"end":2684,"pitch":48,"velocity":50},{"start":2668,"end":3788,"pitch":52,"velocity":64},{"start":2689,"end":2975,"pitch":47,"velocity":57},{"start":2699,"end":2806,"pitch":59,"velocity":49},{"start":2719,"end":3389,"pitch":55,"velocity":83},{"start":2868,"end":2959,"pitch":28,"velocity":45},{"start":2913,"end":3041,"pitch":59,"velocity":50},{"start":3046,"end":3164,"pitch":40,"velocity":52},{"start":3046,"end":3235,"pitch":59,"velocity":46},{"start":3164,"end":3215,"pitch":64,"velocity":48},{"start":3445,"end":4386,"pitch":55,"velocity":84},{"start":3491,"end":3639,"pitch":40,"velocity":42},{"start":3491,"end":3716,"pitch":59,"velocity":52},{"start":3701,"end":3782,"pitch":64,"velocity":44},{"start":3803,"end":4252,"pitch":59,"velocity":52},{"start":3839,"end":3890,"pitch":47,"velocity":50},{"start":4017,"end":4242,"pitch":52,"velocity":53},{"start":4171,"end":4355,"pitch":40,"velocity":46},{"start":4391,"end":4529,"pitch":60,"velocity":58},{"start":4478,"end":4585,"pitch":57,"velocity":55},{"start":4508,"end":4631,"pitch":48,"velocity":78},{"start":4560,"end":4636,"pitch":53,"velocity":55},{"start":4590,"end":4657,"pitch":56,"velocity":42},{"start":4590,"end":4646,"pitch":60,"velocity":50},{"start":4631,"end":4871,"pitch":48,"velocity":59},{"start":4657,"end":4718,"pitch":57,"velocity":69},{"start":4718,"end":4840,"pitch":57,"velocity":61},{"start":4749,"end":5091,"pitch":53,"velocity":64},{"start":4749,"end":4789,"pitch":60,"velocity":47},{"start":4794,"end":4835,"pitch":41,"velocity":45},{"start":4871,"end":4917,"pitch":48,"velocity":51},{"start":4902,"end":4963,"pitch":41,"velocity":50},{"start":4922,"end":5515,"pitch":57,"velocity":72},{"start":4958,"end":5024,"pitch":29,"velocity":58},{"start":4978,"end":5116,"pitch":48,"velocity":49},{"start":4984,"end":5024,"pitch":65,"velocity":49},{"start":5086,"end":5193,"pitch":65,"velocity":61},{"start":5096,"end":5291,"pitch":53,"velocity":59},{"start":5121,"end":5291,"pitch":48,"velocity":46},{"start":5193,"end":5260,"pitch":60,"velocity":55},{"start":5357,"end":5500,"pitch":48,"velocity":49},{"start":5357,"end":5526,"pitch":60,"velocity":53},{"start":5372,"end":5444,"pitch":53,"velocity":45},{"start":5515,"end":5709,"pitch":57,"velocity":56},{"start":5520,"end":5791,"pitch":65,"velocity":42},{"start":5546,"end":5597,"pitch":53,"velocity":53},{"start":5566,"end":5633,"pitch":41,"velocity":51},{"start":5597,"end":5663,"pitch":48,"velocity":38},{"start":5643,"end":5781,"pitch":60,"velocity":60},{"start":5669,"end":5725,"pitch":48,"velocity":61},{"start":5709,"end":5771,"pitch":57,"velocity":81},{"start":5771,"end":6206,"pitch":57,"velocity":64},{"start":5837,"end":5904,"pitch":48,"velocity":56},{"start":5852,"end":6016,"pitch":60,"velocity":45},{"start":6052,"end":6267,"pitch":53,"velocity":54},{"start":6082,"end":6369,"pitch":60,"velocity":43},{"start":6108,"end":6144,"pitch":65,"velocity":50},{"start":6124,"end":6246,"pitch":48,"velocity":75},{"start":6226,"end":6405,"pitch":56,"velocity":47},{"start":6246,"end":6471,"pitch":48,"velocity":72},{"start":6430,"end":6747,"pitch":53,"velocity":42},{"start":6527,"end":6650,"pitch":56,"velocity":62},{"start":6558,"end":6870,"pitch":48,"velocity":48},{"start":6614,"end":6757,"pitch":60,"velocity":42},{"start":6834,"end":6885,"pitch":41,"velocity":54},{"start":6854,"end":7039,"pitch":53,"velocity":42},{"start":6895,"end":7064,"pitch":60,"velocity":52},{"start":7044,"end":7407,"pitch":53,"velocity":46},{"start":7218,"end":7269,"pitch":56,"velocity":55},{"start":7447,"end":7499,"pitch":60,"velocity":42},{"start":7488,"end":7657,"pitch":53,"velocity":46},{"start":7529,"end":7815,"pitch":48,"velocity":46},{"start":7560,"end":7933,"pitch":60,"velocity":53},{"start":7769,"end":7810,"pitch":41,"velocity":50},{"start":7872,"end":7918,"pitch":56,"velocity":48},{"start":7979,"end":8035,"pitch":53,"velocity":53},{"start":8051,"end":8740,"pitch":55,"velocity":59},{"start":8076,"end":8143,"pitch":59,"velocity":53},{"start":8199,"end":8424,"pitch":48,"velocity":60},{"start":8429,"end":8485,"pitch":48,"velocity":84},{"start":8485,"end":8592,"pitch":48,"velocity":87},{"start":8592,"end":8705,"pitch":48,"velocity":77},{"start":8597,"end":8930,"pitch":52,"velocity":54},{"start":8648,"end":8996,"pitch":64,"velocity":59},{"start":8807,"end":9850,"pitch":55,"velocity":61},{"start":8869,"end":9017,"pitch":48,"velocity":64},{"start":8894,"end":9313,"pitch":36,"velocity":71},{"start":9002,"end":9129,"pitch":64,"velocity":60},{"start":9083,"end":9420,"pitch":48,"velocity":60},{"start":9267,"end":9313,"pitch":64,"velocity":56},{"start":9517,"end":9641,"pitch":48,"velocity":49},{"start":9584,"end":9651,"pitch":52,"velocity":58},{"start":9855,"end":10034,"pitch":55,"velocity":60},{"start":10034,"end":10080,"pitch":55,"velocity":68},{"start":10080,"end":11726,"pitch":55,"velocity":71},{"start":10648,"end":10709,"pitch":64,"velocity":53},{"start":10724,"end":10796,"pitch":59,"velocity":54},{"start":10862,"end":10929,"pitch":59,"velocity":61},{"start":10883,"end":10923,"pitch":47,"velocity":49},{"start":11107,"end":11624,"pitch":47,"velocity":49},{"start":11813,"end":11854,"pitch":60,"velocity":60},{"start":11884,"end":12109,"pitch":57,"velocity":48},{"start":12027,"end":12073,"pitch":48,"velocity":47},{"start":12109,"end":12365,"pitch":57,"velocity":67},{"start":12130,"end":12170,"pitch":60,"velocity":47},{"start":12135,"end":12196,"pitch":48,"velocity":60},{"start":12135,"end":12314,"pitch":53,"velocity":53},{"start":12222,"end":12273,"pitch":65,"velocity":45},{"start":12268,"end":12324,"pitch":49,"velocity":59},{"start":12268,"end":12345,"pitch":60,"velocity":57},{"start":12309,"end":12595,"pitch":29,"velocity":51},{"start":12319,"end":12437,"pitch":53,"velocity":68},{"start":12365,"end":12534,"pitch":57,"velocity":58},{"start":12406,"end":12498,"pitch":65,"velocity":59},{"start":12421,"end":12472,"pitch":60,"velocity":48},{"start":12437,"end":12850,"pitch":53,"velocity":56},{"start":12508,"end":12692,"pitch":48,"velocity":57},{"start":12534,"end":12677,"pitch":57,"velocity":80},{"start":12615,"end":12712,"pitch":60,"velocity":49},{"start":12677,"end":12718,"pitch":57,"velocity":85},{"start":12718,"end":12764,"pitch":57,"velocity":79},{"start":12764,"end":12886,"pitch":57,"velocity":78},{"start":12784,"end":12830,"pitch":48,"velocity":61},{"start":12784,"end":12861,"pitch":60,"velocity":45},{"start":12866,"end":13014,"pitch":60,"velocity":51},{"start":12886,"end":12999,"pitch":41,"velocity":66},{"start":12886,"end":13198,"pitch":57,"velocity":71},{"start":12912,"end":13224,"pitch":53,"velocity":46},{"start":13014,"end":13060,"pitch":48,"velocity":55},{"start":13111,"end":13234,"pitch":48,"velocity":51},{"start":13301,"end":13341,"pitch":57,"velocity":56},{"start":13326,"end":13382,"pitch":48,"velocity":39},{"start":13326,"end":13459,"pitch":60,"velocity":41},{"start":13367,"end":13418,"pitch":41,"velocity":60},{"start":13541,"end":13587,"pitch":48,"velocity":49},{"start":13607,"end":13699,"pitch":56,"velocity":40},{"start":13658,"end":13699,"pitch":60,"velocity":46},{"start":13704,"end":13954,"pitch":60,"velocity":52},{"start":13776,"end":13949,"pitch":56,"velocity":56},{"start":13781,"end":13857,"pitch":41,"velocity":46},{"start":13832,"end":13888,"pitch":48,"velocity":61},{"start":13949,"end":14200,"pitch":41,"velocity":55},{"start":13949,"end":14011,"pitch":53,"velocity":60},{"start":13949,"end":14118,"pitch":56,"velocity":49},{"start":13954,"end":14302,"pitch":60,"velocity":61},{"start":14062,"end":14338,"pitch":65,"velocity":47},{"start":14098,"end":14149,"pitch":53,"velocity":58},{"start":14118,"end":14231,"pitch":48,"velocity":42},{"start":14261,"end":14364,"pitch":48,"velocity":49},{"start":14267,"end":14445,"pitch":56,"velocity":54},{"start":14374,"end":14507,"pitch":60,"velocity":45},{"start":14430,"end":14655,"pitch":48,"velocity":45},{"start":15284,"end":15340,"pitch":53,"velocity":57},{"start":15417,"end":15524,"pitch":45,"velocity":61},{"start":15498,"end":17425,"pitch":55,"velocity":68},{"start":15821,"end":16025,"pitch":60,"velocity":59},{"start":16066,"end":16240,"pitch":64,"velocity":49},{"start":16096,"end":16137,"pitch":60,"velocity":55},{"start":16107,"end":16204,"pitch":52,"velocity":49},{"start":16209,"end":16331,"pitch":52,"velocity":59},{"start":16224,"end":16265,"pitch":60,"velocity":54},{"start":16331,"end":16429,"pitch":52,"velocity":58},{"start":16331,"end":16602,"pitch":60,"velocity":59},{"start":16526,"end":16843,"pitch":52,"velocity":53},{"start":16669,"end":17134,"pitch":48,"velocity":52},{"start":16741,"end":17103,"pitch":60,"velocity":44},{"start":17277,"end":17338,"pitch":60,"velocity":49},{"start":17430,"end":17630,"pitch":55,"velocity":77},{"start":17630,"end":18315,"pitch":55,"velocity":72},{"start":17635,"end":17737,"pitch":59,"velocity":47},{"start":17722,"end":17932,"pitch":52,"velocity":43},{"start":17824,"end":17942,"pitch":64,"velocity":56},{"start":17880,"end":18177,"pitch":59,"velocity":45},{"start":17988,"end":18049,"pitch":52,"velocity":59},{"start":18177,"end":18269,"pitch":64,"velocity":40},{"start":18315,"end":18387,"pitch":55,"velocity":40},{"start":18387,"end":18530,"pitch":55,"velocity":46},{"start":18489,"end":18530,"pitch":52,"velocity":55},{"start":18530,"end":18678,"pitch":55,"velocity":57},{"start":18637,"end":18729,"pitch":59,"velocity":49},{"start":18678,"end":18755,"pitch":55,"velocity":66},{"start":18755,"end":19000,"pitch":55,"velocity":66},{"start":18908,"end":18959,"pitch":59,"velocity":48},{"start":18969,"end":19025,"pitch":52,"velocity":46},{"start":19000,"end":19097,"pitch":55,"velocity":56},{"start":19199,"end":19307,"pitch":53,"velocity":45},{"start":19225,"end":19266,"pitch":60,"velocity":53},{"start":19353,"end":19404,"pitch":59,"velocity":45},{"start":19419,"end":19547,"pitch":60,"velocity":42},{"start":19501,"end":19567,"pitch":53,"velocity":55},{"start":19532,"end":19578,"pitch":57,"velocity":52},{"start":19572,"end":19659,"pitch":53,"velocity":66},{"start":19659,"end":19710,"pitch":53,"velocity":49},{"start":19807,"end":19859,"pitch":53,"velocity":58},{"start":19807,"end":19920,"pitch":57,"velocity":64},{"start":19930,"end":19991,"pitch":57,"velocity":44},{"start":20042,"end":20145,"pitch":60,"velocity":48},{"start":20145,"end":20191,"pitch":60,"velocity":47},{"start":20738,"end":20799,"pitch":30,"velocity":48},{"start":20804,"end":20876,"pitch":30,"velocity":63},{"start":20804,"end":20845,"pitch":42,"velocity":42},{"start":20999,"end":21132,"pitch":36,"velocity":69},{"start":21075,"end":21127,"pitch":41,"velocity":92},{"start":21075,"end":21178,"pitch":53,"velocity":42},{"start":21127,"end":21208,"pitch":41,"velocity":102},{"start":21208,"end":21326,"pitch":41,"velocity":91},{"start":21326,"end":21551,"pitch":41,"velocity":88},{"start":21331,"end":21505,"pitch":53,"velocity":42},{"start":21545,"end":21612,"pitch":53,"velocity":44},{"start":21551,"end":21904,"pitch":41,"velocity":91},{"start":21904,"end":22011,"pitch":41,"velocity":78},{"start":22011,"end":22052,"pitch":41,"velocity":94},{"start":22052,"end":22098,"pitch":41,"velocity":70},{"start":22098,"end":22149,"pitch":41,"velocity":77},{"start":22149,"end":22215,"pitch":41,"velocity":73},{"start":22210,"end":22322,"pitch":53,"velocity":41},{"start":22215,"end":22328,"pitch":41,"velocity":92},{"start":22322,"end":22404,"pitch":53,"velocity":48},{"start":22328,"end":22430,"pitch":41,"velocity":88},{"start":22430,"end":22542,"pitch":41,"velocity":93},{"start":22430,"end":22573,"pitch":53,"velocity":40},{"start":22542,"end":22609,"pitch":41,"velocity":97},{"start":22609,"end":22670,"pitch":41,"velocity":88},{"start":22670,"end":22773,"pitch":41,"velocity":86},{"start":22783,"end":22824,"pitch":33,"velocity":67},{"start":22824,"end":22870,"pitch":33,"velocity":58},{"start":22916,"end":23008,"pitch":36,"velocity":79},{"start":23008,"end":23064,"pitch":36,"velocity":97},{"start":23064,"end":23110,"pitch":36,"velocity":105},{"start":23110,"end":23222,"pitch":36,"velocity":104},{"start":23222,"end":23360,"pitch":36,"velocity":113},{"start":23360,"end":23452,"pitch":36,"velocity":109},{"start":23452,"end":23523,"pitch":36,"velocity":107},{"start":23523,"end":23580,"pitch":36,"velocity":104},{"start":23580,"end":23616,"pitch":36,"velocity":108},{"start":23616,"end":23779,"pitch":36,"velocity":109},{"start":23708,"end":23759,"pitch":64,"velocity":47},{"start":23779,"end":23841,"pitch":36,"velocity":58},{"start":23841,"end":24055,"pitch":36,"velocity":102},{"start":24055,"end":24152,"pitch":36,"velocity":113},{"start":24055,"end":24127,"pitch":60,"velocity":36},{"start":24152,"end":24521,"pitch":36,"velocity":111},{"start":24521,"end":24628,"pitch":36,"velocity":110},{"start":24628,"end":24705,"pitch":36,"velocity":81},{"start":24735,"end":24812,"pitch":47,"velocity":38},{"start":24740,"end":24802,"pitch":35,"velocity":99},{"start":24802,"end":25676,"pitch":35,"velocity":104},{"start":24955,"end":25604,"pitch":59,"velocity":49},{"start":25072,"end":25349,"pitch":63,"velocity":39},{"start":25676,"end":26489,"pitch":35,"velocity":103},{"start":25895,"end":26023,"pitch":59,"velocity":50},{"start":26105,"end":26207,"pitch":59,"velocity":42},{"start":26356,"end":26432,"pitch":59,"velocity":46},{"start":26540,"end":27179,"pitch":29,"velocity":105},{"start":26555,"end":26596,"pitch":41,"velocity":38},{"start":26591,"end":26719,"pitch":57,"velocity":39},{"start":26596,"end":26657,"pitch":41,"velocity":48},{"start":26703,"end":26816,"pitch":34,"velocity":57},{"start":27086,"end":27261,"pitch":41,"velocity":42},{"start":27179,"end":27521,"pitch":29,"velocity":88},{"start":27266,"end":27490,"pitch":41,"velocity":54},{"start":27521,"end":27582,"pitch":29,"velocity":95},{"start":27531,"end":27577,"pitch":53,"velocity":48},{"start":27582,"end":28145,"pitch":29,"velocity":105},{"start":28191,"end":28267,"pitch":30,"velocity":54},{"start":28370,"end":28467,"pitch":36,"velocity":50},{"start":28431,"end":28497,"pitch":53,"velocity":53},{"start":28441,"end":29320,"pitch":41,"velocity":97},{"start":28559,"end":28681,"pitch":53,"velocity":42},{"start":29198,"end":29249,"pitch":53,"velocity":46},{"start":29320,"end":30000,"pitch":41,"velocity":98},{"start":29320,"end":29417,"pitch":53,"velocity":43},{"start":29499,"end":29995,"pitch":53,"velocity":40},{"start":30000,"end":30051,"pitch":41,"velocity":101},{"start":30000,"end":30077,"pitch":53,"velocity":52},{"start":30051,"end":30159,"pitch":41,"velocity":106},{"start":30154,"end":30210,"pitch":53,"velocity":43},{"start":30159,"end":30240,"pitch":41,"velocity":80},{"start":30246,"end":30286,"pitch":36,"velocity":59},{"start":30292,"end":30818,"pitch":36,"velocity":114},{"start":30496,"end":30578,"pitch":64,"velocity":41},{"start":30818,"end":30890,"pitch":36,"velocity":74},{"start":30992,"end":31033,"pitch":31,"velocity":66},{"start":31033,"end":31084,"pitch":43,"velocity":52},{"start":31038,"end":31120,"pitch":31,"velocity":70},{"start":31155,"end":31206,"pitch":48,"velocity":40},{"start":31171,"end":31217,"pitch":36,"velocity":99},{"start":31217,"end":31503,"pitch":36,"velocity":114},{"start":31503,"end":31774,"pitch":36,"velocity":106},{"start":31932,"end":32004,"pitch":48,"velocity":37},{"start":31943,"end":32009,"pitch":36,"velocity":97},{"start":32009,"end":32075,"pitch":36,"velocity":85},{"start":32075,"end":32162,"pitch":35,"velocity":90},{"start":32162,"end":32694,"pitch":35,"velocity":106},{"start":32556,"end":32638,"pitch":63,"velocity":40},{"start":32653,"end":32699,"pitch":59,"velocity":42},{"start":32694,"end":32755,"pitch":35,"velocity":81},{"start":32750,"end":32832,"pitch":47,"velocity":43},{"start":32755,"end":32888,"pitch":35,"velocity":85},{"start":32837,"end":32893,"pitch":31,"velocity":63},{"start":32878,"end":32970,"pitch":43,"velocity":49},{"start":32893,"end":33036,"pitch":31,"velocity":78},{"start":32904,"end":32965,"pitch":55,"velocity":41},{"start":33011,"end":33057,"pitch":35,"velocity":91},{"start":33011,"end":33103,"pitch":47,"velocity":52},{"start":33057,"end":33645,"pitch":35,"velocity":101},{"start":33210,"end":33292,"pitch":63,"velocity":38},{"start":33645,"end":33767,"pitch":35,"velocity":68},{"start":33650,"end":33701,"pitch":47,"velocity":41},{"start":33701,"end":33773,"pitch":47,"velocity":46},{"start":33742,"end":33783,"pitch":31,"velocity":51},{"start":33783,"end":33839,"pitch":43,"velocity":34},{"start":33788,"end":33895,"pitch":31,"velocity":70},{"start":33921,"end":34545,"pitch":29,"velocity":105},{"start":34447,"end":34565,"pitch":41,"velocity":53},{"start":34545,"end":34611,"pitch":29,"velocity":79},{"start":34606,"end":34677,"pitch":41,"velocity":35},{"start":34611,"end":34856,"pitch":29,"velocity":73},{"start":34846,"end":34964,"pitch":41,"velocity":41},{"start":34856,"end":35495,"pitch":29,"velocity":102},{"start":35276,"end":35454,"pitch":41,"velocity":46},{"start":35495,"end":35562,"pitch":29,"velocity":62},{"start":35694,"end":35792,"pitch":36,"velocity":72},{"start":35766,"end":35827,"pitch":53,"velocity":48},{"start":35771,"end":36410,"pitch":41,"velocity":94},{"start":36175,"end":36390,"pitch":53,"velocity":44},{"start":36410,"end":36451,"pitch":41,"velocity":84},{"start":36420,"end":36707,"pitch":53,"velocity":45},{"start":36451,"end":36523,"pitch":41,"velocity":93},{"start":36477,"end":36517,"pitch":36,"velocity":55},{"start":36523,"end":36579,"pitch":36,"velocity":89},{"start":36523,"end":36620,"pitch":41,"velocity":51},{"start":36579,"end":36712,"pitch":36,"velocity":78},{"start":36620,"end":36696,"pitch":41,"velocity":46},{"start":36696,"end":37346,"pitch":41,"velocity":96},{"start":36707,"end":36973,"pitch":53,"velocity":49},{"start":37034,"end":37243,"pitch":53,"velocity":49},{"start":37341,"end":37427,"pitch":53,"velocity":48},{"start":37346,"end":37484,"pitch":41,"velocity":99},{"start":37484,"end":37586,"pitch":41,"velocity":85},{"start":37489,"end":37555,"pitch":53,"velocity":38},{"start":37560,"end":37597,"pitch":36,"velocity":41},{"start":37597,"end":37801,"pitch":36,"velocity":106},{"start":37801,"end":37949,"pitch":36,"velocity":60},{"start":37949,"end":38281,"pitch":36,"velocity":97},{"start":37954,"end":38005,"pitch":48,"velocity":35},{"start":38281,"end":38332,"pitch":36,"velocity":85},{"start":38332,"end":38378,"pitch":36,"velocity":63},{"start":38455,"end":38506,"pitch":36,"velocity":72},{"start":38506,"end":38624,"pitch":36,"velocity":93},{"start":38506,"end":38578,"pitch":48,"velocity":31},{"start":38624,"end":38772,"pitch":36,"velocity":83},{"start":38844,"end":39191,"pitch":36,"velocity":94},{"start":38854,"end":38895,"pitch":48,"velocity":36},{"start":39191,"end":39232,"pitch":36,"velocity":97},{"start":39191,"end":39278,"pitch":48,"velocity":46},{"start":39232,"end":39319,"pitch":36,"velocity":79},{"start":39313,"end":39355,"pitch":38,"velocity":95},{"start":39319,"end":39396,"pitch":50,"velocity":48},{"start":39355,"end":39396,"pitch":38,"velocity":102},{"start":39396,"end":39442,"pitch":38,"velocity":74},{"start":39442,"end":39529,"pitch":52,"velocity":50},{"start":39472,"end":39641,"pitch":40,"velocity":99},{"start":39641,"end":39769,"pitch":40,"velocity":66},{"start":39672,"end":39723,"pitch":52,"velocity":44},{"start":39769,"end":39830,"pitch":40,"velocity":94},{"start":39769,"end":39881,"pitch":52,"velocity":42},{"start":39830,"end":40070,"pitch":40,"velocity":101},{"start":39871,"end":40004,"pitch":28,"velocity":42},{"start":40024,"end":40085,"pitch":52,"velocity":43},{"start":40070,"end":40152,"pitch":40,"velocity":65},{"start":40234,"end":40301,"pitch":35,"velocity":98},{"start":40301,"end":40377,"pitch":35,"velocity":76},{"start":40311,"end":40382,"pitch":40,"velocity":40},{"start":40362,"end":40423,"pitch":52,"velocity":39},{"start":40382,"end":40433,"pitch":40,"velocity":98},{"start":40433,"end":40484,"pitch":40,"velocity":83},{"start":40479,"end":40612,"pitch":52,"velocity":39},{"start":40484,"end":40541,"pitch":40,"velocity":88},{"start":40541,"end":40730,"pitch":40,"velocity":66},{"start":40694,"end":40771,"pitch":52,"velocity":52},{"start":40730,"end":41026,"pitch":40,"velocity":96},{"start":40970,"end":41011,"pitch":52,"velocity":49},{"start":40995,"end":41036,"pitch":35,"velocity":51},{"start":41026,"end":41072,"pitch":40,"velocity":44},{"start":41036,"end":41103,"pitch":35,"velocity":83},{"start":41036,"end":41077,"pitch":54,"velocity":40},{"start":41072,"end":41164,"pitch":40,"velocity":45},{"start":41103,"end":41180,"pitch":35,"velocity":61},{"start":41159,"end":41226,"pitch":52,"velocity":42},{"start":41164,"end":41261,"pitch":40,"velocity":75},{"start":41287,"end":41476,"pitch":53,"velocity":41},{"start":41292,"end":41496,"pitch":41,"velocity":80},{"start":41338,"end":41389,"pitch":29,"velocity":49},{"start":41573,"end":41885,"pitch":41,"velocity":96},{"start":41588,"end":41655,"pitch":53,"velocity":41},{"start":41885,"end":41936,"pitch":41,"velocity":71},{"start":42044,"end":42090,"pitch":36,"velocity":84},{"start":42044,"end":42100,"pitch":48,"velocity":33},{"start":42090,"end":42182,"pitch":36,"velocity":96},{"start":42182,"end":42233,"pitch":36,"velocity":61},{"start":42207,"end":42401,"pitch":41,"velocity":101},{"start":42207,"end":42355,"pitch":53,"velocity":39},{"start":42401,"end":42503,"pitch":41,"velocity":43},{"start":42503,"end":42856,"pitch":41,"velocity":93},{"start":42503,"end":42590,"pitch":53,"velocity":49},{"start":42825,"end":42867,"pitch":36,"velocity":44},{"start":42856,"end":42918,"pitch":41,"velocity":59},{"start":42867,"end":42974,"pitch":36,"velocity":85},{"start":42974,"end":43025,"pitch":36,"velocity":56},{"start":43005,"end":43122,"pitch":53,"velocity":48},{"start":43010,"end":43071,"pitch":41,"velocity":90},{"start":43071,"end":43122,"pitch":41,"velocity":84},{"start":43122,"end":43408,"pitch":41,"velocity":73},{"start":43122,"end":43168,"pitch":53,"velocity":48},{"start":43408,"end":43776,"pitch":41,"velocity":93},{"start":43408,"end":43464,"pitch":53,"velocity":42},{"start":43592,"end":43643,"pitch":53,"velocity":42},{"start":43731,"end":43782,"pitch":36,"velocity":43},{"start":43776,"end":43822,"pitch":41,"velocity":49},{"start":43776,"end":43863,"pitch":48,"velocity":36},{"start":43782,"end":43884,"pitch":36,"velocity":97},{"start":43884,"end":44001,"pitch":36,"velocity":71},{"start":44037,"end":44155,"pitch":41,"velocity":78},{"start":44037,"end":44190,"pitch":53,"velocity":41},{"start":44068,"end":44155,"pitch":29,"velocity":48},{"start":44155,"end":44333,"pitch":29,"velocity":70},{"start":44155,"end":44246,"pitch":41,"velocity":51},{"start":44246,"end":44323,"pitch":41,"velocity":84},{"start":44246,"end":44292,"pitch":53,"velocity":40},{"start":44323,"end":44384,"pitch":41,"velocity":88},{"start":44328,"end":44497,"pitch":53,"velocity":42},{"start":44384,"end":44425,"pitch":41,"velocity":87},{"start":44425,"end":44497,"pitch":41,"velocity":75},{"start":44497,"end":44548,"pitch":41,"velocity":88},{"start":44548,"end":44600,"pitch":41,"velocity":68},{"start":44697,"end":44778,"pitch":41,"velocity":89},{"start":44778,"end":44850,"pitch":41,"velocity":76},{"start":44824,"end":44952,"pitch":29,"velocity":49},{"start":44850,"end":44988,"pitch":41,"velocity":79},{"start":45918,"end":45964,"pitch":34,"velocity":46},{"start":46036,"end":46107,"pitch":53,"velocity":37},{"start":46782,"end":46864,"pitch":36,"velocity":98},{"start":46864,"end":47390,"pitch":36,"velocity":112},{"start":46976,"end":47355,"pitch":64,"velocity":43},{"start":47063,"end":47406,"pitch":60,"velocity":47},{"start":47390,"end":47441,"pitch":36,"velocity":65},{"start":47544,"end":47743,"pitch":31,"velocity":76},{"start":47544,"end":47646,"pitch":43,"velocity":50},{"start":47676,"end":47763,"pitch":36,"velocity":82},{"start":47682,"end":47743,"pitch":48,"velocity":35},{"start":47763,"end":47835,"pitch":36,"velocity":112},{"start":47835,"end":47968,"pitch":36,"velocity":112},{"start":47865,"end":47911,"pitch":60,"velocity":42},{"start":47968,"end":48009,"pitch":36,"velocity":114},{"start":47973,"end":48070,"pitch":60,"velocity":43},{"start":48009,"end":48244,"pitch":36,"velocity":108},{"start":48244,"end":48300,"pitch":36,"velocity":99},{"start":48300,"end":48341,"pitch":36,"velocity":65},{"start":48459,"end":48566,"pitch":43,"velocity":46},{"start":48464,"end":48632,"pitch":31,"velocity":72},{"start":48627,"end":48683,"pitch":47,"velocity":42},{"start":48643,"end":49287,"pitch":35,"velocity":98},{"start":48893,"end":48939,"pitch":59,"velocity":41},{"start":48944,"end":49001,"pitch":59,"velocity":45},{"start":49067,"end":49231,"pitch":59,"velocity":56},{"start":49287,"end":49333,"pitch":35,"velocity":90},{"start":49333,"end":49435,"pitch":35,"velocity":76},{"start":49404,"end":49486,"pitch":43,"velocity":42},{"start":49414,"end":49512,"pitch":31,"velocity":66},{"start":49532,"end":50207,"pitch":35,"velocity":97},{"start":49552,"end":49603,"pitch":47,"velocity":44},{"start":49792,"end":50146,"pitch":59,"velocity":50},{"start":50207,"end":50258,"pitch":35,"velocity":93},{"start":50207,"end":50299,"pitch":47,"velocity":48},{"start":50258,"end":50360,"pitch":35,"velocity":79},{"start":50304,"end":50406,"pitch":31,"velocity":71},{"start":50309,"end":50360,"pitch":43,"velocity":35},{"start":50442,"end":50518,"pitch":29,"velocity":76},{"start":50518,"end":50723,"pitch":29,"velocity":96},{"start":50723,"end":50938,"pitch":29,"velocity":100},{"start":50938,"end":51142,"pitch":29,"velocity":77},{"start":50943,"end":51096,"pitch":41,"velocity":68},{"start":51142,"end":51255,"pitch":29,"velocity":62},{"start":51249,"end":51321,"pitch":40,"velocity":36},{"start":51249,"end":51301,"pitch":56,"velocity":35},{"start":51316,"end":51367,"pitch":29,"velocity":61},{"start":51372,"end":51649,"pitch":29,"velocity":101},{"start":51372,"end":51444,"pitch":41,"velocity":34},{"start":51649,"end":52016,"pitch":29,"velocity":98},{"start":51935,"end":51996,"pitch":41,"velocity":48},{"start":52016,"end":52139,"pitch":29,"velocity":60},{"start":52164,"end":52236,"pitch":28,"velocity":62},{"start":52272,"end":52962,"pitch":29,"velocity":95},{"start":52277,"end":52364,"pitch":53,"velocity":38},{"start":52333,"end":52389,"pitch":41,"velocity":39},{"start":52615,"end":52870,"pitch":41,"velocity":53},{"start":52875,"end":52967,"pitch":41,"velocity":68},{"start":52962,"end":53079,"pitch":29,"velocity":49},{"start":52972,"end":53033,"pitch":41,"velocity":37},{"start":53110,"end":53171,"pitch":28,"velocity":68},{"start":53171,"end":53212,"pitch":29,"velocity":57},{"start":53212,"end":53330,"pitch":29,"velocity":84},{"start":53330,"end":53524,"pitch":29,"velocity":75},{"start":53524,"end":53647,"pitch":29,"velocity":90},{"start":53647,"end":53775,"pitch":29,"velocity":77},{"start":53759,"end":53836,"pitch":41,"velocity":43},{"start":53775,"end":53887,"pitch":29,"velocity":76},{"start":53872,"end":53918,"pitch":41,"velocity":38},{"start":53887,"end":53954,"pitch":29,"velocity":68},{"start":53999,"end":54091,"pitch":43,"velocity":41},{"start":54005,"end":54127,"pitch":31,"velocity":81},{"start":54107,"end":54163,"pitch":36,"velocity":44},{"start":54143,"end":54183,"pitch":60,"velocity":48},{"start":54163,"end":54756,"pitch":36,"velocity":107},{"start":54163,"end":54240,"pitch":48,"velocity":49},{"start":54470,"end":54679,"pitch":60,"velocity":40},{"start":54542,"end":54649,"pitch":64,"velocity":41},{"start":54741,"end":54792,"pitch":31,"velocity":41},{"start":54863,"end":55068,"pitch":31,"velocity":74},{"start":54874,"end":54960,"pitch":43,"velocity":39},{"start":55022,"end":55073,"pitch":43,"velocity":32},{"start":55027,"end":55548,"pitch":36,"velocity":108},{"start":55032,"end":55140,"pitch":48,"velocity":52},{"start":55548,"end":55686,"pitch":36,"velocity":91},{"start":55686,"end":55727,"pitch":36,"velocity":71},{"start":55727,"end":55778,"pitch":36,"velocity":53},{"start":55829,"end":55932,"pitch":33,"velocity":77},{"start":55942,"end":55993,"pitch":35,"velocity":75},{"start":55999,"end":56274,"pitch":35,"velocity":111},{"start":56274,"end":56658,"pitch":35,"velocity":103},{"start":56658,"end":56719,"pitch":35,"velocity":96},{"start":56719,"end":56883,"pitch":35,"velocity":57},{"start":56755,"end":56873,"pitch":31,"velocity":65},{"start":56775,"end":56837,"pitch":43,"velocity":30},{"start":56883,"end":57348,"pitch":35,"velocity":100},{"start":56893,"end":56965,"pitch":47,"velocity":37},{"start":57348,"end":57578,"pitch":35,"velocity":89},{"start":57378,"end":57440,"pitch":63,"velocity":47},{"start":57475,"end":57516,"pitch":31,"velocity":52},{"start":57521,"end":57654,"pitch":31,"velocity":70},{"start":57542,"end":57654,"pitch":43,"velocity":46},{"start":57670,"end":57731,"pitch":56,"velocity":44},{"start":57675,"end":57767,"pitch":28,"velocity":64},{"start":57675,"end":57711,"pitch":52,"velocity":53},{"start":57803,"end":57844,"pitch":29,"velocity":88},{"start":57844,"end":58467,"pitch":29,"velocity":105},{"start":57844,"end":58038,"pitch":41,"velocity":47},{"start":58161,"end":58237,"pitch":41,"velocity":39},{"start":58467,"end":58611,"pitch":29,"velocity":67},{"start":58482,"end":58565,"pitch":41,"velocity":49},{"start":58600,"end":58672,"pitch":40,"velocity":52},{"start":58611,"end":58657,"pitch":28,"velocity":51},{"start":58611,"end":58657,"pitch":52,"velocity":50},{"start":58733,"end":59382,"pitch":29,"velocity":102},{"start":59167,"end":59346,"pitch":41,"velocity":45},{"start":59362,"end":59428,"pitch":42,"velocity":35},{"start":59428,"end":59469,"pitch":42,"velocity":55},{"start":59566,"end":59612,"pitch":36,"velocity":58},{"start":59618,"end":59658,"pitch":41,"velocity":72},{"start":59623,"end":59699,"pitch":53,"velocity":47},{"start":59658,"end":60344,"pitch":41,"velocity":95},{"start":59970,"end":60021,"pitch":53,"velocity":46},{"start":60118,"end":60313,"pitch":53,"velocity":49},{"start":60323,"end":60435,"pitch":36,"velocity":40},{"start":60435,"end":60558,"pitch":36,"velocity":101},{"start":60441,"end":60522,"pitch":48,"velocity":40},{"start":60558,"end":60619,"pitch":36,"velocity":60},{"start":60568,"end":60635,"pitch":41,"velocity":95},{"start":60573,"end":60655,"pitch":53,"velocity":49},{"start":60635,"end":60681,"pitch":41,"velocity":83},{"start":60681,"end":60885,"pitch":41,"velocity":75},{"start":60813,"end":60859,"pitch":36,"velocity":59},{"start":60885,"end":60997,"pitch":41,"velocity":83},{"start":60885,"end":60951,"pitch":53,"velocity":52},{"start":61013,"end":61074,"pitch":55,"velocity":42},{"start":61043,"end":61105,"pitch":43,"velocity":76},{"start":61130,"end":61264,"pitch":41,"velocity":88},{"start":61130,"end":61223,"pitch":53,"velocity":47},{"start":61223,"end":61274,"pitch":38,"velocity":54},{"start":61248,"end":61299,"pitch":50,"velocity":53},{"start":61274,"end":61330,"pitch":38,"velocity":69},{"start":61356,"end":61468,"pitch":41,"velocity":84},{"start":61356,"end":61442,"pitch":53,"velocity":52},{"start":61473,"end":61529,"pitch":48,"velocity":36},{"start":61478,"end":61524,"pitch":36,"velocity":96},{"start":61524,"end":61698,"pitch":36,"velocity":101},{"start":61698,"end":61754,"pitch":37,"velocity":47},{"start":61810,"end":61851,"pitch":36,"velocity":99},{"start":61851,"end":62066,"pitch":36,"velocity":105},{"start":62066,"end":62163,"pitch":36,"velocity":78},{"start":62163,"end":62214,"pitch":36,"velocity":90},{"start":62214,"end":62260,"pitch":36,"velocity":69},{"start":62260,"end":62342,"pitch":28,"velocity":62},{"start":62378,"end":62419,"pitch":48,"velocity":33},{"start":62383,"end":62460,"pitch":36,"velocity":91},{"start":62460,"end":62500,"pitch":36,"velocity":78},{"start":62500,"end":62710,"pitch":36,"velocity":69},{"start":62506,"end":62567,"pitch":48,"velocity":44},{"start":62710,"end":62817,"pitch":36,"velocity":76},{"start":62838,"end":62914,"pitch":38,"velocity":72},{"start":62838,"end":62909,"pitch":50,"velocity":55},{"start":62935,"end":63022,"pitch":36,"velocity":93},{"start":62935,"end":62976,"pitch":48,"velocity":36},{"start":63022,"end":63088,"pitch":36,"velocity":84},{"start":63068,"end":63119,"pitch":48,"velocity":48},{"start":63088,"end":63155,"pitch":36,"velocity":72},{"start":63211,"end":63272,"pitch":50,"velocity":61},{"start":63216,"end":63277,"pitch":38,"velocity":72},{"start":63303,"end":63385,"pitch":52,"velocity":43},{"start":63308,"end":63518,"pitch":40,"velocity":101},{"start":63518,"end":63645,"pitch":40,"velocity":51},{"start":63645,"end":63983,"pitch":40,"velocity":97},{"start":63645,"end":63701,"pitch":52,"velocity":39},{"start":63983,"end":64034,"pitch":40,"velocity":58},{"start":64080,"end":64136,"pitch":35,"velocity":88},{"start":64085,"end":64167,"pitch":47,"velocity":45},{"start":64085,"end":64136,"pitch":54,"velocity":41},{"start":64136,"end":64243,"pitch":35,"velocity":81},{"start":64182,"end":64228,"pitch":40,"velocity":45},{"start":64218,"end":64259,"pitch":52,"velocity":42},{"start":64228,"end":64279,"pitch":40,"velocity":87},{"start":64259,"end":64310,"pitch":52,"velocity":51},{"start":64279,"end":64346,"pitch":40,"velocity":90},{"start":64346,"end":64565,"pitch":40,"velocity":72},{"start":64565,"end":64622,"pitch":40,"velocity":90},{"start":64565,"end":64616,"pitch":52,"velocity":40},{"start":64622,"end":64683,"pitch":40,"velocity":91},{"start":64683,"end":64760,"pitch":40,"velocity":63},{"start":64796,"end":64923,"pitch":35,"velocity":81},{"start":64796,"end":64872,"pitch":47,"velocity":43},{"start":64796,"end":64883,"pitch":54,"velocity":36},{"start":64883,"end":64929,"pitch":40,"velocity":49},{"start":64918,"end":64980,"pitch":52,"velocity":46},{"start":64929,"end":64990,"pitch":40,"velocity":98},{"start":64990,"end":65051,"pitch":40,"velocity":100},{"start":65051,"end":65123,"pitch":40,"velocity":76},{"start":65169,"end":65485,"pitch":41,"velocity":74},{"start":65480,"end":65557,"pitch":53,"velocity":49},{"start":65485,"end":65644,"pitch":41,"velocity":94},{"start":65644,"end":65879,"pitch":41,"velocity":84},{"start":65675,"end":65731,"pitch":29,"velocity":47},{"start":65777,"end":65823,"pitch":53,"velocity":45},{"start":65828,"end":65895,"pitch":48,"velocity":32},{"start":65833,"end":65874,"pitch":36,"velocity":89},{"start":65874,"end":65941,"pitch":36,"velocity":77},{"start":65915,"end":65956,"pitch":33,"velocity":26},{"start":65956,"end":65997,"pitch":33,"velocity":69},{"start":65997,"end":66058,"pitch":33,"velocity":67},{"start":66089,"end":66191,"pitch":41,"velocity":90},{"start":66191,"end":66252,"pitch":41,"velocity":91},{"start":66191,"end":66262,"pitch":53,"velocity":38},{"start":66252,"end":66426,"pitch":41,"velocity":62},{"start":66314,"end":66395,"pitch":28,"velocity":45},{"start":66426,"end":66544,"pitch":41,"velocity":94},{"start":66544,"end":66753,"pitch":41,"velocity":86},{"start":66626,"end":66718,"pitch":29,"velocity":53},{"start":66631,"end":66672,"pitch":53,"velocity":39},{"start":66753,"end":66799,"pitch":41,"velocity":55},{"start":66861,"end":66907,"pitch":36,"velocity":95},{"start":66907,"end":66978,"pitch":36,"velocity":94},{"start":66978,"end":67039,"pitch":36,"velocity":60},{"start":66983,"end":67024,"pitch":41,"velocity":91},{"start":66983,"end":67034,"pitch":53,"velocity":37},{"start":67024,"end":67111,"pitch":41,"velocity":88},{"start":67101,"end":67152,"pitch":53,"velocity":46},{"start":67111,"end":67188,"pitch":41,"velocity":93},{"start":67188,"end":67311,"pitch":41,"velocity":66},{"start":67213,"end":67290,"pitch":36,"velocity":50},{"start":67311,"end":67541,"pitch":41,"velocity":69},{"start":67311,"end":67382,"pitch":53,"velocity":50},{"start":67464,"end":67515,"pitch":48,"velocity":54},{"start":67536,"end":67597,"pitch":53,"velocity":53},{"start":67541,"end":67745,"pitch":41,"velocity":71},{"start":67745,"end":67847,"pitch":48,"velocity":36},{"start":67760,"end":67847,"pitch":36,"velocity":100},{"start":67847,"end":67934,"pitch":36,"velocity":62},{"start":67847,"end":67888,"pitch":41,"velocity":43},{"start":67888,"end":67929,"pitch":41,"velocity":86},{"start":67888,"end":68087,"pitch":53,"velocity":41},{"start":67929,"end":68216,"pitch":41,"velocity":81},{"start":68216,"end":68262,"pitch":41,"velocity":90},{"start":68221,"end":68282,"pitch":53,"velocity":42},{"start":68262,"end":68343,"pitch":41,"velocity":82},{"start":68333,"end":68379,"pitch":43,"velocity":39},{"start":68374,"end":68420,"pitch":55,"velocity":40},{"start":68379,"end":68451,"pitch":43,"velocity":74},{"start":68466,"end":68512,"pitch":53,"velocity":40},{"start":68471,"end":68609,"pitch":41,"velocity":86},{"start":68578,"end":68624,"pitch":38,"velocity":51},{"start":68604,"end":68660,"pitch":50,"velocity":45},{"start":68624,"end":68680,"pitch":38,"velocity":64},{"start":68701,"end":68767,"pitch":41,"velocity":88},{"start":68706,"end":68772,"pitch":53,"velocity":53},{"start":68767,"end":68818,"pitch":41,"velocity":71},{"start":68844,"end":68961,"pitch":48,"velocity":45},{"start":68849,"end":69718,"pitch":36,"velocity":108},{"start":69713,"end":69830,"pitch":48,"velocity":44},{"start":69718,"end":69927,"pitch":36,"velocity":108},{"start":69927,"end":69969,"pitch":36,"velocity":106},{"start":69969,"end":70015,"pitch":36,"velocity":101},{"start":70015,"end":70112,"pitch":36,"velocity":69},{"start":70071,"end":70378,"pitch":28,"velocity":63},{"start":70234,"end":70403,"pitch":50,"velocity":86},{"start":70423,"end":70556,"pitch":48,"velocity":87},{"start":70541,"end":71819,"pitch":28,"velocity":76},{"start":70556,"end":70664,"pitch":47,"velocity":68},{"start":70664,"end":70761,"pitch":47,"velocity":87},{"start":70664,"end":70745,"pitch":59,"velocity":42},{"start":70761,"end":71287,"pitch":47,"velocity":64},{"start":71063,"end":71441,"pitch":52,"velocity":49},{"start":71323,"end":71558,"pitch":40,"velocity":44},{"start":72049,"end":72121,"pitch":47,"velocity":89},{"start":72121,"end":72248,"pitch":48,"velocity":94},{"start":72248,"end":72361,"pitch":47,"velocity":86},{"start":72350,"end":72488,"pitch":43,"velocity":86},{"start":72488,"end":73853,"pitch":41,"velocity":89},{"start":72566,"end":72867,"pitch":29,"velocity":46},{"start":72765,"end":72862,"pitch":53,"velocity":48},{"start":72928,"end":73710,"pitch":53,"velocity":55},{"start":73716,"end":73853,"pitch":53,"velocity":67},{"start":73853,"end":73905,"pitch":41,"velocity":94},{"start":73859,"end":73925,"pitch":53,"velocity":43},{"start":73905,"end":74119,"pitch":41,"velocity":101},{"start":73991,"end":74078,"pitch":53,"velocity":54},{"start":74099,"end":74155,"pitch":53,"velocity":46},{"start":74119,"end":74186,"pitch":41,"velocity":84},{"start":74186,"end":74298,"pitch":41,"velocity":77},{"start":74186,"end":74298,"pitch":53,"velocity":55},{"start":74298,"end":74380,"pitch":41,"velocity":69},{"start":74298,"end":74355,"pitch":53,"velocity":50},{"start":74355,"end":74436,"pitch":53,"velocity":62},{"start":74380,"end":74615,"pitch":41,"velocity":86},{"start":74436,"end":74758,"pitch":53,"velocity":51},{"start":74615,"end":74983,"pitch":41,"velocity":88},{"start":74835,"end":74891,"pitch":53,"velocity":45},{"start":74983,"end":75044,"pitch":41,"velocity":87},{"start":75044,"end":75254,"pitch":41,"velocity":76},{"start":75254,"end":75643,"pitch":41,"velocity":95},{"start":75259,"end":75336,"pitch":53,"velocity":45},{"start":75520,"end":75607,"pitch":53,"velocity":47},{"start":75643,"end":75893,"pitch":41,"velocity":84},{"start":75811,"end":75852,"pitch":29,"velocity":44},{"start":75852,"end":75959,"pitch":53,"velocity":56},{"start":75893,"end":75985,"pitch":41,"velocity":94},{"start":75985,"end":76134,"pitch":41,"velocity":91},{"start":76174,"end":76266,"pitch":36,"velocity":75},{"start":76174,"end":76220,"pitch":48,"velocity":44},{"start":76266,"end":76404,"pitch":36,"velocity":79},{"start":76266,"end":76374,"pitch":48,"velocity":48},{"start":76491,"end":76547,"pitch":48,"velocity":35},{"start":76496,"end":76624,"pitch":36,"velocity":98},{"start":76624,"end":76726,"pitch":36,"velocity":83},{"start":76721,"end":76813,"pitch":28,"velocity":59},{"start":76921,"end":76962,"pitch":36,"velocity":36},{"start":76951,"end":77008,"pitch":48,"velocity":37},{"start":76962,"end":77069,"pitch":36,"velocity":81},{"start":77069,"end":77192,"pitch":36,"velocity":97},{"start":77192,"end":77406,"pitch":36,"velocity":79},{"start":77406,"end":77524,"pitch":36,"velocity":95},{"start":77524,"end":77570,"pitch":36,"velocity":93},{"start":77570,"end":77631,"pitch":36,"velocity":71},{"start":77616,"end":77682,"pitch":28,"velocity":44},{"start":77779,"end":77815,"pitch":36,"velocity":52},{"start":77831,"end":77928,"pitch":38,"velocity":100},{"start":77841,"end":77892,"pitch":50,"velocity":38},{"start":77928,"end":77984,"pitch":38,"velocity":78},{"start":77969,"end":78015,"pitch":40,"velocity":47},{"start":78004,"end":78086,"pitch":52,"velocity":51},{"start":78015,"end":78106,"pitch":40,"velocity":72},{"start":78035,"end":78112,"pitch":28,"velocity":44},{"start":78101,"end":78239,"pitch":52,"velocity":39},{"start":78106,"end":78285,"pitch":40,"velocity":65},{"start":78117,"end":78413,"pitch":28,"velocity":65},{"start":78352,"end":78418,"pitch":40,"velocity":66},{"start":78418,"end":78490,"pitch":40,"velocity":45},{"start":78536,"end":78628,"pitch":35,"velocity":89},{"start":78551,"end":78617,"pitch":47,"velocity":36},{"start":78628,"end":78668,"pitch":35,"velocity":86},{"start":78668,"end":78710,"pitch":35,"velocity":53},{"start":78669,"end":78735,"pitch":40,"velocity":83},{"start":78669,"end":78730,"pitch":52,"velocity":40},{"start":78735,"end":78776,"pitch":40,"velocity":68},{"start":78776,"end":78817,"pitch":33,"velocity":72},{"start":78812,"end":78858,"pitch":57,"velocity":42},{"start":78817,"end":78884,"pitch":33,"velocity":67},{"start":78965,"end":79021,"pitch":40,"velocity":76},{"start":78965,"end":79021,"pitch":52,"velocity":35},{"start":79021,"end":79231,"pitch":28,"velocity":65},{"start":79021,"end":79159,"pitch":40,"velocity":88},{"start":79021,"end":79088,"pitch":52,"velocity":47},{"start":79159,"end":79246,"pitch":40,"velocity":55},{"start":79231,"end":79338,"pitch":28,"velocity":48},{"start":79246,"end":79364,"pitch":40,"velocity":89},{"start":79364,"end":79420,"pitch":40,"velocity":61},{"start":79466,"end":79542,"pitch":35,"velocity":90},{"start":79471,"end":79548,"pitch":47,"velocity":44},{"start":79542,"end":79599,"pitch":35,"velocity":73},{"start":79594,"end":79655,"pitch":40,"velocity":54},{"start":79594,"end":79655,"pitch":52,"velocity":45},{"start":79696,"end":79753,"pitch":38,"velocity":53},{"start":79701,"end":79742,"pitch":50,"velocity":43},{"start":79834,"end":79936,"pitch":41,"velocity":87},{"start":79936,"end":80074,"pitch":41,"velocity":94},{"start":80074,"end":80171,"pitch":41,"velocity":49},{"start":80171,"end":80212,"pitch":41,"velocity":96},{"start":80171,"end":80238,"pitch":53,"velocity":44},{"start":80212,"end":80279,"pitch":41,"velocity":96},{"start":80279,"end":80504,"pitch":36,"velocity":82},{"start":80279,"end":80340,"pitch":41,"velocity":54},{"start":80535,"end":80596,"pitch":41,"velocity":63},{"start":80616,"end":80734,"pitch":33,"velocity":68},{"start":80627,"end":80708,"pitch":61,"velocity":33},{"start":80765,"end":80805,"pitch":41,"velocity":43},{"start":80805,"end":80872,"pitch":41,"velocity":81},{"start":80862,"end":80902,"pitch":53,"velocity":37},{"start":80872,"end":81122,"pitch":41,"velocity":82},{"start":81091,"end":81173,"pitch":53,"velocity":44},{"start":81117,"end":81163,"pitch":29,"velocity":42},{"start":81122,"end":81214,"pitch":41,"velocity":76},{"start":81189,"end":81245,"pitch":36,"velocity":88},{"start":81245,"end":81317,"pitch":36,"velocity":98},{"start":81317,"end":81358,"pitch":36,"velocity":65},{"start":81322,"end":81368,"pitch":41,"velocity":76},{"start":81353,"end":81409,"pitch":53,"velocity":54},{"start":81373,"end":81490,"pitch":41,"velocity":99},{"start":81490,"end":81542,"pitch":41,"velocity":76},{"start":81552,"end":81608,"pitch":33,"velocity":50},{"start":81674,"end":81725,"pitch":40,"velocity":40},{"start":81725,"end":81787,"pitch":41,"velocity":73},{"start":81787,"end":81869,"pitch":41,"velocity":93},{"start":81869,"end":82037,"pitch":41,"velocity":65},{"start":81904,"end":81981,"pitch":28,"velocity":55},{"start":82001,"end":82068,"pitch":53,"velocity":45},{"start":82037,"end":82160,"pitch":41,"velocity":75},{"start":82176,"end":82257,"pitch":36,"velocity":65},{"start":82257,"end":82303,"pitch":36,"velocity":100},{"start":82303,"end":82375,"pitch":36,"velocity":71},{"start":82349,"end":82421,"pitch":41,"velocity":53},{"start":82610,"end":82671,"pitch":41,"velocity":89},{"start":82671,"end":82738,"pitch":41,"velocity":81},{"start":82697,"end":82783,"pitch":53,"velocity":40},{"start":82738,"end":82911,"pitch":41,"velocity":62},{"start":82911,"end":83131,"pitch":41,"velocity":73},{"start":82916,"end":82972,"pitch":53,"velocity":45},{"start":82937,"end":82988,"pitch":29,"velocity":49},{"start":83131,"end":83203,"pitch":41,"velocity":73},{"start":83203,"end":83244,"pitch":41,"velocity":57},{"start":83239,"end":83300,"pitch":43,"velocity":61},{"start":83300,"end":83341,"pitch":43,"velocity":56},{"start":83310,"end":83351,"pitch":41,"velocity":31},{"start":83351,"end":83469,"pitch":41,"velocity":68},{"start":83372,"end":83417,"pitch":29,"velocity":46},{"start":83443,"end":83484,"pitch":36,"velocity":52},{"start":83484,"end":83601,"pitch":36,"velocity":94},{"start":83601,"end":83729,"pitch":36,"velocity":98},{"start":83729,"end":83821,"pitch":36,"velocity":58},{"start":83821,"end":83908,"pitch":36,"velocity":98},{"start":83908,"end":83990,"pitch":36,"velocity":110},{"start":83990,"end":84108,"pitch":36,"velocity":98},{"start":84108,"end":84174,"pitch":36,"velocity":71},{"start":84174,"end":84215,"pitch":36,"velocity":84},{"start":84179,"end":84240,"pitch":48,"velocity":39},{"start":84215,"end":84297,"pitch":36,"velocity":81},{"start":84435,"end":84547,"pitch":36,"velocity":86},{"start":84547,"end":84756,"pitch":36,"velocity":73},{"start":84756,"end":84946,"pitch":36,"velocity":84},{"start":84762,"end":84829,"pitch":48,"velocity":51},{"start":85002,"end":85043,"pitch":28,"velocity":46},{"start":85140,"end":85181,"pitch":48,"velocity":42},{"start":85166,"end":85217,"pitch":36,"velocity":64},{"start":85232,"end":85299,"pitch":38,"velocity":103},{"start":85299,"end":85339,"pitch":38,"velocity":68},{"start":85350,"end":85503,"pitch":52,"velocity":41},{"start":85365,"end":85498,"pitch":40,"velocity":87},{"start":85436,"end":85477,"pitch":28,"velocity":52},{"start":85482,"end":85641,"pitch":28,"velocity":62},{"start":85498,"end":85636,"pitch":40,"velocity":76},{"start":85636,"end":85672,"pitch":40,"velocity":60},{"start":85667,"end":85733,"pitch":52,"velocity":50},{"start":85672,"end":85738,"pitch":40,"velocity":93},{"start":85738,"end":85784,"pitch":40,"velocity":82},{"start":85784,"end":85825,"pitch":40,"velocity":54},{"start":85892,"end":85953,"pitch":35,"velocity":93},{"start":85897,"end":85984,"pitch":47,"velocity":36},{"start":85953,"end":86060,"pitch":35,"velocity":80},{"start":86004,"end":86055,"pitch":40,"velocity":48},{"start":86055,"end":86101,"pitch":40,"velocity":69},{"start":86111,"end":86157,"pitch":38,"velocity":76},{"start":86132,"end":86219,"pitch":50,"velocity":48},{"start":86162,"end":86244,"pitch":38,"velocity":83},{"start":86234,"end":86280,"pitch":40,"velocity":76},{"start":86249,"end":86316,"pitch":52,"velocity":42},{"start":86285,"end":86346,"pitch":40,"velocity":91},{"start":86346,"end":86397,"pitch":40,"velocity":89},{"start":86382,"end":86438,"pitch":52,"velocity":41},{"start":86397,"end":86592,"pitch":40,"velocity":72},{"start":86592,"end":86827,"pitch":40,"velocity":75},{"start":86592,"end":86689,"pitch":52,"velocity":45},{"start":86715,"end":86776,"pitch":35,"velocity":76},{"start":86725,"end":86796,"pitch":54,"velocity":37},{"start":86776,"end":86842,"pitch":35,"velocity":60},{"start":86827,"end":86873,"pitch":40,"velocity":79},{"start":86827,"end":86899,"pitch":52,"velocity":41},{"start":86873,"end":86934,"pitch":40,"velocity":69},{"start":86929,"end":86970,"pitch":38,"velocity":39},{"start":86970,"end":87026,"pitch":38,"velocity":67},{"start":87011,"end":87062,"pitch":40,"velocity":40},{"start":87062,"end":87134,"pitch":40,"velocity":80},{"start":87134,"end":87241,"pitch":41,"velocity":88},{"start":87231,"end":87384,"pitch":29,"velocity":57},{"start":87241,"end":87312,"pitch":41,"velocity":71},{"start":87312,"end":87369,"pitch":41,"velocity":68},{"start":87369,"end":87430,"pitch":41,"velocity":66},{"start":87446,"end":87522,"pitch":28,"velocity":58},{"start":87487,"end":87527,"pitch":41,"velocity":44},{"start":87517,"end":87573,"pitch":53,"velocity":32},{"start":87527,"end":87609,"pitch":41,"velocity":64},{"start":87538,"end":87614,"pitch":29,"velocity":54},{"start":87619,"end":87788,"pitch":36,"velocity":78},{"start":87757,"end":87808,"pitch":41,"velocity":90},{"start":87757,"end":87798,"pitch":53,"velocity":39},{"start":87808,"end":87875,"pitch":41,"velocity":81},{"start":87875,"end":87946,"pitch":41,"velocity":88},{"start":87946,"end":87992,"pitch":40,"velocity":56},{"start":87992,"end":88079,"pitch":40,"velocity":58},{"start":87997,"end":88054,"pitch":52,"velocity":49},{"start":88013,"end":88074,"pitch":28,"velocity":49},{"start":88079,"end":88120,"pitch":53,"velocity":44},{"start":88089,"end":88146,"pitch":41,"velocity":73},{"start":88120,"end":88192,"pitch":53,"velocity":41},{"start":88146,"end":88227,"pitch":41,"velocity":82},{"start":88227,"end":88386,"pitch":41,"velocity":93},{"start":88227,"end":88310,"pitch":53,"velocity":46},{"start":88386,"end":88432,"pitch":41,"velocity":64},{"start":88432,"end":88555,"pitch":41,"velocity":89},{"start":88555,"end":88621,"pitch":41,"velocity":87},{"start":88560,"end":88637,"pitch":53,"velocity":46},{"start":88616,"end":88657,"pitch":36,"velocity":56},{"start":88621,"end":88805,"pitch":41,"velocity":45},{"start":88657,"end":88810,"pitch":36,"velocity":81},{"start":88805,"end":88866,"pitch":41,"velocity":64},{"start":88882,"end":88969,"pitch":33,"velocity":61},{"start":89015,"end":89061,"pitch":41,"velocity":91},{"start":89061,"end":89137,"pitch":41,"velocity":93},{"start":89137,"end":89255,"pitch":41,"velocity":85},{"start":89245,"end":89296,"pitch":43,"velocity":84},{"start":89301,"end":89352,"pitch":43,"velocity":73},{"start":89373,"end":89470,"pitch":41,"velocity":80},{"start":89470,"end":89521,"pitch":41,"velocity":72},{"start":89470,"end":89546,"pitch":53,"velocity":49},{"start":89521,"end":89572,"pitch":41,"velocity":66},{"start":89582,"end":89633,"pitch":43,"velocity":92},{"start":89603,"end":89654,"pitch":55,"velocity":43},{"start":89633,"end":89679,"pitch":43,"velocity":101},{"start":89679,"end":89822,"pitch":43,"velocity":61},{"start":89679,"end":89730,"pitch":48,"velocity":44},{"start":89730,"end":89786,"pitch":48,"velocity":59},{"start":89786,"end":89827,"pitch":48,"velocity":55},{"start":89822,"end":89878,"pitch":43,"velocity":94},{"start":89822,"end":89878,"pitch":55,"velocity":43},{"start":89878,"end":89970,"pitch":43,"velocity":73},{"start":89945,"end":90048,"pitch":50,"velocity":80},{"start":90058,"end":90175,"pitch":48,"velocity":77},{"start":90175,"end":90303,"pitch":47,"velocity":77},{"start":90303,"end":90349,"pitch":48,"velocity":86},{"start":90349,"end":90431,"pitch":48,"velocity":64},{"start":90426,"end":90466,"pitch":33,"velocity":51},{"start":90446,"end":90497,"pitch":47,"velocity":49},{"start":90451,"end":90512,"pitch":59,"velocity":36},{"start":90558,"end":90625,"pitch":43,"velocity":89},{"start":90569,"end":90635,"pitch":55,"velocity":48},{"start":90625,"end":90686,"pitch":43,"velocity":74},{"start":90691,"end":90865,"pitch":41,"velocity":92},{"start":90707,"end":90758,"pitch":53,"velocity":48},{"start":90844,"end":90968,"pitch":38,"velocity":91},{"start":90844,"end":90917,"pitch":50,"velocity":42},{"start":90973,"end":94413,"pitch":36,"velocity":109},{"start":92511,"end":92572,"pitch":48,"velocity":38},{"start":93774,"end":93953,"pitch":48,"velocity":39}],"ppq":220,"tempo":120,"timeSig":{"num":4,"den":4},"view":{},"overrides":{}},{"id":"drums","instrument":"drums","kind":"drum","name":"Drums","events":[{"time_sec":15.859952063636364,"type":"crash","velocity":40},{"time_sec":15.989932645454545,"type":"crash","velocity":43},{"time_sec":22.18954218181818,"type":"crash","velocity":51},{"time_sec":26.769036609090907,"type":"crash","velocity":45},{"time_sec":27.530351445454546,"type":"crash","velocity":60},{"time_sec":28.5701961,"type":"crash","velocity":51},{"time_sec":29.61932508181818,"type":"crash","velocity":45},{"time_sec":30.659169736363634,"type":"crash","velocity":45},{"time_sec":30.9191309,"type":"crash","velocity":52},{"time_sec":31.060716890909088,"type":"crash","velocity":48},{"time_sec":31.17909206363636,"type":"crash","velocity":45},{"time_sec":36.930732809090905,"type":"hihat","velocity":52},{"time_sec":37.97057746363636,"type":"hihat","velocity":52},{"time_sec":39.019706445454545,"type":"hihat","velocity":52},{"time_sec":39.5489131,"type":"kick","velocity":105},{"time_sec":39.5489131,"type":"hihat","velocity":105},{"time_sec":39.80887426363636,"type":"kick","velocity":116},{"time_sec":39.80887426363636,"type":"snare","velocity":116},{"time_sec":39.80887426363636,"type":"hihat","velocity":116},{"time_sec":40.0595511,"type":"hihat","velocity":99},{"time_sec":40.331117672727274,"type":"snare","velocity":120},{"time_sec":40.331117672727274,"type":"hihat","velocity":120},{"time_sec":40.591078836363636,"type":"snare","velocity":127},{"time_sec":40.591078836363636,"type":"hihat","velocity":127},{"time_sec":40.85104,"type":"kick","velocity":127},{"time_sec":40.85104,"type":"snare","velocity":127},{"time_sec":40.85104,"type":"hihat","velocity":127},{"time_sec":41.11100116363636,"type":"snare","velocity":127},{"time_sec":41.11100116363636,"type":"hihat","velocity":127},{"time_sec":41.37096232727273,"type":"snare","velocity":127},{"time_sec":41.37096232727273,"type":"hihat","velocity":127},{"time_sec":41.63092349090909,"type":"snare","velocity":127},{"time_sec":41.89088465454545,"type":"snare","velocity":127},{"time_sec":42.150845818181814,"type":"snare","velocity":127},{"time_sec":42.150845818181814,"type":"hihat","velocity":127},{"time_sec":42.41080698181818,"type":"snare","velocity":127},{"time_sec":42.68005247272727,"type":"snare","velocity":127},{"time_sec":42.93072930909091,"type":"snare","velocity":127},{"time_sec":42.93072930909091,"type":"tom2","velocity":127},{"time_sec":43.19069047272727,"type":"snare","velocity":127},{"time_sec":43.19069047272727,"type":"hihat","velocity":127},{"time_sec":43.19069047272727,"type":"tom2","velocity":127},{"time_sec":43.45993596363636,"type":"snare","velocity":127},{"time_sec":43.45993596363636,"type":"tom2","velocity":127},{"time_sec":43.71989712727272,"type":"snare","velocity":127},{"time_sec":43.71989712727272,"type":"tom2","velocity":127},{"time_sec":43.97057396363636,"type":"snare","velocity":127},{"time_sec":43.97057396363636,"type":"tom2","velocity":127},{"time_sec":44.230535127272724,"type":"snare","velocity":127},{"time_sec":44.230535127272724,"type":"hihat","velocity":127},{"time_sec":44.230535127272724,"type":"tom2","velocity":127},{"time_sec":44.499780618181816,"type":"snare","velocity":127},{"time_sec":44.499780618181816,"type":"tom2","velocity":127},{"time_sec":44.75974178181818,"type":"snare","velocity":127},{"time_sec":44.75974178181818,"type":"tom2","velocity":127},{"time_sec":45.010418618181816,"type":"snare","velocity":127},{"time_sec":45.010418618181816,"type":"tom2","velocity":127},{"time_sec":45.27966410909091,"type":"snare","velocity":127},{"time_sec":45.27966410909091,"type":"tom2","velocity":127},{"time_sec":45.53962527272727,"type":"snare","velocity":127},{"time_sec":45.53962527272727,"type":"tom2","velocity":127},{"time_sec":45.79958643636363,"type":"snare","velocity":127},{"time_sec":45.79958643636363,"type":"tom2","velocity":127},{"time_sec":46.059547599999995,"type":"snare","velocity":127},{"time_sec":46.059547599999995,"type":"tom2","velocity":127},{"time_sec":46.319508763636364,"type":"snare","velocity":127},{"time_sec":46.319508763636364,"type":"tom2","velocity":127},{"time_sec":46.579469927272726,"type":"snare","velocity":127},{"time_sec":46.579469927272726,"type":"tom2","velocity":127},{"time_sec":46.83943109090909,"type":"snare","velocity":127},{"time_sec":46.83943109090909,"type":"tom2","velocity":127},{"time_sec":47.09939225454545,"type":"snare","velocity":127},{"time_sec":47.09939225454545,"type":"tom2","velocity":127},{"time_sec":47.35935341818182,"type":"snare","velocity":127},{"time_sec":47.35935341818182,"type":"tom2","velocity":127},{"time_sec":47.61931458181818,"type":"snare","velocity":127},{"time_sec":47.61931458181818,"type":"tom2","velocity":127},{"time_sec":47.87927574545454,"type":"kick","velocity":127},{"time_sec":47.87927574545454,"type":"snare","velocity":127},{"time_sec":47.87927574545454,"type":"tom2","velocity":127},{"time_sec":48.139236909090904,"type":"snare","velocity":127},{"time_sec":48.139236909090904,"type":"tom2","velocity":127},{"time_sec":48.41080348181818,"type":"kick","velocity":127},{"time_sec":48.41080348181818,"type":"snare","velocity":127},{"time_sec":48.41080348181818,"type":"tom2","velocity":127},{"time_sec":48.67076464545454,"type":"snare","velocity":127},{"time_sec":48.67076464545454,"type":"tom2","velocity":127},{"time_sec":48.93072580909091,"type":"kick","velocity":127},{"time_sec":48.93072580909091,"type":"snare","velocity":127},{"time_sec":48.93072580909091,"type":"tom2","velocity":127},{"time_sec":49.19068697272727,"type":"snare","velocity":127},{"time_sec":49.19068697272727,"type":"tom2","velocity":127},{"time_sec":49.45064813636363,"type":"kick","velocity":127},{"time_sec":49.45064813636363,"type":"snare","velocity":127},{"time_sec":49.45064813636363,"type":"tom2","velocity":127},{"time_sec":49.710609299999994,"type":"snare","velocity":127},{"time_sec":49.710609299999994,"type":"tom2","velocity":127},{"time_sec":49.97057046363636,"type":"kick","velocity":127},{"time_sec":49.97057046363636,"type":"snare","velocity":127},{"time_sec":49.97057046363636,"type":"tom2","velocity":127},{"time_sec":50.230531627272725,"type":"snare","velocity":127},{"time_sec":50.230531627272725,"type":"tom2","velocity":127},{"time_sec":50.49049279090909,"type":"kick","velocity":127},{"time_sec":50.49049279090909,"type":"snare","velocity":127},{"time_sec":50.49049279090909,"type":"tom2","velocity":127},{"time_sec":50.75045395454545,"type":"snare","velocity":127},{"time_sec":50.75045395454545,"type":"tom2","velocity":127},{"time_sec":51.01041511818182,"type":"snare","velocity":127},{"time_sec":51.01041511818182,"type":"tom2","velocity":127},{"time_sec":51.27037628181818,"type":"snare","velocity":127},{"time_sec":51.279660609090904,"type":"kick","velocity":127},{"time_sec":51.40964119090909,"type":"snare","velocity":127},{"time_sec":51.53962177272727,"type":"snare","velocity":127},{"time_sec":51.669602354545454,"type":"snare","velocity":127},{"time_sec":51.799582936363635,"type":"kick","velocity":127},{"time_sec":51.799582936363635,"type":"snare","velocity":127},{"time_sec":51.929563518181816,"type":"tom2","velocity":127},{"time_sec":52.0595441,"type":"kick","velocity":127},{"time_sec":52.0595441,"type":"hihat","velocity":127},{"time_sec":52.31950526363636,"type":"hihat","velocity":127},{"time_sec":52.57946642727273,"type":"snare","velocity":127},{"time_sec":52.57946642727273,"type":"hihat","velocity":127},{"time_sec":52.83942759090909,"type":"hihat","velocity":98},{"time_sec":53.09938875454545,"type":"hihat","velocity":95},{"time_sec":53.35934991818181,"type":"kick","velocity":127},{"time_sec":53.35934991818181,"type":"hihat","velocity":127},{"time_sec":53.61931108181818,"type":"snare","velocity":127},{"time_sec":53.61931108181818,"type":"hihat","velocity":127},{"time_sec":53.879272245454544,"type":"hihat","velocity":83},{"time_sec":54.139233409090906,"type":"kick","velocity":127},{"time_sec":54.15083881818182,"type":"hihat","velocity":127},{"time_sec":54.41079998181818,"type":"hihat","velocity":74},{"time_sec":54.65915573636364,"type":"snare","velocity":127},{"time_sec":54.65915573636364,"type":"hihat","velocity":127},{"time_sec":54.9307223090909,"type":"hihat","velocity":100},{"time_sec":55.19068347272727,"type":"hihat","velocity":62},{"time_sec":55.450644636363634,"type":"kick","velocity":127},{"time_sec":55.450644636363634,"type":"hihat","velocity":127},{"time_sec":55.710605799999996,"type":"snare","velocity":127},{"time_sec":55.710605799999996,"type":"hihat","velocity":127},{"time_sec":55.97056696363636,"type":"hihat","velocity":83},{"time_sec":56.23052812727273,"type":"kick","velocity":127},{"time_sec":56.23052812727273,"type":"hihat","velocity":127},{"time_sec":56.49048929090909,"type":"hihat","velocity":76},{"time_sec":56.75045045454545,"type":"snare","velocity":127},{"time_sec":56.75045045454545,"type":"hihat","velocity":127},{"time_sec":57.01041161818181,"type":"hihat","velocity":77},{"time_sec":57.27037278181818,"type":"hihat","velocity":78},{"time_sec":57.53961827272727,"type":"kick","velocity":127},{"time_sec":57.53961827272727,"type":"hihat","velocity":127},{"time_sec":57.790295109090906,"type":"snare","velocity":127},{"time_sec":57.790295109090906,"type":"hihat","velocity":127},{"time_sec":58.0595406,"type":"hihat","velocity":93},{"time_sec":58.31950176363636,"type":"kick","velocity":127},{"time_sec":58.31950176363636,"type":"hihat","velocity":127},{"time_sec":58.57946292727272,"type":"hihat","velocity":82},{"time_sec":58.83942409090909,"type":"snare","velocity":127},{"time_sec":58.83942409090909,"type":"hihat","velocity":127},{"time_sec":59.09938525454545,"type":"hihat","velocity":73},{"time_sec":59.38023615454545,"type":"hihat","velocity":50},{"time_sec":59.63091299090909,"type":"kick","velocity":127},{"time_sec":59.63091299090909,"type":"hihat","velocity":127},{"time_sec":59.879268745454546,"type":"snare","velocity":127},{"time_sec":59.879268745454546,"type":"hihat","velocity":127},{"time_sec":60.15083531818181,"type":"hihat","velocity":84},{"time_sec":60.41079648181818,"type":"kick","velocity":127},{"time_sec":60.41079648181818,"type":"hihat","velocity":127},{"time_sec":60.67075764545454,"type":"hihat","velocity":68},{"time_sec":60.9191134,"type":"snare","velocity":127},{"time_sec":60.9191134,"type":"hihat","velocity":127},{"time_sec":61.19067997272727,"type":"hihat","velocity":77},{"time_sec":61.450641136363636,"type":"hihat","velocity":82},{"time_sec":61.7106023,"type":"kick","velocity":127},{"time_sec":61.7106023,"type":"hihat","velocity":127},{"time_sec":61.97056346363636,"type":"snare","velocity":127},{"time_sec":61.97056346363636,"type":"hihat","velocity":127},{"time_sec":62.23052462727272,"type":"hihat","velocity":80},{"time_sec":62.49048579090909,"type":"kick","velocity":127},{"time_sec":62.49048579090909,"type":"hihat","velocity":127},{"time_sec":62.75044695454545,"type":"hihat","velocity":77},{"time_sec":63.010408118181815,"type":"snare","velocity":127},{"time_sec":63.010408118181815,"type":"hihat","velocity":127},{"time_sec":63.27965360909091,"type":"hihat","velocity":74},{"time_sec":63.53961477272727,"type":"hihat","velocity":58},{"time_sec":63.79957593636363,"type":"kick","velocity":127},{"time_sec":63.79957593636363,"type":"hihat","velocity":127},{"time_sec":64.05025277272728,"type":"snare","velocity":127},{"time_sec":64.05025277272728,"type":"hihat","velocity":127},{"time_sec":64.31949826363636,"type":"hihat","velocity":71},{"time_sec":64.57945942727272,"type":"kick","velocity":127},{"time_sec":64.57945942727272,"type":"hihat","velocity":127},{"time_sec":64.83942059090909,"type":"hihat","velocity":69},{"time_sec":65.09938175454545,"type":"snare","velocity":127},{"time_sec":65.09938175454545,"type":"hihat","velocity":127},{"time_sec":65.35934291818181,"type":"hihat","velocity":74},{"time_sec":65.61930408181819,"type":"hihat","velocity":73},{"time_sec":65.87926524545455,"type":"kick","velocity":127},{"time_sec":65.87926524545455,"type":"hihat","velocity":127},{"time_sec":66.13922640909091,"type":"snare","velocity":127},{"time_sec":66.13922640909091,"type":"hihat","velocity":127},{"time_sec":66.39918757272727,"type":"hihat","velocity":83},{"time_sec":66.67075414545454,"type":"kick","velocity":127},{"time_sec":66.67075414545454,"type":"hihat","velocity":127},{"time_sec":66.9191099,"type":"hihat","velocity":71},{"time_sec":67.17907106363636,"type":"snare","velocity":127},{"time_sec":67.17907106363636,"type":"hihat","velocity":127},{"time_sec":67.45063763636364,"type":"hihat","velocity":84},{"time_sec":67.7105988,"type":"kick","velocity":127},{"time_sec":67.7105988,"type":"hihat","velocity":127},{"time_sec":67.97055996363636,"type":"snare","velocity":127},{"time_sec":67.97055996363636,"type":"hihat","velocity":127},{"time_sec":68.23052112727272,"type":"kick","velocity":127},{"time_sec":68.49048229090909,"type":"snare","velocity":127},{"time_sec":68.49048229090909,"type":"hihat","velocity":127},{"time_sec":68.75972778181819,"type":"kick","velocity":127},{"time_sec":68.75972778181819,"type":"hihat","velocity":127},{"time_sec":69.01968894545455,"type":"hihat","velocity":77},{"time_sec":69.27036578181819,"type":"snare","velocity":127},{"time_sec":69.27036578181819,"type":"hihat","velocity":127},{"time_sec":69.53032694545455,"type":"hihat","velocity":82},{"time_sec":69.79028810909091,"type":"hihat","velocity":72},{"time_sec":70.0595336,"type":"kick","velocity":127},{"time_sec":70.0595336,"type":"hihat","velocity":127},{"time_sec":70.31021043636363,"type":"snare","velocity":127},{"time_sec":70.31021043636363,"type":"hihat","velocity":127},{"time_sec":70.57945592727272,"type":"hihat","velocity":87},{"time_sec":70.8394170909091,"type":"kick","velocity":127},{"time_sec":70.8394170909091,"type":"hihat","velocity":127},{"time_sec":71.09937825454546,"type":"hihat","velocity":82},{"time_sec":71.35933941818182,"type":"snare","velocity":127},{"time_sec":71.35933941818182,"type":"hihat","velocity":127},{"time_sec":71.61930058181818,"type":"hihat","velocity":77},{"time_sec":71.87926174545454,"type":"hihat","velocity":61},{"time_sec":72.15082831818181,"type":"kick","velocity":127},{"time_sec":72.15082831818181,"type":"hihat","velocity":127},{"time_sec":72.39918407272727,"type":"snare","velocity":127},{"time_sec":72.39918407272727,"type":"hihat","velocity":127},{"time_sec":72.67075064545455,"type":"hihat","velocity":69},{"time_sec":72.93071180909091,"type":"kick","velocity":127},{"time_sec":72.93071180909091,"type":"hihat","velocity":127},{"time_sec":73.19067297272727,"type":"hihat","velocity":70},{"time_sec":73.45063413636363,"type":"snare","velocity":127},{"time_sec":73.45063413636363,"type":"hihat","velocity":127},{"time_sec":73.7105953,"type":"hihat","velocity":78},{"time_sec":73.97055646363636,"type":"hihat","velocity":81},{"time_sec":74.23051762727272,"type":"kick","velocity":127},{"time_sec":74.23051762727272,"type":"hihat","velocity":127},{"time_sec":74.4904787909091,"type":"snare","velocity":127},{"time_sec":74.4904787909091,"type":"hihat","velocity":127},{"time_sec":74.75043995454546,"type":"hihat","velocity":78},{"time_sec":75.01040111818182,"type":"kick","velocity":127},{"time_sec":75.01040111818182,"type":"hihat","velocity":127},{"time_sec":75.27036228181818,"type":"hihat","velocity":74},{"time_sec":75.53032344545454,"type":"snare","velocity":127},{"time_sec":75.53032344545454,"type":"hihat","velocity":127},{"time_sec":75.7902846090909,"type":"hihat","velocity":77},{"time_sec":76.08041983636363,"type":"hihat","velocity":46},{"time_sec":76.31949126363637,"type":"kick","velocity":127},{"time_sec":76.31949126363637,"type":"hihat","velocity":127},{"time_sec":76.57945242727273,"type":"snare","velocity":127},{"time_sec":76.57945242727273,"type":"hihat","velocity":127},{"time_sec":76.851019,"type":"hihat","velocity":63},{"time_sec":77.09937475454545,"type":"kick","velocity":127},{"time_sec":77.09937475454545,"type":"hihat","velocity":127},{"time_sec":77.37094132727272,"type":"hihat","velocity":71},{"time_sec":77.61929708181817,"type":"snare","velocity":127},{"time_sec":77.61929708181817,"type":"hihat","velocity":127},{"time_sec":77.87925824545454,"type":"hihat","velocity":73},{"time_sec":78.1392194090909,"type":"hihat","velocity":69},{"time_sec":78.39918057272727,"type":"kick","velocity":127},{"time_sec":78.41078598181818,"type":"hihat","velocity":127},{"time_sec":78.65914173636364,"type":"snare","velocity":127},{"time_sec":78.65914173636364,"type":"hihat","velocity":127},{"time_sec":78.9307083090909,"type":"hihat","velocity":84},{"time_sec":79.19066947272727,"type":"kick","velocity":127},{"time_sec":79.19066947272727,"type":"hihat","velocity":127},{"time_sec":79.45063063636363,"type":"hihat","velocity":79},{"time_sec":79.7105918,"type":"snare","velocity":127},{"time_sec":79.7105918,"type":"hihat","velocity":127},{"time_sec":79.97055296363637,"type":"hihat","velocity":77},{"time_sec":80.23051412727273,"type":"hihat","velocity":66},{"time_sec":80.49047529090909,"type":"kick","velocity":127},{"time_sec":80.49047529090909,"type":"hihat","velocity":127},{"time_sec":80.75043645454545,"type":"snare","velocity":127},{"time_sec":80.75043645454545,"type":"hihat","velocity":127},{"time_sec":81.27964310909091,"type":"kick","velocity":127},{"time_sec":81.27964310909091,"type":"hihat","velocity":127},{"time_sec":81.53031994545454,"type":"hihat","velocity":65},{"time_sec":81.7902811090909,"type":"snare","velocity":127},{"time_sec":81.7902811090909,"type":"hihat","velocity":127},{"time_sec":82.0595266,"type":"hihat","velocity":74},{"time_sec":82.31948776363636,"type":"hihat","velocity":80},{"time_sec":82.57944892727272,"type":"kick","velocity":127},{"time_sec":82.57944892727272,"type":"hihat","velocity":127},{"time_sec":82.83941009090908,"type":"snare","velocity":127},{"time_sec":82.83941009090908,"type":"hihat","velocity":127},{"time_sec":83.09937125454545,"type":"hihat","velocity":77},{"time_sec":83.35933241818181,"type":"kick","velocity":127},{"time_sec":83.35933241818181,"type":"hihat","velocity":127},{"time_sec":83.61929358181818,"type":"hihat","velocity":76},{"time_sec":83.87925474545455,"type":"snare","velocity":127},{"time_sec":83.87925474545455,"type":"hihat","velocity":127},{"time_sec":84.13921590909091,"type":"hihat","velocity":73},{"time_sec":84.41078248181817,"type":"kick","velocity":127},{"time_sec":84.41078248181817,"type":"hihat","velocity":127},{"time_sec":84.65913823636363,"type":"snare","velocity":127},{"time_sec":84.65913823636363,"type":"hihat","velocity":127},{"time_sec":84.93070480909091,"type":"kick","velocity":127},{"time_sec":85.19066597272727,"type":"snare","velocity":127},{"time_sec":85.19066597272727,"type":"hihat","velocity":127},{"time_sec":85.45062713636364,"type":"kick","velocity":127},{"time_sec":85.45062713636364,"type":"hihat","velocity":127},{"time_sec":85.7105883,"type":"hihat","velocity":69},{"time_sec":85.84056888181817,"type":"kick","velocity":127},{"time_sec":85.97054946363636,"type":"snare","velocity":127},{"time_sec":85.97054946363636,"type":"hihat","velocity":127},{"time_sec":86.23051062727272,"type":"kick","velocity":127},{"time_sec":86.23051062727272,"type":"hihat","velocity":127},{"time_sec":86.49047179090908,"type":"kick","velocity":127},{"time_sec":86.4997561181818,"type":"hihat","velocity":127},{"time_sec":86.88969786363636,"type":"kick","velocity":127},{"time_sec":87.01039411818181,"type":"snare","velocity":127},{"time_sec":87.01039411818181,"type":"hihat","velocity":127},{"time_sec":87.2796396090909,"type":"kick","velocity":127},{"time_sec":87.2796396090909,"type":"hihat","velocity":127},{"time_sec":87.53960077272727,"type":"kick","velocity":127},{"time_sec":87.53960077272727,"type":"hihat","velocity":127},{"time_sec":87.79956193636363,"type":"hihat","velocity":65},{"time_sec":87.92954251818182,"type":"kick","velocity":127},{"time_sec":88.05952309999999,"type":"snare","velocity":127},{"time_sec":88.05952309999999,"type":"hihat","velocity":127},{"time_sec":88.31948426363635,"type":"kick","velocity":127},{"time_sec":88.31948426363635,"type":"hihat","velocity":127},{"time_sec":88.57944542727272,"type":"kick","velocity":127},{"time_sec":88.57944542727272,"type":"hihat","velocity":127},{"time_sec":88.96938717272727,"type":"kick","velocity":127},{"time_sec":89.09936775454545,"type":"snare","velocity":127},{"time_sec":89.09936775454545,"type":"hihat","velocity":127},{"time_sec":89.35932891818182,"type":"kick","velocity":127},{"time_sec":89.35932891818182,"type":"hihat","velocity":127},{"time_sec":89.63089549090908,"type":"kick","velocity":127},{"time_sec":89.63089549090908,"type":"hihat","velocity":127},{"time_sec":89.87925124545454,"type":"hihat","velocity":66},{"time_sec":90.02083723636363,"type":"kick","velocity":127},{"time_sec":90.1392124090909,"type":"snare","velocity":127},{"time_sec":90.1392124090909,"type":"hihat","velocity":127},{"time_sec":90.41077898181818,"type":"kick","velocity":127},{"time_sec":90.41077898181818,"type":"hihat","velocity":127},{"time_sec":90.67074014545454,"type":"kick","velocity":127},{"time_sec":90.67074014545454,"type":"hihat","velocity":127},{"time_sec":90.9190959,"type":"hihat","velocity":59},{"time_sec":91.06068189090908,"type":"kick","velocity":127},{"time_sec":91.19066247272727,"type":"snare","velocity":127},{"time_sec":91.19066247272727,"type":"hihat","velocity":127},{"time_sec":91.45062363636363,"type":"kick","velocity":127},{"time_sec":91.45062363636363,"type":"hihat","velocity":127},{"time_sec":91.71058479999999,"type":"kick","velocity":127},{"time_sec":91.71058479999999,"type":"hihat","velocity":127},{"time_sec":91.97054596363635,"type":"hihat","velocity":60},{"time_sec":92.10052654545454,"type":"kick","velocity":127},{"time_sec":92.23050712727272,"type":"snare","velocity":127},{"time_sec":92.23050712727272,"type":"hihat","velocity":127},{"time_sec":92.49046829090909,"type":"kick","velocity":127},{"time_sec":92.49046829090909,"type":"hihat","velocity":127},{"time_sec":92.75971378181818,"type":"kick","velocity":127},{"time_sec":92.75971378181818,"type":"hihat","velocity":127},{"time_sec":93.14965552727273,"type":"kick","velocity":127},{"time_sec":93.27035178181818,"type":"snare","velocity":127},{"time_sec":93.27035178181818,"type":"hihat","velocity":127},{"time_sec":93.53959727272726,"type":"kick","velocity":127},{"time_sec":93.53959727272726,"type":"hihat","velocity":127},{"time_sec":93.79955843636363,"type":"kick","velocity":127},{"time_sec":93.79955843636363,"type":"hihat","velocity":127},{"time_sec":94.0595196,"type":"hihat","velocity":77},{"time_sec":94.18950018181818,"type":"kick","velocity":127},{"time_sec":94.31948076363636,"type":"snare","velocity":127},{"time_sec":94.31948076363636,"type":"hihat","velocity":127},{"time_sec":94.57944192727273,"type":"kick","velocity":127},{"time_sec":94.57944192727273,"type":"hihat","velocity":127},{"time_sec":94.83940309090909,"type":"kick","velocity":127},{"time_sec":94.85100849999999,"type":"hihat","velocity":127},{"time_sec":95.09936425454545,"type":"hihat","velocity":57},{"time_sec":95.22934483636364,"type":"kick","velocity":127},{"time_sec":95.35932541818181,"type":"snare","velocity":127},{"time_sec":95.35932541818181,"type":"hihat","velocity":127},{"time_sec":95.63089199090909,"type":"kick","velocity":127},{"time_sec":95.63089199090909,"type":"hihat","velocity":127},{"time_sec":95.87924774545453,"type":"kick","velocity":127},{"time_sec":95.89085315454545,"type":"hihat","velocity":127},{"time_sec":96.13920890909091,"type":"hihat","velocity":64},{"time_sec":96.28079489999999,"type":"kick","velocity":127},{"time_sec":96.39917007272727,"type":"snare","velocity":127},{"time_sec":96.39917007272727,"type":"hihat","velocity":127},{"time_sec":96.67073664545454,"type":"kick","velocity":127},{"time_sec":96.67073664545454,"type":"hihat","velocity":127},{"time_sec":96.9306978090909,"type":"kick","velocity":127},{"time_sec":96.9306978090909,"type":"hihat","velocity":127},{"time_sec":97.19065897272726,"type":"hihat","velocity":63},{"time_sec":97.32063955454545,"type":"kick","velocity":127},{"time_sec":97.45062013636363,"type":"snare","velocity":127},{"time_sec":97.45062013636363,"type":"hihat","velocity":127},{"time_sec":97.7105813,"type":"kick","velocity":127},{"time_sec":97.7105813,"type":"hihat","velocity":127},{"time_sec":97.97054246363636,"type":"kick","velocity":127},{"time_sec":97.97054246363636,"type":"hihat","velocity":127},{"time_sec":98.3604842090909,"type":"kick","velocity":127},{"time_sec":98.49046479090909,"type":"snare","velocity":127},{"time_sec":98.49046479090909,"type":"hihat","velocity":127},{"time_sec":98.75971028181817,"type":"kick","velocity":127},{"time_sec":98.75971028181817,"type":"hihat","velocity":127},{"time_sec":99.01967144545453,"type":"kick","velocity":127},{"time_sec":99.01967144545453,"type":"hihat","velocity":127},{"time_sec":99.40961319090908,"type":"kick","velocity":127},{"time_sec":99.53030944545453,"type":"snare","velocity":127},{"time_sec":99.53030944545453,"type":"hihat","velocity":127},{"time_sec":99.79955493636363,"type":"kick","velocity":127},{"time_sec":99.79955493636363,"type":"hihat","velocity":127},{"time_sec":100.0595161,"type":"kick","velocity":127},{"time_sec":100.0595161,"type":"hihat","velocity":127},{"time_sec":100.44945784545455,"type":"kick","velocity":127},{"time_sec":100.57943842727272,"type":"snare","velocity":127},{"time_sec":100.57943842727272,"type":"hihat","velocity":127},{"time_sec":100.83939959090908,"type":"kick","velocity":127},{"time_sec":100.83939959090908,"type":"hihat","velocity":127},{"time_sec":101.11096616363636,"type":"kick","velocity":127},{"time_sec":101.11096616363636,"type":"hihat","velocity":127},{"time_sec":101.4893025,"type":"kick","velocity":127},{"time_sec":101.61928308181818,"type":"snare","velocity":127},{"time_sec":101.61928308181818,"type":"hihat","velocity":127},{"time_sec":101.89084965454545,"type":"kick","velocity":127},{"time_sec":101.89084965454545,"type":"hihat","velocity":127},{"time_sec":102.15081081818181,"type":"kick","velocity":127},{"time_sec":102.15081081818181,"type":"hihat","velocity":127},{"time_sec":102.67073314545453,"type":"hihat","velocity":94},{"time_sec":102.93069430909091,"type":"snare","velocity":127},{"time_sec":102.93069430909091,"type":"hihat","velocity":127},{"time_sec":103.19065547272727,"type":"hihat","velocity":125},{"time_sec":103.45061663636363,"type":"kick","velocity":127},{"time_sec":103.58059721818181,"type":"hihat","velocity":127},{"time_sec":103.7105778,"type":"snare","velocity":127},{"time_sec":103.7105778,"type":"hihat","velocity":127},{"time_sec":103.97053896363636,"type":"hihat","velocity":114},{"time_sec":104.23978445454544,"type":"kick","velocity":127},{"time_sec":104.23978445454544,"type":"hihat","velocity":127},{"time_sec":104.36048070909091,"type":"kick","velocity":127},{"time_sec":104.49974561818182,"type":"hihat","velocity":122},{"time_sec":104.6297262,"type":"snare","velocity":127},{"time_sec":104.75970678181818,"type":"hihat","velocity":126},{"time_sec":105.01038361818182,"type":"kick","velocity":127},{"time_sec":105.01038361818182,"type":"snare","velocity":127},{"time_sec":105.01038361818182,"type":"hihat","velocity":127},{"time_sec":105.27034478181818,"type":"hihat","velocity":110},{"time_sec":105.53959027272727,"type":"kick","velocity":127},{"time_sec":105.53959027272727,"type":"hihat","velocity":127},{"time_sec":105.66957085454546,"type":"kick","velocity":127},{"time_sec":105.79955143636363,"type":"snare","velocity":127},{"time_sec":105.79955143636363,"type":"hihat","velocity":127},{"time_sec":106.31947376363635,"type":"kick","velocity":127},{"time_sec":106.57943492727273,"type":"hihat","velocity":88},{"time_sec":106.83939609090909,"type":"kick","velocity":127},{"time_sec":107.09935725454545,"type":"hihat","velocity":81},{"time_sec":107.35931841818181,"type":"kick","velocity":127},{"time_sec":107.61927958181818,"type":"hihat","velocity":85},{"time_sec":107.89084615454544,"type":"kick","velocity":127},{"time_sec":108.1392019090909,"type":"hihat","velocity":74},{"time_sec":108.41076848181818,"type":"kick","velocity":127},{"time_sec":108.67072964545454,"type":"hihat","velocity":82},{"time_sec":108.9306908090909,"type":"kick","velocity":127},{"time_sec":109.17904656363636,"type":"hihat","velocity":77},{"time_sec":109.45061313636363,"type":"kick","velocity":127},{"time_sec":109.71057429999999,"type":"hihat","velocity":83},{"time_sec":109.97053546363635,"type":"kick","velocity":127},{"time_sec":110.23049662727273,"type":"hihat","velocity":78},{"time_sec":110.49974211818181,"type":"kick","velocity":127},{"time_sec":110.75041895454545,"type":"hihat","velocity":82},{"time_sec":111.01966444545454,"type":"kick","velocity":127},{"time_sec":111.27034128181818,"type":"hihat","velocity":82},{"time_sec":111.53958677272726,"type":"kick","velocity":127},{"time_sec":111.7902636090909,"type":"hihat","velocity":80},{"time_sec":112.0595091,"type":"kick","velocity":127},{"time_sec":112.31947026363636,"type":"hihat","velocity":80},{"time_sec":112.57943142727272,"type":"kick","velocity":127},{"time_sec":112.83939259090909,"type":"hihat","velocity":85},{"time_sec":113.09935375454545,"type":"kick","velocity":127},{"time_sec":113.35931491818181,"type":"hihat","velocity":83},{"time_sec":113.63088149090909,"type":"kick","velocity":127},{"time_sec":113.87923724545455,"type":"hihat","velocity":81},{"time_sec":114.15080381818181,"type":"kick","velocity":127},{"time_sec":114.39915957272727,"type":"hihat","velocity":72},{"time_sec":114.67072614545454,"type":"kick","velocity":127},{"time_sec":114.9306873090909,"type":"hihat","velocity":81},{"time_sec":115.19064847272726,"type":"kick","velocity":127},{"time_sec":115.19064847272726,"type":"snare","velocity":127},{"time_sec":115.19064847272726,"type":"hihat","velocity":127},{"time_sec":115.45060963636364,"type":"hihat","velocity":80},{"time_sec":115.7105708,"type":"kick","velocity":127},{"time_sec":115.97053196363636,"type":"hihat","velocity":84},{"time_sec":116.23049312727272,"type":"kick","velocity":127},{"time_sec":116.23049312727272,"type":"snare","velocity":127},{"time_sec":116.23049312727272,"type":"hihat","velocity":127},{"time_sec":116.49045429090908,"type":"hihat","velocity":80},{"time_sec":116.75969978181817,"type":"kick","velocity":127},{"time_sec":117.01037661818181,"type":"hihat","velocity":75},{"time_sec":117.27033778181817,"type":"kick","velocity":127},{"time_sec":117.27033778181817,"type":"snare","velocity":127},{"time_sec":117.27033778181817,"type":"hihat","velocity":127},{"time_sec":117.53029894545455,"type":"hihat","velocity":75},{"time_sec":117.79954443636363,"type":"kick","velocity":127},{"time_sec":118.05022127272727,"type":"snare","velocity":127},{"time_sec":118.05022127272727,"type":"hihat","velocity":127},{"time_sec":118.31946676363636,"type":"kick","velocity":127},{"time_sec":118.31946676363636,"type":"snare","velocity":127},{"time_sec":118.31946676363636,"type":"hihat","velocity":127},{"time_sec":118.57942792727272,"type":"hihat","velocity":82},{"time_sec":118.83938909090908,"type":"kick","velocity":127},{"time_sec":119.09935025454546,"type":"hihat","velocity":79},{"time_sec":119.35931141818182,"type":"kick","velocity":127},{"time_sec":119.35931141818182,"type":"snare","velocity":127},{"time_sec":119.35931141818182,"type":"hihat","velocity":127},{"time_sec":119.61927258181818,"type":"hihat","velocity":81},{"time_sec":119.89083915454545,"type":"kick","velocity":127},{"time_sec":119.89083915454545,"type":"hihat","velocity":127},{"time_sec":120.1391949090909,"type":"hihat","velocity":72},{"time_sec":120.39915607272727,"type":"kick","velocity":127},{"time_sec":120.39915607272727,"type":"snare","velocity":127},{"time_sec":120.39915607272727,"type":"hihat","velocity":127},{"time_sec":120.67072264545455,"type":"hihat","velocity":79},{"time_sec":120.93068380909091,"type":"kick","velocity":127},{"time_sec":120.93068380909091,"type":"hihat","velocity":127},{"time_sec":121.17903956363635,"type":"hihat","velocity":68},{"time_sec":121.45060613636363,"type":"kick","velocity":127},{"time_sec":121.45060613636363,"type":"snare","velocity":127},{"time_sec":121.45060613636363,"type":"hihat","velocity":127},{"time_sec":121.7105673,"type":"hihat","velocity":80},{"time_sec":121.97052846363636,"type":"kick","velocity":127},{"time_sec":122.23048962727272,"type":"hihat","velocity":100},{"time_sec":122.49973511818182,"type":"kick","velocity":127},{"time_sec":122.49973511818182,"type":"hihat","velocity":127},{"time_sec":123.01965744545454,"type":"kick","velocity":127},{"time_sec":123.01965744545454,"type":"hihat","velocity":127},{"time_sec":123.2796186090909,"type":"hihat","velocity":102},{"time_sec":123.53029544545454,"type":"snare","velocity":127},{"time_sec":123.53029544545454,"type":"hihat","velocity":127},{"time_sec":123.79954093636363,"type":"hihat","velocity":80},{"time_sec":124.05950209999999,"type":"hihat","velocity":80},{"time_sec":124.31946326363635,"type":"kick","velocity":127},{"time_sec":124.31946326363635,"type":"hihat","velocity":127},{"time_sec":124.57942442727273,"type":"snare","velocity":127},{"time_sec":124.57942442727273,"type":"hihat","velocity":127},{"time_sec":124.83938559090909,"type":"hihat","velocity":79},{"time_sec":125.09934675454545,"type":"kick","velocity":127},{"time_sec":125.09934675454545,"type":"hihat","velocity":127},{"time_sec":125.35930791818181,"type":"hihat","velocity":80},{"time_sec":125.61926908181817,"type":"snare","velocity":127},{"time_sec":125.61926908181817,"type":"hihat","velocity":127},{"time_sec":125.87923024545454,"type":"hihat","velocity":74},{"time_sec":126.1391914090909,"type":"hihat","velocity":60},{"time_sec":126.41075798181818,"type":"kick","velocity":127},{"time_sec":126.41075798181818,"type":"hihat","velocity":127},{"time_sec":126.65911373636364,"type":"snare","velocity":127},{"time_sec":126.65911373636364,"type":"hihat","velocity":127},{"time_sec":126.9306803090909,"type":"hihat","velocity":66},{"time_sec":127.19064147272726,"type":"kick","velocity":127},{"time_sec":127.19064147272726,"type":"hihat","velocity":127},{"time_sec":127.45060263636363,"type":"hihat","velocity":76},{"time_sec":127.71056379999999,"type":"snare","velocity":127},{"time_sec":127.71056379999999,"type":"hihat","velocity":127},{"time_sec":127.97052496363636,"type":"hihat","velocity":72},{"time_sec":128.2304861272727,"type":"hihat","velocity":77},{"time_sec":128.4904472909091,"type":"kick","velocity":127},{"time_sec":128.4997316181818,"type":"hihat","velocity":127},{"time_sec":128.75040845454544,"type":"snare","velocity":127},{"time_sec":128.75040845454544,"type":"hihat","velocity":127},{"time_sec":129.0103696181818,"type":"hihat","velocity":77},{"time_sec":129.2796151090909,"type":"kick","velocity":127},{"time_sec":129.2796151090909,"type":"hihat","velocity":127},{"time_sec":129.53029194545454,"type":"hihat","velocity":72},{"time_sec":129.7902531090909,"type":"snare","velocity":127},{"time_sec":129.7902531090909,"type":"hihat","velocity":127},{"time_sec":130.05949859999998,"type":"hihat","velocity":83},{"time_sec":130.34963382727273,"type":"hihat","velocity":45},{"time_sec":130.5794209272727,"type":"kick","velocity":127},{"time_sec":130.5794209272727,"type":"hihat","velocity":127},{"time_sec":130.83938209090908,"type":"snare","velocity":127},{"time_sec":130.83938209090908,"type":"hihat","velocity":127},{"time_sec":131.11094866363635,"type":"hihat","velocity":68},{"time_sec":131.37090982727273,"type":"kick","velocity":127},{"time_sec":131.37090982727273,"type":"hihat","velocity":127},{"time_sec":131.61926558181818,"type":"hihat","velocity":62},{"time_sec":131.87922674545453,"type":"snare","velocity":127},{"time_sec":131.87922674545453,"type":"hihat","velocity":127},{"time_sec":132.1391879090909,"type":"hihat","velocity":66},{"time_sec":132.39914907272725,"type":"hihat","velocity":73},{"time_sec":132.67071564545455,"type":"kick","velocity":127},{"time_sec":132.67071564545455,"type":"hihat","velocity":127},{"time_sec":132.9190714,"type":"snare","velocity":127},{"time_sec":132.9190714,"type":"hihat","velocity":127},{"time_sec":133.19063797272727,"type":"hihat","velocity":82},{"time_sec":133.45059913636362,"type":"kick","velocity":127},{"time_sec":133.45059913636362,"type":"hihat","velocity":127},{"time_sec":133.7105603,"type":"hihat","velocity":77},{"time_sec":133.97052146363635,"type":"snare","velocity":127},{"time_sec":133.97052146363635,"type":"hihat","velocity":127},{"time_sec":134.23048262727272,"type":"hihat","velocity":75},{"time_sec":134.49972811818182,"type":"hihat","velocity":61},{"time_sec":134.75968928181817,"type":"kick","velocity":127},{"time_sec":134.75968928181817,"type":"hihat","velocity":127},{"time_sec":135.01036611818182,"type":"snare","velocity":127},{"time_sec":135.01036611818182,"type":"hihat","velocity":127},{"time_sec":135.53957277272727,"type":"kick","velocity":127},{"time_sec":135.53957277272727,"type":"hihat","velocity":127},{"time_sec":135.79953393636362,"type":"hihat","velocity":69},{"time_sec":135.9295145181818,"type":"kick","velocity":127},{"time_sec":136.0594951,"type":"snare","velocity":127},{"time_sec":136.0594951,"type":"hihat","velocity":127},{"time_sec":136.31945626363637,"type":"hihat","velocity":71},{"time_sec":136.57941742727272,"type":"hihat","velocity":81},{"time_sec":136.8393785909091,"type":"kick","velocity":127},{"time_sec":136.8393785909091,"type":"hihat","velocity":127},{"time_sec":137.09933975454544,"type":"snare","velocity":127},{"time_sec":137.09933975454544,"type":"hihat","velocity":127},{"time_sec":137.35930091818182,"type":"hihat","velocity":73},{"time_sec":137.63086749090908,"type":"kick","velocity":127},{"time_sec":137.63086749090908,"type":"hihat","velocity":127},{"time_sec":137.87922324545454,"type":"hihat","velocity":74},{"time_sec":138.02080923636362,"type":"kick","velocity":127},{"time_sec":138.13918440909092,"type":"snare","velocity":127},{"time_sec":138.13918440909092,"type":"hihat","velocity":127},{"time_sec":138.39914557272726,"type":"hihat","velocity":76},{"time_sec":138.67071214545453,"type":"kick","velocity":127},{"time_sec":138.9190679,"type":"snare","velocity":127},{"time_sec":138.9190679,"type":"hihat","velocity":127},{"time_sec":139.19063447272725,"type":"kick","velocity":127},{"time_sec":139.45059563636363,"type":"snare","velocity":127},{"time_sec":139.45059563636363,"type":"hihat","velocity":127},{"time_sec":139.7105568,"type":"kick","velocity":127},{"time_sec":139.71984112727273,"type":"hihat","velocity":127},{"time_sec":139.97051796363635,"type":"hihat","velocity":96},{"time_sec":140.10049854545454,"type":"kick","velocity":127},{"time_sec":140.23047912727273,"type":"snare","velocity":127},{"time_sec":140.23047912727273,"type":"hihat","velocity":127},{"time_sec":140.4997246181818,"type":"kick","velocity":127},{"time_sec":140.4997246181818,"type":"hihat","velocity":127},{"time_sec":140.75968578181818,"type":"kick","velocity":127},{"time_sec":140.75968578181818,"type":"hihat","velocity":127},{"time_sec":141.1496275272727,"type":"kick","velocity":127},{"time_sec":141.27032378181818,"type":"snare","velocity":127},{"time_sec":141.27032378181818,"type":"hihat","velocity":127},{"time_sec":141.53956927272728,"type":"kick","velocity":127},{"time_sec":141.53956927272728,"type":"hihat","velocity":127},{"time_sec":141.79953043636363,"type":"kick","velocity":127},{"time_sec":141.79953043636363,"type":"hihat","velocity":127},{"time_sec":142.0594916,"type":"hihat","velocity":64},{"time_sec":142.1894721818182,"type":"kick","velocity":127},{"time_sec":142.31945276363635,"type":"snare","velocity":127},{"time_sec":142.31945276363635,"type":"hihat","velocity":127},{"time_sec":142.57941392727273,"type":"kick","velocity":127},{"time_sec":142.57941392727273,"type":"hihat","velocity":127},{"time_sec":142.83937509090907,"type":"kick","velocity":127},{"time_sec":142.83937509090907,"type":"hihat","velocity":127},{"time_sec":143.24092224545453,"type":"kick","velocity":127},{"time_sec":143.35929741818182,"type":"snare","velocity":127},{"time_sec":143.35929741818182,"type":"hihat","velocity":127},{"time_sec":143.61925858181817,"type":"kick","velocity":127},{"time_sec":143.61925858181817,"type":"hihat","velocity":127},{"time_sec":143.89082515454544,"type":"kick","velocity":127},{"time_sec":143.89082515454544,"type":"hihat","velocity":127},{"time_sec":144.15078631818182,"type":"hihat","velocity":87},{"time_sec":144.2807669,"type":"kick","velocity":127},{"time_sec":144.39914207272727,"type":"snare","velocity":127},{"time_sec":144.39914207272727,"type":"hihat","velocity":127},{"time_sec":144.67070864545454,"type":"kick","velocity":127},{"time_sec":144.67070864545454,"type":"hihat","velocity":127},{"time_sec":144.93066980909092,"type":"kick","velocity":127},{"time_sec":144.93066980909092,"type":"hihat","velocity":127},{"time_sec":145.17902556363634,"type":"hihat","velocity":62},{"time_sec":145.32061155454545,"type":"kick","velocity":127},{"time_sec":145.45059213636364,"type":"snare","velocity":127},{"time_sec":145.45059213636364,"type":"hihat","velocity":127},{"time_sec":145.7105533,"type":"kick","velocity":127},{"time_sec":145.7105533,"type":"hihat","velocity":127},{"time_sec":145.97051446363636,"type":"kick","velocity":127},{"time_sec":145.97051446363636,"type":"hihat","velocity":127},{"time_sec":146.2304756272727,"type":"hihat","velocity":63},{"time_sec":146.3604562090909,"type":"kick","velocity":127},{"time_sec":146.4904367909091,"type":"snare","velocity":127},{"time_sec":146.4904367909091,"type":"hihat","velocity":127},{"time_sec":146.7596822818182,"type":"kick","velocity":127},{"time_sec":146.7596822818182,"type":"hihat","velocity":127},{"time_sec":147.01964344545453,"type":"kick","velocity":127},{"time_sec":147.01964344545453,"type":"hihat","velocity":127},{"time_sec":147.4095851909091,"type":"kick","velocity":127},{"time_sec":147.53028144545453,"type":"snare","velocity":127},{"time_sec":147.53028144545453,"type":"hihat","velocity":127},{"time_sec":147.79952693636363,"type":"kick","velocity":127},{"time_sec":147.79952693636363,"type":"hihat","velocity":127},{"time_sec":148.05948809999998,"type":"kick","velocity":127},{"time_sec":148.05948809999998,"type":"hihat","velocity":127},{"time_sec":148.31944926363636,"type":"hihat","velocity":69},{"time_sec":148.44942984545455,"type":"kick","velocity":127},{"time_sec":148.57941042727273,"type":"snare","velocity":127},{"time_sec":148.57941042727273,"type":"hihat","velocity":127},{"time_sec":148.83937159090908,"type":"kick","velocity":127},{"time_sec":148.83937159090908,"type":"hihat","velocity":127},{"time_sec":149.09933275454546,"type":"kick","velocity":127},{"time_sec":149.09933275454546,"type":"hihat","velocity":127},{"time_sec":149.3592939181818,"type":"hihat","velocity":57},{"time_sec":149.4892745,"type":"kick","velocity":127},{"time_sec":149.61925508181818,"type":"snare","velocity":127},{"time_sec":149.61925508181818,"type":"hihat","velocity":127},{"time_sec":149.87921624545453,"type":"kick","velocity":127},{"time_sec":149.87921624545453,"type":"hihat","velocity":127},{"time_sec":150.15078281818182,"type":"kick","velocity":127},{"time_sec":150.15078281818182,"type":"hihat","velocity":127},{"time_sec":150.39913857272725,"type":"hihat","velocity":66},{"time_sec":150.52911915454544,"type":"kick","velocity":127},{"time_sec":150.65909973636363,"type":"snare","velocity":127},{"time_sec":150.65909973636363,"type":"hihat","velocity":127},{"time_sec":150.9306663090909,"type":"kick","velocity":127},{"time_sec":150.9306663090909,"type":"hihat","velocity":127},{"time_sec":151.19062747272727,"type":"kick","velocity":127},{"time_sec":151.19062747272727,"type":"hihat","velocity":127},{"time_sec":151.45058863636362,"type":"hihat","velocity":67},{"time_sec":151.5805692181818,"type":"kick","velocity":127},{"time_sec":151.7105498,"type":"snare","velocity":127},{"time_sec":151.7105498,"type":"hihat","velocity":127},{"time_sec":151.97051096363634,"type":"kick","velocity":127},{"time_sec":151.97051096363634,"type":"hihat","velocity":127},{"time_sec":152.23047212727272,"type":"kick","velocity":127},{"time_sec":152.23047212727272,"type":"hihat","velocity":127},{"time_sec":152.46954355454545,"type":"hihat","velocity":74},{"time_sec":152.62041387272726,"type":"kick","velocity":127},{"time_sec":152.75039445454544,"type":"snare","velocity":127},{"time_sec":152.75039445454544,"type":"hihat","velocity":127},{"time_sec":153.01963994545454,"type":"kick","velocity":127},{"time_sec":153.01963994545454,"type":"hihat","velocity":127},{"time_sec":153.2796011090909,"type":"kick","velocity":127},{"time_sec":153.2796011090909,"type":"hihat","velocity":127},{"time_sec":153.53956227272727,"type":"hihat","velocity":82},{"time_sec":153.66954285454545,"type":"kick","velocity":127},{"time_sec":153.79952343636364,"type":"snare","velocity":127},{"time_sec":153.79952343636364,"type":"hihat","velocity":127},{"time_sec":154.0594846,"type":"kick","velocity":127},{"time_sec":154.0594846,"type":"hihat","velocity":127},{"time_sec":154.31944576363637,"type":"kick","velocity":127},{"time_sec":154.31944576363637,"type":"hihat","velocity":127},{"time_sec":154.57940692727271,"type":"hihat","velocity":72},{"time_sec":154.7093875090909,"type":"kick","velocity":127},{"time_sec":154.8393680909091,"type":"snare","velocity":127},{"time_sec":154.8393680909091,"type":"hihat","velocity":127},{"time_sec":155.09932925454544,"type":"kick","velocity":127},{"time_sec":155.09932925454544,"type":"hihat","velocity":127},{"time_sec":155.3592904181818,"type":"kick","velocity":127},{"time_sec":155.3592904181818,"type":"snare","velocity":127},{"time_sec":155.3592904181818,"type":"hihat","velocity":127},{"time_sec":155.61925158181816,"type":"kick","velocity":127},{"time_sec":155.61925158181816,"type":"snare","velocity":127},{"time_sec":155.61925158181816,"type":"hihat","velocity":127},{"time_sec":155.87921274545454,"type":"kick","velocity":127},{"time_sec":155.87921274545454,"type":"snare","velocity":127},{"time_sec":155.87921274545454,"type":"hihat","velocity":127},{"time_sec":156.1391739090909,"type":"kick","velocity":127},{"time_sec":156.1391739090909,"type":"snare","velocity":127},{"time_sec":156.1391739090909,"type":"hihat","velocity":127},{"time_sec":156.41074048181818,"type":"kick","velocity":127},{"time_sec":156.41074048181818,"type":"hihat","velocity":127},{"time_sec":156.67070164545453,"type":"hihat","velocity":93},{"time_sec":156.9306628090909,"type":"kick","velocity":127},{"time_sec":156.9306628090909,"type":"hihat","velocity":127},{"time_sec":157.19062397272725,"type":"hihat","velocity":113},{"time_sec":157.32060455454544,"type":"hihat","velocity":119},{"time_sec":157.45058513636363,"type":"kick","velocity":127},{"time_sec":157.45058513636363,"type":"hihat","velocity":127},{"time_sec":157.7105463,"type":"hihat","velocity":100},{"time_sec":157.97050746363635,"type":"kick","velocity":127},{"time_sec":157.97050746363635,"type":"hihat","velocity":127},{"time_sec":158.23975295454545,"type":"hihat","velocity":127},{"time_sec":158.36973353636364,"type":"hihat","velocity":114},{"time_sec":158.4997141181818,"type":"kick","velocity":127},{"time_sec":158.4997141181818,"type":"hihat","velocity":127},{"time_sec":158.75967528181818,"type":"hihat","velocity":117},{"time_sec":159.01963644545455,"type":"kick","velocity":127},{"time_sec":159.01963644545455,"type":"hihat","velocity":127},{"time_sec":159.2795976090909,"type":"hihat","velocity":102},{"time_sec":159.53955877272728,"type":"kick","velocity":127},{"time_sec":159.53955877272728,"type":"hihat","velocity":127},{"time_sec":159.79951993636362,"type":"hihat","velocity":127},{"time_sec":160.0594811,"type":"kick","velocity":127},{"time_sec":160.0594811,"type":"hihat","velocity":127},{"time_sec":160.31944226363635,"type":"hihat","velocity":127},{"time_sec":160.57940342727272,"type":"kick","velocity":127},{"time_sec":160.57940342727272,"type":"hihat","velocity":127},{"time_sec":160.83936459090907,"type":"hihat","velocity":107},{"time_sec":161.09932575454545,"type":"kick","velocity":127},{"time_sec":161.09932575454545,"type":"hihat","velocity":127},{"time_sec":161.3708923272727,"type":"hihat","velocity":110},{"time_sec":161.5008729090909,"type":"hihat","velocity":122},{"time_sec":161.6308534909091,"type":"kick","velocity":127},{"time_sec":161.6308534909091,"type":"hihat","velocity":127},{"time_sec":161.89081465454544,"type":"hihat","velocity":114},{"time_sec":162.1507758181818,"type":"kick","velocity":127},{"time_sec":162.1507758181818,"type":"hihat","velocity":127},{"time_sec":162.41073698181816,"type":"hihat","velocity":127},{"time_sec":162.54071756363635,"type":"hihat","velocity":127},{"time_sec":162.67069814545454,"type":"kick","velocity":127},{"time_sec":162.67069814545454,"type":"hihat","velocity":127},{"time_sec":162.9306593090909,"type":"hihat","velocity":119},{"time_sec":163.19062047272726,"type":"kick","velocity":127},{"time_sec":163.19062047272726,"type":"hihat","velocity":127},{"time_sec":163.45058163636364,"type":"hihat","velocity":119},{"time_sec":163.71054279999998,"type":"kick","velocity":127},{"time_sec":163.71054279999998,"type":"hihat","velocity":127},{"time_sec":163.97050396363636,"type":"hihat","velocity":114},{"time_sec":164.23974945454546,"type":"kick","velocity":127},{"time_sec":164.4997106181818,"type":"hihat","velocity":127},{"time_sec":164.75967178181818,"type":"kick","velocity":127},{"time_sec":164.75967178181818,"type":"hihat","velocity":127},{"time_sec":165.01963294545453,"type":"hihat","velocity":107},{"time_sec":165.2795941090909,"type":"kick","velocity":127},{"time_sec":165.2795941090909,"type":"hihat","velocity":127},{"time_sec":165.53955527272726,"type":"hihat","velocity":114},{"time_sec":165.66953585454544,"type":"hihat","velocity":106},{"time_sec":165.79951643636363,"type":"kick","velocity":127},{"time_sec":165.79951643636363,"type":"hihat","velocity":127},{"time_sec":166.05947759999998,"type":"hihat","velocity":109},{"time_sec":166.31943876363636,"type":"kick","velocity":127},{"time_sec":166.31943876363636,"type":"hihat","velocity":127},{"time_sec":166.57939992727273,"type":"hihat","velocity":103},{"time_sec":166.7093805090909,"type":"hihat","velocity":123},{"time_sec":166.83936109090908,"type":"kick","velocity":127},{"time_sec":166.8509665,"type":"hihat","velocity":127},{"time_sec":167.11092766363635,"type":"hihat","velocity":127},{"time_sec":167.3592834181818,"type":"kick","velocity":127},{"time_sec":167.3592834181818,"type":"hihat","velocity":127},{"time_sec":167.63084999090907,"type":"hihat","velocity":102},{"time_sec":167.89081115454545,"type":"kick","velocity":127},{"time_sec":167.89081115454545,"type":"hihat","velocity":127},{"time_sec":168.15077231818182,"type":"hihat","velocity":127},{"time_sec":168.41073348181817,"type":"kick","velocity":127},{"time_sec":168.67069464545455,"type":"hihat","velocity":123},{"time_sec":168.9306558090909,"type":"kick","velocity":127},{"time_sec":168.9306558090909,"type":"crash","velocity":127},{"time_sec":169.45057813636362,"type":"kick","velocity":127},{"time_sec":169.45057813636362,"type":"hihat","velocity":127},{"time_sec":169.7105393,"type":"hihat","velocity":106},{"time_sec":169.84051988181818,"type":"hihat","velocity":110},{"time_sec":169.97050046363637,"type":"kick","velocity":127},{"time_sec":170.49970711818182,"type":"kick","velocity":127},{"time_sec":170.49970711818182,"type":"hihat","velocity":127},{"time_sec":170.75966828181816,"type":"hihat","velocity":127},{"time_sec":170.88964886363635,"type":"hihat","velocity":119},{"time_sec":171.01962944545454,"type":"kick","velocity":127},{"time_sec":171.01962944545454,"type":"hihat","velocity":127},{"time_sec":171.53955177272726,"type":"kick","velocity":127},{"time_sec":171.53955177272726,"type":"hihat","velocity":127},{"time_sec":172.0594741,"type":"kick","velocity":127},{"time_sec":172.0594741,"type":"hihat","velocity":127},{"time_sec":172.5793964272727,"type":"kick","velocity":127},{"time_sec":172.5793964272727,"type":"hihat","velocity":127},{"time_sec":172.8393575909091,"type":"snare","velocity":127},{"time_sec":172.96933817272728,"type":"snare","velocity":127},{"time_sec":173.11092416363635,"type":"kick","velocity":127},{"time_sec":173.11092416363635,"type":"crash","velocity":127},{"time_sec":173.61924108181816,"type":"snare","velocity":127},{"time_sec":173.61924108181816,"type":"hihat","velocity":127},{"time_sec":174.1507688181818,"type":"kick","velocity":127},{"time_sec":174.1507688181818,"type":"crash","velocity":127},{"time_sec":174.41072998181818,"type":"kick","velocity":127},{"time_sec":174.65908573636364,"type":"hihat","velocity":127},{"time_sec":174.67069114545453,"type":"snare","velocity":127},{"time_sec":175.19061347272728,"type":"kick","velocity":127},{"time_sec":175.19061347272728,"type":"crash","velocity":127},{"time_sec":175.7105358,"type":"snare","velocity":127},{"time_sec":175.7105358,"type":"hihat","velocity":127},{"time_sec":176.23045812727273,"type":"kick","velocity":127},{"time_sec":176.23045812727273,"type":"crash","velocity":127},{"time_sec":176.4997036181818,"type":"kick","velocity":127},{"time_sec":176.75038045454545,"type":"snare","velocity":127},{"time_sec":176.75038045454545,"type":"hihat","velocity":127},{"time_sec":177.0103416181818,"type":"snare","velocity":127},{"time_sec":177.14032219999999,"type":"snare","velocity":127},{"time_sec":177.2795871090909,"type":"kick","velocity":127},{"time_sec":177.2795871090909,"type":"crash","velocity":127},{"time_sec":177.7902251090909,"type":"snare","velocity":127},{"time_sec":177.7902251090909,"type":"hihat","velocity":127},{"time_sec":178.31943176363635,"type":"kick","velocity":127},{"time_sec":178.31943176363635,"type":"crash","velocity":127},{"time_sec":178.57939292727272,"type":"kick","velocity":127},{"time_sec":178.83935409090907,"type":"snare","velocity":127},{"time_sec":178.83935409090907,"type":"hihat","velocity":127},{"time_sec":179.11092066363636,"type":"kick","velocity":127},{"time_sec":179.35927641818182,"type":"kick","velocity":127},{"time_sec":179.35927641818182,"type":"crash","velocity":127},{"time_sec":179.87919874545454,"type":"snare","velocity":127},{"time_sec":179.87919874545454,"type":"hihat","velocity":127},{"time_sec":180.4107264818182,"type":"kick","velocity":127},{"time_sec":180.67068764545454,"type":"kick","velocity":127},{"time_sec":180.9306488090909,"type":"snare","velocity":127},{"time_sec":180.9306488090909,"type":"hihat","velocity":127},{"time_sec":181.19060997272726,"type":"kick","velocity":127},{"time_sec":181.45057113636364,"type":"kick","velocity":127},{"time_sec":181.97049346363636,"type":"snare","velocity":127},{"time_sec":181.97049346363636,"type":"hihat","velocity":127},{"time_sec":182.49041579090908,"type":"kick","velocity":127},{"time_sec":182.49041579090908,"type":"crash","velocity":127},{"time_sec":182.75966128181818,"type":"kick","velocity":127},{"time_sec":183.0103381181818,"type":"snare","velocity":127},{"time_sec":183.0103381181818,"type":"hihat","velocity":127},{"time_sec":183.53954477272725,"type":"kick","velocity":127},{"time_sec":183.53954477272725,"type":"crash","velocity":127},{"time_sec":184.05018277272725,"type":"hihat","velocity":127},{"time_sec":184.05946709999998,"type":"snare","velocity":127},{"time_sec":184.57938942727273,"type":"kick","velocity":127},{"time_sec":184.57938942727273,"type":"crash","velocity":127},{"time_sec":184.83935059090908,"type":"kick","velocity":127},{"time_sec":185.09931175454545,"type":"snare","velocity":127},{"time_sec":185.09931175454545,"type":"hihat","velocity":127},{"time_sec":185.3592729181818,"type":"snare","velocity":127},{"time_sec":185.4892535,"type":"snare","velocity":127},{"time_sec":185.6308394909091,"type":"kick","velocity":127},{"time_sec":186.1391564090909,"type":"snare","velocity":127},{"time_sec":186.1391564090909,"type":"hihat","velocity":127},{"time_sec":186.67068414545454,"type":"kick","velocity":127},{"time_sec":186.67068414545454,"type":"crash","velocity":127},{"time_sec":186.9306453090909,"type":"kick","velocity":127},{"time_sec":187.17900106363635,"type":"hihat","velocity":127},{"time_sec":187.19060647272727,"type":"snare","velocity":127},{"time_sec":187.45056763636362,"type":"kick","velocity":127},{"time_sec":187.7105288,"type":"kick","velocity":127},{"time_sec":187.7105288,"type":"hihat","velocity":127},{"time_sec":187.84050938181818,"type":"snare","velocity":127},{"time_sec":187.97048996363637,"type":"snare","velocity":127},{"time_sec":188.10047054545453,"type":"snare","velocity":127},{"time_sec":188.23045112727272,"type":"snare","velocity":127},{"time_sec":188.3604317090909,"type":"snare","velocity":127},{"time_sec":188.4904122909091,"type":"snare","velocity":127},{"time_sec":188.62039287272725,"type":"snare","velocity":127},{"time_sec":188.75037345454544,"type":"kick","velocity":127},{"time_sec":188.75037345454544,"type":"snare","velocity":127},{"time_sec":188.88035403636363,"type":"tom2","velocity":127},{"time_sec":189.01033461818182,"type":"kick","velocity":127},{"time_sec":189.01033461818182,"type":"tom2","velocity":127},{"time_sec":189.1403152,"type":"tom2","velocity":127},{"time_sec":189.27029578181816,"type":"snare","velocity":127},{"time_sec":189.40027636363635,"type":"tom2","velocity":127},{"time_sec":189.53954127272726,"type":"tom2","velocity":127},{"time_sec":189.66952185454545,"type":"tom2","velocity":127},{"time_sec":189.79950243636364,"type":"kick","velocity":127},{"time_sec":190.31014043636364,"type":"hihat","velocity":127},{"time_sec":190.31942476363636,"type":"snare","velocity":127},{"time_sec":190.8393470909091,"type":"kick","velocity":127},{"time_sec":190.8393470909091,"type":"crash","velocity":127},{"time_sec":191.11091366363635,"type":"kick","velocity":127},{"time_sec":191.3592694181818,"type":"snare","velocity":127},{"time_sec":191.3592694181818,"type":"hihat","velocity":127},{"time_sec":191.63083599090908,"type":"kick","velocity":127},{"time_sec":191.89079715454545,"type":"kick","velocity":127},{"time_sec":191.89079715454545,"type":"crash","velocity":127},{"time_sec":192.39911407272726,"type":"snare","velocity":127},{"time_sec":192.39911407272726,"type":"hihat","velocity":127},{"time_sec":192.9306418090909,"type":"kick","velocity":127},{"time_sec":193.19060297272728,"type":"kick","velocity":127},{"time_sec":193.45056413636362,"type":"snare","velocity":127},{"time_sec":193.45056413636362,"type":"hihat","velocity":127},{"time_sec":193.7105253,"type":"snare","velocity":127},{"time_sec":193.84050588181816,"type":"snare","velocity":127},{"time_sec":193.97977079090907,"type":"kick","velocity":127},{"time_sec":194.49040879090907,"type":"snare","velocity":127},{"time_sec":194.49040879090907,"type":"hihat","velocity":127},{"time_sec":195.01961544545455,"type":"kick","velocity":127},{"time_sec":195.01961544545455,"type":"crash","velocity":127},{"time_sec":195.2795766090909,"type":"kick","velocity":127},{"time_sec":195.53025344545455,"type":"snare","velocity":127},{"time_sec":195.53025344545455,"type":"hihat","velocity":127},{"time_sec":195.79949893636362,"type":"kick","velocity":127},{"time_sec":196.0594601,"type":"kick","velocity":127},{"time_sec":196.0594601,"type":"crash","velocity":127},{"time_sec":196.57938242727272,"type":"snare","velocity":127},{"time_sec":196.57938242727272,"type":"hihat","velocity":127},{"time_sec":197.09930475454544,"type":"kick","velocity":127},{"time_sec":197.3708713272727,"type":"kick","velocity":127},{"time_sec":197.61922708181817,"type":"snare","velocity":127},{"time_sec":197.61922708181817,"type":"hihat","velocity":127},{"time_sec":197.87918824545454,"type":"snare","velocity":127},{"time_sec":198.00916882727273,"type":"snare","velocity":127},{"time_sec":198.1507548181818,"type":"kick","velocity":127},{"time_sec":198.65907173636361,"type":"snare","velocity":127},{"time_sec":198.65907173636361,"type":"hihat","velocity":127},{"time_sec":199.19059947272726,"type":"kick","velocity":127},{"time_sec":199.19059947272726,"type":"crash","velocity":127},{"time_sec":199.45056063636363,"type":"kick","velocity":127},{"time_sec":199.71052179999998,"type":"snare","velocity":127},{"time_sec":199.71052179999998,"type":"hihat","velocity":127},{"time_sec":200.2304441272727,"type":"kick","velocity":127},{"time_sec":200.2304441272727,"type":"crash","velocity":127},{"time_sec":200.75036645454546,"type":"snare","velocity":127},{"time_sec":200.75036645454546,"type":"hihat","velocity":127},{"time_sec":201.2795731090909,"type":"kick","velocity":127},{"time_sec":201.2795731090909,"type":"crash","velocity":127},{"time_sec":201.53953427272725,"type":"kick","velocity":127},{"time_sec":201.7902111090909,"type":"snare","velocity":127},{"time_sec":201.7902111090909,"type":"hihat","velocity":127},{"time_sec":202.0594566,"type":"kick","velocity":127},{"time_sec":202.31941776363635,"type":"kick","velocity":127},{"time_sec":202.31941776363635,"type":"crash","velocity":127},{"time_sec":202.83934009090908,"type":"snare","velocity":127},{"time_sec":202.83934009090908,"type":"hihat","velocity":127},{"time_sec":203.3592624181818,"type":"kick","velocity":127},{"time_sec":203.61922358181818,"type":"kick","velocity":127},{"time_sec":203.87918474545452,"type":"snare","velocity":127},{"time_sec":203.87918474545452,"type":"hihat","velocity":127},{"time_sec":204.15075131818182,"type":"kick","velocity":127},{"time_sec":204.41071248181817,"type":"kick","velocity":127},{"time_sec":204.41071248181817,"type":"crash","velocity":127},{"time_sec":204.67067364545454,"type":"snare","velocity":127},{"time_sec":204.67067364545454,"type":"hihat","velocity":127},{"time_sec":204.9306348090909,"type":"snare","velocity":127},{"time_sec":204.9306348090909,"type":"hihat","velocity":127},{"time_sec":205.2091646272727,"type":"kick","velocity":127},{"time_sec":205.49929985454546,"type":"snare","velocity":127},{"time_sec":205.49929985454546,"type":"hihat","velocity":127},{"time_sec":205.8103248181818,"type":"kick","velocity":127},{"time_sec":206.10974437272725,"type":"kick","velocity":127},{"time_sec":206.71090456363635,"type":"kick","velocity":127},{"time_sec":206.71090456363635,"type":"crash","velocity":127}],"tempo":117.50006854170665,"duration":206.75964728181816,"gridOffset":-0.651},{"id":"guitar","instrument":"guitar","kind":"melodic","name":"Guitar (rhythm)","notes":[{"start":848,"end":1211,"pitch":48,"velocity":88},{"start":858,"end":1104,"pitch":60,"velocity":68},{"start":863,"end":1078,"pitch":52,"velocity":72},{"start":863,"end":1089,"pitch":55,"velocity":84},{"start":1078,"end":1109,"pitch":52,"velocity":64},{"start":1089,"end":1221,"pitch":55,"velocity":92},{"start":1104,"end":1221,"pitch":60,"velocity":75},{"start":1109,"end":1201,"pitch":52,"velocity":68},{"start":1201,"end":1441,"pitch":52,"velocity":71},{"start":1211,"end":1436,"pitch":48,"velocity":73},{"start":1221,"end":1446,"pitch":55,"velocity":82},{"start":1221,"end":1441,"pitch":60,"velocity":86},{"start":1436,"end":1651,"pitch":48,"velocity":60},{"start":1436,"end":1554,"pitch":64,"velocity":71},{"start":1441,"end":1543,"pitch":52,"velocity":62},{"start":1441,"end":1564,"pitch":60,"velocity":86},{"start":1446,"end":1554,"pitch":55,"velocity":80},{"start":1543,"end":1686,"pitch":52,"velocity":80},{"start":1554,"end":1681,"pitch":55,"velocity":96},{"start":1554,"end":1676,"pitch":64,"velocity":51},{"start":1564,"end":1666,"pitch":60,"velocity":83},{"start":1661,"end":1891,"pitch":48,"velocity":50},{"start":1666,"end":1896,"pitch":60,"velocity":90},{"start":1681,"end":1896,"pitch":55,"velocity":87},{"start":1686,"end":1891,"pitch":52,"velocity":81},{"start":1891,"end":1999,"pitch":48,"velocity":65},{"start":1891,"end":2009,"pitch":52,"velocity":76},{"start":1896,"end":1999,"pitch":55,"velocity":78},{"start":1896,"end":2009,"pitch":60,"velocity":93},{"start":1999,"end":2121,"pitch":48,"velocity":82},{"start":1999,"end":2126,"pitch":55,"velocity":85},{"start":2009,"end":2126,"pitch":52,"velocity":83},{"start":2009,"end":2126,"pitch":60,"velocity":87},{"start":2009,"end":2126,"pitch":64,"velocity":55},{"start":2121,"end":2336,"pitch":48,"velocity":82},{"start":2126,"end":2346,"pitch":52,"velocity":83},{"start":2126,"end":2361,"pitch":55,"velocity":71},{"start":2126,"end":2351,"pitch":60,"velocity":88},{"start":2336,"end":2423,"pitch":48,"velocity":80},{"start":2346,"end":2463,"pitch":52,"velocity":67},{"start":2351,"end":2463,"pitch":60,"velocity":72},{"start":2361,"end":2458,"pitch":55,"velocity":78},{"start":2423,"end":2458,"pitch":48,"velocity":83},{"start":2458,"end":2576,"pitch":48,"velocity":75},{"start":2458,"end":2581,"pitch":55,"velocity":93},{"start":2463,"end":2540,"pitch":52,"velocity":65},{"start":2474,"end":2530,"pitch":40,"velocity":53},{"start":2581,"end":2673,"pitch":48,"velocity":43},{"start":2581,"end":2689,"pitch":55,"velocity":73},{"start":2586,"end":2643,"pitch":45,"velocity":51},{"start":2586,"end":2684,"pitch":60,"velocity":76},{"start":2596,"end":2653,"pitch":50,"velocity":58},{"start":2689,"end":2730,"pitch":55,"velocity":78},{"start":2694,"end":2949,"pitch":52,"velocity":79},{"start":2699,"end":4391,"pitch":40,"velocity":65},{"start":2704,"end":2832,"pitch":47,"velocity":87},{"start":2934,"end":3062,"pitch":55,"velocity":90},{"start":2944,"end":3057,"pitch":47,"velocity":74},{"start":2949,"end":3057,"pitch":52,"velocity":74},{"start":3057,"end":3394,"pitch":47,"velocity":60},{"start":3057,"end":3271,"pitch":52,"velocity":80},{"start":3057,"end":3276,"pitch":59,"velocity":73},{"start":3062,"end":3281,"pitch":55,"velocity":93},{"start":3271,"end":3358,"pitch":52,"velocity":85},{"start":3276,"end":3389,"pitch":59,"velocity":69},{"start":3281,"end":3389,"pitch":55,"velocity":77},{"start":3389,"end":3507,"pitch":55,"velocity":76},{"start":3389,"end":3502,"pitch":59,"velocity":73},{"start":3394,"end":3491,"pitch":47,"velocity":62},{"start":3394,"end":3517,"pitch":52,"velocity":78},{"start":3491,"end":3711,"pitch":47,"velocity":62},{"start":3502,"end":3736,"pitch":59,"velocity":86},{"start":3507,"end":3721,"pitch":55,"velocity":92},{"start":3517,"end":3726,"pitch":52,"velocity":73},{"start":3711,"end":3747,"pitch":47,"velocity":41},{"start":3721,"end":3834,"pitch":55,"velocity":78},{"start":3726,"end":3854,"pitch":52,"velocity":74},{"start":3736,"end":3849,"pitch":59,"velocity":70},{"start":3813,"end":3849,"pitch":47,"velocity":44},{"start":3849,"end":3977,"pitch":47,"velocity":61},{"start":3849,"end":3966,"pitch":59,"velocity":76},{"start":3854,"end":3971,"pitch":52,"velocity":64},{"start":3956,"end":4186,"pitch":55,"velocity":89},{"start":3966,"end":4053,"pitch":59,"velocity":80},{"start":3971,"end":4186,"pitch":52,"velocity":75},{"start":3977,"end":4196,"pitch":47,"velocity":68},{"start":4160,"end":4191,"pitch":59,"velocity":75},{"start":4186,"end":4273,"pitch":52,"velocity":62},{"start":4186,"end":4293,"pitch":55,"velocity":89},{"start":4191,"end":4304,"pitch":59,"velocity":83},{"start":4196,"end":4298,"pitch":47,"velocity":68},{"start":4283,"end":4370,"pitch":52,"velocity":54},{"start":4293,"end":4396,"pitch":55,"velocity":81},{"start":4298,"end":4344,"pitch":47,"velocity":47},{"start":4411,"end":4539,"pitch":53,"velocity":35},{"start":4411,"end":4462,"pitch":56,"velocity":85},{"start":4411,"end":4534,"pitch":60,"velocity":94},{"start":4422,"end":4483,"pitch":51,"velocity":47},{"start":4462,"end":4493,"pitch":56,"velocity":73},{"start":4483,"end":4544,"pitch":48,"velocity":54},{"start":4534,"end":4565,"pitch":57,"velocity":106},{"start":4534,"end":4759,"pitch":60,"velocity":62},{"start":4539,"end":4754,"pitch":53,"velocity":77},{"start":4539,"end":4754,"pitch":65,"velocity":45},{"start":4544,"end":4754,"pitch":48,"velocity":88},{"start":4565,"end":4611,"pitch":57,"velocity":112},{"start":4672,"end":4713,"pitch":41,"velocity":47},{"start":4754,"end":4876,"pitch":48,"velocity":85},{"start":4754,"end":4866,"pitch":53,"velocity":85},{"start":4754,"end":4846,"pitch":57,"velocity":102},{"start":4759,"end":4871,"pitch":60,"velocity":69},{"start":4764,"end":5326,"pitch":41,"velocity":55},{"start":4846,"end":4876,"pitch":57,"velocity":83},{"start":4866,"end":5096,"pitch":53,"velocity":82},{"start":4871,"end":5096,"pitch":60,"velocity":70},{"start":4876,"end":5091,"pitch":48,"velocity":80},{"start":4968,"end":5035,"pitch":57,"velocity":108},{"start":5091,"end":5203,"pitch":48,"velocity":82},{"start":5096,"end":5208,"pitch":53,"velocity":72},{"start":5096,"end":5208,"pitch":60,"velocity":69},{"start":5096,"end":5321,"pitch":65,"velocity":58},{"start":5101,"end":5213,"pitch":57,"velocity":99},{"start":5203,"end":5331,"pitch":48,"velocity":71},{"start":5208,"end":5321,"pitch":53,"velocity":87},{"start":5213,"end":5352,"pitch":57,"velocity":97},{"start":5321,"end":5541,"pitch":53,"velocity":83},{"start":5321,"end":5546,"pitch":60,"velocity":72},{"start":5321,"end":5541,"pitch":65,"velocity":46},{"start":5326,"end":5807,"pitch":41,"velocity":57},{"start":5331,"end":5566,"pitch":48,"velocity":67},{"start":5541,"end":5633,"pitch":53,"velocity":83},{"start":5541,"end":5663,"pitch":65,"velocity":59},{"start":5546,"end":5658,"pitch":57,"velocity":90},{"start":5546,"end":5663,"pitch":60,"velocity":70},{"start":5566,"end":5669,"pitch":48,"velocity":71},{"start":5633,"end":5663,"pitch":53,"velocity":73},{"start":5663,"end":5786,"pitch":53,"velocity":64},{"start":5663,"end":5786,"pitch":60,"velocity":77},{"start":5669,"end":5796,"pitch":48,"velocity":79},{"start":5689,"end":5740,"pitch":57,"velocity":106},{"start":5781,"end":6006,"pitch":65,"velocity":42},{"start":5786,"end":6011,"pitch":53,"velocity":69},{"start":5786,"end":5883,"pitch":57,"velocity":103},{"start":5786,"end":6016,"pitch":60,"velocity":72},{"start":5786,"end":5955,"pitch":69,"velocity":50},{"start":5796,"end":6001,"pitch":48,"velocity":77},{"start":5807,"end":6067,"pitch":41,"velocity":57},{"start":6001,"end":6139,"pitch":48,"velocity":77},{"start":6011,"end":6103,"pitch":53,"velocity":72},{"start":6016,"end":6119,"pitch":57,"velocity":96},{"start":6016,"end":6119,"pitch":60,"velocity":75},{"start":6103,"end":6139,"pitch":53,"velocity":69},{"start":6119,"end":6180,"pitch":57,"velocity":100},{"start":6119,"end":6246,"pitch":60,"velocity":74},{"start":6139,"end":6252,"pitch":48,"velocity":84},{"start":6144,"end":6211,"pitch":41,"velocity":43},{"start":6216,"end":6252,"pitch":56,"velocity":55},{"start":6246,"end":6369,"pitch":53,"velocity":69},{"start":6246,"end":6359,"pitch":60,"velocity":67},{"start":6252,"end":6343,"pitch":48,"velocity":90},{"start":6252,"end":6369,"pitch":56,"velocity":90},{"start":6267,"end":6318,"pitch":41,"velocity":50},{"start":6343,"end":6379,"pitch":48,"velocity":73},{"start":6359,"end":6578,"pitch":60,"velocity":70},{"start":6369,"end":6578,"pitch":53,"velocity":76},{"start":6369,"end":6573,"pitch":56,"velocity":94},{"start":6369,"end":6563,"pitch":65,"velocity":53},{"start":6573,"end":6619,"pitch":56,"velocity":92},{"start":6578,"end":6609,"pitch":48,"velocity":74},{"start":6578,"end":6609,"pitch":53,"velocity":77},{"start":6578,"end":6609,"pitch":60,"velocity":75},{"start":6609,"end":6701,"pitch":48,"velocity":81},{"start":6609,"end":6727,"pitch":53,"velocity":83},{"start":6619,"end":7054,"pitch":41,"velocity":52},{"start":6619,"end":6711,"pitch":56,"velocity":86},{"start":6701,"end":6732,"pitch":48,"velocity":59},{"start":6706,"end":6926,"pitch":65,"velocity":44},{"start":6711,"end":6956,"pitch":56,"velocity":81},{"start":6727,"end":6946,"pitch":53,"velocity":84},{"start":6727,"end":6956,"pitch":60,"velocity":76},{"start":6946,"end":7034,"pitch":53,"velocity":76},{"start":6956,"end":7029,"pitch":56,"velocity":89},{"start":7029,"end":7059,"pitch":56,"velocity":83},{"start":7034,"end":7151,"pitch":48,"velocity":75},{"start":7034,"end":7064,"pitch":53,"velocity":72},{"start":7059,"end":7923,"pitch":41,"velocity":51},{"start":7059,"end":7182,"pitch":56,"velocity":92},{"start":7064,"end":7182,"pitch":53,"velocity":86},{"start":7064,"end":7182,"pitch":60,"velocity":69},{"start":7151,"end":7376,"pitch":48,"velocity":63},{"start":7182,"end":7386,"pitch":53,"velocity":89},{"start":7182,"end":7407,"pitch":56,"velocity":91},{"start":7376,"end":7412,"pitch":48,"velocity":38},{"start":7386,"end":7417,"pitch":53,"velocity":82},{"start":7407,"end":7488,"pitch":56,"velocity":87},{"start":7412,"end":7483,"pitch":48,"velocity":65},{"start":7412,"end":7499,"pitch":60,"velocity":75},{"start":7417,"end":7529,"pitch":53,"velocity":81},{"start":7483,"end":7647,"pitch":48,"velocity":73},{"start":7488,"end":7524,"pitch":56,"velocity":80},{"start":7499,"end":7647,"pitch":60,"velocity":69},{"start":7529,"end":7647,"pitch":53,"velocity":78},{"start":7647,"end":7866,"pitch":48,"velocity":66},{"start":7647,"end":7867,"pitch":53,"velocity":78},{"start":7647,"end":7872,"pitch":56,"velocity":87},{"start":7647,"end":7867,"pitch":60,"velocity":88},{"start":7866,"end":7938,"pitch":48,"velocity":77},{"start":7867,"end":7984,"pitch":53,"velocity":70},{"start":7867,"end":7959,"pitch":60,"velocity":74},{"start":7872,"end":7974,"pitch":56,"velocity":86},{"start":7938,"end":7989,"pitch":48,"velocity":74},{"start":7974,"end":8056,"pitch":56,"velocity":91},{"start":7984,"end":8030,"pitch":53,"velocity":82},{"start":7989,"end":8035,"pitch":48,"velocity":84},{"start":8030,"end":8061,"pitch":53,"velocity":56},{"start":8035,"end":8066,"pitch":48,"velocity":62},{"start":8056,"end":8092,"pitch":55,"velocity":68},{"start":8092,"end":8209,"pitch":55,"velocity":76},{"start":8097,"end":8173,"pitch":50,"velocity":63},{"start":8102,"end":8158,"pitch":45,"velocity":47},{"start":8173,"end":8204,"pitch":48,"velocity":47},{"start":8204,"end":8444,"pitch":48,"velocity":82},{"start":8204,"end":8235,"pitch":60,"velocity":74},{"start":8209,"end":8255,"pitch":52,"velocity":66},{"start":8209,"end":8240,"pitch":55,"velocity":69},{"start":8230,"end":8388,"pitch":40,"velocity":56},{"start":8240,"end":8439,"pitch":55,"velocity":74},{"start":8255,"end":8398,"pitch":52,"velocity":71},{"start":8434,"end":8848,"pitch":40,"velocity":46},{"start":8439,"end":8572,"pitch":55,"velocity":85},{"start":8439,"end":8490,"pitch":60,"velocity":87},{"start":8444,"end":8562,"pitch":48,"velocity":81},{"start":8449,"end":8572,"pitch":52,"velocity":74},{"start":8562,"end":8787,"pitch":48,"velocity":80},{"start":8562,"end":8592,"pitch":60,"velocity":75},{"start":8572,"end":8669,"pitch":52,"velocity":73},{"start":8572,"end":8669,"pitch":55,"velocity":87},{"start":8669,"end":8802,"pitch":52,"velocity":68},{"start":8669,"end":8792,"pitch":55,"velocity":70},{"start":8669,"end":8740,"pitch":60,"velocity":68},{"start":8787,"end":8884,"pitch":48,"velocity":78},{"start":8792,"end":8869,"pitch":55,"velocity":70},{"start":8792,"end":8899,"pitch":60,"velocity":90},{"start":8802,"end":8899,"pitch":52,"velocity":75},{"start":8884,"end":9022,"pitch":48,"velocity":78},{"start":8899,"end":9022,"pitch":52,"velocity":71},{"start":8899,"end":9027,"pitch":55,"velocity":93},{"start":8899,"end":9027,"pitch":60,"velocity":89},{"start":9022,"end":9354,"pitch":48,"velocity":72},{"start":9022,"end":9252,"pitch":52,"velocity":62},{"start":9027,"end":9119,"pitch":55,"velocity":73},{"start":9027,"end":9145,"pitch":60,"velocity":80},{"start":9119,"end":9150,"pitch":55,"velocity":60},{"start":9145,"end":9247,"pitch":60,"velocity":73},{"start":9145,"end":9247,"pitch":64,"velocity":62},{"start":9247,"end":9359,"pitch":60,"velocity":78},{"start":9247,"end":9487,"pitch":64,"velocity":63},{"start":9354,"end":9492,"pitch":48,"velocity":70},{"start":9359,"end":9497,"pitch":55,"velocity":79},{"start":9487,"end":9814,"pitch":64,"velocity":53},{"start":9492,"end":9712,"pitch":48,"velocity":74},{"start":9492,"end":9676,"pitch":52,"velocity":59},{"start":9492,"end":9533,"pitch":60,"velocity":81},{"start":9497,"end":9533,"pitch":55,"velocity":78},{"start":9533,"end":9604,"pitch":55,"velocity":77},{"start":9533,"end":9604,"pitch":60,"velocity":76},{"start":9604,"end":9712,"pitch":55,"velocity":78},{"start":9604,"end":9712,"pitch":60,"velocity":75},{"start":9707,"end":9814,"pitch":52,"velocity":41},{"start":9712,"end":9809,"pitch":48,"velocity":74},{"start":9712,"end":9814,"pitch":55,"velocity":87},{"start":9809,"end":9906,"pitch":48,"velocity":66},{"start":9814,"end":9855,"pitch":52,"velocity":59},{"start":9814,"end":9932,"pitch":55,"velocity":88},{"start":9814,"end":9881,"pitch":60,"velocity":93},{"start":9855,"end":9886,"pitch":52,"velocity":48},{"start":9922,"end":9978,"pitch":52,"velocity":38},{"start":9932,"end":10044,"pitch":55,"velocity":77},{"start":9937,"end":9998,"pitch":50,"velocity":58},{"start":9937,"end":10044,"pitch":60,"velocity":55},{"start":10044,"end":10264,"pitch":52,"velocity":58},{"start":10044,"end":10075,"pitch":55,"velocity":94},{"start":10044,"end":10100,"pitch":60,"velocity":70},{"start":10049,"end":10080,"pitch":47,"velocity":59},{"start":10075,"end":10157,"pitch":55,"velocity":90},{"start":10080,"end":10203,"pitch":47,"velocity":55},{"start":10157,"end":10269,"pitch":55,"velocity":88},{"start":10264,"end":10397,"pitch":52,"velocity":60},{"start":10289,"end":10402,"pitch":47,"velocity":44},{"start":10305,"end":10346,"pitch":40,"velocity":47},{"start":10397,"end":10510,"pitch":52,"velocity":56},{"start":10397,"end":10448,"pitch":60,"velocity":58},{"start":10402,"end":10612,"pitch":55,"velocity":82},{"start":10407,"end":10494,"pitch":47,"velocity":52},{"start":10432,"end":10473,"pitch":40,"velocity":44},{"start":10494,"end":10556,"pitch":47,"velocity":48},{"start":10505,"end":10612,"pitch":59,"velocity":78},{"start":10510,"end":10596,"pitch":52,"velocity":50},{"start":10612,"end":10729,"pitch":52,"velocity":57},{"start":10612,"end":10729,"pitch":55,"velocity":87},{"start":10612,"end":10724,"pitch":59,"velocity":77},{"start":10617,"end":10740,"pitch":47,"velocity":36},{"start":10724,"end":10852,"pitch":59,"velocity":69},{"start":10729,"end":10811,"pitch":40,"velocity":44},{"start":10729,"end":10852,"pitch":52,"velocity":73},{"start":10729,"end":10852,"pitch":55,"velocity":87},{"start":10740,"end":10831,"pitch":47,"velocity":57},{"start":10847,"end":11046,"pitch":40,"velocity":45},{"start":10852,"end":11082,"pitch":52,"velocity":67},{"start":10852,"end":11082,"pitch":55,"velocity":75},{"start":10852,"end":10980,"pitch":59,"velocity":76},{"start":10857,"end":11046,"pitch":47,"velocity":59},{"start":10980,"end":11082,"pitch":59,"velocity":67},{"start":11066,"end":11169,"pitch":47,"velocity":42},{"start":11082,"end":11184,"pitch":52,"velocity":68},{"start":11082,"end":11189,"pitch":55,"velocity":76},{"start":11082,"end":11312,"pitch":59,"velocity":64},{"start":11169,"end":11286,"pitch":47,"velocity":58},{"start":11184,"end":11281,"pitch":52,"velocity":54},{"start":11189,"end":11312,"pitch":55,"velocity":72},{"start":11307,"end":11363,"pitch":47,"velocity":42},{"start":11307,"end":11491,"pitch":52,"velocity":45},{"start":11312,"end":11363,"pitch":55,"velocity":93},{"start":11312,"end":11363,"pitch":59,"velocity":75},{"start":11363,"end":11399,"pitch":47,"velocity":45},{"start":11363,"end":11532,"pitch":55,"velocity":80},{"start":11399,"end":11511,"pitch":47,"velocity":53},{"start":11511,"end":11603,"pitch":47,"velocity":45},{"start":11522,"end":11598,"pitch":52,"velocity":42},{"start":11532,"end":11649,"pitch":55,"velocity":77},{"start":11537,"end":11654,"pitch":59,"velocity":59},{"start":11619,"end":11685,"pitch":47,"velocity":32},{"start":11619,"end":11649,"pitch":52,"velocity":36},{"start":11649,"end":11690,"pitch":52,"velocity":49},{"start":11649,"end":11736,"pitch":55,"velocity":67},{"start":11660,"end":11711,"pitch":40,"velocity":47},{"start":11752,"end":11869,"pitch":65,"velocity":70},{"start":11757,"end":11874,"pitch":60,"velocity":76},{"start":11767,"end":11813,"pitch":56,"velocity":60},{"start":11833,"end":11864,"pitch":53,"velocity":51},{"start":11869,"end":12104,"pitch":53,"velocity":59},{"start":11874,"end":11951,"pitch":57,"velocity":101},{"start":11874,"end":12099,"pitch":60,"velocity":66},{"start":11879,"end":12078,"pitch":48,"velocity":67},{"start":12078,"end":12216,"pitch":48,"velocity":72},{"start":12099,"end":12211,"pitch":60,"velocity":72},{"start":12104,"end":12211,"pitch":53,"velocity":74},{"start":12211,"end":12442,"pitch":53,"velocity":71},{"start":12211,"end":12299,"pitch":60,"velocity":67},{"start":12211,"end":12340,"pitch":65,"velocity":72},{"start":12216,"end":12432,"pitch":48,"velocity":59},{"start":12216,"end":12365,"pitch":57,"velocity":76},{"start":12345,"end":12401,"pitch":41,"velocity":41},{"start":12345,"end":12442,"pitch":60,"velocity":75},{"start":12365,"end":12447,"pitch":57,"velocity":68},{"start":12442,"end":12544,"pitch":53,"velocity":73},{"start":12442,"end":12554,"pitch":60,"velocity":72},{"start":12447,"end":12559,"pitch":48,"velocity":54},{"start":12447,"end":12554,"pitch":57,"velocity":88},{"start":12447,"end":12493,"pitch":64,"velocity":54},{"start":12447,"end":12564,"pitch":69,"velocity":46},{"start":12544,"end":12672,"pitch":53,"velocity":65},{"start":12554,"end":12615,"pitch":57,"velocity":94},{"start":12559,"end":12672,"pitch":48,"velocity":66},{"start":12646,"end":12677,"pitch":57,"velocity":93},{"start":12672,"end":12866,"pitch":48,"velocity":57},{"start":12672,"end":12784,"pitch":53,"velocity":62},{"start":12672,"end":12789,"pitch":60,"velocity":78},{"start":12672,"end":12789,"pitch":65,"velocity":65},{"start":12672,"end":12738,"pitch":69,"velocity":46},{"start":12677,"end":12723,"pitch":45,"velocity":39},{"start":12784,"end":12912,"pitch":53,"velocity":47},{"start":12789,"end":12901,"pitch":60,"velocity":69},{"start":12789,"end":12850,"pitch":65,"velocity":52},{"start":12794,"end":12907,"pitch":57,"velocity":94},{"start":12901,"end":13024,"pitch":60,"velocity":79},{"start":12907,"end":13009,"pitch":57,"velocity":102},{"start":12912,"end":13024,"pitch":53,"velocity":73},{"start":12922,"end":13004,"pitch":48,"velocity":54},{"start":13009,"end":13152,"pitch":48,"velocity":67},{"start":13009,"end":13142,"pitch":57,"velocity":88},{"start":13024,"end":13147,"pitch":53,"velocity":67},{"start":13024,"end":13137,"pitch":60,"velocity":76},{"start":13024,"end":13137,"pitch":65,"velocity":49},{"start":13137,"end":13367,"pitch":60,"velocity":68},{"start":13137,"end":13265,"pitch":65,"velocity":57},{"start":13142,"end":13270,"pitch":57,"velocity":67},{"start":13142,"end":13188,"pitch":69,"velocity":62},{"start":13147,"end":13362,"pitch":53,"velocity":57},{"start":13152,"end":13474,"pitch":48,"velocity":66},{"start":13188,"end":13290,"pitch":69,"velocity":55},{"start":13209,"end":13290,"pitch":72,"velocity":37},{"start":13265,"end":13362,"pitch":65,"velocity":49},{"start":13270,"end":13377,"pitch":57,"velocity":73},{"start":13362,"end":13607,"pitch":53,"velocity":49},{"start":13362,"end":13484,"pitch":65,"velocity":60},{"start":13367,"end":13479,"pitch":60,"velocity":60},{"start":13377,"end":13479,"pitch":57,"velocity":72},{"start":13474,"end":13612,"pitch":48,"velocity":57},{"start":13479,"end":13530,"pitch":57,"velocity":94},{"start":13479,"end":13592,"pitch":60,"velocity":63},{"start":13592,"end":13684,"pitch":60,"velocity":61},{"start":13592,"end":13673,"pitch":65,"velocity":43},{"start":13607,"end":13735,"pitch":53,"velocity":59},{"start":13607,"end":13709,"pitch":56,"velocity":73},{"start":13612,"end":13689,"pitch":48,"velocity":58},{"start":13684,"end":13730,"pitch":60,"velocity":51},{"start":13689,"end":13730,"pitch":48,"velocity":53},{"start":13709,"end":13959,"pitch":56,"velocity":83},{"start":13730,"end":13908,"pitch":48,"velocity":78},{"start":13735,"end":13903,"pitch":53,"velocity":60},{"start":13745,"end":13893,"pitch":41,"velocity":52},{"start":13903,"end":13944,"pitch":53,"velocity":59},{"start":13908,"end":13939,"pitch":48,"velocity":61},{"start":13939,"end":14394,"pitch":48,"velocity":59},{"start":13944,"end":14072,"pitch":53,"velocity":76},{"start":13959,"end":14251,"pitch":41,"velocity":43},{"start":13959,"end":14078,"pitch":56,"velocity":75},{"start":13959,"end":14078,"pitch":60,"velocity":71},{"start":14072,"end":14302,"pitch":53,"velocity":68},{"start":14078,"end":14175,"pitch":56,"velocity":85},{"start":14078,"end":14169,"pitch":60,"velocity":81},{"start":14169,"end":14297,"pitch":60,"velocity":69},{"start":14175,"end":14302,"pitch":56,"velocity":66},{"start":14297,"end":14420,"pitch":60,"velocity":77},{"start":14302,"end":14542,"pitch":53,"velocity":53},{"start":14302,"end":14389,"pitch":56,"velocity":84},{"start":14389,"end":14548,"pitch":56,"velocity":79},{"start":14394,"end":14512,"pitch":48,"velocity":65},{"start":14542,"end":14762,"pitch":53,"velocity":60},{"start":14548,"end":14721,"pitch":48,"velocity":51},{"start":14548,"end":14762,"pitch":56,"velocity":69},{"start":14548,"end":14639,"pitch":60,"velocity":80},{"start":14639,"end":14767,"pitch":60,"velocity":76},{"start":14665,"end":14711,"pitch":41,"velocity":46},{"start":14762,"end":14865,"pitch":53,"velocity":59},{"start":14762,"end":14865,"pitch":56,"velocity":71},{"start":14767,"end":14865,"pitch":60,"velocity":78},{"start":14865,"end":14987,"pitch":53,"velocity":73},{"start":14865,"end":14993,"pitch":56,"velocity":89},{"start":14865,"end":14987,"pitch":60,"velocity":69},{"start":14875,"end":14987,"pitch":65,"velocity":44},{"start":14885,"end":14962,"pitch":48,"velocity":55},{"start":14982,"end":15182,"pitch":48,"velocity":54},{"start":14987,"end":15212,"pitch":53,"velocity":62},{"start":14987,"end":15217,"pitch":60,"velocity":69},{"start":14993,"end":15217,"pitch":56,"velocity":69},{"start":15212,"end":15330,"pitch":53,"velocity":68},{"start":15212,"end":15330,"pitch":65,"velocity":52},{"start":15217,"end":15330,"pitch":56,"velocity":76},{"start":15217,"end":15330,"pitch":60,"velocity":66},{"start":15217,"end":15314,"pitch":68,"velocity":49},{"start":15238,"end":15294,"pitch":48,"velocity":58},{"start":15294,"end":15330,"pitch":48,"velocity":50},{"start":15330,"end":15401,"pitch":48,"velocity":65},{"start":15330,"end":15396,"pitch":53,"velocity":69},{"start":15330,"end":15386,"pitch":56,"velocity":85},{"start":15330,"end":15396,"pitch":60,"velocity":59},{"start":15330,"end":15381,"pitch":65,"velocity":43},{"start":15406,"end":15457,"pitch":50,"velocity":31},{"start":15432,"end":15493,"pitch":52,"velocity":36},{"start":15437,"end":15514,"pitch":45,"velocity":56},{"start":15442,"end":15549,"pitch":55,"velocity":70},{"start":15442,"end":15529,"pitch":59,"velocity":77},{"start":15457,"end":15508,"pitch":50,"velocity":51},{"start":15524,"end":15795,"pitch":40,"velocity":50},{"start":15549,"end":15780,"pitch":55,"velocity":93},{"start":15560,"end":15611,"pitch":60,"velocity":83},{"start":15575,"end":15785,"pitch":52,"velocity":58},{"start":15626,"end":15775,"pitch":48,"velocity":57},{"start":15780,"end":15918,"pitch":48,"velocity":72},{"start":15780,"end":15913,"pitch":55,"velocity":82},{"start":15780,"end":15867,"pitch":60,"velocity":99},{"start":15785,"end":15892,"pitch":52,"velocity":61},{"start":15795,"end":16556,"pitch":40,"velocity":49},{"start":15913,"end":16015,"pitch":52,"velocity":61},{"start":15913,"end":16015,"pitch":55,"velocity":81},{"start":15913,"end":15953,"pitch":60,"velocity":91},{"start":15918,"end":16148,"pitch":48,"velocity":70},{"start":16015,"end":16137,"pitch":52,"velocity":62},{"start":16015,"end":16142,"pitch":55,"velocity":68},{"start":16015,"end":16132,"pitch":60,"velocity":82},{"start":16015,"end":16132,"pitch":64,"velocity":79},{"start":16132,"end":16250,"pitch":60,"velocity":81},{"start":16137,"end":16250,"pitch":52,"velocity":76},{"start":16142,"end":16240,"pitch":55,"velocity":81},{"start":16148,"end":16347,"pitch":48,"velocity":57},{"start":16240,"end":16377,"pitch":55,"velocity":88},{"start":16250,"end":16347,"pitch":52,"velocity":83},{"start":16250,"end":16372,"pitch":60,"velocity":90},{"start":16250,"end":16367,"pitch":64,"velocity":59},{"start":16347,"end":16377,"pitch":52,"velocity":69},{"start":16367,"end":16418,"pitch":64,"velocity":48},{"start":16372,"end":16485,"pitch":60,"velocity":90},{"start":16377,"end":16602,"pitch":52,"velocity":74},{"start":16403,"end":16439,"pitch":48,"velocity":42},{"start":16485,"end":16566,"pitch":60,"velocity":86},{"start":16587,"end":16685,"pitch":55,"velocity":81},{"start":16602,"end":16828,"pitch":52,"velocity":74},{"start":16602,"end":16710,"pitch":60,"velocity":82},{"start":16608,"end":16766,"pitch":40,"velocity":40},{"start":16679,"end":16807,"pitch":48,"velocity":73},{"start":16685,"end":16715,"pitch":55,"velocity":66},{"start":16715,"end":16807,"pitch":55,"velocity":77},{"start":16807,"end":17052,"pitch":48,"velocity":59},{"start":16807,"end":16838,"pitch":55,"velocity":68},{"start":16828,"end":16935,"pitch":52,"velocity":65},{"start":16833,"end":16930,"pitch":60,"velocity":83},{"start":16843,"end":17022,"pitch":40,"velocity":54},{"start":16930,"end":17052,"pitch":55,"velocity":81},{"start":16930,"end":17052,"pitch":60,"velocity":85},{"start":16930,"end":17057,"pitch":64,"velocity":60},{"start":16930,"end":17006,"pitch":72,"velocity":40},{"start":16935,"end":17057,"pitch":52,"velocity":60},{"start":17052,"end":17119,"pitch":48,"velocity":72},{"start":17052,"end":17170,"pitch":55,"velocity":82},{"start":17052,"end":17175,"pitch":60,"velocity":73},{"start":17057,"end":17180,"pitch":52,"velocity":58},{"start":17170,"end":17292,"pitch":55,"velocity":87},{"start":17175,"end":17323,"pitch":48,"velocity":55},{"start":17175,"end":17257,"pitch":60,"velocity":65},{"start":17180,"end":17241,"pitch":52,"velocity":47},{"start":17257,"end":17287,"pitch":60,"velocity":51},{"start":17287,"end":17318,"pitch":60,"velocity":81},{"start":17292,"end":17338,"pitch":50,"velocity":46},{"start":17292,"end":17420,"pitch":55,"velocity":70},{"start":17395,"end":17610,"pitch":52,"velocity":78},{"start":17410,"end":17456,"pitch":59,"velocity":41},{"start":17420,"end":17502,"pitch":55,"velocity":97},{"start":17502,"end":17610,"pitch":55,"velocity":91},{"start":17610,"end":17737,"pitch":52,"velocity":72},{"start":17610,"end":17763,"pitch":55,"velocity":95},{"start":17620,"end":17656,"pitch":59,"velocity":88},{"start":17737,"end":17967,"pitch":52,"velocity":71},{"start":17758,"end":17840,"pitch":59,"velocity":82},{"start":17763,"end":17850,"pitch":55,"velocity":91},{"start":17840,"end":17870,"pitch":59,"velocity":76},{"start":17850,"end":17967,"pitch":55,"velocity":88},{"start":17967,"end":18085,"pitch":52,"velocity":58},{"start":17967,"end":18029,"pitch":55,"velocity":85},{"start":17967,"end":18080,"pitch":59,"velocity":84},{"start":18069,"end":18197,"pitch":55,"velocity":72},{"start":18080,"end":18192,"pitch":59,"velocity":83},{"start":18085,"end":18192,"pitch":52,"velocity":62},{"start":18192,"end":18428,"pitch":52,"velocity":64},{"start":18192,"end":18387,"pitch":59,"velocity":68},{"start":18197,"end":18428,"pitch":55,"velocity":69},{"start":18320,"end":18361,"pitch":60,"velocity":46},{"start":18387,"end":18433,"pitch":59,"velocity":59},{"start":18428,"end":18520,"pitch":52,"velocity":61},{"start":18428,"end":18509,"pitch":55,"velocity":55},{"start":18509,"end":18652,"pitch":55,"velocity":71},{"start":18520,"end":18652,"pitch":52,"velocity":64},{"start":18520,"end":18647,"pitch":59,"velocity":67},{"start":18642,"end":18770,"pitch":64,"velocity":43},{"start":18647,"end":18775,"pitch":59,"velocity":74},{"start":18652,"end":18770,"pitch":52,"velocity":62},{"start":18652,"end":18719,"pitch":55,"velocity":85},{"start":18770,"end":18872,"pitch":52,"velocity":59},{"start":18770,"end":18882,"pitch":55,"velocity":83},{"start":18775,"end":18872,"pitch":59,"velocity":74},{"start":18872,"end":18990,"pitch":52,"velocity":51},{"start":18882,"end":18995,"pitch":55,"velocity":84},{"start":18990,"end":19046,"pitch":52,"velocity":50},{"start":18990,"end":19102,"pitch":59,"velocity":75},{"start":18995,"end":19107,"pitch":55,"velocity":67},{"start":18995,"end":19066,"pitch":64,"velocity":60},{"start":19107,"end":19168,"pitch":60,"velocity":94},{"start":19107,"end":19230,"pitch":65,"velocity":65},{"start":19133,"end":19173,"pitch":56,"velocity":64},{"start":19173,"end":19230,"pitch":57,"velocity":76},{"start":19230,"end":19414,"pitch":48,"velocity":61},{"start":19230,"end":19429,"pitch":53,"velocity":42},{"start":19230,"end":19435,"pitch":57,"velocity":87},{"start":19230,"end":19348,"pitch":60,"velocity":72},{"start":19348,"end":19440,"pitch":60,"velocity":77},{"start":19429,"end":19562,"pitch":53,"velocity":57},{"start":19435,"end":19475,"pitch":57,"velocity":83},{"start":19440,"end":19567,"pitch":60,"velocity":84},{"start":19475,"end":19567,"pitch":57,"velocity":81},{"start":19562,"end":19787,"pitch":53,"velocity":62},{"start":19562,"end":19690,"pitch":65,"velocity":66},{"start":19567,"end":19756,"pitch":57,"velocity":69},{"start":19567,"end":19792,"pitch":60,"velocity":73},{"start":19690,"end":19761,"pitch":64,"velocity":42},{"start":19756,"end":19792,"pitch":57,"velocity":62},{"start":19787,"end":19899,"pitch":53,"velocity":69},{"start":19792,"end":19859,"pitch":57,"velocity":82},{"start":19792,"end":19899,"pitch":60,"velocity":59},{"start":19899,"end":20258,"pitch":48,"velocity":52},{"start":19899,"end":20022,"pitch":53,"velocity":60},{"start":19899,"end":20022,"pitch":60,"velocity":72},{"start":19899,"end":19945,"pitch":65,"velocity":62},{"start":19904,"end":19961,"pitch":57,"velocity":87},{"start":19961,"end":20037,"pitch":57,"velocity":78},{"start":20022,"end":20068,"pitch":53,"velocity":69},{"start":20022,"end":20135,"pitch":60,"velocity":68},{"start":20037,"end":20130,"pitch":57,"velocity":81},{"start":20068,"end":20135,"pitch":53,"velocity":71},{"start":20130,"end":20237,"pitch":57,"velocity":75},{"start":20130,"end":20212,"pitch":69,"velocity":46},{"start":20135,"end":20232,"pitch":53,"velocity":71},{"start":20135,"end":20247,"pitch":60,"velocity":66},{"start":20232,"end":20283,"pitch":53,"velocity":78},{"start":20232,"end":20309,"pitch":65,"velocity":48},{"start":20237,"end":20288,"pitch":57,"velocity":78},{"start":20247,"end":20288,"pitch":60,"velocity":60},{"start":20258,"end":20355,"pitch":48,"velocity":61},{"start":20283,"end":20355,"pitch":53,"velocity":82},{"start":20288,"end":20355,"pitch":57,"velocity":77},{"start":20355,"end":20477,"pitch":48,"velocity":59},{"start":20355,"end":20477,"pitch":53,"velocity":73},{"start":20355,"end":20406,"pitch":57,"velocity":97},{"start":20355,"end":20477,"pitch":60,"velocity":71},{"start":20360,"end":20472,"pitch":65,"velocity":55},{"start":20452,"end":20482,"pitch":57,"velocity":80},{"start":20472,"end":20605,"pitch":65,"velocity":58},{"start":20477,"end":20569,"pitch":48,"velocity":56},{"start":20477,"end":20636,"pitch":53,"velocity":78},{"start":20477,"end":20610,"pitch":60,"velocity":51},{"start":20600,"end":20661,"pitch":57,"velocity":80},{"start":20605,"end":20636,"pitch":65,"velocity":62},{"start":20610,"end":20712,"pitch":60,"velocity":51},{"start":20636,"end":20707,"pitch":53,"velocity":67},{"start":20661,"end":20733,"pitch":57,"velocity":71},{"start":20707,"end":20825,"pitch":53,"velocity":71},{"start":20712,"end":20763,"pitch":48,"velocity":34},{"start":20712,"end":20825,"pitch":60,"velocity":54},{"start":20712,"end":20794,"pitch":65,"velocity":54},{"start":20733,"end":20819,"pitch":57,"velocity":79},{"start":20819,"end":20860,"pitch":57,"velocity":72},{"start":20825,"end":20942,"pitch":53,"velocity":63},{"start":20825,"end":20947,"pitch":60,"velocity":70},{"start":20830,"end":20942,"pitch":65,"velocity":54},{"start":20942,"end":20973,"pitch":53,"velocity":70},{"start":20947,"end":21035,"pitch":48,"velocity":41},{"start":20947,"end":21060,"pitch":56,"velocity":55},{"start":20947,"end":21029,"pitch":60,"velocity":80},{"start":21060,"end":21234,"pitch":56,"velocity":72},{"start":21060,"end":21132,"pitch":60,"velocity":81},{"start":21065,"end":21203,"pitch":53,"velocity":42},{"start":21106,"end":21142,"pitch":48,"velocity":32},{"start":21203,"end":21285,"pitch":53,"velocity":53},{"start":21213,"end":21285,"pitch":60,"velocity":86},{"start":21244,"end":21275,"pitch":48,"velocity":42},{"start":21275,"end":21326,"pitch":48,"velocity":64},{"start":21280,"end":21331,"pitch":56,"velocity":52},{"start":21285,"end":21351,"pitch":53,"velocity":64},{"start":21285,"end":21413,"pitch":60,"velocity":79},{"start":21285,"end":21346,"pitch":65,"velocity":45},{"start":21326,"end":21407,"pitch":48,"velocity":75},{"start":21331,"end":21407,"pitch":56,"velocity":68},{"start":21351,"end":21433,"pitch":53,"velocity":57},{"start":21407,"end":21443,"pitch":48,"velocity":80},{"start":21407,"end":21474,"pitch":56,"velocity":83},{"start":21413,"end":21520,"pitch":60,"velocity":78},{"start":21433,"end":21581,"pitch":53,"velocity":60},{"start":21515,"end":21581,"pitch":48,"velocity":63},{"start":21581,"end":21658,"pitch":48,"velocity":61},{"start":21581,"end":21648,"pitch":53,"velocity":54},{"start":21632,"end":21740,"pitch":56,"velocity":83},{"start":21648,"end":21678,"pitch":53,"velocity":66},{"start":21648,"end":21678,"pitch":60,"velocity":72},{"start":21658,"end":21745,"pitch":48,"velocity":69},{"start":21678,"end":21745,"pitch":53,"velocity":63},{"start":21740,"end":21863,"pitch":56,"velocity":77},{"start":21745,"end":21837,"pitch":48,"velocity":53},{"start":21745,"end":21791,"pitch":53,"velocity":44},{"start":21791,"end":21852,"pitch":53,"velocity":53},{"start":21852,"end":21950,"pitch":48,"velocity":43},{"start":21852,"end":21898,"pitch":53,"velocity":47},{"start":21858,"end":21975,"pitch":60,"velocity":70},{"start":21863,"end":21980,"pitch":56,"velocity":81},{"start":21980,"end":22082,"pitch":56,"velocity":68},{"start":22011,"end":22072,"pitch":53,"velocity":64},{"start":22016,"end":22077,"pitch":60,"velocity":53},{"start":22077,"end":22144,"pitch":53,"velocity":58},{"start":22077,"end":22139,"pitch":60,"velocity":63},{"start":22082,"end":22195,"pitch":56,"velocity":56},{"start":22123,"end":22225,"pitch":48,"velocity":50},{"start":22144,"end":22266,"pitch":53,"velocity":45},{"start":22185,"end":22231,"pitch":68,"velocity":34},{"start":22195,"end":22231,"pitch":56,"velocity":59},{"start":22195,"end":22256,"pitch":60,"velocity":82},{"start":22195,"end":22307,"pitch":65,"velocity":55},{"start":22231,"end":22276,"pitch":48,"velocity":51},{"start":22231,"end":22312,"pitch":56,"velocity":63},{"start":22307,"end":22496,"pitch":53,"velocity":52},{"start":22312,"end":22343,"pitch":56,"velocity":64},{"start":22312,"end":22374,"pitch":60,"velocity":71},{"start":22399,"end":22537,"pitch":48,"velocity":51},{"start":22471,"end":22547,"pitch":56,"velocity":68},{"start":22496,"end":22532,"pitch":53,"velocity":49},{"start":22542,"end":22578,"pitch":53,"velocity":41},{"start":22547,"end":22603,"pitch":56,"velocity":60},{"start":22547,"end":22665,"pitch":65,"velocity":63},{"start":22568,"end":22685,"pitch":60,"velocity":71},{"start":22578,"end":22634,"pitch":53,"velocity":47},{"start":22660,"end":22737,"pitch":56,"velocity":64},{"start":22665,"end":22716,"pitch":65,"velocity":58},{"start":22685,"end":22742,"pitch":60,"velocity":70},{"start":22716,"end":22742,"pitch":65,"velocity":52},{"start":22773,"end":22808,"pitch":59,"velocity":43},{"start":22778,"end":22824,"pitch":57,"velocity":28},{"start":22819,"end":22895,"pitch":55,"velocity":60},{"start":22895,"end":22926,"pitch":55,"velocity":63},{"start":22905,"end":22936,"pitch":52,"velocity":33},{"start":22910,"end":22951,"pitch":60,"velocity":79},{"start":22921,"end":23130,"pitch":48,"velocity":62},{"start":22926,"end":23156,"pitch":55,"velocity":76},{"start":22936,"end":23059,"pitch":52,"velocity":45},{"start":22951,"end":23130,"pitch":60,"velocity":63},{"start":23018,"end":23161,"pitch":64,"velocity":61},{"start":23125,"end":23253,"pitch":52,"velocity":55},{"start":23130,"end":23248,"pitch":48,"velocity":59},{"start":23156,"end":23253,"pitch":55,"velocity":74},{"start":23248,"end":23483,"pitch":48,"velocity":58},{"start":23253,"end":23478,"pitch":52,"velocity":65},{"start":23253,"end":23416,"pitch":55,"velocity":74},{"start":23253,"end":23309,"pitch":60,"velocity":71},{"start":23309,"end":23370,"pitch":60,"velocity":71},{"start":23370,"end":23406,"pitch":60,"velocity":79},{"start":23370,"end":23472,"pitch":64,"velocity":64},{"start":23416,"end":23478,"pitch":55,"velocity":66},{"start":23478,"end":23564,"pitch":52,"velocity":65},{"start":23478,"end":23523,"pitch":55,"velocity":62},{"start":23483,"end":23580,"pitch":48,"velocity":66},{"start":23483,"end":23585,"pitch":60,"velocity":78},{"start":23564,"end":23642,"pitch":52,"velocity":65},{"start":23580,"end":23698,"pitch":48,"velocity":78},{"start":23585,"end":23698,"pitch":55,"velocity":74},{"start":23585,"end":23657,"pitch":60,"velocity":89},{"start":23642,"end":23698,"pitch":52,"velocity":64},{"start":23698,"end":23882,"pitch":48,"velocity":63},{"start":23698,"end":23795,"pitch":52,"velocity":60},{"start":23698,"end":23754,"pitch":55,"velocity":73},{"start":23698,"end":23744,"pitch":60,"velocity":83},{"start":23754,"end":23820,"pitch":55,"velocity":56},{"start":23820,"end":23851,"pitch":55,"velocity":48},{"start":23825,"end":23892,"pitch":52,"velocity":42},{"start":23825,"end":23877,"pitch":60,"velocity":79},{"start":23851,"end":23928,"pitch":55,"velocity":64},{"start":23917,"end":24004,"pitch":52,"velocity":47},{"start":23917,"end":24035,"pitch":64,"velocity":56},{"start":23923,"end":24076,"pitch":60,"velocity":65},{"start":23928,"end":24035,"pitch":55,"velocity":62},{"start":23938,"end":24158,"pitch":48,"velocity":56},{"start":24035,"end":24158,"pitch":55,"velocity":73},{"start":24035,"end":24158,"pitch":64,"velocity":73},{"start":24158,"end":24229,"pitch":48,"velocity":40},{"start":24158,"end":24275,"pitch":52,"velocity":43},{"start":24158,"end":24224,"pitch":55,"velocity":61},{"start":24158,"end":24229,"pitch":60,"velocity":70},{"start":24158,"end":24280,"pitch":64,"velocity":63},{"start":24224,"end":24280,"pitch":55,"velocity":64},{"start":24229,"end":24275,"pitch":60,"velocity":68},{"start":24275,"end":24444,"pitch":48,"velocity":53},{"start":24275,"end":24357,"pitch":52,"velocity":48},{"start":24275,"end":24306,"pitch":60,"velocity":75},{"start":24280,"end":24321,"pitch":55,"velocity":59},{"start":24306,"end":24387,"pitch":60,"velocity":71},{"start":24321,"end":24392,"pitch":55,"velocity":66},{"start":24377,"end":24444,"pitch":52,"velocity":52},{"start":24387,"end":24438,"pitch":60,"velocity":55},{"start":24392,"end":24444,"pitch":55,"velocity":81},{"start":24438,"end":24490,"pitch":60,"velocity":65},{"start":24444,"end":24490,"pitch":48,"velocity":66},{"start":24444,"end":24495,"pitch":52,"velocity":59},{"start":24444,"end":24495,"pitch":55,"velocity":76},{"start":24490,"end":24592,"pitch":48,"velocity":69},{"start":24495,"end":24587,"pitch":52,"velocity":62},{"start":24495,"end":24536,"pitch":55,"velocity":86},{"start":24536,"end":24623,"pitch":55,"velocity":79},{"start":24618,"end":24669,"pitch":52,"velocity":42},{"start":24618,"end":24756,"pitch":59,"velocity":85},{"start":24623,"end":24689,"pitch":50,"velocity":41},{"start":24623,"end":24674,"pitch":55,"velocity":80},{"start":24735,"end":24807,"pitch":52,"velocity":69},{"start":24740,"end":24776,"pitch":55,"velocity":86},{"start":24756,"end":24832,"pitch":60,"velocity":59},{"start":24807,"end":24935,"pitch":52,"velocity":66},{"start":24812,"end":24899,"pitch":40,"velocity":50},{"start":24817,"end":24950,"pitch":55,"velocity":84},{"start":24950,"end":24996,"pitch":55,"velocity":80},{"start":24960,"end":24991,"pitch":52,"velocity":41},{"start":24960,"end":25052,"pitch":59,"velocity":60},{"start":24991,"end":25067,"pitch":52,"velocity":58},{"start":25083,"end":25180,"pitch":52,"velocity":43},{"start":25083,"end":25149,"pitch":55,"velocity":66},{"start":25083,"end":25144,"pitch":60,"velocity":37},{"start":25083,"end":25205,"pitch":64,"velocity":67},{"start":25149,"end":25205,"pitch":55,"velocity":62},{"start":25205,"end":25333,"pitch":52,"velocity":41},{"start":25205,"end":25251,"pitch":55,"velocity":63},{"start":25205,"end":25256,"pitch":59,"velocity":75},{"start":25251,"end":25369,"pitch":55,"velocity":61},{"start":25307,"end":25374,"pitch":59,"velocity":61},{"start":25333,"end":25369,"pitch":52,"velocity":66},{"start":25369,"end":25410,"pitch":52,"velocity":60},{"start":25369,"end":25461,"pitch":55,"velocity":69},{"start":25374,"end":25487,"pitch":59,"velocity":61},{"start":25461,"end":25543,"pitch":55,"velocity":79},{"start":25487,"end":25543,"pitch":59,"velocity":58},{"start":25543,"end":25599,"pitch":52,"velocity":60},{"start":25543,"end":25778,"pitch":55,"velocity":62},{"start":25543,"end":25604,"pitch":59,"velocity":73},{"start":25563,"end":25635,"pitch":47,"velocity":43},{"start":25599,"end":25645,"pitch":52,"velocity":53},{"start":25604,"end":25661,"pitch":59,"velocity":59},{"start":25661,"end":25773,"pitch":64,"velocity":50},{"start":25717,"end":25783,"pitch":52,"velocity":45},{"start":25773,"end":25895,"pitch":64,"velocity":52},{"start":25778,"end":25895,"pitch":55,"velocity":68},{"start":25783,"end":26008,"pitch":52,"velocity":59},{"start":25783,"end":26069,"pitch":59,"velocity":47},{"start":25895,"end":26013,"pitch":55,"velocity":69},{"start":26008,"end":26074,"pitch":52,"velocity":52},{"start":26008,"end":26115,"pitch":64,"velocity":42},{"start":26013,"end":26115,"pitch":55,"velocity":66},{"start":26115,"end":26315,"pitch":52,"velocity":50},{"start":26115,"end":26356,"pitch":55,"velocity":70},{"start":26115,"end":26233,"pitch":64,"velocity":55},{"start":26233,"end":26305,"pitch":59,"velocity":50},{"start":26346,"end":26484,"pitch":60,"velocity":44},{"start":26356,"end":26427,"pitch":55,"velocity":64},{"start":26453,"end":26560,"pitch":65,"velocity":61},{"start":26484,"end":26647,"pitch":60,"velocity":64},{"start":26591,"end":26621,"pitch":53,"velocity":69},{"start":26621,"end":26785,"pitch":53,"velocity":80},{"start":26632,"end":26729,"pitch":57,"velocity":91},{"start":26637,"end":26713,"pitch":48,"velocity":44},{"start":26647,"end":26770,"pitch":60,"velocity":55},{"start":26785,"end":26841,"pitch":53,"velocity":73},{"start":26800,"end":26836,"pitch":57,"velocity":99},{"start":26800,"end":26846,"pitch":60,"velocity":41},{"start":26800,"end":26836,"pitch":65,"velocity":33},{"start":26805,"end":27030,"pitch":48,"velocity":46},{"start":26836,"end":26928,"pitch":57,"velocity":90},{"start":26841,"end":26872,"pitch":53,"velocity":69},{"start":26846,"end":26902,"pitch":60,"velocity":50},{"start":26872,"end":26923,"pitch":53,"velocity":67},{"start":26877,"end":26923,"pitch":65,"velocity":59},{"start":26923,"end":27051,"pitch":53,"velocity":63},{"start":26923,"end":26969,"pitch":60,"velocity":52},{"start":26923,"end":27015,"pitch":65,"velocity":54},{"start":26928,"end":26984,"pitch":57,"velocity":91},{"start":26984,"end":27051,"pitch":57,"velocity":87},{"start":27035,"end":27107,"pitch":41,"velocity":39},{"start":27035,"end":27112,"pitch":48,"velocity":36},{"start":27045,"end":27076,"pitch":60,"velocity":59},{"start":27045,"end":27143,"pitch":64,"velocity":75},{"start":27045,"end":27138,"pitch":69,"velocity":56},{"start":27045,"end":27102,"pitch":72,"velocity":45},{"start":27051,"end":27081,"pitch":53,"velocity":54},{"start":27051,"end":27148,"pitch":57,"velocity":54},{"start":27081,"end":27148,"pitch":53,"velocity":45},{"start":27148,"end":27189,"pitch":53,"velocity":68},{"start":27148,"end":27184,"pitch":57,"velocity":92},{"start":27184,"end":27255,"pitch":57,"velocity":85},{"start":27189,"end":27255,"pitch":53,"velocity":71},{"start":27255,"end":27358,"pitch":48,"velocity":38},{"start":27255,"end":27317,"pitch":53,"velocity":66},{"start":27255,"end":27312,"pitch":57,"velocity":92},{"start":27255,"end":27317,"pitch":60,"velocity":67},{"start":27312,"end":27383,"pitch":57,"velocity":87},{"start":27317,"end":27383,"pitch":53,"velocity":76},{"start":27317,"end":27383,"pitch":60,"velocity":64},{"start":27378,"end":27490,"pitch":48,"velocity":60},{"start":27383,"end":27450,"pitch":53,"velocity":86},{"start":27383,"end":27444,"pitch":57,"velocity":100},{"start":27383,"end":27490,"pitch":60,"velocity":65},{"start":27388,"end":27475,"pitch":41,"velocity":42},{"start":27388,"end":27485,"pitch":65,"velocity":55},{"start":27450,"end":27490,"pitch":53,"velocity":69},{"start":27490,"end":27700,"pitch":48,"velocity":55},{"start":27490,"end":27531,"pitch":53,"velocity":59},{"start":27490,"end":27536,"pitch":57,"velocity":75},{"start":27490,"end":27526,"pitch":60,"velocity":61},{"start":27531,"end":27582,"pitch":53,"velocity":70},{"start":27536,"end":27567,"pitch":57,"velocity":96},{"start":27582,"end":27613,"pitch":53,"velocity":73},{"start":27608,"end":27690,"pitch":65,"velocity":60},{"start":27613,"end":27674,"pitch":53,"velocity":82},{"start":27613,"end":27710,"pitch":57,"velocity":79},{"start":27613,"end":27843,"pitch":60,"velocity":61},{"start":27618,"end":27669,"pitch":69,"velocity":48},{"start":27623,"end":27685,"pitch":41,"velocity":43},{"start":27700,"end":27853,"pitch":48,"velocity":60},{"start":27705,"end":27746,"pitch":65,"velocity":41},{"start":27710,"end":27761,"pitch":57,"velocity":89},{"start":27751,"end":27843,"pitch":53,"velocity":64},{"start":27761,"end":27848,"pitch":57,"velocity":78},{"start":27838,"end":27899,"pitch":65,"velocity":46},{"start":27843,"end":27966,"pitch":53,"velocity":71},{"start":27843,"end":27960,"pitch":60,"velocity":64},{"start":27848,"end":27914,"pitch":57,"velocity":103},{"start":27853,"end":27914,"pitch":48,"velocity":55},{"start":27960,"end":28058,"pitch":60,"velocity":54},{"start":27966,"end":28032,"pitch":48,"velocity":51},{"start":27966,"end":28053,"pitch":53,"velocity":59},{"start":27966,"end":28017,"pitch":57,"velocity":98},{"start":28017,"end":28053,"pitch":57,"velocity":89},{"start":28053,"end":28176,"pitch":53,"velocity":63},{"start":28053,"end":28109,"pitch":57,"velocity":90},{"start":28058,"end":28150,"pitch":60,"velocity":61},{"start":28109,"end":28170,"pitch":57,"velocity":81},{"start":28170,"end":28211,"pitch":57,"velocity":92},{"start":28176,"end":28232,"pitch":53,"velocity":69},{"start":28211,"end":28242,"pitch":57,"velocity":87},{"start":28232,"end":28288,"pitch":53,"velocity":68},{"start":28242,"end":28278,"pitch":57,"velocity":62},{"start":28288,"end":28339,"pitch":53,"velocity":64},{"start":28293,"end":28380,"pitch":48,"velocity":58},{"start":28293,"end":28405,"pitch":60,"velocity":69},{"start":28293,"end":28390,"pitch":65,"velocity":56},{"start":28298,"end":28405,"pitch":56,"velocity":71},{"start":28395,"end":28456,"pitch":48,"velocity":59},{"start":28400,"end":28436,"pitch":53,"velocity":42},{"start":28405,"end":28446,"pitch":56,"velocity":72},{"start":28405,"end":28528,"pitch":60,"velocity":63},{"start":28436,"end":28605,"pitch":53,"velocity":70},{"start":28456,"end":28589,"pitch":48,"velocity":80},{"start":28548,"end":28605,"pitch":56,"velocity":82},{"start":28589,"end":28625,"pitch":48,"velocity":64},{"start":28605,"end":28635,"pitch":53,"velocity":58},{"start":28625,"end":28666,"pitch":48,"velocity":66},{"start":28635,"end":28686,"pitch":53,"velocity":70},{"start":28640,"end":28671,"pitch":56,"velocity":77},{"start":28666,"end":28748,"pitch":48,"velocity":56},{"start":28666,"end":28753,"pitch":60,"velocity":55},{"start":28671,"end":28763,"pitch":56,"velocity":74},{"start":28686,"end":28748,"pitch":53,"velocity":65},{"start":28748,"end":29034,"pitch":48,"velocity":54},{"start":28748,"end":28968,"pitch":53,"velocity":63},{"start":28753,"end":28789,"pitch":60,"velocity":76},{"start":28763,"end":28973,"pitch":56,"velocity":75},{"start":28876,"end":28993,"pitch":60,"velocity":75},{"start":28876,"end":28988,"pitch":65,"velocity":51},{"start":28973,"end":29034,"pitch":53,"velocity":53},{"start":28973,"end":29004,"pitch":56,"velocity":58},{"start":28993,"end":29096,"pitch":60,"velocity":73},{"start":29034,"end":29070,"pitch":48,"velocity":45},{"start":29034,"end":29126,"pitch":53,"velocity":50},{"start":29039,"end":29080,"pitch":56,"velocity":70},{"start":29080,"end":29208,"pitch":56,"velocity":73},{"start":29096,"end":29131,"pitch":60,"velocity":68},{"start":29126,"end":29157,"pitch":53,"velocity":54},{"start":29131,"end":29208,"pitch":60,"velocity":75},{"start":29157,"end":29208,"pitch":53,"velocity":63},{"start":29208,"end":29325,"pitch":53,"velocity":61},{"start":29208,"end":29320,"pitch":56,"velocity":67},{"start":29208,"end":29320,"pitch":60,"velocity":69},{"start":29320,"end":29448,"pitch":56,"velocity":49},{"start":29320,"end":29382,"pitch":60,"velocity":62},{"start":29325,"end":29407,"pitch":53,"velocity":60},{"start":29371,"end":29453,"pitch":48,"velocity":40},{"start":29438,"end":29555,"pitch":60,"velocity":72},{"start":29448,"end":29545,"pitch":56,"velocity":80},{"start":29453,"end":29550,"pitch":48,"velocity":71},{"start":29545,"end":29678,"pitch":56,"velocity":65},{"start":29550,"end":29601,"pitch":48,"velocity":74},{"start":29555,"end":29601,"pitch":60,"velocity":79},{"start":29576,"end":29673,"pitch":53,"velocity":55},{"start":29601,"end":29776,"pitch":48,"velocity":59},{"start":29678,"end":29903,"pitch":53,"velocity":50},{"start":29678,"end":29714,"pitch":56,"velocity":74},{"start":29683,"end":29714,"pitch":60,"velocity":95},{"start":29714,"end":29919,"pitch":56,"velocity":71},{"start":29786,"end":29903,"pitch":48,"velocity":43},{"start":29791,"end":29822,"pitch":60,"velocity":80},{"start":29796,"end":29898,"pitch":65,"velocity":57},{"start":29878,"end":29908,"pitch":60,"velocity":69},{"start":29903,"end":29954,"pitch":48,"velocity":59},{"start":29903,"end":29949,"pitch":53,"velocity":41},{"start":29919,"end":30016,"pitch":56,"velocity":70},{"start":30005,"end":30041,"pitch":48,"velocity":51},{"start":30005,"end":30103,"pitch":60,"velocity":64},{"start":30011,"end":30072,"pitch":53,"velocity":43},{"start":30011,"end":30077,"pitch":65,"velocity":52},{"start":30016,"end":30092,"pitch":56,"velocity":70},{"start":30041,"end":30082,"pitch":48,"velocity":51},{"start":30118,"end":30159,"pitch":64,"velocity":36},{"start":30133,"end":30220,"pitch":59,"velocity":63},{"start":30138,"end":30251,"pitch":55,"velocity":48},{"start":30159,"end":30189,"pitch":50,"velocity":41},{"start":30169,"end":30200,"pitch":45,"velocity":43},{"start":30251,"end":30317,"pitch":55,"velocity":71},{"start":30256,"end":30338,"pitch":48,"velocity":51},{"start":30266,"end":30312,"pitch":52,"velocity":74},{"start":30271,"end":30312,"pitch":60,"velocity":82},{"start":30312,"end":30491,"pitch":52,"velocity":74},{"start":30312,"end":30373,"pitch":60,"velocity":69},{"start":30317,"end":30486,"pitch":55,"velocity":78},{"start":30338,"end":30481,"pitch":48,"velocity":46},{"start":30475,"end":30527,"pitch":60,"velocity":78},{"start":30481,"end":30527,"pitch":48,"velocity":70},{"start":30486,"end":30609,"pitch":55,"velocity":65},{"start":30491,"end":30521,"pitch":52,"velocity":52},{"start":30491,"end":30527,"pitch":64,"velocity":82},{"start":30521,"end":30599,"pitch":52,"velocity":52},{"start":30527,"end":30604,"pitch":48,"velocity":61},{"start":30527,"end":30604,"pitch":60,"velocity":73},{"start":30599,"end":30706,"pitch":52,"velocity":74},{"start":30599,"end":30706,"pitch":64,"velocity":77},{"start":30604,"end":30711,"pitch":48,"velocity":70},{"start":30604,"end":30675,"pitch":60,"velocity":86},{"start":30609,"end":30737,"pitch":55,"velocity":70},{"start":30706,"end":30737,"pitch":52,"velocity":70},{"start":30706,"end":30777,"pitch":60,"velocity":86},{"start":30711,"end":30839,"pitch":48,"velocity":68},{"start":30737,"end":30813,"pitch":52,"velocity":62},{"start":30813,"end":30864,"pitch":52,"velocity":65},{"start":30818,"end":30880,"pitch":64,"velocity":86},{"start":30823,"end":30880,"pitch":55,"velocity":85},{"start":30839,"end":30931,"pitch":48,"velocity":64},{"start":30864,"end":30931,"pitch":52,"velocity":76},{"start":30880,"end":30926,"pitch":55,"velocity":78},{"start":30926,"end":31058,"pitch":55,"velocity":83},{"start":30926,"end":30972,"pitch":60,"velocity":81},{"start":30931,"end":30972,"pitch":48,"velocity":70},{"start":30931,"end":31053,"pitch":52,"velocity":67},{"start":30972,"end":31053,"pitch":48,"velocity":64},{"start":31053,"end":31094,"pitch":48,"velocity":45},{"start":31053,"end":31115,"pitch":52,"velocity":58},{"start":31053,"end":31161,"pitch":60,"velocity":70},{"start":31053,"end":31099,"pitch":64,"velocity":63},{"start":31058,"end":31278,"pitch":55,"velocity":70},{"start":31115,"end":31150,"pitch":52,"velocity":47},{"start":31161,"end":31247,"pitch":60,"velocity":70},{"start":31278,"end":31396,"pitch":52,"velocity":46},{"start":31278,"end":31385,"pitch":55,"velocity":58},{"start":31278,"end":31406,"pitch":64,"velocity":66},{"start":31283,"end":31360,"pitch":48,"velocity":56},{"start":31283,"end":31334,"pitch":60,"velocity":85},{"start":31334,"end":31390,"pitch":60,"velocity":73},{"start":31360,"end":31396,"pitch":48,"velocity":69},{"start":31385,"end":31508,"pitch":55,"velocity":77},{"start":31390,"end":31478,"pitch":60,"velocity":69},{"start":31396,"end":31508,"pitch":48,"velocity":75},{"start":31396,"end":31447,"pitch":52,"velocity":66},{"start":31508,"end":31800,"pitch":48,"velocity":61},{"start":31508,"end":31575,"pitch":52,"velocity":47},{"start":31508,"end":31565,"pitch":55,"velocity":65},{"start":31508,"end":31544,"pitch":60,"velocity":61},{"start":31508,"end":31728,"pitch":64,"velocity":54},{"start":31544,"end":31636,"pitch":60,"velocity":44},{"start":31565,"end":31611,"pitch":55,"velocity":58},{"start":31611,"end":31662,"pitch":55,"velocity":69},{"start":31636,"end":31677,"pitch":60,"velocity":54},{"start":31733,"end":31764,"pitch":55,"velocity":70},{"start":31738,"end":31774,"pitch":60,"velocity":51},{"start":31764,"end":31800,"pitch":55,"velocity":72},{"start":31800,"end":31892,"pitch":48,"velocity":49},{"start":31800,"end":31856,"pitch":55,"velocity":70},{"start":31830,"end":31902,"pitch":52,"velocity":47},{"start":31856,"end":31978,"pitch":55,"velocity":75},{"start":31958,"end":32040,"pitch":52,"velocity":36},{"start":31973,"end":32024,"pitch":59,"velocity":53},{"start":31978,"end":32081,"pitch":55,"velocity":62},{"start":32070,"end":32111,"pitch":52,"velocity":33},{"start":32081,"end":32137,"pitch":55,"velocity":73},{"start":32106,"end":32137,"pitch":60,"velocity":64},{"start":32111,"end":32152,"pitch":40,"velocity":34},{"start":32111,"end":32341,"pitch":52,"velocity":66},{"start":32137,"end":32305,"pitch":55,"velocity":86},{"start":32305,"end":32434,"pitch":55,"velocity":78},{"start":32310,"end":32429,"pitch":60,"velocity":56},{"start":32316,"end":32347,"pitch":59,"velocity":40},{"start":32429,"end":32495,"pitch":52,"velocity":71},{"start":32429,"end":32500,"pitch":60,"velocity":58},{"start":32434,"end":32464,"pitch":55,"velocity":73},{"start":32495,"end":32556,"pitch":52,"velocity":70},{"start":32531,"end":32664,"pitch":59,"velocity":56},{"start":32556,"end":32587,"pitch":52,"velocity":70},{"start":32587,"end":32664,"pitch":52,"velocity":59},{"start":32664,"end":32755,"pitch":52,"velocity":62},{"start":32664,"end":32766,"pitch":55,"velocity":76},{"start":32664,"end":32694,"pitch":59,"velocity":84},{"start":32755,"end":32827,"pitch":52,"velocity":58},{"start":32766,"end":32893,"pitch":55,"velocity":75},{"start":32776,"end":32832,"pitch":59,"velocity":65},{"start":32827,"end":32888,"pitch":52,"velocity":60},{"start":32888,"end":32960,"pitch":52,"velocity":79},{"start":32893,"end":32990,"pitch":55,"velocity":79},{"start":32960,"end":32996,"pitch":52,"velocity":71},{"start":32990,"end":33067,"pitch":55,"velocity":63},{"start":32996,"end":33098,"pitch":52,"velocity":59},{"start":33067,"end":33113,"pitch":55,"velocity":67},{"start":33098,"end":33164,"pitch":52,"velocity":60},{"start":33113,"end":33231,"pitch":55,"velocity":61},{"start":33128,"end":33277,"pitch":59,"velocity":46},{"start":33221,"end":33282,"pitch":52,"velocity":59},{"start":33231,"end":33359,"pitch":55,"velocity":61},{"start":33277,"end":33354,"pitch":59,"velocity":57},{"start":33282,"end":33328,"pitch":52,"velocity":54},{"start":33354,"end":33420,"pitch":52,"velocity":36},{"start":33354,"end":33466,"pitch":59,"velocity":44},{"start":33354,"end":33466,"pitch":64,"velocity":57},{"start":33359,"end":33466,"pitch":55,"velocity":69},{"start":33466,"end":33563,"pitch":55,"velocity":78},{"start":33466,"end":33543,"pitch":59,"velocity":55},{"start":33466,"end":33558,"pitch":64,"velocity":54},{"start":33558,"end":33645,"pitch":59,"velocity":38},{"start":33563,"end":33619,"pitch":52,"velocity":30},{"start":33563,"end":33686,"pitch":55,"velocity":66},{"start":33681,"end":33716,"pitch":60,"velocity":35},{"start":33686,"end":33773,"pitch":55,"velocity":60},{"start":33778,"end":33808,"pitch":60,"velocity":81},{"start":33793,"end":33839,"pitch":56,"velocity":44},{"start":33803,"end":34028,"pitch":65,"velocity":58},{"start":33921,"end":34146,"pitch":48,"velocity":63},{"start":33921,"end":33992,"pitch":53,"velocity":68},{"start":33921,"end":33977,"pitch":60,"velocity":66},{"start":33926,"end":33992,"pitch":57,"velocity":92},{"start":33977,"end":34105,"pitch":60,"velocity":60},{"start":33992,"end":34156,"pitch":53,"velocity":74},{"start":34136,"end":34167,"pitch":60,"velocity":34},{"start":34136,"end":34197,"pitch":69,"velocity":36},{"start":34146,"end":34269,"pitch":48,"velocity":61},{"start":34146,"end":34202,"pitch":57,"velocity":89},{"start":34156,"end":34192,"pitch":53,"velocity":79},{"start":34167,"end":34212,"pitch":60,"velocity":52},{"start":34192,"end":34294,"pitch":53,"velocity":67},{"start":34202,"end":34269,"pitch":57,"velocity":82},{"start":34212,"end":34269,"pitch":60,"velocity":48},{"start":34269,"end":34386,"pitch":48,"velocity":60},{"start":34269,"end":34310,"pitch":57,"velocity":105},{"start":34269,"end":34381,"pitch":60,"velocity":66},{"start":34294,"end":34386,"pitch":53,"velocity":74},{"start":34376,"end":34488,"pitch":65,"velocity":48},{"start":34381,"end":34514,"pitch":60,"velocity":71},{"start":34386,"end":34478,"pitch":48,"velocity":53},{"start":34386,"end":34422,"pitch":53,"velocity":73},{"start":34386,"end":34524,"pitch":57,"velocity":89},{"start":34478,"end":34545,"pitch":48,"velocity":33},{"start":34483,"end":34580,"pitch":53,"velocity":45},{"start":34524,"end":34560,"pitch":57,"velocity":105},{"start":34545,"end":34647,"pitch":48,"velocity":41},{"start":34580,"end":34611,"pitch":53,"velocity":60},{"start":34596,"end":34728,"pitch":57,"velocity":83},{"start":34601,"end":34636,"pitch":60,"velocity":69},{"start":34611,"end":34657,"pitch":53,"velocity":69},{"start":34647,"end":34698,"pitch":48,"velocity":49},{"start":34652,"end":34698,"pitch":41,"velocity":50},{"start":34657,"end":34723,"pitch":53,"velocity":59},{"start":34723,"end":34841,"pitch":53,"velocity":59},{"start":34723,"end":34774,"pitch":60,"velocity":45},{"start":34728,"end":34887,"pitch":48,"velocity":45},{"start":34728,"end":34958,"pitch":57,"velocity":90},{"start":34841,"end":34877,"pitch":53,"velocity":69},{"start":34866,"end":34958,"pitch":60,"velocity":72},{"start":34887,"end":34958,"pitch":48,"velocity":61},{"start":34953,"end":35066,"pitch":65,"velocity":57},{"start":34958,"end":35066,"pitch":48,"velocity":63},{"start":34958,"end":35061,"pitch":53,"velocity":63},{"start":34958,"end":35051,"pitch":57,"velocity":94},{"start":34958,"end":35066,"pitch":60,"velocity":65},{"start":34958,"end":35010,"pitch":69,"velocity":51},{"start":35051,"end":35184,"pitch":57,"velocity":80},{"start":35061,"end":35184,"pitch":53,"velocity":57},{"start":35066,"end":35168,"pitch":48,"velocity":60},{"start":35066,"end":35184,"pitch":60,"velocity":70},{"start":35066,"end":35179,"pitch":65,"velocity":67},{"start":35184,"end":35240,"pitch":48,"velocity":45},{"start":35184,"end":35265,"pitch":53,"velocity":59},{"start":35184,"end":35301,"pitch":57,"velocity":88},{"start":35184,"end":35301,"pitch":60,"velocity":78},{"start":35276,"end":35408,"pitch":65,"velocity":56},{"start":35296,"end":35332,"pitch":48,"velocity":33},{"start":35301,"end":35419,"pitch":57,"velocity":77},{"start":35301,"end":35408,"pitch":60,"velocity":77},{"start":35408,"end":35521,"pitch":60,"velocity":70},{"start":35419,"end":35470,"pitch":53,"velocity":65},{"start":35419,"end":35465,"pitch":57,"velocity":101},{"start":35465,"end":35587,"pitch":48,"velocity":41},{"start":35465,"end":35516,"pitch":57,"velocity":89},{"start":35470,"end":35516,"pitch":53,"velocity":62},{"start":35516,"end":35592,"pitch":53,"velocity":59},{"start":35516,"end":35603,"pitch":57,"velocity":67},{"start":35592,"end":35633,"pitch":53,"velocity":67},{"start":35633,"end":35679,"pitch":53,"velocity":66},{"start":35633,"end":35674,"pitch":60,"velocity":78},{"start":35638,"end":35674,"pitch":48,"velocity":43},{"start":35643,"end":35679,"pitch":56,"velocity":71},{"start":35679,"end":35771,"pitch":53,"velocity":57},{"start":35679,"end":35756,"pitch":56,"velocity":69},{"start":35730,"end":35812,"pitch":48,"velocity":45},{"start":35751,"end":35853,"pitch":60,"velocity":75},{"start":35756,"end":35986,"pitch":56,"velocity":86},{"start":35961,"end":36027,"pitch":48,"velocity":40},{"start":35981,"end":36109,"pitch":53,"velocity":60},{"start":35981,"end":36053,"pitch":60,"velocity":68},{"start":35986,"end":36048,"pitch":56,"velocity":89},{"start":36027,"end":36119,"pitch":48,"velocity":43},{"start":36048,"end":36114,"pitch":56,"velocity":83},{"start":36104,"end":36185,"pitch":60,"velocity":68},{"start":36104,"end":36216,"pitch":65,"velocity":57},{"start":36109,"end":36237,"pitch":53,"velocity":78},{"start":36114,"end":36226,"pitch":56,"velocity":81},{"start":36119,"end":36185,"pitch":48,"velocity":69},{"start":36185,"end":36298,"pitch":48,"velocity":50},{"start":36216,"end":36323,"pitch":65,"velocity":55},{"start":36226,"end":36328,"pitch":56,"velocity":76},{"start":36231,"end":36288,"pitch":41,"velocity":51},{"start":36237,"end":36323,"pitch":53,"velocity":62},{"start":36237,"end":36328,"pitch":60,"velocity":71},{"start":36323,"end":36405,"pitch":48,"velocity":50},{"start":36323,"end":36400,"pitch":53,"velocity":73},{"start":36328,"end":36359,"pitch":56,"velocity":70},{"start":36328,"end":36461,"pitch":60,"velocity":73},{"start":36354,"end":36385,"pitch":41,"velocity":41},{"start":36400,"end":36436,"pitch":53,"velocity":49},{"start":36431,"end":36461,"pitch":56,"velocity":72},{"start":36436,"end":36579,"pitch":41,"velocity":49},{"start":36436,"end":36492,"pitch":53,"velocity":60},{"start":36461,"end":36497,"pitch":56,"velocity":74},{"start":36492,"end":36579,"pitch":53,"velocity":70},{"start":36492,"end":36558,"pitch":60,"velocity":77},{"start":36497,"end":36558,"pitch":56,"velocity":60},{"start":36558,"end":36620,"pitch":56,"velocity":81},{"start":36558,"end":36666,"pitch":60,"velocity":80},{"start":36579,"end":36717,"pitch":41,"velocity":55},{"start":36579,"end":36666,"pitch":53,"velocity":70},{"start":36666,"end":36773,"pitch":53,"velocity":43},{"start":36666,"end":36707,"pitch":60,"velocity":85},{"start":36666,"end":36701,"pitch":65,"velocity":41},{"start":36701,"end":36779,"pitch":56,"velocity":59},{"start":36701,"end":36768,"pitch":65,"velocity":54},{"start":36707,"end":36773,"pitch":60,"velocity":85},{"start":36712,"end":36738,"pitch":48,"velocity":43},{"start":36717,"end":36865,"pitch":41,"velocity":51},{"start":36773,"end":36911,"pitch":53,"velocity":61},{"start":36773,"end":36840,"pitch":60,"velocity":84},{"start":36779,"end":36891,"pitch":56,"velocity":54},{"start":36886,"end":36988,"pitch":48,"velocity":38},{"start":36891,"end":37121,"pitch":56,"velocity":76},{"start":36911,"end":37024,"pitch":53,"velocity":61},{"start":37019,"end":37126,"pitch":60,"velocity":72},{"start":37024,"end":37157,"pitch":53,"velocity":64},{"start":37121,"end":37249,"pitch":56,"velocity":68},{"start":37126,"end":37249,"pitch":60,"velocity":71},{"start":37126,"end":37249,"pitch":65,"velocity":46},{"start":37249,"end":37305,"pitch":53,"velocity":55},{"start":37249,"end":37361,"pitch":56,"velocity":73},{"start":37249,"end":37279,"pitch":60,"velocity":75},{"start":37274,"end":37330,"pitch":48,"velocity":55},{"start":37305,"end":37366,"pitch":53,"velocity":51},{"start":37361,"end":37397,"pitch":56,"velocity":65},{"start":37361,"end":37402,"pitch":60,"velocity":68},{"start":37366,"end":37422,"pitch":48,"velocity":37},{"start":37366,"end":37432,"pitch":53,"velocity":59},{"start":37397,"end":37427,"pitch":56,"velocity":55},{"start":37402,"end":37438,"pitch":60,"velocity":51},{"start":37473,"end":37514,"pitch":52,"velocity":28},{"start":37484,"end":37530,"pitch":59,"velocity":77},{"start":37509,"end":37622,"pitch":55,"velocity":67},{"start":37514,"end":37591,"pitch":52,"velocity":43},{"start":37591,"end":37837,"pitch":48,"velocity":52},{"start":37591,"end":37627,"pitch":52,"velocity":61},{"start":37597,"end":37688,"pitch":60,"velocity":59},{"start":37622,"end":37821,"pitch":55,"velocity":79},{"start":37627,"end":37811,"pitch":52,"velocity":66},{"start":37816,"end":38031,"pitch":52,"velocity":56},{"start":37816,"end":37903,"pitch":64,"velocity":49},{"start":37821,"end":37903,"pitch":55,"velocity":69},{"start":37837,"end":37939,"pitch":48,"velocity":72},{"start":37939,"end":38066,"pitch":48,"velocity":61},{"start":37939,"end":37985,"pitch":60,"velocity":70},{"start":37969,"end":38051,"pitch":55,"velocity":62},{"start":38031,"end":38143,"pitch":52,"velocity":63},{"start":38066,"end":38128,"pitch":48,"velocity":54},{"start":38102,"end":38164,"pitch":55,"velocity":42},{"start":38123,"end":38158,"pitch":64,"velocity":62},{"start":38128,"end":38164,"pitch":48,"velocity":48},{"start":38164,"end":38296,"pitch":55,"velocity":60},{"start":38164,"end":38266,"pitch":60,"velocity":60},{"start":38266,"end":38399,"pitch":60,"velocity":60},{"start":38296,"end":38404,"pitch":55,"velocity":72},{"start":38327,"end":38388,"pitch":48,"velocity":50},{"start":38399,"end":38439,"pitch":60,"velocity":85},{"start":38404,"end":38444,"pitch":52,"velocity":58},{"start":38404,"end":38450,"pitch":55,"velocity":72},{"start":38439,"end":38517,"pitch":60,"velocity":76},{"start":38444,"end":38506,"pitch":52,"velocity":53},{"start":38450,"end":38511,"pitch":55,"velocity":64},{"start":38506,"end":38552,"pitch":52,"velocity":48},{"start":38511,"end":38629,"pitch":55,"velocity":78},{"start":38517,"end":38629,"pitch":60,"velocity":76},{"start":38532,"end":38578,"pitch":48,"velocity":34},{"start":38624,"end":38787,"pitch":64,"velocity":53},{"start":38629,"end":38711,"pitch":52,"velocity":40},{"start":38629,"end":38859,"pitch":55,"velocity":60},{"start":38629,"end":38731,"pitch":60,"velocity":73},{"start":38757,"end":38879,"pitch":48,"velocity":57},{"start":38777,"end":38859,"pitch":60,"velocity":78},{"start":38787,"end":38859,"pitch":52,"velocity":48},{"start":38787,"end":38854,"pitch":64,"velocity":53},{"start":38859,"end":39012,"pitch":52,"velocity":58},{"start":38859,"end":38889,"pitch":55,"velocity":76},{"start":38859,"end":38895,"pitch":60,"velocity":70},{"start":38879,"end":38915,"pitch":48,"velocity":66},{"start":38889,"end":38976,"pitch":55,"velocity":66},{"start":38915,"end":38966,"pitch":48,"velocity":70},{"start":38930,"end":38966,"pitch":40,"velocity":42},{"start":38966,"end":39078,"pitch":48,"velocity":69},{"start":38966,"end":39002,"pitch":60,"velocity":69},{"start":38976,"end":39007,"pitch":55,"velocity":54},{"start":39002,"end":39078,"pitch":60,"velocity":73},{"start":39002,"end":39078,"pitch":64,"velocity":42},{"start":39007,"end":39078,"pitch":55,"velocity":60},{"start":39012,"end":39073,"pitch":52,"velocity":51},{"start":39078,"end":39242,"pitch":48,"velocity":57},{"start":39078,"end":39191,"pitch":55,"velocity":67},{"start":39078,"end":39191,"pitch":60,"velocity":57},{"start":39084,"end":39119,"pitch":52,"velocity":38},{"start":39084,"end":39140,"pitch":64,"velocity":55},{"start":39191,"end":39242,"pitch":55,"velocity":80},{"start":39191,"end":39222,"pitch":60,"velocity":77},{"start":39206,"end":39268,"pitch":52,"velocity":44},{"start":39222,"end":39273,"pitch":60,"velocity":69},{"start":39242,"end":39303,"pitch":48,"velocity":56},{"start":39242,"end":39313,"pitch":55,"velocity":69},{"start":39303,"end":39360,"pitch":52,"velocity":46},{"start":39308,"end":39421,"pitch":59,"velocity":73},{"start":39313,"end":39421,"pitch":55,"velocity":69},{"start":39421,"end":39472,"pitch":55,"velocity":66},{"start":39421,"end":39493,"pitch":59,"velocity":51},{"start":39421,"end":39621,"pitch":64,"velocity":55},{"start":39467,"end":39610,"pitch":52,"velocity":44},{"start":39472,"end":39641,"pitch":55,"velocity":62},{"start":39493,"end":39539,"pitch":59,"velocity":70},{"start":39539,"end":39585,"pitch":47,"velocity":48},{"start":39631,"end":39682,"pitch":47,"velocity":33},{"start":39641,"end":39697,"pitch":55,"velocity":67},{"start":39641,"end":39743,"pitch":67,"velocity":45},{"start":39646,"end":39692,"pitch":40,"velocity":43},{"start":39646,"end":39677,"pitch":52,"velocity":52},{"start":39677,"end":39774,"pitch":52,"velocity":62},{"start":39682,"end":39738,"pitch":47,"velocity":46},{"start":39692,"end":39769,"pitch":40,"velocity":57},{"start":39697,"end":39784,"pitch":55,"velocity":70},{"start":39774,"end":39825,"pitch":52,"velocity":51},{"start":39779,"end":39815,"pitch":59,"velocity":66},{"start":39784,"end":39830,"pitch":40,"velocity":46},{"start":39784,"end":39999,"pitch":55,"velocity":75},{"start":39825,"end":39876,"pitch":47,"velocity":43},{"start":39825,"end":39927,"pitch":52,"velocity":53},{"start":39830,"end":39902,"pitch":40,"velocity":63},{"start":39891,"end":39963,"pitch":64,"velocity":50},{"start":39927,"end":39993,"pitch":52,"velocity":51},{"start":39937,"end":39999,"pitch":59,"velocity":61},{"start":39942,"end":39973,"pitch":79,"velocity":42},{"start":39993,"end":40085,"pitch":52,"velocity":50},{"start":39993,"end":40096,"pitch":64,"velocity":47},{"start":39999,"end":40111,"pitch":55,"velocity":70},{"start":39999,"end":40106,"pitch":59,"velocity":72},{"start":40096,"end":40182,"pitch":47,"velocity":40},{"start":40101,"end":40152,"pitch":52,"velocity":47},{"start":40106,"end":40142,"pitch":59,"velocity":70},{"start":40111,"end":40142,"pitch":55,"velocity":76},{"start":40142,"end":40229,"pitch":55,"velocity":75},{"start":40142,"end":40229,"pitch":59,"velocity":68},{"start":40147,"end":40188,"pitch":40,"velocity":43},{"start":40152,"end":40188,"pitch":52,"velocity":63},{"start":40224,"end":40347,"pitch":64,"velocity":66},{"start":40229,"end":40336,"pitch":52,"velocity":56},{"start":40229,"end":40347,"pitch":55,"velocity":84},{"start":40229,"end":40280,"pitch":59,"velocity":81},{"start":40285,"end":40347,"pitch":40,"velocity":49},{"start":40347,"end":40530,"pitch":40,"velocity":50},{"start":40347,"end":40428,"pitch":47,"velocity":46},{"start":40347,"end":40382,"pitch":52,"velocity":36},{"start":40347,"end":40464,"pitch":55,"velocity":92},{"start":40347,"end":40459,"pitch":64,"velocity":55},{"start":40459,"end":40520,"pitch":47,"velocity":33},{"start":40459,"end":40551,"pitch":52,"velocity":51},{"start":40459,"end":40571,"pitch":59,"velocity":66},{"start":40464,"end":40515,"pitch":55,"velocity":73},{"start":40530,"end":40638,"pitch":40,"velocity":38},{"start":40566,"end":40627,"pitch":55,"velocity":89},{"start":40571,"end":40658,"pitch":52,"velocity":39},{"start":40571,"end":40602,"pitch":59,"velocity":68},{"start":40602,"end":40689,"pitch":59,"velocity":79},{"start":40627,"end":40694,"pitch":55,"velocity":82},{"start":40689,"end":40740,"pitch":59,"velocity":74},{"start":40694,"end":40735,"pitch":52,"velocity":28},{"start":40694,"end":40725,"pitch":55,"velocity":82},{"start":40725,"end":40837,"pitch":55,"velocity":76},{"start":40735,"end":40781,"pitch":52,"velocity":47},{"start":40740,"end":40791,"pitch":40,"velocity":45},{"start":40740,"end":40837,"pitch":59,"velocity":62},{"start":40837,"end":40868,"pitch":55,"velocity":85},{"start":40837,"end":40919,"pitch":59,"velocity":63},{"start":40837,"end":40919,"pitch":64,"velocity":59},{"start":40847,"end":40878,"pitch":40,"velocity":35},{"start":40862,"end":40898,"pitch":52,"velocity":50},{"start":40919,"end":41016,"pitch":55,"velocity":83},{"start":40919,"end":41046,"pitch":59,"velocity":66},{"start":41016,"end":41051,"pitch":55,"velocity":69},{"start":41046,"end":41149,"pitch":60,"velocity":53},{"start":41051,"end":41139,"pitch":55,"velocity":66},{"start":41067,"end":41118,"pitch":40,"velocity":50},{"start":41144,"end":41190,"pitch":56,"velocity":44},{"start":41144,"end":41205,"pitch":65,"velocity":71},{"start":41149,"end":41261,"pitch":60,"velocity":81},{"start":41195,"end":41231,"pitch":57,"velocity":82},{"start":41215,"end":41261,"pitch":48,"velocity":29},{"start":41261,"end":41297,"pitch":48,"velocity":61},{"start":41261,"end":41343,"pitch":60,"velocity":66},{"start":41282,"end":41328,"pitch":41,"velocity":36},{"start":41292,"end":41348,"pitch":57,"velocity":96},{"start":41297,"end":41445,"pitch":48,"velocity":77},{"start":41307,"end":41405,"pitch":53,"velocity":46},{"start":41328,"end":41440,"pitch":41,"velocity":60},{"start":41348,"end":41379,"pitch":57,"velocity":93},{"start":41379,"end":41486,"pitch":57,"velocity":88},{"start":41486,"end":41588,"pitch":57,"velocity":75},{"start":41486,"end":41548,"pitch":69,"velocity":43},{"start":41491,"end":41537,"pitch":48,"velocity":74},{"start":41491,"end":41532,"pitch":60,"velocity":90},{"start":41496,"end":41573,"pitch":41,"velocity":65},{"start":41532,"end":41614,"pitch":60,"velocity":73},{"start":41537,"end":41619,"pitch":48,"velocity":65},{"start":41573,"end":41614,"pitch":41,"velocity":53},{"start":41614,"end":41665,"pitch":53,"velocity":41},{"start":41614,"end":41665,"pitch":60,"velocity":71},{"start":41619,"end":41665,"pitch":41,"velocity":38},{"start":41619,"end":41685,"pitch":48,"velocity":57},{"start":41619,"end":41650,"pitch":57,"velocity":96},{"start":41650,"end":41731,"pitch":57,"velocity":84},{"start":41665,"end":41920,"pitch":41,"velocity":53},{"start":41665,"end":41762,"pitch":53,"velocity":47},{"start":41731,"end":41767,"pitch":57,"velocity":77},{"start":41737,"end":41834,"pitch":65,"velocity":48},{"start":41762,"end":41829,"pitch":53,"velocity":68},{"start":41829,"end":41956,"pitch":53,"velocity":62},{"start":41829,"end":41951,"pitch":60,"velocity":67},{"start":41920,"end":41951,"pitch":57,"velocity":72},{"start":41951,"end":41987,"pitch":57,"velocity":91},{"start":41951,"end":42069,"pitch":60,"velocity":66},{"start":41956,"end":41993,"pitch":53,"velocity":60},{"start":41967,"end":42018,"pitch":41,"velocity":39},{"start":41977,"end":42049,"pitch":48,"velocity":61},{"start":41987,"end":42044,"pitch":57,"velocity":87},{"start":41993,"end":42069,"pitch":53,"velocity":70},{"start":42044,"end":42074,"pitch":57,"velocity":81},{"start":42069,"end":42192,"pitch":53,"velocity":65},{"start":42069,"end":42171,"pitch":60,"velocity":70},{"start":42146,"end":42207,"pitch":57,"velocity":85},{"start":42171,"end":42294,"pitch":60,"velocity":52},{"start":42202,"end":42233,"pitch":53,"velocity":38},{"start":42233,"end":42263,"pitch":53,"velocity":46},{"start":42294,"end":42406,"pitch":60,"velocity":61},{"start":42294,"end":42335,"pitch":65,"velocity":45},{"start":42319,"end":42371,"pitch":57,"velocity":94},{"start":42340,"end":42463,"pitch":41,"velocity":37},{"start":42406,"end":42529,"pitch":60,"velocity":70},{"start":42411,"end":42468,"pitch":53,"velocity":57},{"start":42411,"end":42554,"pitch":57,"velocity":84},{"start":42411,"end":42524,"pitch":65,"velocity":51},{"start":42468,"end":42514,"pitch":41,"velocity":45},{"start":42468,"end":42524,"pitch":53,"velocity":54},{"start":42478,"end":42529,"pitch":69,"velocity":39},{"start":42524,"end":42575,"pitch":53,"velocity":50},{"start":42524,"end":42621,"pitch":65,"velocity":55},{"start":42529,"end":42575,"pitch":60,"velocity":56},{"start":42554,"end":42590,"pitch":57,"velocity":96},{"start":42575,"end":42759,"pitch":53,"velocity":68},{"start":42575,"end":42636,"pitch":60,"velocity":65},{"start":42585,"end":42641,"pitch":48,"velocity":43},{"start":42636,"end":42759,"pitch":60,"velocity":58},{"start":42641,"end":42759,"pitch":48,"velocity":51},{"start":42641,"end":42759,"pitch":57,"velocity":83},{"start":42759,"end":42820,"pitch":48,"velocity":52},{"start":42759,"end":42862,"pitch":53,"velocity":58},{"start":42759,"end":42867,"pitch":57,"velocity":88},{"start":42764,"end":42830,"pitch":41,"velocity":41},{"start":42856,"end":42897,"pitch":41,"velocity":65},{"start":42862,"end":42959,"pitch":53,"velocity":52},{"start":42867,"end":42933,"pitch":57,"velocity":82},{"start":42867,"end":42933,"pitch":60,"velocity":63},{"start":42933,"end":42984,"pitch":56,"velocity":55},{"start":42933,"end":42979,"pitch":60,"velocity":71},{"start":42974,"end":43066,"pitch":48,"velocity":54},{"start":42979,"end":43158,"pitch":41,"velocity":62},{"start":42979,"end":43035,"pitch":60,"velocity":74},{"start":42984,"end":43091,"pitch":56,"velocity":69},{"start":42989,"end":43097,"pitch":53,"velocity":55},{"start":43066,"end":43097,"pitch":48,"velocity":54},{"start":43097,"end":43158,"pitch":48,"velocity":68},{"start":43097,"end":43153,"pitch":53,"velocity":54},{"start":43097,"end":43158,"pitch":60,"velocity":80},{"start":43153,"end":43194,"pitch":53,"velocity":63},{"start":43158,"end":43219,"pitch":41,"velocity":72},{"start":43158,"end":43214,"pitch":48,"velocity":76},{"start":43194,"end":43275,"pitch":53,"velocity":52},{"start":43214,"end":43286,"pitch":48,"velocity":66},{"start":43219,"end":43306,"pitch":41,"velocity":51},{"start":43286,"end":43321,"pitch":48,"velocity":56},{"start":43306,"end":43398,"pitch":41,"velocity":56},{"start":43316,"end":43429,"pitch":53,"velocity":38},{"start":43316,"end":43357,"pitch":56,"velocity":69},{"start":43321,"end":43383,"pitch":48,"velocity":67},{"start":43326,"end":43357,"pitch":60,"velocity":82},{"start":43357,"end":43423,"pitch":56,"velocity":66},{"start":43383,"end":43464,"pitch":48,"velocity":44},{"start":43423,"end":43480,"pitch":56,"velocity":66},{"start":43449,"end":43556,"pitch":53,"velocity":49},{"start":43454,"end":43495,"pitch":41,"velocity":40},{"start":43454,"end":43500,"pitch":60,"velocity":83},{"start":43464,"end":43510,"pitch":48,"velocity":74},{"start":43480,"end":43561,"pitch":56,"velocity":78},{"start":43495,"end":43618,"pitch":41,"velocity":52},{"start":43561,"end":43674,"pitch":56,"velocity":53},{"start":43572,"end":43669,"pitch":65,"velocity":57},{"start":43582,"end":43612,"pitch":48,"velocity":66},{"start":43607,"end":43664,"pitch":60,"velocity":62},{"start":43612,"end":43684,"pitch":48,"velocity":66},{"start":43618,"end":43694,"pitch":41,"velocity":45},{"start":43664,"end":43776,"pitch":60,"velocity":56},{"start":43669,"end":43782,"pitch":65,"velocity":48},{"start":43674,"end":43746,"pitch":53,"velocity":59},{"start":43674,"end":43736,"pitch":56,"velocity":61},{"start":43684,"end":43736,"pitch":48,"velocity":86},{"start":43694,"end":43746,"pitch":41,"velocity":50},{"start":43736,"end":43776,"pitch":48,"velocity":72},{"start":43746,"end":43776,"pitch":41,"velocity":61},{"start":43746,"end":43776,"pitch":53,"velocity":49},{"start":43776,"end":43817,"pitch":41,"velocity":81},{"start":43776,"end":43817,"pitch":48,"velocity":73},{"start":43776,"end":43879,"pitch":53,"velocity":54},{"start":43776,"end":43812,"pitch":60,"velocity":64},{"start":43782,"end":43894,"pitch":65,"velocity":61},{"start":43802,"end":43909,"pitch":56,"velocity":72},{"start":43812,"end":43899,"pitch":60,"velocity":77},{"start":43817,"end":43894,"pitch":41,"velocity":77},{"start":43817,"end":43853,"pitch":48,"velocity":79},{"start":43894,"end":43935,"pitch":41,"velocity":82},{"start":43894,"end":43955,"pitch":48,"velocity":66},{"start":43894,"end":43955,"pitch":53,"velocity":56},{"start":43899,"end":43971,"pitch":60,"velocity":67},{"start":43909,"end":43950,"pitch":56,"velocity":81},{"start":43935,"end":43971,"pitch":41,"velocity":79},{"start":43955,"end":44027,"pitch":48,"velocity":87},{"start":43955,"end":44042,"pitch":53,"velocity":59},{"start":43971,"end":44022,"pitch":41,"velocity":69},{"start":43996,"end":44063,"pitch":56,"velocity":77},{"start":44022,"end":44078,"pitch":41,"velocity":66},{"start":44027,"end":44114,"pitch":48,"velocity":72},{"start":44027,"end":44119,"pitch":60,"velocity":61},{"start":44032,"end":44119,"pitch":65,"velocity":53},{"start":44042,"end":44078,"pitch":53,"velocity":59},{"start":44078,"end":44119,"pitch":41,"velocity":56},{"start":44078,"end":44119,"pitch":53,"velocity":49},{"start":44114,"end":44200,"pitch":48,"velocity":64},{"start":44119,"end":44170,"pitch":41,"velocity":56},{"start":44119,"end":44155,"pitch":53,"velocity":64},{"start":44119,"end":44200,"pitch":60,"velocity":77},{"start":44129,"end":44231,"pitch":56,"velocity":76},{"start":44170,"end":44200,"pitch":41,"velocity":46},{"start":44200,"end":44277,"pitch":48,"velocity":47},{"start":44231,"end":44272,"pitch":56,"velocity":69},{"start":44241,"end":44318,"pitch":53,"velocity":70},{"start":44241,"end":44318,"pitch":60,"velocity":73},{"start":44246,"end":44420,"pitch":65,"velocity":57},{"start":44262,"end":44308,"pitch":41,"velocity":46},{"start":44277,"end":44308,"pitch":48,"velocity":54},{"start":44308,"end":44354,"pitch":41,"velocity":56},{"start":44308,"end":44359,"pitch":48,"velocity":49},{"start":44318,"end":44568,"pitch":53,"velocity":50},{"start":44354,"end":44405,"pitch":41,"velocity":49},{"start":44359,"end":44400,"pitch":48,"velocity":60},{"start":44359,"end":44487,"pitch":56,"velocity":74},{"start":44400,"end":44435,"pitch":48,"velocity":81},{"start":44405,"end":44435,"pitch":41,"velocity":68},{"start":44435,"end":44476,"pitch":41,"velocity":62},{"start":44435,"end":44476,"pitch":48,"velocity":65},{"start":44476,"end":44517,"pitch":41,"velocity":62},{"start":44476,"end":44589,"pitch":48,"velocity":62},{"start":44487,"end":44584,"pitch":56,"velocity":70},{"start":44497,"end":44589,"pitch":60,"velocity":75},{"start":44584,"end":44625,"pitch":41,"velocity":42},{"start":44584,"end":44666,"pitch":53,"velocity":45},{"start":44584,"end":44686,"pitch":56,"velocity":71},{"start":44589,"end":44676,"pitch":48,"velocity":62},{"start":44589,"end":44697,"pitch":60,"velocity":75},{"start":44686,"end":44758,"pitch":56,"velocity":62},{"start":44697,"end":44758,"pitch":53,"velocity":39},{"start":44697,"end":44748,"pitch":60,"velocity":74},{"start":44697,"end":44768,"pitch":65,"velocity":54},{"start":44743,"end":44789,"pitch":41,"velocity":53},{"start":44758,"end":44819,"pitch":56,"velocity":68},{"start":44789,"end":44819,"pitch":41,"velocity":48},{"start":44804,"end":44834,"pitch":48,"velocity":37},{"start":44809,"end":44896,"pitch":53,"velocity":47},{"start":44814,"end":44911,"pitch":60,"velocity":54},{"start":44819,"end":44870,"pitch":41,"velocity":42},{"start":44834,"end":44901,"pitch":48,"velocity":58},{"start":44870,"end":44901,"pitch":41,"velocity":45},{"start":44870,"end":44901,"pitch":56,"velocity":56},{"start":45141,"end":45310,"pitch":74,"velocity":78},{"start":45693,"end":45739,"pitch":62,"velocity":47},{"start":46741,"end":46787,"pitch":55,"velocity":60},{"start":46761,"end":46823,"pitch":48,"velocity":62},{"start":46761,"end":46818,"pitch":60,"velocity":80},{"start":46767,"end":46833,"pitch":52,"velocity":48},{"start":46823,"end":46981,"pitch":48,"velocity":68},{"start":46828,"end":46874,"pitch":55,"velocity":71},{"start":46833,"end":46869,"pitch":52,"velocity":65},{"start":46869,"end":46961,"pitch":52,"velocity":66},{"start":46869,"end":46940,"pitch":60,"velocity":66},{"start":46874,"end":46935,"pitch":55,"velocity":69},{"start":46935,"end":46981,"pitch":55,"velocity":72},{"start":46961,"end":47109,"pitch":52,"velocity":63},{"start":46981,"end":47068,"pitch":48,"velocity":63},{"start":46981,"end":47114,"pitch":55,"velocity":68},{"start":46981,"end":47114,"pitch":60,"velocity":68},{"start":47104,"end":47329,"pitch":48,"velocity":59},{"start":47104,"end":47227,"pitch":64,"velocity":76},{"start":47109,"end":47227,"pitch":52,"velocity":64},{"start":47114,"end":47293,"pitch":55,"velocity":73},{"start":47114,"end":47180,"pitch":60,"velocity":84},{"start":47206,"end":47283,"pitch":60,"velocity":82},{"start":47227,"end":47334,"pitch":52,"velocity":67},{"start":47293,"end":47329,"pitch":55,"velocity":66},{"start":47329,"end":47462,"pitch":48,"velocity":60},{"start":47329,"end":47370,"pitch":55,"velocity":74},{"start":47334,"end":47457,"pitch":52,"velocity":68},{"start":47334,"end":47447,"pitch":60,"velocity":77},{"start":47447,"end":47569,"pitch":55,"velocity":79},{"start":47447,"end":47493,"pitch":60,"velocity":88},{"start":47457,"end":47569,"pitch":52,"velocity":71},{"start":47518,"end":47636,"pitch":48,"velocity":40},{"start":47569,"end":47666,"pitch":52,"velocity":61},{"start":47569,"end":47682,"pitch":55,"velocity":69},{"start":47574,"end":47682,"pitch":60,"velocity":81},{"start":47682,"end":47804,"pitch":55,"velocity":44},{"start":47682,"end":47738,"pitch":60,"velocity":79},{"start":47794,"end":47906,"pitch":64,"velocity":55},{"start":47799,"end":47911,"pitch":60,"velocity":75},{"start":47804,"end":47871,"pitch":55,"velocity":59},{"start":47871,"end":47906,"pitch":55,"velocity":59},{"start":47906,"end":48009,"pitch":52,"velocity":47},{"start":47906,"end":48034,"pitch":55,"velocity":60},{"start":47911,"end":48034,"pitch":60,"velocity":56},{"start":48029,"end":48152,"pitch":48,"velocity":43},{"start":48029,"end":48167,"pitch":64,"velocity":54},{"start":48034,"end":48127,"pitch":52,"velocity":53},{"start":48034,"end":48152,"pitch":55,"velocity":67},{"start":48034,"end":48157,"pitch":60,"velocity":75},{"start":48157,"end":48193,"pitch":55,"velocity":57},{"start":48157,"end":48188,"pitch":60,"velocity":61},{"start":48167,"end":48259,"pitch":64,"velocity":54},{"start":48193,"end":48275,"pitch":55,"velocity":65},{"start":48270,"end":48382,"pitch":60,"velocity":68},{"start":48275,"end":48387,"pitch":55,"velocity":70},{"start":48382,"end":48459,"pitch":60,"velocity":73},{"start":48387,"end":48505,"pitch":55,"velocity":75},{"start":48387,"end":48438,"pitch":64,"velocity":56},{"start":48438,"end":48499,"pitch":64,"velocity":51},{"start":48459,"end":48515,"pitch":60,"velocity":83},{"start":48499,"end":48627,"pitch":52,"velocity":39},{"start":48505,"end":48612,"pitch":55,"velocity":57},{"start":48515,"end":48627,"pitch":59,"velocity":40},{"start":48612,"end":48663,"pitch":55,"velocity":73},{"start":48627,"end":48673,"pitch":52,"velocity":74},{"start":48627,"end":48673,"pitch":59,"velocity":58},{"start":48637,"end":48668,"pitch":48,"velocity":49},{"start":48663,"end":48699,"pitch":55,"velocity":90},{"start":48673,"end":48704,"pitch":48,"velocity":54},{"start":48673,"end":48847,"pitch":52,"velocity":67},{"start":48699,"end":48847,"pitch":55,"velocity":81},{"start":48704,"end":48765,"pitch":48,"velocity":49},{"start":48750,"end":48796,"pitch":40,"velocity":44},{"start":48750,"end":48811,"pitch":59,"velocity":68},{"start":48847,"end":48960,"pitch":52,"velocity":56},{"start":48847,"end":48877,"pitch":55,"velocity":70},{"start":48877,"end":48970,"pitch":55,"velocity":72},{"start":48960,"end":49103,"pitch":52,"velocity":68},{"start":48965,"end":49036,"pitch":59,"velocity":86},{"start":48970,"end":49113,"pitch":55,"velocity":89},{"start":49072,"end":49108,"pitch":59,"velocity":84},{"start":49103,"end":49195,"pitch":52,"velocity":69},{"start":49108,"end":49195,"pitch":59,"velocity":85},{"start":49113,"end":49195,"pitch":55,"velocity":83},{"start":49195,"end":49302,"pitch":52,"velocity":65},{"start":49195,"end":49266,"pitch":55,"velocity":75},{"start":49195,"end":49312,"pitch":59,"velocity":78},{"start":49266,"end":49302,"pitch":55,"velocity":66},{"start":49302,"end":49348,"pitch":52,"velocity":59},{"start":49302,"end":49384,"pitch":55,"velocity":63},{"start":49312,"end":49348,"pitch":59,"velocity":75},{"start":49348,"end":49420,"pitch":52,"velocity":63},{"start":49420,"end":49481,"pitch":52,"velocity":74},{"start":49420,"end":49486,"pitch":59,"velocity":77},{"start":49435,"end":49537,"pitch":55,"velocity":79},{"start":49481,"end":49542,"pitch":52,"velocity":62},{"start":49537,"end":49583,"pitch":55,"velocity":66},{"start":49537,"end":49665,"pitch":59,"velocity":57},{"start":49537,"end":49655,"pitch":64,"velocity":46},{"start":49542,"end":49644,"pitch":52,"velocity":57},{"start":49583,"end":49660,"pitch":55,"velocity":63},{"start":49655,"end":49690,"pitch":52,"velocity":48},{"start":49660,"end":49808,"pitch":55,"velocity":63},{"start":49665,"end":49711,"pitch":59,"velocity":70},{"start":49690,"end":49767,"pitch":52,"velocity":61},{"start":49767,"end":49854,"pitch":52,"velocity":61},{"start":49854,"end":49895,"pitch":52,"velocity":58},{"start":49859,"end":49890,"pitch":55,"velocity":71},{"start":49890,"end":49936,"pitch":55,"velocity":74},{"start":49890,"end":49967,"pitch":59,"velocity":50},{"start":49895,"end":49987,"pitch":52,"velocity":67},{"start":49936,"end":49987,"pitch":55,"velocity":77},{"start":49987,"end":50120,"pitch":52,"velocity":61},{"start":49987,"end":50033,"pitch":55,"velocity":79},{"start":49987,"end":50018,"pitch":59,"velocity":38},{"start":49987,"end":50048,"pitch":64,"velocity":57},{"start":50033,"end":50115,"pitch":55,"velocity":76},{"start":50043,"end":50110,"pitch":59,"velocity":37},{"start":50110,"end":50217,"pitch":59,"velocity":66},{"start":50115,"end":50217,"pitch":55,"velocity":75},{"start":50217,"end":50253,"pitch":52,"velocity":34},{"start":50217,"end":50258,"pitch":55,"velocity":74},{"start":50217,"end":50289,"pitch":59,"velocity":60},{"start":50289,"end":50335,"pitch":55,"velocity":67},{"start":50335,"end":50677,"pitch":65,"velocity":49},{"start":50340,"end":50396,"pitch":56,"velocity":73},{"start":50340,"end":50401,"pitch":60,"velocity":84},{"start":50396,"end":50452,"pitch":57,"velocity":75},{"start":50452,"end":50508,"pitch":48,"velocity":45},{"start":50452,"end":50498,"pitch":57,"velocity":82},{"start":50472,"end":50534,"pitch":53,"velocity":56},{"start":50498,"end":50529,"pitch":57,"velocity":80},{"start":50508,"end":50656,"pitch":48,"velocity":67},{"start":50539,"end":50667,"pitch":53,"velocity":63},{"start":50590,"end":50626,"pitch":57,"velocity":78},{"start":50672,"end":50718,"pitch":53,"velocity":39},{"start":50672,"end":50718,"pitch":60,"velocity":58},{"start":50672,"end":50744,"pitch":69,"velocity":46},{"start":50677,"end":50718,"pitch":65,"velocity":58},{"start":50682,"end":50739,"pitch":57,"velocity":66},{"start":50697,"end":50728,"pitch":48,"velocity":36},{"start":50718,"end":50795,"pitch":53,"velocity":60},{"start":50718,"end":50795,"pitch":60,"velocity":66},{"start":50728,"end":50805,"pitch":48,"velocity":51},{"start":50795,"end":50958,"pitch":53,"velocity":66},{"start":50795,"end":50871,"pitch":57,"velocity":101},{"start":50795,"end":50831,"pitch":60,"velocity":63},{"start":50805,"end":50907,"pitch":48,"velocity":71},{"start":50907,"end":50963,"pitch":48,"velocity":54},{"start":50907,"end":50958,"pitch":60,"velocity":60},{"start":50912,"end":51030,"pitch":57,"velocity":75},{"start":50958,"end":51025,"pitch":53,"velocity":47},{"start":50958,"end":51025,"pitch":60,"velocity":66},{"start":51025,"end":51122,"pitch":53,"velocity":65},{"start":51025,"end":51127,"pitch":60,"velocity":61},{"start":51030,"end":51122,"pitch":57,"velocity":71},{"start":51030,"end":51086,"pitch":64,"velocity":63},{"start":51122,"end":51224,"pitch":57,"velocity":73},{"start":51127,"end":51178,"pitch":60,"velocity":62},{"start":51178,"end":51214,"pitch":48,"velocity":36},{"start":51178,"end":51219,"pitch":60,"velocity":55},{"start":51224,"end":51290,"pitch":57,"velocity":73},{"start":51265,"end":51295,"pitch":53,"velocity":55},{"start":51265,"end":51311,"pitch":60,"velocity":50},{"start":51270,"end":51321,"pitch":48,"velocity":50},{"start":51290,"end":51362,"pitch":57,"velocity":89},{"start":51295,"end":51347,"pitch":53,"velocity":55},{"start":51362,"end":51403,"pitch":57,"velocity":80},{"start":51362,"end":51398,"pitch":60,"velocity":55},{"start":51387,"end":51566,"pitch":48,"velocity":40},{"start":51403,"end":51459,"pitch":57,"velocity":92},{"start":51459,"end":51490,"pitch":57,"velocity":89},{"start":51484,"end":51684,"pitch":53,"velocity":49},{"start":51490,"end":51587,"pitch":57,"velocity":87},{"start":51587,"end":51628,"pitch":57,"velocity":80},{"start":51592,"end":51715,"pitch":60,"velocity":61},{"start":51613,"end":51643,"pitch":65,"velocity":49},{"start":51628,"end":51715,"pitch":57,"velocity":85},{"start":51715,"end":51858,"pitch":57,"velocity":95},{"start":51715,"end":51832,"pitch":60,"velocity":66},{"start":51832,"end":51960,"pitch":60,"velocity":52},{"start":51832,"end":51960,"pitch":65,"velocity":53},{"start":51858,"end":51945,"pitch":57,"velocity":80},{"start":51945,"end":51986,"pitch":57,"velocity":69},{"start":51960,"end":52052,"pitch":60,"velocity":52},{"start":51960,"end":52088,"pitch":65,"velocity":55},{"start":52047,"end":52078,"pitch":57,"velocity":75},{"start":52052,"end":52088,"pitch":48,"velocity":33},{"start":52052,"end":52129,"pitch":60,"velocity":75},{"start":52078,"end":52108,"pitch":57,"velocity":84},{"start":52083,"end":52175,"pitch":53,"velocity":39},{"start":52088,"end":52134,"pitch":48,"velocity":55},{"start":52088,"end":52170,"pitch":65,"velocity":62},{"start":52108,"end":52149,"pitch":57,"velocity":65},{"start":52134,"end":52200,"pitch":48,"velocity":63},{"start":52175,"end":52251,"pitch":53,"velocity":72},{"start":52175,"end":52221,"pitch":60,"velocity":72},{"start":52200,"end":52272,"pitch":48,"velocity":64},{"start":52251,"end":52287,"pitch":53,"velocity":57},{"start":52277,"end":52338,"pitch":57,"velocity":31},{"start":52282,"end":52338,"pitch":60,"velocity":85},{"start":52287,"end":52553,"pitch":53,"velocity":67},{"start":52333,"end":52563,"pitch":41,"velocity":46},{"start":52338,"end":52456,"pitch":56,"velocity":58},{"start":52343,"end":52384,"pitch":48,"velocity":41},{"start":52461,"end":52507,"pitch":48,"velocity":42},{"start":52497,"end":52548,"pitch":60,"velocity":70},{"start":52502,"end":52548,"pitch":56,"velocity":69},{"start":52507,"end":52574,"pitch":48,"velocity":55},{"start":52548,"end":52609,"pitch":56,"velocity":68},{"start":52548,"end":52594,"pitch":60,"velocity":76},{"start":52553,"end":52635,"pitch":53,"velocity":42},{"start":52574,"end":52645,"pitch":48,"velocity":50},{"start":52609,"end":52640,"pitch":56,"velocity":67},{"start":52635,"end":52860,"pitch":53,"velocity":59},{"start":52635,"end":52804,"pitch":60,"velocity":77},{"start":52640,"end":52798,"pitch":56,"velocity":75},{"start":52645,"end":52696,"pitch":48,"velocity":46},{"start":52798,"end":52865,"pitch":56,"velocity":63},{"start":52860,"end":52947,"pitch":53,"velocity":50},{"start":52865,"end":52962,"pitch":56,"velocity":63},{"start":52865,"end":52972,"pitch":60,"velocity":61},{"start":52967,"end":53013,"pitch":53,"velocity":37},{"start":52972,"end":53023,"pitch":60,"velocity":67},{"start":53008,"end":53049,"pitch":56,"velocity":38},{"start":53013,"end":53054,"pitch":53,"velocity":53},{"start":53023,"end":53095,"pitch":60,"velocity":75},{"start":53090,"end":53207,"pitch":53,"velocity":68},{"start":53095,"end":53222,"pitch":60,"velocity":73},{"start":53110,"end":53289,"pitch":56,"velocity":51},{"start":53222,"end":53320,"pitch":60,"velocity":58},{"start":53320,"end":53407,"pitch":53,"velocity":49},{"start":53320,"end":53432,"pitch":60,"velocity":72},{"start":53320,"end":53473,"pitch":65,"velocity":51},{"start":53432,"end":53473,"pitch":60,"velocity":78},{"start":53468,"end":53524,"pitch":56,"velocity":56},{"start":53473,"end":53555,"pitch":60,"velocity":78},{"start":53473,"end":53550,"pitch":65,"velocity":57},{"start":53524,"end":53560,"pitch":56,"velocity":43},{"start":53545,"end":53642,"pitch":53,"velocity":46},{"start":53560,"end":53606,"pitch":56,"velocity":62},{"start":53606,"end":53800,"pitch":56,"velocity":46},{"start":53667,"end":53780,"pitch":60,"velocity":64},{"start":53780,"end":53887,"pitch":60,"velocity":64},{"start":53800,"end":53862,"pitch":56,"velocity":55},{"start":53882,"end":53928,"pitch":56,"velocity":47},{"start":53887,"end":53938,"pitch":60,"velocity":43},{"start":54010,"end":54117,"pitch":55,"velocity":62},{"start":54010,"end":54091,"pitch":59,"velocity":70},{"start":54117,"end":54153,"pitch":55,"velocity":59},{"start":54132,"end":54163,"pitch":60,"velocity":68},{"start":54148,"end":54358,"pitch":52,"velocity":56},{"start":54153,"end":54342,"pitch":55,"velocity":70},{"start":54210,"end":54337,"pitch":48,"velocity":54},{"start":54342,"end":54460,"pitch":48,"velocity":59},{"start":54342,"end":54480,"pitch":55,"velocity":76},{"start":54460,"end":54567,"pitch":48,"velocity":39},{"start":54475,"end":54623,"pitch":60,"velocity":94},{"start":54480,"end":54547,"pitch":52,"velocity":57},{"start":54480,"end":54511,"pitch":55,"velocity":69},{"start":54593,"end":54664,"pitch":52,"velocity":50},{"start":54623,"end":54705,"pitch":60,"velocity":88},{"start":54695,"end":54751,"pitch":64,"velocity":83},{"start":54705,"end":54761,"pitch":60,"velocity":85},{"start":54715,"end":54792,"pitch":48,"velocity":39},{"start":54720,"end":54756,"pitch":55,"velocity":69},{"start":54756,"end":54807,"pitch":55,"velocity":60},{"start":54761,"end":54812,"pitch":60,"velocity":83},{"start":54792,"end":54930,"pitch":48,"velocity":52},{"start":54807,"end":54853,"pitch":52,"velocity":39},{"start":54807,"end":54879,"pitch":55,"velocity":85},{"start":54812,"end":54894,"pitch":60,"velocity":70},{"start":54853,"end":54894,"pitch":52,"velocity":61},{"start":54894,"end":54935,"pitch":52,"velocity":53},{"start":54930,"end":55099,"pitch":48,"velocity":56},{"start":54930,"end":55155,"pitch":64,"velocity":54},{"start":54935,"end":55084,"pitch":52,"velocity":62},{"start":54935,"end":54991,"pitch":55,"velocity":86},{"start":54935,"end":55052,"pitch":60,"velocity":78},{"start":55052,"end":55099,"pitch":60,"velocity":71},{"start":55057,"end":55089,"pitch":55,"velocity":75},{"start":55084,"end":55165,"pitch":52,"velocity":58},{"start":55089,"end":55165,"pitch":55,"velocity":65},{"start":55099,"end":55155,"pitch":48,"velocity":66},{"start":55099,"end":55155,"pitch":60,"velocity":64},{"start":55155,"end":55283,"pitch":48,"velocity":71},{"start":55155,"end":55247,"pitch":60,"velocity":69},{"start":55155,"end":55278,"pitch":64,"velocity":50},{"start":55165,"end":55227,"pitch":52,"velocity":49},{"start":55165,"end":55268,"pitch":55,"velocity":71},{"start":55268,"end":55395,"pitch":55,"velocity":70},{"start":55283,"end":55390,"pitch":48,"velocity":61},{"start":55288,"end":55390,"pitch":60,"velocity":67},{"start":55293,"end":55324,"pitch":52,"velocity":50},{"start":55390,"end":55502,"pitch":48,"velocity":64},{"start":55390,"end":55421,"pitch":52,"velocity":46},{"start":55390,"end":55497,"pitch":60,"velocity":54},{"start":55395,"end":55446,"pitch":55,"velocity":69},{"start":55421,"end":55666,"pitch":52,"velocity":54},{"start":55446,"end":55497,"pitch":55,"velocity":77},{"start":55497,"end":55666,"pitch":55,"velocity":72},{"start":55497,"end":55533,"pitch":60,"velocity":64},{"start":55497,"end":55646,"pitch":64,"velocity":57},{"start":55502,"end":55610,"pitch":48,"velocity":54},{"start":55646,"end":55845,"pitch":64,"velocity":48},{"start":55666,"end":55717,"pitch":52,"velocity":44},{"start":55666,"end":55717,"pitch":55,"velocity":60},{"start":55712,"end":55789,"pitch":48,"velocity":55},{"start":55717,"end":55804,"pitch":52,"velocity":58},{"start":55845,"end":55891,"pitch":47,"velocity":39},{"start":55845,"end":55916,"pitch":52,"velocity":48},{"start":55850,"end":55896,"pitch":55,"velocity":85},{"start":55870,"end":55942,"pitch":59,"velocity":76},{"start":55916,"end":55953,"pitch":52,"velocity":52},{"start":55953,"end":56045,"pitch":52,"velocity":67},{"start":55973,"end":56039,"pitch":55,"velocity":90},{"start":55993,"end":56039,"pitch":48,"velocity":46},{"start":56045,"end":56182,"pitch":52,"velocity":68},{"start":56075,"end":56136,"pitch":55,"velocity":96},{"start":56111,"end":56162,"pitch":48,"velocity":47},{"start":56136,"end":56177,"pitch":55,"velocity":80},{"start":56177,"end":56223,"pitch":55,"velocity":89},{"start":56182,"end":56239,"pitch":52,"velocity":72},{"start":56188,"end":56223,"pitch":60,"velocity":51},{"start":56208,"end":56290,"pitch":64,"velocity":54},{"start":56223,"end":56336,"pitch":55,"velocity":86},{"start":56223,"end":56315,"pitch":60,"velocity":50},{"start":56310,"end":56540,"pitch":52,"velocity":72},{"start":56315,"end":56428,"pitch":59,"velocity":55},{"start":56336,"end":56433,"pitch":55,"velocity":82},{"start":56407,"end":56499,"pitch":40,"velocity":46},{"start":56428,"end":56540,"pitch":59,"velocity":61},{"start":56433,"end":56540,"pitch":55,"velocity":73},{"start":56540,"end":56637,"pitch":52,"velocity":66},{"start":56540,"end":56632,"pitch":55,"velocity":68},{"start":56540,"end":56632,"pitch":59,"velocity":66},{"start":56632,"end":56688,"pitch":55,"velocity":73},{"start":56632,"end":56698,"pitch":59,"velocity":64},{"start":56637,"end":56693,"pitch":52,"velocity":60},{"start":56688,"end":56755,"pitch":55,"velocity":75},{"start":56693,"end":56760,"pitch":52,"velocity":58},{"start":56698,"end":56765,"pitch":59,"velocity":67},{"start":56755,"end":56795,"pitch":55,"velocity":68},{"start":56760,"end":56868,"pitch":52,"velocity":57},{"start":56765,"end":56837,"pitch":59,"velocity":65},{"start":56837,"end":56898,"pitch":55,"velocity":65},{"start":56898,"end":56990,"pitch":55,"velocity":62},{"start":56985,"end":57092,"pitch":64,"velocity":65},{"start":56990,"end":57230,"pitch":55,"velocity":61},{"start":56990,"end":57225,"pitch":59,"velocity":58},{"start":57225,"end":57348,"pitch":59,"velocity":60},{"start":57230,"end":57348,"pitch":52,"velocity":49},{"start":57230,"end":57348,"pitch":55,"velocity":52},{"start":57230,"end":57276,"pitch":64,"velocity":49},{"start":57348,"end":57435,"pitch":52,"velocity":56},{"start":57348,"end":57542,"pitch":55,"velocity":62},{"start":57348,"end":57511,"pitch":59,"velocity":62},{"start":57348,"end":57450,"pitch":64,"velocity":42},{"start":57455,"end":57527,"pitch":52,"velocity":41},{"start":57511,"end":57573,"pitch":59,"velocity":55},{"start":57567,"end":57634,"pitch":55,"velocity":42},{"start":57675,"end":57803,"pitch":60,"velocity":64},{"start":57685,"end":57793,"pitch":57,"velocity":65},{"start":57757,"end":57803,"pitch":53,"velocity":61},{"start":57793,"end":57905,"pitch":57,"velocity":68},{"start":57793,"end":57885,"pitch":65,"velocity":44},{"start":57803,"end":57869,"pitch":53,"velocity":73},{"start":57803,"end":57874,"pitch":60,"velocity":62},{"start":57869,"end":57936,"pitch":53,"velocity":85},{"start":57874,"end":57905,"pitch":60,"velocity":71},{"start":57885,"end":57951,"pitch":48,"velocity":48},{"start":57905,"end":58012,"pitch":57,"velocity":72},{"start":58012,"end":58079,"pitch":53,"velocity":60},{"start":58012,"end":58053,"pitch":57,"velocity":90},{"start":58018,"end":58063,"pitch":60,"velocity":48},{"start":58018,"end":58140,"pitch":65,"velocity":62},{"start":58079,"end":58145,"pitch":53,"velocity":61},{"start":58140,"end":58258,"pitch":60,"velocity":58},{"start":58145,"end":58273,"pitch":53,"velocity":46},{"start":58150,"end":58309,"pitch":57,"velocity":83},{"start":58258,"end":58304,"pitch":60,"velocity":57},{"start":58258,"end":58370,"pitch":65,"velocity":53},{"start":58258,"end":58304,"pitch":69,"velocity":49},{"start":58273,"end":58365,"pitch":53,"velocity":62},{"start":58304,"end":58380,"pitch":60,"velocity":66},{"start":58309,"end":58390,"pitch":57,"velocity":80},{"start":58370,"end":58503,"pitch":53,"velocity":51},{"start":58380,"end":58482,"pitch":60,"velocity":74},{"start":58390,"end":58487,"pitch":57,"velocity":81},{"start":58482,"end":58595,"pitch":60,"velocity":70},{"start":58487,"end":58528,"pitch":57,"velocity":84},{"start":58528,"end":58565,"pitch":57,"velocity":81},{"start":58565,"end":58600,"pitch":57,"velocity":78},{"start":58595,"end":58646,"pitch":60,"velocity":57},{"start":58600,"end":58697,"pitch":53,"velocity":39},{"start":58600,"end":58830,"pitch":57,"velocity":87},{"start":58646,"end":58723,"pitch":60,"velocity":64},{"start":58723,"end":58769,"pitch":53,"velocity":55},{"start":58723,"end":58830,"pitch":60,"velocity":60},{"start":58825,"end":59065,"pitch":65,"velocity":58},{"start":58830,"end":58948,"pitch":53,"velocity":59},{"start":58830,"end":58938,"pitch":57,"velocity":80},{"start":58830,"end":58943,"pitch":60,"velocity":82},{"start":58938,"end":59065,"pitch":57,"velocity":77},{"start":58948,"end":59045,"pitch":53,"velocity":62},{"start":59065,"end":59193,"pitch":57,"velocity":83},{"start":59065,"end":59270,"pitch":60,"velocity":71},{"start":59065,"end":59121,"pitch":65,"velocity":58},{"start":59193,"end":59295,"pitch":57,"velocity":83},{"start":59198,"end":59275,"pitch":53,"velocity":46},{"start":59295,"end":59331,"pitch":53,"velocity":54},{"start":59295,"end":59346,"pitch":57,"velocity":71},{"start":59295,"end":59331,"pitch":60,"velocity":55},{"start":59300,"end":59341,"pitch":48,"velocity":33},{"start":59326,"end":59408,"pitch":41,"velocity":48},{"start":59331,"end":59413,"pitch":53,"velocity":60},{"start":59331,"end":59408,"pitch":60,"velocity":62},{"start":59331,"end":59418,"pitch":65,"velocity":41},{"start":59341,"end":59710,"pitch":48,"velocity":43},{"start":59346,"end":59408,"pitch":57,"velocity":79},{"start":59408,"end":59469,"pitch":57,"velocity":65},{"start":59408,"end":59475,"pitch":60,"velocity":65},{"start":59413,"end":59475,"pitch":53,"velocity":59},{"start":59418,"end":59515,"pitch":65,"velocity":61},{"start":59475,"end":59515,"pitch":53,"velocity":59},{"start":59475,"end":59515,"pitch":56,"velocity":30},{"start":59515,"end":59618,"pitch":53,"velocity":61},{"start":59515,"end":59648,"pitch":56,"velocity":71},{"start":59515,"end":59704,"pitch":60,"velocity":59},{"start":59689,"end":59858,"pitch":53,"velocity":74},{"start":59704,"end":59858,"pitch":60,"velocity":54},{"start":59710,"end":59801,"pitch":48,"velocity":55},{"start":59853,"end":59975,"pitch":48,"velocity":68},{"start":59858,"end":59919,"pitch":53,"velocity":68},{"start":59858,"end":59899,"pitch":56,"velocity":63},{"start":59858,"end":59985,"pitch":60,"velocity":64},{"start":59919,"end":59980,"pitch":53,"velocity":68},{"start":59975,"end":60134,"pitch":48,"velocity":69},{"start":59980,"end":60123,"pitch":53,"velocity":51},{"start":59980,"end":60093,"pitch":65,"velocity":50},{"start":59985,"end":60103,"pitch":56,"velocity":73},{"start":59985,"end":60123,"pitch":60,"velocity":70},{"start":59985,"end":60098,"pitch":68,"velocity":48},{"start":60093,"end":60123,"pitch":64,"velocity":76},{"start":60103,"end":60210,"pitch":56,"velocity":65},{"start":60123,"end":60231,"pitch":53,"velocity":51},{"start":60123,"end":60210,"pitch":60,"velocity":67},{"start":60123,"end":60169,"pitch":65,"velocity":65},{"start":60134,"end":60205,"pitch":48,"velocity":61},{"start":60205,"end":60292,"pitch":48,"velocity":41},{"start":60210,"end":60313,"pitch":56,"velocity":69},{"start":60210,"end":60318,"pitch":60,"velocity":68},{"start":60231,"end":60271,"pitch":53,"velocity":76},{"start":60313,"end":60374,"pitch":53,"velocity":67},{"start":60313,"end":60435,"pitch":56,"velocity":66},{"start":60318,"end":60374,"pitch":60,"velocity":90},{"start":60359,"end":60415,"pitch":48,"velocity":45},{"start":60374,"end":60435,"pitch":53,"velocity":65},{"start":60374,"end":60441,"pitch":60,"velocity":86},{"start":60435,"end":60579,"pitch":48,"velocity":45},{"start":60435,"end":60553,"pitch":53,"velocity":84},{"start":60435,"end":60599,"pitch":56,"velocity":47},{"start":60441,"end":60553,"pitch":60,"velocity":79},{"start":60548,"end":60589,"pitch":65,"velocity":64},{"start":60553,"end":60696,"pitch":53,"velocity":62},{"start":60553,"end":60604,"pitch":60,"velocity":70},{"start":60579,"end":60645,"pitch":48,"velocity":56},{"start":60599,"end":60676,"pitch":56,"velocity":44},{"start":60604,"end":60681,"pitch":60,"velocity":65},{"start":60676,"end":60783,"pitch":56,"velocity":56},{"start":60681,"end":60722,"pitch":60,"velocity":71},{"start":60696,"end":60732,"pitch":53,"velocity":60},{"start":60778,"end":60890,"pitch":60,"velocity":77},{"start":60778,"end":60890,"pitch":65,"velocity":57},{"start":60783,"end":60844,"pitch":53,"velocity":63},{"start":60783,"end":60905,"pitch":56,"velocity":62},{"start":60885,"end":60931,"pitch":53,"velocity":58},{"start":60890,"end":60936,"pitch":60,"velocity":74},{"start":60905,"end":61094,"pitch":56,"velocity":48},{"start":60931,"end":61100,"pitch":53,"velocity":51},{"start":60936,"end":61003,"pitch":60,"velocity":72},{"start":61003,"end":61125,"pitch":60,"velocity":67},{"start":61003,"end":61038,"pitch":62,"velocity":37},{"start":61013,"end":61120,"pitch":65,"velocity":65},{"start":61125,"end":61166,"pitch":41,"velocity":36},{"start":61125,"end":61238,"pitch":53,"velocity":47},{"start":61125,"end":61161,"pitch":60,"velocity":89},{"start":61130,"end":61223,"pitch":48,"velocity":49},{"start":61238,"end":61310,"pitch":53,"velocity":62},{"start":61356,"end":61463,"pitch":55,"velocity":61},{"start":61356,"end":61427,"pitch":59,"velocity":61},{"start":61376,"end":61412,"pitch":53,"velocity":37},{"start":61442,"end":61637,"pitch":48,"velocity":70},{"start":61458,"end":61509,"pitch":52,"velocity":52},{"start":61463,"end":61493,"pitch":55,"velocity":61},{"start":61468,"end":61529,"pitch":60,"velocity":76},{"start":61493,"end":61529,"pitch":55,"velocity":70},{"start":61509,"end":61539,"pitch":52,"velocity":74},{"start":61529,"end":61693,"pitch":55,"velocity":68},{"start":61539,"end":61637,"pitch":52,"velocity":62},{"start":61637,"end":61693,"pitch":48,"velocity":73},{"start":61693,"end":61856,"pitch":48,"velocity":72},{"start":61693,"end":61815,"pitch":55,"velocity":79},{"start":61698,"end":61734,"pitch":60,"velocity":76},{"start":61708,"end":61749,"pitch":52,"velocity":65},{"start":61749,"end":61820,"pitch":52,"velocity":55},{"start":61815,"end":61851,"pitch":55,"velocity":63},{"start":61815,"end":61856,"pitch":60,"velocity":71},{"start":61820,"end":62040,"pitch":52,"velocity":58},{"start":61851,"end":62035,"pitch":55,"velocity":59},{"start":61856,"end":62035,"pitch":48,"velocity":49},{"start":62035,"end":62143,"pitch":48,"velocity":52},{"start":62040,"end":62168,"pitch":52,"velocity":39},{"start":62040,"end":62153,"pitch":64,"velocity":60},{"start":62045,"end":62148,"pitch":60,"velocity":72},{"start":62050,"end":62148,"pitch":55,"velocity":43},{"start":62143,"end":62219,"pitch":48,"velocity":62},{"start":62148,"end":62296,"pitch":55,"velocity":45},{"start":62148,"end":62184,"pitch":60,"velocity":79},{"start":62153,"end":62189,"pitch":64,"velocity":46},{"start":62184,"end":62271,"pitch":60,"velocity":73},{"start":62219,"end":62271,"pitch":48,"velocity":64},{"start":62271,"end":62316,"pitch":48,"velocity":50},{"start":62271,"end":62316,"pitch":60,"velocity":81},{"start":62291,"end":62383,"pitch":52,"velocity":69},{"start":62296,"end":62337,"pitch":55,"velocity":58},{"start":62316,"end":62444,"pitch":48,"velocity":44},{"start":62337,"end":62388,"pitch":55,"velocity":62},{"start":62383,"end":62495,"pitch":52,"velocity":61},{"start":62388,"end":62444,"pitch":55,"velocity":66},{"start":62444,"end":62495,"pitch":48,"velocity":52},{"start":62495,"end":62526,"pitch":48,"velocity":73},{"start":62495,"end":62613,"pitch":52,"velocity":62},{"start":62495,"end":62628,"pitch":60,"velocity":74},{"start":62506,"end":62567,"pitch":55,"velocity":65},{"start":62608,"end":62730,"pitch":55,"velocity":65},{"start":62613,"end":62725,"pitch":48,"velocity":72},{"start":62613,"end":62643,"pitch":52,"velocity":60},{"start":62628,"end":62730,"pitch":60,"velocity":74},{"start":62725,"end":62766,"pitch":48,"velocity":58},{"start":62730,"end":62766,"pitch":55,"velocity":60},{"start":62730,"end":62792,"pitch":60,"velocity":75},{"start":62735,"end":62929,"pitch":52,"velocity":59},{"start":62766,"end":62945,"pitch":48,"velocity":59},{"start":62766,"end":62894,"pitch":55,"velocity":70},{"start":62838,"end":62904,"pitch":60,"velocity":80},{"start":62894,"end":63058,"pitch":55,"velocity":51},{"start":62945,"end":63002,"pitch":48,"velocity":70},{"start":62950,"end":62986,"pitch":52,"velocity":33},{"start":62950,"end":63017,"pitch":60,"velocity":43},{"start":62950,"end":63007,"pitch":64,"velocity":66},{"start":63002,"end":63032,"pitch":48,"velocity":72},{"start":63017,"end":63068,"pitch":60,"velocity":64},{"start":63032,"end":63083,"pitch":48,"velocity":67},{"start":63068,"end":63160,"pitch":60,"velocity":63},{"start":63073,"end":63119,"pitch":52,"velocity":45},{"start":63073,"end":63155,"pitch":64,"velocity":43},{"start":63083,"end":63180,"pitch":48,"velocity":60},{"start":63180,"end":63354,"pitch":64,"velocity":45},{"start":63185,"end":63221,"pitch":55,"velocity":71},{"start":63211,"end":63252,"pitch":50,"velocity":49},{"start":63221,"end":63298,"pitch":55,"velocity":69},{"start":63298,"end":63369,"pitch":47,"velocity":43},{"start":63298,"end":63472,"pitch":55,"velocity":64},{"start":63298,"end":63395,"pitch":59,"velocity":66},{"start":63339,"end":63472,"pitch":40,"velocity":49},{"start":63339,"end":63374,"pitch":52,"velocity":58},{"start":63354,"end":63492,"pitch":64,"velocity":70},{"start":63369,"end":63477,"pitch":47,"velocity":43},{"start":63374,"end":63472,"pitch":52,"velocity":54},{"start":63395,"end":63528,"pitch":59,"velocity":67},{"start":63523,"end":63569,"pitch":55,"velocity":61},{"start":63523,"end":63589,"pitch":67,"velocity":43},{"start":63528,"end":63579,"pitch":59,"velocity":75},{"start":63569,"end":63645,"pitch":55,"velocity":72},{"start":63579,"end":63645,"pitch":59,"velocity":83},{"start":63584,"end":63625,"pitch":52,"velocity":40},{"start":63584,"end":63640,"pitch":64,"velocity":41},{"start":63635,"end":63701,"pitch":40,"velocity":42},{"start":63645,"end":63727,"pitch":52,"velocity":37},{"start":63645,"end":63686,"pitch":55,"velocity":65},{"start":63645,"end":63876,"pitch":59,"velocity":72},{"start":63661,"end":63758,"pitch":47,"velocity":53},{"start":63701,"end":63763,"pitch":40,"velocity":57},{"start":63763,"end":63804,"pitch":47,"velocity":46},{"start":63773,"end":63876,"pitch":64,"velocity":70},{"start":63819,"end":63850,"pitch":40,"velocity":42},{"start":63876,"end":63932,"pitch":47,"velocity":38},{"start":63876,"end":63906,"pitch":52,"velocity":42},{"start":63876,"end":63983,"pitch":59,"velocity":76},{"start":63881,"end":63947,"pitch":40,"velocity":47},{"start":63881,"end":64008,"pitch":55,"velocity":81},{"start":63906,"end":63988,"pitch":52,"velocity":47},{"start":63983,"end":64034,"pitch":59,"velocity":74},{"start":63988,"end":64106,"pitch":52,"velocity":42},{"start":64008,"end":64136,"pitch":55,"velocity":84},{"start":64106,"end":64315,"pitch":52,"velocity":60},{"start":64106,"end":64157,"pitch":59,"velocity":72},{"start":64136,"end":64238,"pitch":55,"velocity":79},{"start":64233,"end":64289,"pitch":47,"velocity":35},{"start":64238,"end":64269,"pitch":55,"velocity":92},{"start":64238,"end":64320,"pitch":59,"velocity":65},{"start":64238,"end":64325,"pitch":64,"velocity":59},{"start":64289,"end":64320,"pitch":47,"velocity":43},{"start":64320,"end":64422,"pitch":40,"velocity":52},{"start":64320,"end":64397,"pitch":47,"velocity":42},{"start":64320,"end":64402,"pitch":59,"velocity":62},{"start":64335,"end":64371,"pitch":55,"velocity":85},{"start":64371,"end":64407,"pitch":55,"velocity":89},{"start":64407,"end":64473,"pitch":55,"velocity":79},{"start":64443,"end":64509,"pitch":47,"velocity":50},{"start":64443,"end":64489,"pitch":59,"velocity":69},{"start":64473,"end":64565,"pitch":55,"velocity":84},{"start":64560,"end":64601,"pitch":52,"velocity":66},{"start":64560,"end":64760,"pitch":59,"velocity":54},{"start":64565,"end":64601,"pitch":55,"velocity":70},{"start":64601,"end":64786,"pitch":52,"velocity":57},{"start":64678,"end":64786,"pitch":64,"velocity":69},{"start":64704,"end":64780,"pitch":40,"velocity":62},{"start":64780,"end":64893,"pitch":40,"velocity":70},{"start":64786,"end":64857,"pitch":52,"velocity":45},{"start":64786,"end":64888,"pitch":64,"velocity":53},{"start":64791,"end":64893,"pitch":55,"velocity":68},{"start":64893,"end":64990,"pitch":40,"velocity":54},{"start":64893,"end":64923,"pitch":55,"velocity":63},{"start":64898,"end":64934,"pitch":59,"velocity":59},{"start":64923,"end":64985,"pitch":55,"velocity":61},{"start":64964,"end":65072,"pitch":72,"velocity":57},{"start":64985,"end":65021,"pitch":60,"velocity":54},{"start":65021,"end":65189,"pitch":60,"velocity":67},{"start":65041,"end":65143,"pitch":57,"velocity":73},{"start":65143,"end":65184,"pitch":53,"velocity":32},{"start":65143,"end":65179,"pitch":57,"velocity":86},{"start":65158,"end":65317,"pitch":41,"velocity":63},{"start":65179,"end":65322,"pitch":57,"velocity":85},{"start":65184,"end":65301,"pitch":53,"velocity":41},{"start":65312,"end":65368,"pitch":65,"velocity":41},{"start":65322,"end":65368,"pitch":57,"velocity":71},{"start":65322,"end":65373,"pitch":60,"velocity":62},{"start":65368,"end":65424,"pitch":48,"velocity":65},{"start":65368,"end":65419,"pitch":57,"velocity":91},{"start":65373,"end":65490,"pitch":60,"velocity":65},{"start":65378,"end":65409,"pitch":53,"velocity":42},{"start":65393,"end":65445,"pitch":41,"velocity":50},{"start":65409,"end":65511,"pitch":53,"velocity":45},{"start":65424,"end":65511,"pitch":48,"velocity":61},{"start":65490,"end":65624,"pitch":60,"velocity":56},{"start":65506,"end":65536,"pitch":41,"velocity":51},{"start":65511,"end":65634,"pitch":48,"velocity":74},{"start":65511,"end":65675,"pitch":53,"velocity":60},{"start":65516,"end":65563,"pitch":57,"velocity":95},{"start":65619,"end":65690,"pitch":57,"velocity":85},{"start":65624,"end":65721,"pitch":60,"velocity":65},{"start":65634,"end":65721,"pitch":48,"velocity":71},{"start":65665,"end":65736,"pitch":41,"velocity":56},{"start":65675,"end":65721,"pitch":53,"velocity":59},{"start":65675,"end":65716,"pitch":65,"velocity":51},{"start":65690,"end":65746,"pitch":57,"velocity":76},{"start":65721,"end":65787,"pitch":48,"velocity":73},{"start":65721,"end":65833,"pitch":53,"velocity":51},{"start":65721,"end":65854,"pitch":60,"velocity":64},{"start":65736,"end":65833,"pitch":41,"velocity":58},{"start":65746,"end":65828,"pitch":57,"velocity":72},{"start":65828,"end":65864,"pitch":57,"velocity":83},{"start":65833,"end":65930,"pitch":41,"velocity":62},{"start":65833,"end":65869,"pitch":53,"velocity":61},{"start":65833,"end":65874,"pitch":65,"velocity":49},{"start":65854,"end":65946,"pitch":60,"velocity":52},{"start":65864,"end":65971,"pitch":57,"velocity":76},{"start":65869,"end":65966,"pitch":53,"velocity":57},{"start":65874,"end":65941,"pitch":65,"velocity":54},{"start":65941,"end":66068,"pitch":65,"velocity":56},{"start":65946,"end":66002,"pitch":48,"velocity":76},{"start":65946,"end":66114,"pitch":60,"velocity":48},{"start":65966,"end":66022,"pitch":53,"velocity":75},{"start":66002,"end":66068,"pitch":48,"velocity":73},{"start":66022,"end":66068,"pitch":53,"velocity":58},{"start":66063,"end":66145,"pitch":57,"velocity":80},{"start":66063,"end":66201,"pitch":69,"velocity":39},{"start":66068,"end":66119,"pitch":48,"velocity":64},{"start":66068,"end":66181,"pitch":53,"velocity":45},{"start":66068,"end":66170,"pitch":65,"velocity":57},{"start":66104,"end":66181,"pitch":41,"velocity":73},{"start":66114,"end":66176,"pitch":60,"velocity":52},{"start":66119,"end":66170,"pitch":48,"velocity":61},{"start":66145,"end":66176,"pitch":57,"velocity":75},{"start":66170,"end":66247,"pitch":48,"velocity":69},{"start":66176,"end":66237,"pitch":57,"velocity":79},{"start":66181,"end":66247,"pitch":41,"velocity":71},{"start":66181,"end":66242,"pitch":53,"velocity":57},{"start":66237,"end":66278,"pitch":57,"velocity":75},{"start":66242,"end":66283,"pitch":53,"velocity":58},{"start":66247,"end":66298,"pitch":41,"velocity":61},{"start":66247,"end":66298,"pitch":48,"velocity":52},{"start":66278,"end":66334,"pitch":57,"velocity":76},{"start":66283,"end":66339,"pitch":53,"velocity":59},{"start":66283,"end":66334,"pitch":60,"velocity":61},{"start":66283,"end":66400,"pitch":65,"velocity":56},{"start":66298,"end":66349,"pitch":41,"velocity":53},{"start":66298,"end":66339,"pitch":48,"velocity":49},{"start":66334,"end":66405,"pitch":57,"velocity":83},{"start":66334,"end":66405,"pitch":60,"velocity":62},{"start":66339,"end":66411,"pitch":48,"velocity":54},{"start":66339,"end":66431,"pitch":53,"velocity":61},{"start":66349,"end":66405,"pitch":41,"velocity":42},{"start":66405,"end":66447,"pitch":41,"velocity":68},{"start":66405,"end":66442,"pitch":57,"velocity":86},{"start":66405,"end":66508,"pitch":60,"velocity":49},{"start":66411,"end":66636,"pitch":48,"velocity":60},{"start":66431,"end":66472,"pitch":53,"velocity":75},{"start":66447,"end":66575,"pitch":41,"velocity":59},{"start":66472,"end":66518,"pitch":53,"velocity":79},{"start":66518,"end":66559,"pitch":53,"velocity":72},{"start":66518,"end":66549,"pitch":57,"velocity":85},{"start":66518,"end":66554,"pitch":60,"velocity":45},{"start":66518,"end":66564,"pitch":69,"velocity":40},{"start":66549,"end":66580,"pitch":57,"velocity":87},{"start":66559,"end":66626,"pitch":53,"velocity":72},{"start":66575,"end":66728,"pitch":41,"velocity":42},{"start":66626,"end":66702,"pitch":53,"velocity":66},{"start":66626,"end":66713,"pitch":60,"velocity":43},{"start":66631,"end":66687,"pitch":57,"velocity":93},{"start":66636,"end":66733,"pitch":48,"velocity":64},{"start":66687,"end":66743,"pitch":57,"velocity":80},{"start":66702,"end":66743,"pitch":53,"velocity":50},{"start":66728,"end":66759,"pitch":41,"velocity":45},{"start":66733,"end":66769,"pitch":48,"velocity":49},{"start":66743,"end":66794,"pitch":53,"velocity":59},{"start":66743,"end":66789,"pitch":57,"velocity":87},{"start":66748,"end":66804,"pitch":65,"velocity":46},{"start":66759,"end":66815,"pitch":41,"velocity":49},{"start":66769,"end":66820,"pitch":48,"velocity":61},{"start":66769,"end":66825,"pitch":60,"velocity":68},{"start":66794,"end":66856,"pitch":53,"velocity":66},{"start":66820,"end":66917,"pitch":48,"velocity":38},{"start":66856,"end":66891,"pitch":53,"velocity":65},{"start":66861,"end":66902,"pitch":56,"velocity":46},{"start":66886,"end":66917,"pitch":60,"velocity":91},{"start":66891,"end":66983,"pitch":53,"velocity":68},{"start":66902,"end":66978,"pitch":56,"velocity":57},{"start":66917,"end":66988,"pitch":48,"velocity":53},{"start":66978,"end":67080,"pitch":41,"velocity":54},{"start":66978,"end":67096,"pitch":56,"velocity":81},{"start":66983,"end":67116,"pitch":53,"velocity":72},{"start":66983,"end":67070,"pitch":60,"velocity":80},{"start":66988,"end":67162,"pitch":65,"velocity":63},{"start":67085,"end":67126,"pitch":41,"velocity":71},{"start":67096,"end":67203,"pitch":56,"velocity":67},{"start":67126,"end":67203,"pitch":41,"velocity":63},{"start":67142,"end":67203,"pitch":48,"velocity":36},{"start":67203,"end":67239,"pitch":41,"velocity":47},{"start":67203,"end":67244,"pitch":48,"velocity":59},{"start":67203,"end":67316,"pitch":53,"velocity":77},{"start":67203,"end":67274,"pitch":56,"velocity":71},{"start":67203,"end":67321,"pitch":60,"velocity":81},{"start":67280,"end":67311,"pitch":48,"velocity":46},{"start":67316,"end":67362,"pitch":41,"velocity":33},{"start":67316,"end":67377,"pitch":48,"velocity":36},{"start":67316,"end":67367,"pitch":53,"velocity":65},{"start":67321,"end":67362,"pitch":60,"velocity":84},{"start":67352,"end":67433,"pitch":56,"velocity":80},{"start":67362,"end":67408,"pitch":41,"velocity":44},{"start":67362,"end":67454,"pitch":60,"velocity":68},{"start":67367,"end":67459,"pitch":53,"velocity":73},{"start":67377,"end":67423,"pitch":48,"velocity":60},{"start":67423,"end":67474,"pitch":41,"velocity":49},{"start":67423,"end":67464,"pitch":48,"velocity":84},{"start":67433,"end":67479,"pitch":56,"velocity":75},{"start":67444,"end":67536,"pitch":65,"velocity":61},{"start":67459,"end":67536,"pitch":53,"velocity":66},{"start":67464,"end":67495,"pitch":48,"velocity":93},{"start":67474,"end":67536,"pitch":41,"velocity":53},{"start":67479,"end":67556,"pitch":56,"velocity":65},{"start":67495,"end":67536,"pitch":48,"velocity":84},{"start":67536,"end":67592,"pitch":41,"velocity":43},{"start":67536,"end":67612,"pitch":48,"velocity":80},{"start":67536,"end":67653,"pitch":53,"velocity":61},{"start":67536,"end":67653,"pitch":60,"velocity":76},{"start":67556,"end":67617,"pitch":56,"velocity":63},{"start":67612,"end":67648,"pitch":48,"velocity":74},{"start":67648,"end":67709,"pitch":48,"velocity":81},{"start":67648,"end":67679,"pitch":56,"velocity":77},{"start":67653,"end":67714,"pitch":53,"velocity":78},{"start":67653,"end":67771,"pitch":60,"velocity":80},{"start":67653,"end":67709,"pitch":65,"velocity":56},{"start":67709,"end":67765,"pitch":48,"velocity":73},{"start":67714,"end":67765,"pitch":53,"velocity":76},{"start":67730,"end":67760,"pitch":41,"velocity":40},{"start":67730,"end":67771,"pitch":56,"velocity":78},{"start":67765,"end":67862,"pitch":41,"velocity":52},{"start":67765,"end":67796,"pitch":48,"velocity":60},{"start":67765,"end":67888,"pitch":53,"velocity":72},{"start":67771,"end":67811,"pitch":56,"velocity":74},{"start":67771,"end":67832,"pitch":60,"velocity":65},{"start":67796,"end":67832,"pitch":48,"velocity":76},{"start":67832,"end":67883,"pitch":48,"velocity":85},{"start":67862,"end":67903,"pitch":41,"velocity":46},{"start":67883,"end":67944,"pitch":48,"velocity":71},{"start":67883,"end":67995,"pitch":56,"velocity":67},{"start":67883,"end":67995,"pitch":60,"velocity":73},{"start":67888,"end":67975,"pitch":53,"velocity":43},{"start":67888,"end":67995,"pitch":65,"velocity":71},{"start":67995,"end":68026,"pitch":48,"velocity":64},{"start":67995,"end":68051,"pitch":53,"velocity":47},{"start":67995,"end":68057,"pitch":56,"velocity":56},{"start":67995,"end":68118,"pitch":60,"velocity":77},{"start":68000,"end":68031,"pitch":41,"velocity":46},{"start":68026,"end":68082,"pitch":48,"velocity":73},{"start":68031,"end":68113,"pitch":41,"velocity":55},{"start":68082,"end":68118,"pitch":48,"velocity":60},{"start":68118,"end":68154,"pitch":48,"velocity":50},{"start":68118,"end":68169,"pitch":53,"velocity":63},{"start":68118,"end":68149,"pitch":56,"velocity":87},{"start":68118,"end":68231,"pitch":60,"velocity":59},{"start":68149,"end":68231,"pitch":56,"velocity":84},{"start":68154,"end":68180,"pitch":48,"velocity":63},{"start":68169,"end":68231,"pitch":53,"velocity":58},{"start":68226,"end":68287,"pitch":48,"velocity":71},{"start":68231,"end":68297,"pitch":53,"velocity":56},{"start":68231,"end":68302,"pitch":56,"velocity":86},{"start":68231,"end":68333,"pitch":60,"velocity":69},{"start":68287,"end":68333,"pitch":48,"velocity":72},{"start":68297,"end":68405,"pitch":53,"velocity":46},{"start":68333,"end":68379,"pitch":48,"velocity":62},{"start":68333,"end":68399,"pitch":60,"velocity":73},{"start":68338,"end":68379,"pitch":56,"velocity":78},{"start":68379,"end":68420,"pitch":48,"velocity":62},{"start":68379,"end":68456,"pitch":56,"velocity":78},{"start":68405,"end":68451,"pitch":53,"velocity":45},{"start":68456,"end":68502,"pitch":56,"velocity":72},{"start":68456,"end":68573,"pitch":60,"velocity":69},{"start":68461,"end":68507,"pitch":48,"velocity":77},{"start":68461,"end":68527,"pitch":53,"velocity":47},{"start":68502,"end":68578,"pitch":56,"velocity":65},{"start":68507,"end":68614,"pitch":48,"velocity":60},{"start":68527,"end":68624,"pitch":53,"velocity":47},{"start":68578,"end":68629,"pitch":56,"velocity":67},{"start":68691,"end":68721,"pitch":59,"velocity":71},{"start":68706,"end":68772,"pitch":55,"velocity":66},{"start":68711,"end":68849,"pitch":64,"velocity":47},{"start":68742,"end":68772,"pitch":52,"velocity":43},{"start":68767,"end":68818,"pitch":48,"velocity":29},{"start":68772,"end":68803,"pitch":52,"velocity":50},{"start":68803,"end":68849,"pitch":52,"velocity":70},{"start":68818,"end":68849,"pitch":48,"velocity":57},{"start":68844,"end":69667,"pitch":60,"velocity":54},{"start":68849,"end":68890,"pitch":48,"velocity":77},{"start":68849,"end":68966,"pitch":52,"velocity":66},{"start":68890,"end":68972,"pitch":48,"velocity":74},{"start":68972,"end":69054,"pitch":48,"velocity":78},{"start":69054,"end":69095,"pitch":48,"velocity":77},{"start":69095,"end":69125,"pitch":48,"velocity":86},{"start":69595,"end":69713,"pitch":48,"velocity":91},{"start":69713,"end":69789,"pitch":48,"velocity":89},{"start":70183,"end":70234,"pitch":48,"velocity":63},{"start":70383,"end":70444,"pitch":48,"velocity":65},{"start":70413,"end":70623,"pitch":76,"velocity":72},{"start":70592,"end":70689,"pitch":47,"velocity":42},{"start":70643,"end":70689,"pitch":52,"velocity":62},{"start":70643,"end":70940,"pitch":55,"velocity":63},{"start":70689,"end":70771,"pitch":47,"velocity":79},{"start":70689,"end":70853,"pitch":52,"velocity":74},{"start":70694,"end":70761,"pitch":59,"velocity":47},{"start":70853,"end":71563,"pitch":52,"velocity":57},{"start":70858,"end":70889,"pitch":47,"velocity":82},{"start":70925,"end":70996,"pitch":47,"velocity":85},{"start":70991,"end":71129,"pitch":40,"velocity":45},{"start":71139,"end":71170,"pitch":47,"velocity":86},{"start":71170,"end":71226,"pitch":47,"velocity":84},{"start":71349,"end":71400,"pitch":47,"velocity":57},{"start":71369,"end":71737,"pitch":40,"velocity":55},{"start":71400,"end":71630,"pitch":47,"velocity":62},{"start":71625,"end":71962,"pitch":52,"velocity":49},{"start":71630,"end":71676,"pitch":47,"velocity":71},{"start":71824,"end":71962,"pitch":40,"velocity":57},{"start":71829,"end":71947,"pitch":59,"velocity":55},{"start":71835,"end":72018,"pitch":47,"velocity":57},{"start":72018,"end":72070,"pitch":47,"velocity":75},{"start":72018,"end":72090,"pitch":55,"velocity":49},{"start":72146,"end":72248,"pitch":48,"velocity":82},{"start":72248,"end":72310,"pitch":47,"velocity":67},{"start":72330,"end":72366,"pitch":43,"velocity":68},{"start":72366,"end":72463,"pitch":43,"velocity":77},{"start":72371,"end":72437,"pitch":48,"velocity":40},{"start":72442,"end":72488,"pitch":48,"velocity":71},{"start":72453,"end":72483,"pitch":41,"velocity":29},{"start":72483,"end":72591,"pitch":41,"velocity":80},{"start":72483,"end":72534,"pitch":57,"velocity":74},{"start":72488,"end":72539,"pitch":48,"velocity":68},{"start":72488,"end":72529,"pitch":53,"velocity":64},{"start":72488,"end":72529,"pitch":60,"velocity":60},{"start":72529,"end":72571,"pitch":53,"velocity":71},{"start":72529,"end":72566,"pitch":60,"velocity":56},{"start":72534,"end":72560,"pitch":57,"velocity":84},{"start":72539,"end":72571,"pitch":48,"velocity":81},{"start":72560,"end":72744,"pitch":57,"velocity":80},{"start":72571,"end":72724,"pitch":48,"velocity":76},{"start":72571,"end":72755,"pitch":53,"velocity":63},{"start":72724,"end":72790,"pitch":48,"velocity":79},{"start":72739,"end":72790,"pitch":41,"velocity":84},{"start":72755,"end":72949,"pitch":53,"velocity":68},{"start":72790,"end":72959,"pitch":41,"velocity":88},{"start":72790,"end":72959,"pitch":48,"velocity":74},{"start":72836,"end":73204,"pitch":57,"velocity":86},{"start":72959,"end":73030,"pitch":41,"velocity":76},{"start":72959,"end":73634,"pitch":48,"velocity":71},{"start":73030,"end":73184,"pitch":41,"velocity":88},{"start":73184,"end":73245,"pitch":41,"velocity":79},{"start":73225,"end":73398,"pitch":53,"velocity":75},{"start":73245,"end":73414,"pitch":41,"velocity":91},{"start":73414,"end":73481,"pitch":41,"velocity":83},{"start":73475,"end":73618,"pitch":53,"velocity":80},{"start":73475,"end":73624,"pitch":57,"velocity":77},{"start":73481,"end":73521,"pitch":41,"velocity":87},{"start":73521,"end":73552,"pitch":41,"velocity":90},{"start":73603,"end":73639,"pitch":41,"velocity":75},{"start":73618,"end":73695,"pitch":53,"velocity":93},{"start":73639,"end":73675,"pitch":41,"velocity":82},{"start":73670,"end":73859,"pitch":48,"velocity":86},{"start":73675,"end":73782,"pitch":41,"velocity":88},{"start":73695,"end":73741,"pitch":53,"velocity":97},{"start":73721,"end":74140,"pitch":57,"velocity":53},{"start":73741,"end":73813,"pitch":53,"velocity":100},{"start":73813,"end":73874,"pitch":41,"velocity":81},{"start":73859,"end":73920,"pitch":48,"velocity":74},{"start":73874,"end":73905,"pitch":41,"velocity":96},{"start":73905,"end":73945,"pitch":41,"velocity":106},{"start":73905,"end":74037,"pitch":53,"velocity":74},{"start":73920,"end":74119,"pitch":48,"velocity":68},{"start":74063,"end":74119,"pitch":41,"velocity":91},{"start":74119,"end":74180,"pitch":41,"velocity":77},{"start":74150,"end":74180,"pitch":53,"velocity":70},{"start":74175,"end":74257,"pitch":48,"velocity":82},{"start":74180,"end":74237,"pitch":41,"velocity":87},{"start":74237,"end":74272,"pitch":41,"velocity":78},{"start":74257,"end":74304,"pitch":48,"velocity":79},{"start":74272,"end":74298,"pitch":41,"velocity":60},{"start":74298,"end":74355,"pitch":41,"velocity":75},{"start":74298,"end":74360,"pitch":53,"velocity":52},{"start":74298,"end":74365,"pitch":56,"velocity":51},{"start":74298,"end":74329,"pitch":60,"velocity":37},{"start":74304,"end":74344,"pitch":48,"velocity":83},{"start":74329,"end":74544,"pitch":60,"velocity":59},{"start":74344,"end":74396,"pitch":48,"velocity":82},{"start":74355,"end":74442,"pitch":41,"velocity":78},{"start":74360,"end":74447,"pitch":53,"velocity":79},{"start":74396,"end":74467,"pitch":48,"velocity":83},{"start":74442,"end":74477,"pitch":41,"velocity":74},{"start":74467,"end":74574,"pitch":48,"velocity":85},{"start":74477,"end":74508,"pitch":41,"velocity":83},{"start":74508,"end":74544,"pitch":41,"velocity":83},{"start":74513,"end":74758,"pitch":53,"velocity":68},{"start":74544,"end":74590,"pitch":41,"velocity":86},{"start":74544,"end":74574,"pitch":60,"velocity":74},{"start":74574,"end":74641,"pitch":48,"velocity":80},{"start":74574,"end":74978,"pitch":56,"velocity":61},{"start":74574,"end":74646,"pitch":60,"velocity":77},{"start":74590,"end":74789,"pitch":41,"velocity":90},{"start":74641,"end":74835,"pitch":48,"velocity":84},{"start":74646,"end":74830,"pitch":60,"velocity":65},{"start":74758,"end":74820,"pitch":53,"velocity":59},{"start":74820,"end":75009,"pitch":53,"velocity":46},{"start":74830,"end":75208,"pitch":60,"velocity":62},{"start":74835,"end":74886,"pitch":41,"velocity":88},{"start":74835,"end":75090,"pitch":48,"velocity":82},{"start":74840,"end":74891,"pitch":65,"velocity":43},{"start":74988,"end":75024,"pitch":41,"velocity":80},{"start":75024,"end":75090,"pitch":41,"velocity":76},{"start":75090,"end":75121,"pitch":41,"velocity":86},{"start":75090,"end":75213,"pitch":48,"velocity":85},{"start":75213,"end":75270,"pitch":48,"velocity":68},{"start":75234,"end":75300,"pitch":41,"velocity":72},{"start":75244,"end":75300,"pitch":53,"velocity":51},{"start":75244,"end":75362,"pitch":60,"velocity":59},{"start":75270,"end":75310,"pitch":48,"velocity":71},{"start":75300,"end":75331,"pitch":41,"velocity":71},{"start":75300,"end":75346,"pitch":53,"velocity":76},{"start":75300,"end":75484,"pitch":56,"velocity":72},{"start":75331,"end":75397,"pitch":41,"velocity":72},{"start":75346,"end":75454,"pitch":53,"velocity":77},{"start":75397,"end":75510,"pitch":41,"velocity":70},{"start":75474,"end":75515,"pitch":48,"velocity":66},{"start":75484,"end":75699,"pitch":56,"velocity":79},{"start":75510,"end":75581,"pitch":41,"velocity":74},{"start":75510,"end":75576,"pitch":53,"velocity":84},{"start":75576,"end":75627,"pitch":53,"velocity":78},{"start":75581,"end":75632,"pitch":41,"velocity":75},{"start":75602,"end":75643,"pitch":48,"velocity":75},{"start":75627,"end":75699,"pitch":53,"velocity":50},{"start":75632,"end":75694,"pitch":41,"velocity":66},{"start":75643,"end":75755,"pitch":48,"velocity":78},{"start":75694,"end":75760,"pitch":41,"velocity":63},{"start":75699,"end":75923,"pitch":53,"velocity":70},{"start":75760,"end":75801,"pitch":41,"velocity":66},{"start":75801,"end":75918,"pitch":41,"velocity":69},{"start":75806,"end":75939,"pitch":56,"velocity":67},{"start":75806,"end":75852,"pitch":65,"velocity":45},{"start":75832,"end":75918,"pitch":48,"velocity":74},{"start":75918,"end":75959,"pitch":41,"velocity":76},{"start":75918,"end":75985,"pitch":48,"velocity":66},{"start":75923,"end":76026,"pitch":53,"velocity":59},{"start":75923,"end":75969,"pitch":60,"velocity":60},{"start":75959,"end":75990,"pitch":41,"velocity":81},{"start":75985,"end":76031,"pitch":48,"velocity":76},{"start":76026,"end":76123,"pitch":59,"velocity":51},{"start":76031,"end":76067,"pitch":41,"velocity":56},{"start":76031,"end":76118,"pitch":48,"velocity":38},{"start":76031,"end":76067,"pitch":52,"velocity":37},{"start":76031,"end":76062,"pitch":55,"velocity":57},{"start":76031,"end":76149,"pitch":64,"velocity":57},{"start":76118,"end":76179,"pitch":48,"velocity":52},{"start":76154,"end":76190,"pitch":60,"velocity":32},{"start":76159,"end":76205,"pitch":52,"velocity":43},{"start":76159,"end":76384,"pitch":55,"velocity":72},{"start":76159,"end":76200,"pitch":64,"velocity":43},{"start":76159,"end":76200,"pitch":76,"velocity":52},{"start":76179,"end":76261,"pitch":48,"velocity":61},{"start":76190,"end":76261,"pitch":60,"velocity":50},{"start":76200,"end":76256,"pitch":64,"velocity":58},{"start":76205,"end":76287,"pitch":52,"velocity":64},{"start":76256,"end":76338,"pitch":64,"velocity":72},{"start":76261,"end":76292,"pitch":48,"velocity":53},{"start":76261,"end":76384,"pitch":60,"velocity":52},{"start":76261,"end":76297,"pitch":76,"velocity":56},{"start":76287,"end":76389,"pitch":52,"velocity":60},{"start":76292,"end":76338,"pitch":48,"velocity":49},{"start":76379,"end":76450,"pitch":48,"velocity":64},{"start":76384,"end":76435,"pitch":55,"velocity":72},{"start":76384,"end":76450,"pitch":60,"velocity":79},{"start":76389,"end":76445,"pitch":52,"velocity":76},{"start":76389,"end":76445,"pitch":64,"velocity":39},{"start":76435,"end":76486,"pitch":55,"velocity":75},{"start":76445,"end":76501,"pitch":52,"velocity":79},{"start":76450,"end":76614,"pitch":48,"velocity":64},{"start":76486,"end":76527,"pitch":55,"velocity":66},{"start":76501,"end":76644,"pitch":52,"velocity":71},{"start":76527,"end":76614,"pitch":55,"velocity":69},{"start":76527,"end":76614,"pitch":60,"velocity":72},{"start":76614,"end":76690,"pitch":48,"velocity":70},{"start":76614,"end":76844,"pitch":55,"velocity":76},{"start":76614,"end":76690,"pitch":60,"velocity":55},{"start":76619,"end":76706,"pitch":64,"velocity":50},{"start":76690,"end":76741,"pitch":48,"velocity":64},{"start":76731,"end":76849,"pitch":60,"velocity":49},{"start":76741,"end":76787,"pitch":48,"velocity":59},{"start":76844,"end":76957,"pitch":48,"velocity":66},{"start":76844,"end":76910,"pitch":52,"velocity":49},{"start":76844,"end":76957,"pitch":55,"velocity":74},{"start":76849,"end":76962,"pitch":60,"velocity":71},{"start":76849,"end":76957,"pitch":64,"velocity":71},{"start":76951,"end":77186,"pitch":52,"velocity":71},{"start":76957,"end":77094,"pitch":55,"velocity":68},{"start":76957,"end":77186,"pitch":64,"velocity":57},{"start":76962,"end":77028,"pitch":60,"velocity":84},{"start":77028,"end":77166,"pitch":48,"velocity":55},{"start":77094,"end":77130,"pitch":55,"velocity":67},{"start":77130,"end":77192,"pitch":55,"velocity":59},{"start":77186,"end":77314,"pitch":48,"velocity":49},{"start":77186,"end":77227,"pitch":52,"velocity":70},{"start":77186,"end":77278,"pitch":64,"velocity":66},{"start":77192,"end":77314,"pitch":55,"velocity":53},{"start":77278,"end":77309,"pitch":64,"velocity":64},{"start":77304,"end":77616,"pitch":52,"velocity":49},{"start":77309,"end":77340,"pitch":60,"velocity":43},{"start":77309,"end":77421,"pitch":64,"velocity":71},{"start":77309,"end":77391,"pitch":76,"velocity":38},{"start":77314,"end":77426,"pitch":48,"velocity":65},{"start":77314,"end":77426,"pitch":55,"velocity":81},{"start":77421,"end":77646,"pitch":64,"velocity":59},{"start":77426,"end":77503,"pitch":48,"velocity":75},{"start":77426,"end":77564,"pitch":55,"velocity":50},{"start":77564,"end":77646,"pitch":55,"velocity":48},{"start":77570,"end":77621,"pitch":60,"velocity":65},{"start":77575,"end":77616,"pitch":48,"velocity":75},{"start":77616,"end":77651,"pitch":48,"velocity":72},{"start":77646,"end":77764,"pitch":55,"velocity":59},{"start":77646,"end":77728,"pitch":64,"velocity":54},{"start":77651,"end":77718,"pitch":48,"velocity":80},{"start":77651,"end":77769,"pitch":52,"velocity":39},{"start":77651,"end":77713,"pitch":60,"velocity":72},{"start":77718,"end":77759,"pitch":48,"velocity":75},{"start":77759,"end":77836,"pitch":48,"velocity":57},{"start":77764,"end":77897,"pitch":55,"velocity":75},{"start":77769,"end":77841,"pitch":52,"velocity":61},{"start":77769,"end":77795,"pitch":60,"velocity":71},{"start":77871,"end":77948,"pitch":52,"velocity":50},{"start":77871,"end":77938,"pitch":64,"velocity":46},{"start":77877,"end":77989,"pitch":59,"velocity":77},{"start":77877,"end":77912,"pitch":69,"velocity":37},{"start":77897,"end":77948,"pitch":55,"velocity":74},{"start":77989,"end":78030,"pitch":47,"velocity":50},{"start":77994,"end":78050,"pitch":55,"velocity":83},{"start":78030,"end":78178,"pitch":47,"velocity":55},{"start":78040,"end":78081,"pitch":40,"velocity":51},{"start":78040,"end":78081,"pitch":52,"velocity":41},{"start":78050,"end":78106,"pitch":55,"velocity":79},{"start":78081,"end":78224,"pitch":40,"velocity":56},{"start":78081,"end":78127,"pitch":52,"velocity":51},{"start":78106,"end":78224,"pitch":55,"velocity":75},{"start":78224,"end":78255,"pitch":40,"velocity":53},{"start":78224,"end":78260,"pitch":52,"velocity":64},{"start":78224,"end":78336,"pitch":55,"velocity":88},{"start":78229,"end":78265,"pitch":47,"velocity":57},{"start":78255,"end":78295,"pitch":40,"velocity":57},{"start":78265,"end":78336,"pitch":47,"velocity":52},{"start":78295,"end":78341,"pitch":40,"velocity":45},{"start":78336,"end":78377,"pitch":47,"velocity":50},{"start":78336,"end":78413,"pitch":52,"velocity":68},{"start":78336,"end":78377,"pitch":55,"velocity":89},{"start":78336,"end":78377,"pitch":59,"velocity":57},{"start":78341,"end":78377,"pitch":40,"velocity":67},{"start":78377,"end":78418,"pitch":40,"velocity":66},{"start":78377,"end":78413,"pitch":47,"velocity":49},{"start":78377,"end":78474,"pitch":55,"velocity":78},{"start":78413,"end":78469,"pitch":52,"velocity":63},{"start":78418,"end":78464,"pitch":40,"velocity":50},{"start":78464,"end":78510,"pitch":40,"velocity":45},{"start":78469,"end":78740,"pitch":52,"velocity":69},{"start":78474,"end":78561,"pitch":55,"velocity":82},{"start":78561,"end":78592,"pitch":55,"velocity":79},{"start":78561,"end":78689,"pitch":59,"velocity":68},{"start":78679,"end":78766,"pitch":55,"velocity":88},{"start":78679,"end":78751,"pitch":76,"velocity":34},{"start":78689,"end":78720,"pitch":47,"velocity":39},{"start":78689,"end":78797,"pitch":59,"velocity":63},{"start":78720,"end":78756,"pitch":47,"velocity":46},{"start":78786,"end":78853,"pitch":47,"velocity":37},{"start":78792,"end":78853,"pitch":40,"velocity":40},{"start":78797,"end":78868,"pitch":59,"velocity":67},{"start":78802,"end":78843,"pitch":55,"velocity":86},{"start":78843,"end":78924,"pitch":55,"velocity":92},{"start":78848,"end":78904,"pitch":52,"velocity":64},{"start":78853,"end":79180,"pitch":40,"velocity":59},{"start":78853,"end":78986,"pitch":47,"velocity":46},{"start":78904,"end":79016,"pitch":52,"velocity":60},{"start":78924,"end":79021,"pitch":55,"velocity":89},{"start":79016,"end":79164,"pitch":52,"velocity":58},{"start":79016,"end":79134,"pitch":59,"velocity":44},{"start":79016,"end":79251,"pitch":64,"velocity":46},{"start":79021,"end":79052,"pitch":55,"velocity":83},{"start":79134,"end":79251,"pitch":59,"velocity":65},{"start":79139,"end":79256,"pitch":55,"velocity":74},{"start":79139,"end":79231,"pitch":67,"velocity":43},{"start":79180,"end":79302,"pitch":40,"velocity":54},{"start":79190,"end":79221,"pitch":47,"velocity":46},{"start":79251,"end":79394,"pitch":52,"velocity":55},{"start":79251,"end":79364,"pitch":59,"velocity":48},{"start":79251,"end":79328,"pitch":64,"velocity":47},{"start":79256,"end":79364,"pitch":55,"velocity":74},{"start":79364,"end":79456,"pitch":47,"velocity":48},{"start":79364,"end":79476,"pitch":55,"velocity":68},{"start":79364,"end":79394,"pitch":59,"velocity":38},{"start":79476,"end":79512,"pitch":55,"velocity":68},{"start":79481,"end":79517,"pitch":52,"velocity":58},{"start":79481,"end":79594,"pitch":59,"velocity":57},{"start":79486,"end":79522,"pitch":40,"velocity":43},{"start":79512,"end":79594,"pitch":55,"velocity":74},{"start":79517,"end":79589,"pitch":52,"velocity":58},{"start":79522,"end":79548,"pitch":40,"velocity":54},{"start":79548,"end":79589,"pitch":40,"velocity":55},{"start":79579,"end":79645,"pitch":47,"velocity":36},{"start":79589,"end":79620,"pitch":40,"velocity":60},{"start":79594,"end":79650,"pitch":52,"velocity":41},{"start":79594,"end":79691,"pitch":55,"velocity":64},{"start":79594,"end":79635,"pitch":59,"velocity":87},{"start":79599,"end":79681,"pitch":64,"velocity":52},{"start":79620,"end":79691,"pitch":40,"velocity":58},{"start":79635,"end":79707,"pitch":59,"velocity":74},{"start":79701,"end":79753,"pitch":65,"velocity":36},{"start":79701,"end":79809,"pitch":77,"velocity":41},{"start":79707,"end":79742,"pitch":60,"velocity":61},{"start":79707,"end":79742,"pitch":64,"velocity":41},{"start":79753,"end":79788,"pitch":57,"velocity":80},{"start":79788,"end":79834,"pitch":57,"velocity":73},{"start":79819,"end":79916,"pitch":41,"velocity":46},{"start":79829,"end":79865,"pitch":65,"velocity":52},{"start":79834,"end":79865,"pitch":57,"velocity":91},{"start":79839,"end":79870,"pitch":48,"velocity":74},{"start":79839,"end":79921,"pitch":60,"velocity":56},{"start":79865,"end":79947,"pitch":57,"velocity":86},{"start":79870,"end":79921,"pitch":48,"velocity":71},{"start":79916,"end":80064,"pitch":41,"velocity":72},{"start":79921,"end":80018,"pitch":48,"velocity":67},{"start":79921,"end":79952,"pitch":60,"velocity":43},{"start":80008,"end":80059,"pitch":57,"velocity":77},{"start":80008,"end":80049,"pitch":76,"velocity":45},{"start":80018,"end":80049,"pitch":48,"velocity":67},{"start":80018,"end":80069,"pitch":60,"velocity":42},{"start":80049,"end":80090,"pitch":48,"velocity":65},{"start":80054,"end":80182,"pitch":53,"velocity":52},{"start":80059,"end":80090,"pitch":57,"velocity":92},{"start":80059,"end":80090,"pitch":65,"velocity":42},{"start":80059,"end":80233,"pitch":69,"velocity":44},{"start":80064,"end":80182,"pitch":41,"velocity":50},{"start":80069,"end":80182,"pitch":60,"velocity":55},{"start":80090,"end":80120,"pitch":48,"velocity":69},{"start":80090,"end":80197,"pitch":57,"velocity":84},{"start":80120,"end":80192,"pitch":48,"velocity":68},{"start":80182,"end":80304,"pitch":41,"velocity":72},{"start":80182,"end":80294,"pitch":53,"velocity":58},{"start":80182,"end":80299,"pitch":60,"velocity":61},{"start":80192,"end":80422,"pitch":48,"velocity":68},{"start":80197,"end":80314,"pitch":57,"velocity":80},{"start":80289,"end":80376,"pitch":69,"velocity":46},{"start":80294,"end":80335,"pitch":53,"velocity":62},{"start":80299,"end":80514,"pitch":60,"velocity":53},{"start":80304,"end":80355,"pitch":41,"velocity":79},{"start":80314,"end":80355,"pitch":57,"velocity":93},{"start":80335,"end":80376,"pitch":53,"velocity":64},{"start":80355,"end":80386,"pitch":41,"velocity":74},{"start":80355,"end":80422,"pitch":57,"velocity":86},{"start":80376,"end":80478,"pitch":53,"velocity":56},{"start":80417,"end":80468,"pitch":41,"velocity":85},{"start":80422,"end":80453,"pitch":48,"velocity":74},{"start":80422,"end":80468,"pitch":57,"velocity":95},{"start":80453,"end":80509,"pitch":48,"velocity":62},{"start":80468,"end":80524,"pitch":41,"velocity":66},{"start":80468,"end":80514,"pitch":57,"velocity":87},{"start":80468,"end":80514,"pitch":69,"velocity":39},{"start":80478,"end":80514,"pitch":53,"velocity":57},{"start":80509,"end":80555,"pitch":48,"velocity":56},{"start":80509,"end":80611,"pitch":65,"velocity":46},{"start":80514,"end":80560,"pitch":53,"velocity":64},{"start":80514,"end":80576,"pitch":57,"velocity":94},{"start":80514,"end":80632,"pitch":60,"velocity":68},{"start":80514,"end":80586,"pitch":69,"velocity":42},{"start":80524,"end":80555,"pitch":41,"velocity":77},{"start":80555,"end":80662,"pitch":41,"velocity":59},{"start":80555,"end":80632,"pitch":48,"velocity":62},{"start":80560,"end":80627,"pitch":53,"velocity":56},{"start":80627,"end":80693,"pitch":53,"velocity":46},{"start":80632,"end":80719,"pitch":48,"velocity":84},{"start":80632,"end":80739,"pitch":57,"velocity":69},{"start":80632,"end":80856,"pitch":60,"velocity":61},{"start":80632,"end":80851,"pitch":65,"velocity":41},{"start":80662,"end":80754,"pitch":41,"velocity":52},{"start":80693,"end":80780,"pitch":53,"velocity":52},{"start":80719,"end":80805,"pitch":48,"velocity":74},{"start":80739,"end":80785,"pitch":57,"velocity":69},{"start":80754,"end":80785,"pitch":41,"velocity":72},{"start":80780,"end":80816,"pitch":53,"velocity":52},{"start":80785,"end":80862,"pitch":41,"velocity":64},{"start":80785,"end":80862,"pitch":57,"velocity":74},{"start":80805,"end":80862,"pitch":48,"velocity":59},{"start":80851,"end":81005,"pitch":53,"velocity":41},{"start":80856,"end":80979,"pitch":60,"velocity":54},{"start":80862,"end":80938,"pitch":41,"velocity":65},{"start":80862,"end":80892,"pitch":48,"velocity":71},{"start":80862,"end":80918,"pitch":57,"velocity":93},{"start":80892,"end":80984,"pitch":48,"velocity":72},{"start":80974,"end":81010,"pitch":57,"velocity":84},{"start":80979,"end":81097,"pitch":60,"velocity":69},{"start":80984,"end":81025,"pitch":48,"velocity":69},{"start":80989,"end":81020,"pitch":41,"velocity":79},{"start":81005,"end":81051,"pitch":53,"velocity":71},{"start":81020,"end":81051,"pitch":41,"velocity":83},{"start":81025,"end":81097,"pitch":48,"velocity":59},{"start":81051,"end":81102,"pitch":41,"velocity":76},{"start":81051,"end":81091,"pitch":53,"velocity":59},{"start":81091,"end":81245,"pitch":53,"velocity":44},{"start":81097,"end":81158,"pitch":48,"velocity":61},{"start":81097,"end":81143,"pitch":57,"velocity":90},{"start":81097,"end":81209,"pitch":60,"velocity":56},{"start":81102,"end":81158,"pitch":41,"velocity":89},{"start":81143,"end":81199,"pitch":57,"velocity":85},{"start":81158,"end":81204,"pitch":41,"velocity":87},{"start":81158,"end":81255,"pitch":48,"velocity":55},{"start":81199,"end":81250,"pitch":57,"velocity":85},{"start":81204,"end":81250,"pitch":41,"velocity":83},{"start":81209,"end":81312,"pitch":60,"velocity":66},{"start":81245,"end":81286,"pitch":53,"velocity":61},{"start":81245,"end":81280,"pitch":69,"velocity":51},{"start":81250,"end":81342,"pitch":41,"velocity":77},{"start":81250,"end":81317,"pitch":57,"velocity":76},{"start":81255,"end":81317,"pitch":48,"velocity":58},{"start":81286,"end":81312,"pitch":53,"velocity":62},{"start":81312,"end":81434,"pitch":53,"velocity":73},{"start":81312,"end":81455,"pitch":60,"velocity":62},{"start":81312,"end":81434,"pitch":65,"velocity":53},{"start":81317,"end":81460,"pitch":48,"velocity":46},{"start":81317,"end":81353,"pitch":57,"velocity":94},{"start":81342,"end":81434,"pitch":41,"velocity":83},{"start":81429,"end":81506,"pitch":57,"velocity":73},{"start":81434,"end":81521,"pitch":41,"velocity":75},{"start":81434,"end":81465,"pitch":53,"velocity":54},{"start":81434,"end":81506,"pitch":65,"velocity":55},{"start":81434,"end":81490,"pitch":69,"velocity":48},{"start":81455,"end":81506,"pitch":60,"velocity":68},{"start":81460,"end":81536,"pitch":48,"velocity":59},{"start":81506,"end":81542,"pitch":53,"velocity":66},{"start":81506,"end":81542,"pitch":56,"velocity":39},{"start":81506,"end":81542,"pitch":60,"velocity":62},{"start":81536,"end":81577,"pitch":48,"velocity":59},{"start":81542,"end":81577,"pitch":53,"velocity":58},{"start":81542,"end":81598,"pitch":56,"velocity":57},{"start":81542,"end":81577,"pitch":60,"velocity":61},{"start":81577,"end":81623,"pitch":48,"velocity":75},{"start":81577,"end":81613,"pitch":53,"velocity":67},{"start":81577,"end":81618,"pitch":60,"velocity":68},{"start":81598,"end":81649,"pitch":56,"velocity":48},{"start":81613,"end":81690,"pitch":53,"velocity":61},{"start":81623,"end":81659,"pitch":48,"velocity":57},{"start":81654,"end":81710,"pitch":56,"velocity":44},{"start":81659,"end":81741,"pitch":65,"velocity":45},{"start":81664,"end":81720,"pitch":48,"velocity":52},{"start":81669,"end":81766,"pitch":60,"velocity":60},{"start":81680,"end":81725,"pitch":41,"velocity":37},{"start":81690,"end":81771,"pitch":53,"velocity":67},{"start":81725,"end":81771,"pitch":41,"velocity":47},{"start":81766,"end":81894,"pitch":56,"velocity":65},{"start":81766,"end":81833,"pitch":60,"velocity":56},{"start":81771,"end":81838,"pitch":41,"velocity":52},{"start":81771,"end":81899,"pitch":53,"velocity":41},{"start":81792,"end":81833,"pitch":48,"velocity":85},{"start":81833,"end":81930,"pitch":48,"velocity":66},{"start":81838,"end":81894,"pitch":41,"velocity":46},{"start":81894,"end":81945,"pitch":41,"velocity":54},{"start":81894,"end":81930,"pitch":56,"velocity":84},{"start":81899,"end":81935,"pitch":53,"velocity":67},{"start":81899,"end":81930,"pitch":60,"velocity":66},{"start":81930,"end":81976,"pitch":48,"velocity":64},{"start":81930,"end":82037,"pitch":56,"velocity":72},{"start":81935,"end":81971,"pitch":53,"velocity":70},{"start":81945,"end":81981,"pitch":41,"velocity":59},{"start":81976,"end":82027,"pitch":48,"velocity":61},{"start":81981,"end":82037,"pitch":41,"velocity":68},{"start":82012,"end":82083,"pitch":53,"velocity":67},{"start":82017,"end":82139,"pitch":60,"velocity":58},{"start":82027,"end":82119,"pitch":48,"velocity":63},{"start":82037,"end":82093,"pitch":41,"velocity":55},{"start":82037,"end":82114,"pitch":56,"velocity":71},{"start":82114,"end":82160,"pitch":56,"velocity":77},{"start":82119,"end":82201,"pitch":48,"velocity":68},{"start":82119,"end":82170,"pitch":53,"velocity":65},{"start":82139,"end":82252,"pitch":41,"velocity":40},{"start":82139,"end":82319,"pitch":60,"velocity":72},{"start":82170,"end":82319,"pitch":53,"velocity":71},{"start":82201,"end":82262,"pitch":48,"velocity":65},{"start":82201,"end":82283,"pitch":65,"velocity":42},{"start":82227,"end":82278,"pitch":56,"velocity":71},{"start":82262,"end":82314,"pitch":48,"velocity":61},{"start":82278,"end":82324,"pitch":56,"velocity":69},{"start":82314,"end":82354,"pitch":48,"velocity":61},{"start":82319,"end":82405,"pitch":53,"velocity":54},{"start":82324,"end":82354,"pitch":56,"velocity":71},{"start":82354,"end":82431,"pitch":48,"velocity":70},{"start":82354,"end":82472,"pitch":56,"velocity":75},{"start":82354,"end":82462,"pitch":60,"velocity":51},{"start":82431,"end":82462,"pitch":48,"velocity":59},{"start":82462,"end":82548,"pitch":48,"velocity":70},{"start":82462,"end":82518,"pitch":60,"velocity":52},{"start":82462,"end":82503,"pitch":65,"velocity":51},{"start":82467,"end":82518,"pitch":53,"velocity":72},{"start":82472,"end":82503,"pitch":56,"velocity":73},{"start":82503,"end":82559,"pitch":56,"velocity":73},{"start":82518,"end":82584,"pitch":53,"velocity":79},{"start":82518,"end":82692,"pitch":60,"velocity":49},{"start":82548,"end":82656,"pitch":48,"velocity":60},{"start":82584,"end":82615,"pitch":53,"velocity":79},{"start":82656,"end":82697,"pitch":48,"velocity":42},{"start":82656,"end":82702,"pitch":53,"velocity":59},{"start":82686,"end":82748,"pitch":41,"velocity":37},{"start":82692,"end":82732,"pitch":56,"velocity":74},{"start":82692,"end":82768,"pitch":60,"velocity":62},{"start":82697,"end":82860,"pitch":48,"velocity":48},{"start":82702,"end":82794,"pitch":53,"velocity":61},{"start":82794,"end":82916,"pitch":53,"velocity":54},{"start":82860,"end":82921,"pitch":48,"velocity":56},{"start":82911,"end":83106,"pitch":65,"velocity":51},{"start":82916,"end":83008,"pitch":41,"velocity":46},{"start":82916,"end":82947,"pitch":53,"velocity":57},{"start":82916,"end":83039,"pitch":60,"velocity":70},{"start":82921,"end":82957,"pitch":48,"velocity":63},{"start":82947,"end":82998,"pitch":53,"velocity":72},{"start":82957,"end":83039,"pitch":48,"velocity":61},{"start":83029,"end":83091,"pitch":56,"velocity":75},{"start":83034,"end":83080,"pitch":53,"velocity":56},{"start":83039,"end":83085,"pitch":48,"velocity":82},{"start":83039,"end":83091,"pitch":60,"velocity":74},{"start":83080,"end":83137,"pitch":53,"velocity":52},{"start":83085,"end":83142,"pitch":48,"velocity":63},{"start":83091,"end":83142,"pitch":56,"velocity":60},{"start":83137,"end":83203,"pitch":53,"velocity":56},{"start":83137,"end":83208,"pitch":65,"velocity":40},{"start":83142,"end":83203,"pitch":48,"velocity":77},{"start":83142,"end":83234,"pitch":56,"velocity":54},{"start":83142,"end":83259,"pitch":60,"velocity":48},{"start":83203,"end":83254,"pitch":48,"velocity":78},{"start":83203,"end":83259,"pitch":53,"velocity":53},{"start":83234,"end":83269,"pitch":56,"velocity":64},{"start":83254,"end":83310,"pitch":48,"velocity":73},{"start":83259,"end":83300,"pitch":53,"velocity":49},{"start":83259,"end":83326,"pitch":60,"velocity":43},{"start":83269,"end":83331,"pitch":56,"velocity":65},{"start":83310,"end":83356,"pitch":48,"velocity":54},{"start":83372,"end":83453,"pitch":48,"velocity":39},{"start":83372,"end":83469,"pitch":59,"velocity":56},{"start":83382,"end":83520,"pitch":64,"velocity":55},{"start":83397,"end":83438,"pitch":55,"velocity":87},{"start":83453,"end":83504,"pitch":48,"velocity":49},{"start":83479,"end":83509,"pitch":55,"velocity":73},{"start":83504,"end":83591,"pitch":48,"velocity":69},{"start":83509,"end":83571,"pitch":55,"velocity":88},{"start":83509,"end":83591,"pitch":60,"velocity":57},{"start":83566,"end":83704,"pitch":52,"velocity":54},{"start":83571,"end":83744,"pitch":55,"velocity":77},{"start":83591,"end":83724,"pitch":48,"velocity":72},{"start":83627,"end":83668,"pitch":60,"velocity":68},{"start":83668,"end":83698,"pitch":60,"velocity":65},{"start":83724,"end":83765,"pitch":48,"velocity":85},{"start":83724,"end":83770,"pitch":52,"velocity":58},{"start":83739,"end":83826,"pitch":60,"velocity":66},{"start":83744,"end":83775,"pitch":55,"velocity":92},{"start":83765,"end":83826,"pitch":48,"velocity":88},{"start":83770,"end":83872,"pitch":52,"velocity":71},{"start":83775,"end":83954,"pitch":55,"velocity":80},{"start":83811,"end":83913,"pitch":40,"velocity":50},{"start":83826,"end":83954,"pitch":48,"velocity":84},{"start":83857,"end":83887,"pitch":60,"velocity":67},{"start":83872,"end":83939,"pitch":52,"velocity":62},{"start":83887,"end":83954,"pitch":60,"velocity":64},{"start":83949,"end":84006,"pitch":52,"velocity":30},{"start":83954,"end":83990,"pitch":48,"velocity":92},{"start":83954,"end":84031,"pitch":55,"velocity":83},{"start":83954,"end":83990,"pitch":60,"velocity":66},{"start":83990,"end":84072,"pitch":48,"velocity":87},{"start":84006,"end":84067,"pitch":52,"velocity":49},{"start":84031,"end":84128,"pitch":43,"velocity":61},{"start":84062,"end":84179,"pitch":55,"velocity":74},{"start":84067,"end":84179,"pitch":52,"velocity":46},{"start":84072,"end":84113,"pitch":48,"velocity":77},{"start":84128,"end":84184,"pitch":43,"velocity":54},{"start":84169,"end":84230,"pitch":48,"velocity":81},{"start":84174,"end":84220,"pitch":60,"velocity":35},{"start":84179,"end":84240,"pitch":52,"velocity":66},{"start":84179,"end":84230,"pitch":55,"velocity":81},{"start":84184,"end":84251,"pitch":43,"velocity":51},{"start":84184,"end":84266,"pitch":64,"velocity":43},{"start":84184,"end":84215,"pitch":76,"velocity":40},{"start":84230,"end":84297,"pitch":48,"velocity":82},{"start":84230,"end":84271,"pitch":55,"velocity":75},{"start":84240,"end":84353,"pitch":52,"velocity":71},{"start":84271,"end":84302,"pitch":55,"velocity":68},{"start":84297,"end":84353,"pitch":48,"velocity":80},{"start":84297,"end":84348,"pitch":60,"velocity":54},{"start":84297,"end":84527,"pitch":64,"velocity":42},{"start":84353,"end":84414,"pitch":48,"velocity":83},{"start":84353,"end":84424,"pitch":52,"velocity":79},{"start":84414,"end":84532,"pitch":48,"velocity":80},{"start":84527,"end":84583,"pitch":64,"velocity":51},{"start":84532,"end":84654,"pitch":48,"velocity":78},{"start":84532,"end":84680,"pitch":60,"velocity":55},{"start":84537,"end":84649,"pitch":55,"velocity":70},{"start":84639,"end":84741,"pitch":52,"velocity":65},{"start":84649,"end":84716,"pitch":55,"velocity":84},{"start":84654,"end":84772,"pitch":48,"velocity":75},{"start":84654,"end":84767,"pitch":76,"velocity":42},{"start":84741,"end":84772,"pitch":52,"velocity":57},{"start":84767,"end":84839,"pitch":55,"velocity":63},{"start":84767,"end":84895,"pitch":60,"velocity":66},{"start":84772,"end":84895,"pitch":48,"velocity":66},{"start":84772,"end":84987,"pitch":52,"velocity":55},{"start":84895,"end":84936,"pitch":48,"velocity":50},{"start":84895,"end":84992,"pitch":60,"velocity":76},{"start":84936,"end":84977,"pitch":48,"velocity":73},{"start":84977,"end":85038,"pitch":48,"velocity":78},{"start":84982,"end":85130,"pitch":55,"velocity":54},{"start":84987,"end":85018,"pitch":52,"velocity":48},{"start":84992,"end":85109,"pitch":60,"velocity":57},{"start":85038,"end":85109,"pitch":48,"velocity":76},{"start":85104,"end":85207,"pitch":52,"velocity":63},{"start":85109,"end":85207,"pitch":48,"velocity":80},{"start":85109,"end":85181,"pitch":60,"velocity":59},{"start":85130,"end":85247,"pitch":55,"velocity":77},{"start":85222,"end":85304,"pitch":52,"velocity":38},{"start":85222,"end":85299,"pitch":59,"velocity":62},{"start":85247,"end":85329,"pitch":55,"velocity":86},{"start":85299,"end":85334,"pitch":47,"velocity":39},{"start":85304,"end":85334,"pitch":52,"velocity":55},{"start":85329,"end":85385,"pitch":55,"velocity":77},{"start":85334,"end":85396,"pitch":47,"velocity":54},{"start":85334,"end":85416,"pitch":52,"velocity":67},{"start":85334,"end":85385,"pitch":59,"velocity":61},{"start":85344,"end":85457,"pitch":64,"velocity":46},{"start":85385,"end":85457,"pitch":55,"velocity":69},{"start":85396,"end":85431,"pitch":47,"velocity":54},{"start":85431,"end":85508,"pitch":47,"velocity":50},{"start":85457,"end":85595,"pitch":55,"velocity":73},{"start":85457,"end":85528,"pitch":64,"velocity":55},{"start":85462,"end":85544,"pitch":52,"velocity":57},{"start":85508,"end":85549,"pitch":47,"velocity":54},{"start":85544,"end":85574,"pitch":52,"velocity":42},{"start":85574,"end":85672,"pitch":52,"velocity":64},{"start":85595,"end":85759,"pitch":55,"velocity":77},{"start":85641,"end":85743,"pitch":40,"velocity":44},{"start":85672,"end":85795,"pitch":52,"velocity":67},{"start":85677,"end":85728,"pitch":47,"velocity":41},{"start":85784,"end":85841,"pitch":47,"velocity":55},{"start":85789,"end":85830,"pitch":55,"velocity":92},{"start":85789,"end":85902,"pitch":59,"velocity":61},{"start":85795,"end":85830,"pitch":52,"velocity":70},{"start":85830,"end":85881,"pitch":52,"velocity":86},{"start":85841,"end":85907,"pitch":47,"velocity":62},{"start":85881,"end":85958,"pitch":52,"velocity":70},{"start":85892,"end":85958,"pitch":40,"velocity":55},{"start":85902,"end":85958,"pitch":59,"velocity":55},{"start":85958,"end":86019,"pitch":40,"velocity":48},{"start":85958,"end":86019,"pitch":52,"velocity":71},{"start":85968,"end":86009,"pitch":47,"velocity":42},{"start":85984,"end":86019,"pitch":55,"velocity":68},{"start":86009,"end":86060,"pitch":47,"velocity":40},{"start":86019,"end":86081,"pitch":40,"velocity":53},{"start":86019,"end":86065,"pitch":52,"velocity":58},{"start":86019,"end":86142,"pitch":55,"velocity":85},{"start":86050,"end":86091,"pitch":59,"velocity":64},{"start":86060,"end":86106,"pitch":47,"velocity":45},{"start":86065,"end":86096,"pitch":52,"velocity":68},{"start":86096,"end":86147,"pitch":52,"velocity":61},{"start":86106,"end":86152,"pitch":47,"velocity":41},{"start":86142,"end":86275,"pitch":55,"velocity":84},{"start":86142,"end":86213,"pitch":59,"velocity":56},{"start":86147,"end":86178,"pitch":52,"velocity":66},{"start":86152,"end":86219,"pitch":47,"velocity":59},{"start":86178,"end":86213,"pitch":52,"velocity":68},{"start":86213,"end":86341,"pitch":40,"velocity":42},{"start":86213,"end":86249,"pitch":52,"velocity":56},{"start":86219,"end":86285,"pitch":47,"velocity":56},{"start":86249,"end":86367,"pitch":52,"velocity":55},{"start":86285,"end":86331,"pitch":47,"velocity":64},{"start":86367,"end":86474,"pitch":47,"velocity":59},{"start":86367,"end":86489,"pitch":52,"velocity":60},{"start":86367,"end":86433,"pitch":55,"velocity":74},{"start":86367,"end":86484,"pitch":59,"velocity":48},{"start":86367,"end":86408,"pitch":64,"velocity":49},{"start":86474,"end":86541,"pitch":47,"velocity":50},{"start":86479,"end":86602,"pitch":55,"velocity":70},{"start":86484,"end":86536,"pitch":59,"velocity":54},{"start":86489,"end":86592,"pitch":52,"velocity":71},{"start":86536,"end":86597,"pitch":59,"velocity":60},{"start":86592,"end":86674,"pitch":47,"velocity":59},{"start":86592,"end":86715,"pitch":52,"velocity":63},{"start":86597,"end":86674,"pitch":59,"velocity":57},{"start":86597,"end":86684,"pitch":64,"velocity":34},{"start":86602,"end":86710,"pitch":55,"velocity":75},{"start":86674,"end":86756,"pitch":47,"velocity":59},{"start":86699,"end":86756,"pitch":40,"velocity":55},{"start":86710,"end":86771,"pitch":55,"velocity":78},{"start":86715,"end":86756,"pitch":52,"velocity":62},{"start":86756,"end":86812,"pitch":40,"velocity":61},{"start":86756,"end":86801,"pitch":47,"velocity":50},{"start":86756,"end":86822,"pitch":52,"velocity":50},{"start":86756,"end":86807,"pitch":59,"velocity":46},{"start":86771,"end":86822,"pitch":55,"velocity":67},{"start":86812,"end":86878,"pitch":40,"velocity":36},{"start":86817,"end":86878,"pitch":59,"velocity":46},{"start":86822,"end":86858,"pitch":52,"velocity":55},{"start":86822,"end":86863,"pitch":55,"velocity":64},{"start":86822,"end":86853,"pitch":64,"velocity":47},{"start":86858,"end":86888,"pitch":52,"velocity":48},{"start":86863,"end":86914,"pitch":55,"velocity":77},{"start":86878,"end":86919,"pitch":40,"velocity":49},{"start":86878,"end":86939,"pitch":59,"velocity":53},{"start":86914,"end":86945,"pitch":55,"velocity":71},{"start":87052,"end":87103,"pitch":60,"velocity":82},{"start":87052,"end":87082,"pitch":79,"velocity":35},{"start":87057,"end":87098,"pitch":57,"velocity":39},{"start":87098,"end":87185,"pitch":57,"velocity":55},{"start":87103,"end":87180,"pitch":60,"velocity":68},{"start":87128,"end":87174,"pitch":48,"velocity":39},{"start":87134,"end":87195,"pitch":41,"velocity":34},{"start":87174,"end":87292,"pitch":48,"velocity":70},{"start":87180,"end":87302,"pitch":60,"velocity":62},{"start":87185,"end":87246,"pitch":57,"velocity":89},{"start":87190,"end":87261,"pitch":53,"velocity":45},{"start":87195,"end":87307,"pitch":41,"velocity":61},{"start":87246,"end":87312,"pitch":57,"velocity":84},{"start":87261,"end":87302,"pitch":53,"velocity":51},{"start":87292,"end":87328,"pitch":48,"velocity":68},{"start":87302,"end":87353,"pitch":53,"velocity":48},{"start":87307,"end":87369,"pitch":41,"velocity":78},{"start":87312,"end":87404,"pitch":57,"velocity":81},{"start":87328,"end":87369,"pitch":48,"velocity":75},{"start":87353,"end":87404,"pitch":53,"velocity":48},{"start":87369,"end":87441,"pitch":41,"velocity":64},{"start":87369,"end":87410,"pitch":48,"velocity":65},{"start":87379,"end":87430,"pitch":65,"velocity":39},{"start":87404,"end":87476,"pitch":53,"velocity":63},{"start":87404,"end":87451,"pitch":57,"velocity":86},{"start":87409,"end":87476,"pitch":60,"velocity":71},{"start":87410,"end":87471,"pitch":48,"velocity":70},{"start":87430,"end":87589,"pitch":65,"velocity":48},{"start":87441,"end":87476,"pitch":41,"velocity":68},{"start":87471,"end":87517,"pitch":48,"velocity":62},{"start":87476,"end":87517,"pitch":41,"velocity":62},{"start":87476,"end":87533,"pitch":53,"velocity":58},{"start":87476,"end":87522,"pitch":60,"velocity":62},{"start":87481,"end":87517,"pitch":57,"velocity":86},{"start":87517,"end":87563,"pitch":41,"velocity":65},{"start":87517,"end":87579,"pitch":48,"velocity":60},{"start":87517,"end":87579,"pitch":57,"velocity":92},{"start":87522,"end":87573,"pitch":60,"velocity":61},{"start":87563,"end":87696,"pitch":41,"velocity":74},{"start":87573,"end":87625,"pitch":60,"velocity":55},{"start":87579,"end":87630,"pitch":48,"velocity":48},{"start":87579,"end":87625,"pitch":57,"velocity":83},{"start":87625,"end":87665,"pitch":57,"velocity":86},{"start":87625,"end":87716,"pitch":60,"velocity":65},{"start":87630,"end":87737,"pitch":48,"velocity":61},{"start":87630,"end":87676,"pitch":69,"velocity":34},{"start":87655,"end":87716,"pitch":53,"velocity":49},{"start":87655,"end":87691,"pitch":65,"velocity":65},{"start":87665,"end":87716,"pitch":57,"velocity":88},{"start":87676,"end":87716,"pitch":69,"velocity":56},{"start":87691,"end":87747,"pitch":65,"velocity":58},{"start":87696,"end":87737,"pitch":41,"velocity":76},{"start":87716,"end":87798,"pitch":57,"velocity":78},{"start":87716,"end":87859,"pitch":60,"velocity":53},{"start":87716,"end":87829,"pitch":69,"velocity":45},{"start":87737,"end":87783,"pitch":41,"velocity":75},{"start":87737,"end":87773,"pitch":48,"velocity":61},{"start":87773,"end":87824,"pitch":48,"velocity":62},{"start":87783,"end":87814,"pitch":41,"velocity":80},{"start":87798,"end":87829,"pitch":53,"velocity":47},{"start":87814,"end":87885,"pitch":41,"velocity":65},{"start":87854,"end":87987,"pitch":48,"velocity":47},{"start":87854,"end":87890,"pitch":53,"velocity":38},{"start":87854,"end":87905,"pitch":57,"velocity":89},{"start":87854,"end":87905,"pitch":65,"velocity":37},{"start":87854,"end":87900,"pitch":69,"velocity":43},{"start":87859,"end":87982,"pitch":60,"velocity":63},{"start":87885,"end":87921,"pitch":41,"velocity":77},{"start":87890,"end":87941,"pitch":53,"velocity":60},{"start":87905,"end":87982,"pitch":57,"velocity":82},{"start":87905,"end":87962,"pitch":65,"velocity":50},{"start":87921,"end":87987,"pitch":41,"velocity":63},{"start":87977,"end":88197,"pitch":65,"velocity":40},{"start":87982,"end":88059,"pitch":53,"velocity":67},{"start":87982,"end":88064,"pitch":57,"velocity":90},{"start":87982,"end":88079,"pitch":60,"velocity":65},{"start":87987,"end":88064,"pitch":41,"velocity":61},{"start":87987,"end":88038,"pitch":48,"velocity":79},{"start":88038,"end":88079,"pitch":48,"velocity":78},{"start":88059,"end":88151,"pitch":53,"velocity":68},{"start":88079,"end":88115,"pitch":48,"velocity":77},{"start":88115,"end":88146,"pitch":48,"velocity":75},{"start":88146,"end":88217,"pitch":48,"velocity":59},{"start":88202,"end":88315,"pitch":53,"velocity":46},{"start":88212,"end":88253,"pitch":57,"velocity":84},{"start":88212,"end":88253,"pitch":60,"velocity":36},{"start":88217,"end":88253,"pitch":48,"velocity":62},{"start":88253,"end":88366,"pitch":48,"velocity":52},{"start":88253,"end":88310,"pitch":57,"velocity":76},{"start":88310,"end":88366,"pitch":57,"velocity":97},{"start":88310,"end":88396,"pitch":69,"velocity":50},{"start":88315,"end":88437,"pitch":53,"velocity":61},{"start":88315,"end":88350,"pitch":60,"velocity":74},{"start":88320,"end":88366,"pitch":41,"velocity":47},{"start":88320,"end":88437,"pitch":65,"velocity":50},{"start":88350,"end":88437,"pitch":60,"velocity":66},{"start":88366,"end":88432,"pitch":41,"velocity":48},{"start":88366,"end":88442,"pitch":48,"velocity":39},{"start":88366,"end":88458,"pitch":57,"velocity":82},{"start":88432,"end":88463,"pitch":41,"velocity":68},{"start":88437,"end":88519,"pitch":53,"velocity":53},{"start":88437,"end":88519,"pitch":60,"velocity":63},{"start":88437,"end":88560,"pitch":65,"velocity":51},{"start":88442,"end":88504,"pitch":48,"velocity":49},{"start":88458,"end":88488,"pitch":57,"velocity":84},{"start":88463,"end":88580,"pitch":41,"velocity":68},{"start":88488,"end":88524,"pitch":57,"velocity":74},{"start":88519,"end":88637,"pitch":48,"velocity":44},{"start":88519,"end":88703,"pitch":53,"velocity":56},{"start":88519,"end":88672,"pitch":60,"velocity":53},{"start":88524,"end":88580,"pitch":57,"velocity":70},{"start":88555,"end":88667,"pitch":69,"velocity":50},{"start":88580,"end":88703,"pitch":41,"velocity":80},{"start":88580,"end":88688,"pitch":57,"velocity":75},{"start":88667,"end":88718,"pitch":65,"velocity":37},{"start":88672,"end":88728,"pitch":48,"velocity":44},{"start":88672,"end":88728,"pitch":60,"velocity":56},{"start":88688,"end":88734,"pitch":57,"velocity":83},{"start":88703,"end":88744,"pitch":41,"velocity":86},{"start":88703,"end":88785,"pitch":53,"velocity":61},{"start":88728,"end":88785,"pitch":48,"velocity":62},{"start":88744,"end":88780,"pitch":41,"velocity":71},{"start":88780,"end":88831,"pitch":41,"velocity":53},{"start":88785,"end":88866,"pitch":48,"velocity":71},{"start":88785,"end":88851,"pitch":53,"velocity":52},{"start":88785,"end":88872,"pitch":65,"velocity":37},{"start":88800,"end":88841,"pitch":57,"velocity":78},{"start":88800,"end":88861,"pitch":60,"velocity":66},{"start":88841,"end":88902,"pitch":56,"velocity":36},{"start":88851,"end":88902,"pitch":53,"velocity":52},{"start":88866,"end":88902,"pitch":48,"velocity":59},{"start":88902,"end":88953,"pitch":48,"velocity":76},{"start":88902,"end":89020,"pitch":53,"velocity":54},{"start":88902,"end":88948,"pitch":56,"velocity":69},{"start":88948,"end":89015,"pitch":56,"velocity":74},{"start":88953,"end":89020,"pitch":48,"velocity":74},{"start":89015,"end":89045,"pitch":56,"velocity":79},{"start":89020,"end":89055,"pitch":41,"velocity":38},{"start":89020,"end":89147,"pitch":48,"velocity":64},{"start":89020,"end":89112,"pitch":53,"velocity":61},{"start":89020,"end":89086,"pitch":60,"velocity":67},{"start":89055,"end":89132,"pitch":41,"velocity":64},{"start":89086,"end":89225,"pitch":56,"velocity":62},{"start":89112,"end":89230,"pitch":53,"velocity":57},{"start":89132,"end":89230,"pitch":41,"velocity":67},{"start":89137,"end":89235,"pitch":60,"velocity":64},{"start":89147,"end":89219,"pitch":48,"velocity":60},{"start":89225,"end":89301,"pitch":56,"velocity":52},{"start":89230,"end":89281,"pitch":53,"velocity":41},{"start":89235,"end":89362,"pitch":60,"velocity":55},{"start":89240,"end":89271,"pitch":68,"velocity":54},{"start":89240,"end":89291,"pitch":72,"velocity":40},{"start":89245,"end":89286,"pitch":43,"velocity":34},{"start":89271,"end":89306,"pitch":48,"velocity":37},{"start":89281,"end":89362,"pitch":53,"velocity":56},{"start":89357,"end":89500,"pitch":65,"velocity":44},{"start":89362,"end":89546,"pitch":53,"velocity":59},{"start":89362,"end":89470,"pitch":60,"velocity":65},{"start":89368,"end":89638,"pitch":56,"velocity":67},{"start":89383,"end":89424,"pitch":41,"velocity":53},{"start":89424,"end":89495,"pitch":41,"velocity":50},{"start":89429,"end":89480,"pitch":48,"velocity":49},{"start":89485,"end":89521,"pitch":48,"velocity":65},{"start":89521,"end":89608,"pitch":48,"velocity":42},{"start":89546,"end":89613,"pitch":53,"velocity":63},{"start":89587,"end":89638,"pitch":65,"velocity":39},{"start":89608,"end":89649,"pitch":48,"velocity":68},{"start":89613,"end":89710,"pitch":53,"velocity":79},{"start":89618,"end":89654,"pitch":62,"velocity":44},{"start":89638,"end":89705,"pitch":56,"velocity":53},{"start":89649,"end":89705,"pitch":48,"velocity":68},{"start":89700,"end":89792,"pitch":68,"velocity":49},{"start":89705,"end":89746,"pitch":48,"velocity":74},{"start":89705,"end":89746,"pitch":56,"velocity":87},{"start":89705,"end":89741,"pitch":60,"velocity":66},{"start":89710,"end":89843,"pitch":53,"velocity":75},{"start":89746,"end":89797,"pitch":48,"velocity":68},{"start":89746,"end":89838,"pitch":56,"velocity":71},{"start":89797,"end":89853,"pitch":48,"velocity":61},{"start":89827,"end":89919,"pitch":60,"velocity":78},{"start":89827,"end":89868,"pitch":65,"velocity":42},{"start":89838,"end":89899,"pitch":41,"velocity":43},{"start":89838,"end":89930,"pitch":56,"velocity":69},{"start":89843,"end":89970,"pitch":53,"velocity":82},{"start":89894,"end":89940,"pitch":48,"velocity":66},{"start":89919,"end":89950,"pitch":60,"velocity":73},{"start":89930,"end":90058,"pitch":56,"velocity":50},{"start":89940,"end":90063,"pitch":48,"velocity":46},{"start":89970,"end":90032,"pitch":41,"velocity":47},{"start":90032,"end":90063,"pitch":53,"velocity":65},{"start":90053,"end":90134,"pitch":60,"velocity":66},{"start":90058,"end":90129,"pitch":56,"velocity":68},{"start":90063,"end":90114,"pitch":48,"velocity":54},{"start":90109,"end":90170,"pitch":53,"velocity":72},{"start":90114,"end":90145,"pitch":48,"velocity":53},{"start":90129,"end":90160,"pitch":56,"velocity":63},{"start":90134,"end":90175,"pitch":60,"velocity":61},{"start":90145,"end":90226,"pitch":48,"velocity":50},{"start":90160,"end":90206,"pitch":56,"velocity":64},{"start":90160,"end":90262,"pitch":65,"velocity":45},{"start":90170,"end":90231,"pitch":53,"velocity":77},{"start":90170,"end":90221,"pitch":68,"velocity":40},{"start":90226,"end":90262,"pitch":48,"velocity":65},{"start":90231,"end":90288,"pitch":53,"velocity":74},{"start":90257,"end":90349,"pitch":68,"velocity":42},{"start":90262,"end":90339,"pitch":48,"velocity":64},{"start":90262,"end":90293,"pitch":60,"velocity":52},{"start":90288,"end":90329,"pitch":53,"velocity":73},{"start":90288,"end":90405,"pitch":65,"velocity":58},{"start":90293,"end":90323,"pitch":60,"velocity":58},{"start":90318,"end":90354,"pitch":56,"velocity":70},{"start":90329,"end":90405,"pitch":53,"velocity":75},{"start":90339,"end":90420,"pitch":48,"velocity":67},{"start":90354,"end":90405,"pitch":56,"velocity":67},{"start":90405,"end":90446,"pitch":53,"velocity":69},{"start":90405,"end":90446,"pitch":56,"velocity":66},{"start":90405,"end":90446,"pitch":60,"velocity":86},{"start":90405,"end":90492,"pitch":65,"velocity":51},{"start":90420,"end":90451,"pitch":48,"velocity":64},{"start":90446,"end":90477,"pitch":53,"velocity":72},{"start":90446,"end":90492,"pitch":56,"velocity":75},{"start":90451,"end":90533,"pitch":48,"velocity":63},{"start":90477,"end":90610,"pitch":53,"velocity":61},{"start":90533,"end":90579,"pitch":48,"velocity":69},{"start":90548,"end":90579,"pitch":60,"velocity":65},{"start":90553,"end":90604,"pitch":56,"velocity":59},{"start":90579,"end":90615,"pitch":48,"velocity":74},{"start":90604,"end":90727,"pitch":56,"velocity":51},{"start":90615,"end":90681,"pitch":48,"velocity":56},{"start":90809,"end":90922,"pitch":59,"velocity":79},{"start":90814,"end":90917,"pitch":52,"velocity":39},{"start":90819,"end":90850,"pitch":55,"velocity":89},{"start":90917,"end":90998,"pitch":52,"velocity":52},{"start":90947,"end":93262,"pitch":55,"velocity":66},{"start":90978,"end":91310,"pitch":60,"velocity":60},{"start":90998,"end":92373,"pitch":52,"velocity":73},{"start":91300,"end":91361,"pitch":40,"velocity":43},{"start":92373,"end":92521,"pitch":40,"velocity":44},{"start":92373,"end":93104,"pitch":52,"velocity":66},{"start":93094,"end":93145,"pitch":40,"velocity":47},{"start":93094,"end":93600,"pitch":48,"velocity":60},{"start":93094,"end":93411,"pitch":60,"velocity":50},{"start":93104,"end":93288,"pitch":52,"velocity":61},{"start":93288,"end":93815,"pitch":52,"velocity":59},{"start":93539,"end":93687,"pitch":60,"velocity":57},{"start":93815,"end":94320,"pitch":40,"velocity":46},{"start":93815,"end":93881,"pitch":52,"velocity":59},{"start":93932,"end":93988,"pitch":48,"velocity":49},{"start":93937,"end":93983,"pitch":52,"velocity":68}],"ppq":220,"tempo":120,"timeSig":{"num":4,"den":4},"view":{},"overrides":{},"chordView":{}},{"id":"guitar-2","instrument":"guitar","kind":"melodic","name":"Guitar (lead)","notes":[{"start":807,"end":843,"pitch":48,"velocity":64},{"start":868,"end":1078,"pitch":64,"velocity":53},{"start":1078,"end":1109,"pitch":64,"velocity":57},{"start":1109,"end":1201,"pitch":64,"velocity":79},{"start":1201,"end":1436,"pitch":64,"velocity":73},{"start":1441,"end":1508,"pitch":72,"velocity":39},{"start":1564,"end":1625,"pitch":72,"velocity":37},{"start":1676,"end":1891,"pitch":64,"velocity":59},{"start":1891,"end":2009,"pitch":64,"velocity":65},{"start":2009,"end":2085,"pitch":72,"velocity":44},{"start":2126,"end":2346,"pitch":64,"velocity":66},{"start":2346,"end":2448,"pitch":64,"velocity":79},{"start":2448,"end":2463,"pitch":64,"velocity":63},{"start":2463,"end":2581,"pitch":60,"velocity":60},{"start":2581,"end":2658,"pitch":64,"velocity":62},{"start":2658,"end":2694,"pitch":52,"velocity":49},{"start":2699,"end":2730,"pitch":59,"velocity":64},{"start":2730,"end":2832,"pitch":55,"velocity":89},{"start":2832,"end":2939,"pitch":47,"velocity":79},{"start":2939,"end":3051,"pitch":59,"velocity":67},{"start":3051,"end":3271,"pitch":64,"velocity":63},{"start":3271,"end":3358,"pitch":64,"velocity":59},{"start":3358,"end":3394,"pitch":52,"velocity":78},{"start":3394,"end":3507,"pitch":64,"velocity":41},{"start":3507,"end":3726,"pitch":64,"velocity":59},{"start":3726,"end":3747,"pitch":64,"velocity":60},{"start":3747,"end":3813,"pitch":47,"velocity":63},{"start":3834,"end":3854,"pitch":55,"velocity":88},{"start":3854,"end":3900,"pitch":64,"velocity":46},{"start":3961,"end":4053,"pitch":64,"velocity":55},{"start":4053,"end":4155,"pitch":59,"velocity":82},{"start":4155,"end":4186,"pitch":64,"velocity":52},{"start":4186,"end":4304,"pitch":64,"velocity":58},{"start":4304,"end":4391,"pitch":59,"velocity":77},{"start":4406,"end":4462,"pitch":65,"velocity":74},{"start":4462,"end":4493,"pitch":69,"velocity":35},{"start":4493,"end":4534,"pitch":57,"velocity":76},{"start":4534,"end":4590,"pitch":69,"velocity":48},{"start":4590,"end":4611,"pitch":69,"velocity":38},{"start":4611,"end":4682,"pitch":57,"velocity":109},{"start":4682,"end":4754,"pitch":57,"velocity":101},{"start":4754,"end":4871,"pitch":65,"velocity":54},{"start":4871,"end":4876,"pitch":65,"velocity":71},{"start":4876,"end":4907,"pitch":57,"velocity":100},{"start":4907,"end":4968,"pitch":57,"velocity":108},{"start":4968,"end":5035,"pitch":69,"velocity":47},{"start":5035,"end":5096,"pitch":57,"velocity":96},{"start":5096,"end":5178,"pitch":69,"velocity":44},{"start":5208,"end":5321,"pitch":60,"velocity":71},{"start":5321,"end":5352,"pitch":69,"velocity":42},{"start":5352,"end":5388,"pitch":57,"velocity":105},{"start":5388,"end":5444,"pitch":57,"velocity":106},{"start":5444,"end":5546,"pitch":57,"velocity":102},{"start":5546,"end":5628,"pitch":69,"velocity":49},{"start":5658,"end":5663,"pitch":57,"velocity":105},{"start":5663,"end":5740,"pitch":65,"velocity":63},{"start":5740,"end":5786,"pitch":57,"velocity":93},{"start":5786,"end":5837,"pitch":77,"velocity":49},{"start":5883,"end":5914,"pitch":57,"velocity":109},{"start":5914,"end":6006,"pitch":57,"velocity":103},{"start":6006,"end":6129,"pitch":65,"velocity":67},{"start":6129,"end":6139,"pitch":65,"velocity":62},{"start":6139,"end":6180,"pitch":53,"velocity":81},{"start":6180,"end":6216,"pitch":56,"velocity":32},{"start":6236,"end":6246,"pitch":65,"velocity":58},{"start":6246,"end":6364,"pitch":68,"velocity":40},{"start":6364,"end":6379,"pitch":68,"velocity":47},{"start":6379,"end":6578,"pitch":48,"velocity":74},{"start":6578,"end":6609,"pitch":68,"velocity":40},{"start":6609,"end":6711,"pitch":60,"velocity":74},{"start":6711,"end":6732,"pitch":68,"velocity":57},{"start":6732,"end":6926,"pitch":48,"velocity":62},{"start":6926,"end":6956,"pitch":65,"velocity":54},{"start":6956,"end":7034,"pitch":60,"velocity":82},{"start":7034,"end":7064,"pitch":60,"velocity":74},{"start":7064,"end":7177,"pitch":65,"velocity":57},{"start":7177,"end":7182,"pitch":65,"velocity":59},{"start":7182,"end":7381,"pitch":60,"velocity":66},{"start":7381,"end":7412,"pitch":65,"velocity":57},{"start":7412,"end":7504,"pitch":65,"velocity":61},{"start":7504,"end":7524,"pitch":65,"velocity":49},{"start":7524,"end":7621,"pitch":56,"velocity":89},{"start":7621,"end":7662,"pitch":65,"velocity":45},{"start":7867,"end":7928,"pitch":65,"velocity":47},{"start":7959,"end":7989,"pitch":60,"velocity":58},{"start":7989,"end":8025,"pitch":60,"velocity":71},{"start":8025,"end":8061,"pitch":60,"velocity":61},{"start":8081,"end":8092,"pitch":64,"velocity":61},{"start":8092,"end":8168,"pitch":59,"velocity":86},{"start":8168,"end":8209,"pitch":52,"velocity":46},{"start":8224,"end":8235,"pitch":64,"velocity":56},{"start":8235,"end":8301,"pitch":60,"velocity":71},{"start":8301,"end":8398,"pitch":60,"velocity":60},{"start":8398,"end":8449,"pitch":52,"velocity":59},{"start":8449,"end":8490,"pitch":64,"velocity":59},{"start":8490,"end":8531,"pitch":60,"velocity":86},{"start":8531,"end":8562,"pitch":60,"velocity":75},{"start":8562,"end":8592,"pitch":64,"velocity":68},{"start":8592,"end":8623,"pitch":60,"velocity":76},{"start":8623,"end":8669,"pitch":60,"velocity":73},{"start":8694,"end":8740,"pitch":64,"velocity":91},{"start":8740,"end":8787,"pitch":60,"velocity":75},{"start":8787,"end":8869,"pitch":64,"velocity":88},{"start":8869,"end":8899,"pitch":55,"velocity":77},{"start":8899,"end":9017,"pitch":64,"velocity":76},{"start":9017,"end":9068,"pitch":64,"velocity":92},{"start":9068,"end":9145,"pitch":64,"velocity":68},{"start":9145,"end":9150,"pitch":72,"velocity":74},{"start":9150,"end":9221,"pitch":55,"velocity":72},{"start":9221,"end":9252,"pitch":72,"velocity":49},{"start":9252,"end":9313,"pitch":52,"velocity":48},{"start":9313,"end":9359,"pitch":72,"velocity":47},{"start":9359,"end":9385,"pitch":60,"velocity":89},{"start":9385,"end":9477,"pitch":52,"velocity":49},{"start":9477,"end":9517,"pitch":72,"velocity":45},{"start":9533,"end":9599,"pitch":74,"velocity":22},{"start":9599,"end":9641,"pitch":74,"velocity":53},{"start":9712,"end":9814,"pitch":60,"velocity":77},{"start":9814,"end":9881,"pitch":64,"velocity":63},{"start":9881,"end":9927,"pitch":60,"velocity":72},{"start":9927,"end":10034,"pitch":64,"velocity":73},{"start":10034,"end":10100,"pitch":64,"velocity":60},{"start":10100,"end":10146,"pitch":60,"velocity":77},{"start":10146,"end":10177,"pitch":60,"velocity":85},{"start":10177,"end":10218,"pitch":59,"velocity":61},{"start":10218,"end":10269,"pitch":59,"velocity":65},{"start":10269,"end":10295,"pitch":55,"velocity":83},{"start":10295,"end":10330,"pitch":59,"velocity":68},{"start":10330,"end":10397,"pitch":60,"velocity":71},{"start":10397,"end":10448,"pitch":64,"velocity":59},{"start":10448,"end":10505,"pitch":59,"velocity":73},{"start":10505,"end":10556,"pitch":64,"velocity":33},{"start":10556,"end":10607,"pitch":64,"velocity":59},{"start":10607,"end":10729,"pitch":64,"velocity":68},{"start":10729,"end":10806,"pitch":64,"velocity":48},{"start":10852,"end":10913,"pitch":64,"velocity":42},{"start":10913,"end":10959,"pitch":64,"velocity":59},{"start":10959,"end":11082,"pitch":72,"velocity":81},{"start":11082,"end":11102,"pitch":72,"velocity":70},{"start":11102,"end":11179,"pitch":40,"velocity":42},{"start":11179,"end":11307,"pitch":64,"velocity":52},{"start":11307,"end":11363,"pitch":64,"velocity":46},{"start":11363,"end":11419,"pitch":59,"velocity":62},{"start":11419,"end":11517,"pitch":64,"velocity":54},{"start":11517,"end":11578,"pitch":64,"velocity":48},{"start":11644,"end":11654,"pitch":72,"velocity":77},{"start":11654,"end":11731,"pitch":59,"velocity":58},{"start":11752,"end":11782,"pitch":72,"velocity":66},{"start":11782,"end":11823,"pitch":72,"velocity":59},{"start":11823,"end":11869,"pitch":57,"velocity":64},{"start":11869,"end":11951,"pitch":65,"velocity":55},{"start":11951,"end":12043,"pitch":57,"velocity":96},{"start":12043,"end":12084,"pitch":57,"velocity":84},{"start":12084,"end":12109,"pitch":65,"velocity":50},{"start":12109,"end":12216,"pitch":57,"velocity":85},{"start":12216,"end":12268,"pitch":69,"velocity":57},{"start":12268,"end":12299,"pitch":69,"velocity":60},{"start":12299,"end":12340,"pitch":60,"velocity":79},{"start":12340,"end":12442,"pitch":65,"velocity":57},{"start":12442,"end":12488,"pitch":72,"velocity":33},{"start":12493,"end":12554,"pitch":65,"velocity":56},{"start":12554,"end":12585,"pitch":60,"velocity":58},{"start":12585,"end":12615,"pitch":45,"velocity":42},{"start":12615,"end":12646,"pitch":57,"velocity":95},{"start":12672,"end":12677,"pitch":72,"velocity":36},{"start":12677,"end":12707,"pitch":57,"velocity":103},{"start":12707,"end":12753,"pitch":57,"velocity":100},{"start":12753,"end":12789,"pitch":57,"velocity":99},{"start":12789,"end":12845,"pitch":72,"velocity":60},{"start":12845,"end":12901,"pitch":72,"velocity":52},{"start":12901,"end":12958,"pitch":65,"velocity":42},{"start":13024,"end":13122,"pitch":72,"velocity":38},{"start":13132,"end":13168,"pitch":77,"velocity":48},{"start":13209,"end":13219,"pitch":74,"velocity":28},{"start":13219,"end":13260,"pitch":41,"velocity":42},{"start":13260,"end":13372,"pitch":74,"velocity":53},{"start":13372,"end":13418,"pitch":69,"velocity":54},{"start":13418,"end":13449,"pitch":69,"velocity":44},{"start":13484,"end":13530,"pitch":65,"velocity":55},{"start":13530,"end":13561,"pitch":57,"velocity":65},{"start":13607,"end":13673,"pitch":68,"velocity":46},{"start":13709,"end":13730,"pitch":68,"velocity":38},{"start":13730,"end":13903,"pitch":60,"velocity":64},{"start":13903,"end":13944,"pitch":60,"velocity":69},{"start":13944,"end":14072,"pitch":65,"velocity":44},{"start":14072,"end":14175,"pitch":65,"velocity":61},{"start":14175,"end":14287,"pitch":65,"velocity":58},{"start":14287,"end":14389,"pitch":65,"velocity":49},{"start":14389,"end":14420,"pitch":64,"velocity":54},{"start":14420,"end":14512,"pitch":60,"velocity":73},{"start":14512,"end":14542,"pitch":48,"velocity":39},{"start":14542,"end":14619,"pitch":65,"velocity":43},{"start":14634,"end":14685,"pitch":72,"velocity":54},{"start":14685,"end":14752,"pitch":65,"velocity":46},{"start":14757,"end":14803,"pitch":65,"velocity":55},{"start":14803,"end":14865,"pitch":72,"velocity":37},{"start":14865,"end":14987,"pitch":72,"velocity":41},{"start":14987,"end":15054,"pitch":65,"velocity":42},{"start":15054,"end":15084,"pitch":41,"velocity":44},{"start":15084,"end":15222,"pitch":74,"velocity":65},{"start":15222,"end":15289,"pitch":74,"velocity":53},{"start":15314,"end":15330,"pitch":68,"velocity":42},{"start":15330,"end":15386,"pitch":72,"velocity":55},{"start":15386,"end":15437,"pitch":55,"velocity":70},{"start":15437,"end":15529,"pitch":64,"velocity":56},{"start":15529,"end":15560,"pitch":60,"velocity":50},{"start":15560,"end":15611,"pitch":64,"velocity":49},{"start":15611,"end":15713,"pitch":60,"velocity":90},{"start":15713,"end":15780,"pitch":60,"velocity":82},{"start":15785,"end":15867,"pitch":64,"velocity":51},{"start":15867,"end":15907,"pitch":60,"velocity":82},{"start":15907,"end":15953,"pitch":64,"velocity":66},{"start":15953,"end":16010,"pitch":60,"velocity":91},{"start":16010,"end":16076,"pitch":72,"velocity":34},{"start":16132,"end":16250,"pitch":64,"velocity":75},{"start":16250,"end":16347,"pitch":72,"velocity":45},{"start":16367,"end":16377,"pitch":72,"velocity":47},{"start":16377,"end":16418,"pitch":55,"velocity":77},{"start":16418,"end":16475,"pitch":64,"velocity":50},{"start":16475,"end":16510,"pitch":72,"velocity":60},{"start":16510,"end":16546,"pitch":48,"velocity":40},{"start":16566,"end":16597,"pitch":60,"velocity":75},{"start":16597,"end":16639,"pitch":64,"velocity":56},{"start":16639,"end":16669,"pitch":72,"velocity":50},{"start":16669,"end":16710,"pitch":72,"velocity":56},{"start":16710,"end":16828,"pitch":60,"velocity":86},{"start":16828,"end":16838,"pitch":64,"velocity":68},{"start":16838,"end":16925,"pitch":55,"velocity":74},{"start":16925,"end":17057,"pitch":74,"velocity":43},{"start":17057,"end":17119,"pitch":64,"velocity":60},{"start":17119,"end":17175,"pitch":48,"velocity":74},{"start":17180,"end":17200,"pitch":64,"velocity":62},{"start":17200,"end":17231,"pitch":40,"velocity":47},{"start":17231,"end":17267,"pitch":72,"velocity":45},{"start":17282,"end":17318,"pitch":64,"velocity":45},{"start":17318,"end":17354,"pitch":60,"velocity":62},{"start":17354,"end":17395,"pitch":52,"velocity":52},{"start":17405,"end":17425,"pitch":76,"velocity":33},{"start":17425,"end":17456,"pitch":47,"velocity":53},{"start":17456,"end":17497,"pitch":59,"velocity":57},{"start":17497,"end":17538,"pitch":59,"velocity":58},{"start":17538,"end":17605,"pitch":60,"velocity":70},{"start":17620,"end":17656,"pitch":64,"velocity":52},{"start":17656,"end":17737,"pitch":59,"velocity":86},{"start":17737,"end":17845,"pitch":64,"velocity":62},{"start":17845,"end":17870,"pitch":64,"velocity":86},{"start":17870,"end":17932,"pitch":59,"velocity":80},{"start":17932,"end":17962,"pitch":64,"velocity":77},{"start":17962,"end":18029,"pitch":64,"velocity":60},{"start":18029,"end":18069,"pitch":55,"velocity":71},{"start":18080,"end":18192,"pitch":64,"velocity":48},{"start":18192,"end":18315,"pitch":64,"velocity":54},{"start":18315,"end":18407,"pitch":72,"velocity":68},{"start":18407,"end":18433,"pitch":64,"velocity":52},{"start":18433,"end":18520,"pitch":59,"velocity":69},{"start":18525,"end":18642,"pitch":64,"velocity":47},{"start":18652,"end":18693,"pitch":72,"velocity":41},{"start":18719,"end":18770,"pitch":55,"velocity":82},{"start":18770,"end":18872,"pitch":64,"velocity":51},{"start":18872,"end":18990,"pitch":59,"velocity":83},{"start":18995,"end":19041,"pitch":72,"velocity":60},{"start":19041,"end":19112,"pitch":72,"velocity":58},{"start":19112,"end":19148,"pitch":68,"velocity":45},{"start":19168,"end":19230,"pitch":60,"velocity":80},{"start":19230,"end":19322,"pitch":65,"velocity":67},{"start":19322,"end":19419,"pitch":72,"velocity":48},{"start":19429,"end":19496,"pitch":65,"velocity":51},{"start":19496,"end":19562,"pitch":65,"velocity":56},{"start":19562,"end":19700,"pitch":69,"velocity":50},{"start":19700,"end":19782,"pitch":69,"velocity":52},{"start":19782,"end":19792,"pitch":65,"velocity":56},{"start":19792,"end":19828,"pitch":69,"velocity":45},{"start":19828,"end":19859,"pitch":48,"velocity":46},{"start":19859,"end":19899,"pitch":57,"velocity":81},{"start":19899,"end":19945,"pitch":69,"velocity":42},{"start":19945,"end":20017,"pitch":65,"velocity":51},{"start":20017,"end":20063,"pitch":65,"velocity":38},{"start":20063,"end":20130,"pitch":65,"velocity":50},{"start":20130,"end":20237,"pitch":72,"velocity":58},{"start":20237,"end":20288,"pitch":72,"velocity":47},{"start":20288,"end":20355,"pitch":60,"velocity":62},{"start":20355,"end":20406,"pitch":69,"velocity":48},{"start":20406,"end":20452,"pitch":57,"velocity":91},{"start":20477,"end":20482,"pitch":72,"velocity":40},{"start":20482,"end":20554,"pitch":57,"velocity":87},{"start":20554,"end":20600,"pitch":74,"velocity":23},{"start":20600,"end":20636,"pitch":74,"velocity":58},{"start":20636,"end":20712,"pitch":65,"velocity":53},{"start":20717,"end":20825,"pitch":74,"velocity":43},{"start":20825,"end":20855,"pitch":69,"velocity":40},{"start":20860,"end":20891,"pitch":57,"velocity":56},{"start":20942,"end":20973,"pitch":65,"velocity":53},{"start":20973,"end":21029,"pitch":53,"velocity":64},{"start":21029,"end":21060,"pitch":60,"velocity":71},{"start":21060,"end":21132,"pitch":65,"velocity":52},{"start":21132,"end":21142,"pitch":60,"velocity":91},{"start":21142,"end":21183,"pitch":48,"velocity":48},{"start":21208,"end":21234,"pitch":65,"velocity":61},{"start":21234,"end":21280,"pitch":56,"velocity":73},{"start":21285,"end":21346,"pitch":68,"velocity":42},{"start":21346,"end":21407,"pitch":65,"velocity":48},{"start":21407,"end":21443,"pitch":65,"velocity":51},{"start":21443,"end":21474,"pitch":48,"velocity":73},{"start":21474,"end":21520,"pitch":56,"velocity":76},{"start":21520,"end":21545,"pitch":60,"velocity":70},{"start":21545,"end":21576,"pitch":56,"velocity":84},{"start":21576,"end":21627,"pitch":56,"velocity":74},{"start":21627,"end":21678,"pitch":65,"velocity":51},{"start":21678,"end":21750,"pitch":60,"velocity":72},{"start":21750,"end":21770,"pitch":65,"velocity":52},{"start":21770,"end":21858,"pitch":60,"velocity":75},{"start":21858,"end":21898,"pitch":65,"velocity":52},{"start":21898,"end":21975,"pitch":53,"velocity":56},{"start":21975,"end":22006,"pitch":60,"velocity":61},{"start":22006,"end":22077,"pitch":65,"velocity":35},{"start":22077,"end":22139,"pitch":65,"velocity":64},{"start":22139,"end":22195,"pitch":60,"velocity":69},{"start":22195,"end":22225,"pitch":72,"velocity":43},{"start":22256,"end":22307,"pitch":60,"velocity":69},{"start":22307,"end":22343,"pitch":65,"velocity":71},{"start":22343,"end":22374,"pitch":56,"velocity":72},{"start":22374,"end":22409,"pitch":60,"velocity":78},{"start":22409,"end":22455,"pitch":60,"velocity":72},{"start":22455,"end":22501,"pitch":60,"velocity":81},{"start":22501,"end":22547,"pitch":60,"velocity":69},{"start":22547,"end":22603,"pitch":74,"velocity":38},{"start":22603,"end":22660,"pitch":56,"velocity":57},{"start":22660,"end":22716,"pitch":72,"velocity":41},{"start":22716,"end":22778,"pitch":72,"velocity":66},{"start":22778,"end":22824,"pitch":64,"velocity":59},{"start":22824,"end":22854,"pitch":57,"velocity":42},{"start":22865,"end":22900,"pitch":48,"velocity":45},{"start":22900,"end":22941,"pitch":64,"velocity":71},{"start":22941,"end":22997,"pitch":64,"velocity":59},{"start":22997,"end":23059,"pitch":72,"velocity":55},{"start":23059,"end":23089,"pitch":52,"velocity":43},{"start":23130,"end":23161,"pitch":60,"velocity":76},{"start":23161,"end":23253,"pitch":64,"velocity":69},{"start":23253,"end":23314,"pitch":64,"velocity":66},{"start":23314,"end":23370,"pitch":72,"velocity":43},{"start":23370,"end":23406,"pitch":72,"velocity":50},{"start":23406,"end":23437,"pitch":60,"velocity":95},{"start":23437,"end":23472,"pitch":60,"velocity":87},{"start":23472,"end":23523,"pitch":64,"velocity":70},{"start":23523,"end":23569,"pitch":55,"velocity":60},{"start":23569,"end":23657,"pitch":64,"velocity":46},{"start":23657,"end":23698,"pitch":60,"velocity":85},{"start":23698,"end":23744,"pitch":64,"velocity":62},{"start":23744,"end":23790,"pitch":60,"velocity":85},{"start":23790,"end":23825,"pitch":60,"velocity":72},{"start":23825,"end":23856,"pitch":64,"velocity":40},{"start":23877,"end":23882,"pitch":60,"velocity":68},{"start":23882,"end":23923,"pitch":48,"velocity":66},{"start":23923,"end":24020,"pitch":72,"velocity":50},{"start":24020,"end":24076,"pitch":72,"velocity":55},{"start":24076,"end":24106,"pitch":60,"velocity":59},{"start":24106,"end":24158,"pitch":60,"velocity":81},{"start":24158,"end":24209,"pitch":72,"velocity":43},{"start":24224,"end":24280,"pitch":74,"velocity":29},{"start":24280,"end":24316,"pitch":64,"velocity":69},{"start":24316,"end":24382,"pitch":64,"velocity":72},{"start":24382,"end":24433,"pitch":64,"velocity":61},{"start":24433,"end":24490,"pitch":64,"velocity":62},{"start":24490,"end":24557,"pitch":60,"velocity":62},{"start":24557,"end":24587,"pitch":60,"velocity":53},{"start":24618,"end":24674,"pitch":64,"velocity":59},{"start":24674,"end":24710,"pitch":55,"velocity":83},{"start":24710,"end":24740,"pitch":55,"velocity":70},{"start":24740,"end":24776,"pitch":64,"velocity":45},{"start":24776,"end":24817,"pitch":55,"velocity":90},{"start":24832,"end":24868,"pitch":60,"velocity":68},{"start":24868,"end":24929,"pitch":60,"velocity":53},{"start":24975,"end":24996,"pitch":64,"velocity":53},{"start":24996,"end":25052,"pitch":55,"velocity":89},{"start":25052,"end":25083,"pitch":59,"velocity":54},{"start":25088,"end":25164,"pitch":67,"velocity":37},{"start":25164,"end":25205,"pitch":59,"velocity":62},{"start":25205,"end":25256,"pitch":64,"velocity":87},{"start":25256,"end":25307,"pitch":59,"velocity":68},{"start":25307,"end":25369,"pitch":64,"velocity":66},{"start":25369,"end":25410,"pitch":64,"velocity":62},{"start":25410,"end":25461,"pitch":52,"velocity":49},{"start":25461,"end":25538,"pitch":64,"velocity":50},{"start":25538,"end":25594,"pitch":64,"velocity":69},{"start":25594,"end":25661,"pitch":64,"velocity":58},{"start":25661,"end":25696,"pitch":72,"velocity":77},{"start":25696,"end":25732,"pitch":72,"velocity":71},{"start":25732,"end":25783,"pitch":59,"velocity":41},{"start":25788,"end":25895,"pitch":72,"velocity":48},{"start":25895,"end":25931,"pitch":64,"velocity":72},{"start":25931,"end":26003,"pitch":64,"velocity":60},{"start":26003,"end":26095,"pitch":72,"velocity":43},{"start":26120,"end":26233,"pitch":74,"velocity":61},{"start":26233,"end":26330,"pitch":64,"velocity":60},{"start":26346,"end":26402,"pitch":72,"velocity":76},{"start":26402,"end":26453,"pitch":72,"velocity":92},{"start":26453,"end":26489,"pitch":72,"velocity":54},{"start":26489,"end":26514,"pitch":69,"velocity":49},{"start":26514,"end":26575,"pitch":57,"velocity":62},{"start":26575,"end":26627,"pitch":57,"velocity":81},{"start":26627,"end":26729,"pitch":65,"velocity":53},{"start":26729,"end":26800,"pitch":57,"velocity":91},{"start":26800,"end":26836,"pitch":72,"velocity":46},{"start":26836,"end":26877,"pitch":65,"velocity":53},{"start":26897,"end":26928,"pitch":72,"velocity":41},{"start":26928,"end":26969,"pitch":69,"velocity":41},{"start":26969,"end":27045,"pitch":60,"velocity":66},{"start":27051,"end":27076,"pitch":77,"velocity":38},{"start":27076,"end":27143,"pitch":60,"velocity":68},{"start":27143,"end":27174,"pitch":65,"velocity":53},{"start":27174,"end":27230,"pitch":60,"velocity":70},{"start":27230,"end":27261,"pitch":65,"velocity":54},{"start":27261,"end":27301,"pitch":65,"velocity":66},{"start":27301,"end":27337,"pitch":64,"velocity":63},{"start":27337,"end":27388,"pitch":65,"velocity":58},{"start":27388,"end":27444,"pitch":69,"velocity":42},{"start":27444,"end":27490,"pitch":57,"velocity":88},{"start":27490,"end":27526,"pitch":72,"velocity":61},{"start":27526,"end":27567,"pitch":60,"velocity":68},{"start":27567,"end":27613,"pitch":57,"velocity":81},{"start":27613,"end":27674,"pitch":72,"velocity":39},{"start":27674,"end":27710,"pitch":53,"velocity":68},{"start":27710,"end":27746,"pitch":69,"velocity":51},{"start":27746,"end":27838,"pitch":65,"velocity":49},{"start":27843,"end":27894,"pitch":69,"velocity":40},{"start":27914,"end":27955,"pitch":57,"velocity":96},{"start":27955,"end":27987,"pitch":77,"velocity":40},{"start":27987,"end":28017,"pitch":77,"velocity":46},{"start":28017,"end":28053,"pitch":69,"velocity":40},{"start":28053,"end":28084,"pitch":65,"velocity":53},{"start":28084,"end":28119,"pitch":74,"velocity":47},{"start":28119,"end":28160,"pitch":48,"velocity":46},{"start":28181,"end":28232,"pitch":65,"velocity":73},{"start":28232,"end":28257,"pitch":65,"velocity":65},{"start":28257,"end":28293,"pitch":60,"velocity":50},{"start":28298,"end":28339,"pitch":68,"velocity":45},{"start":28339,"end":28390,"pitch":53,"velocity":50},{"start":28416,"end":28446,"pitch":65,"velocity":49},{"start":28446,"end":28472,"pitch":56,"velocity":82},{"start":28472,"end":28528,"pitch":65,"velocity":52},{"start":28528,"end":28559,"pitch":60,"velocity":71},{"start":28559,"end":28605,"pitch":60,"velocity":53},{"start":28605,"end":28630,"pitch":56,"velocity":68},{"start":28630,"end":28691,"pitch":65,"velocity":57},{"start":28691,"end":28748,"pitch":65,"velocity":64},{"start":28748,"end":28789,"pitch":65,"velocity":65},{"start":28789,"end":28824,"pitch":60,"velocity":83},{"start":28824,"end":28871,"pitch":60,"velocity":79},{"start":28871,"end":28942,"pitch":68,"velocity":45},{"start":28988,"end":29004,"pitch":64,"velocity":41},{"start":29004,"end":29039,"pitch":56,"velocity":79},{"start":29039,"end":29075,"pitch":65,"velocity":38},{"start":29080,"end":29111,"pitch":65,"velocity":49},{"start":29111,"end":29167,"pitch":65,"velocity":59},{"start":29167,"end":29208,"pitch":64,"velocity":53},{"start":29208,"end":29249,"pitch":65,"velocity":51},{"start":29249,"end":29285,"pitch":48,"velocity":44},{"start":29346,"end":29382,"pitch":72,"velocity":62},{"start":29382,"end":29438,"pitch":60,"velocity":67},{"start":29438,"end":29469,"pitch":65,"velocity":59},{"start":29469,"end":29509,"pitch":53,"velocity":46},{"start":29550,"end":29601,"pitch":65,"velocity":59},{"start":29601,"end":29678,"pitch":60,"velocity":81},{"start":29678,"end":29714,"pitch":65,"velocity":66},{"start":29714,"end":29791,"pitch":60,"velocity":85},{"start":29791,"end":29822,"pitch":74,"velocity":60},{"start":29822,"end":29878,"pitch":60,"velocity":72},{"start":29898,"end":29908,"pitch":65,"velocity":59},{"start":29908,"end":29954,"pitch":60,"velocity":80},{"start":29954,"end":30005,"pitch":48,"velocity":51},{"start":30005,"end":30067,"pitch":72,"velocity":29},{"start":30067,"end":30143,"pitch":72,"velocity":65},{"start":30143,"end":30184,"pitch":72,"velocity":44},{"start":30184,"end":30230,"pitch":72,"velocity":45},{"start":30230,"end":30266,"pitch":60,"velocity":66},{"start":30266,"end":30317,"pitch":64,"velocity":50},{"start":30317,"end":30363,"pitch":72,"velocity":52},{"start":30373,"end":30409,"pitch":60,"velocity":72},{"start":30409,"end":30475,"pitch":60,"velocity":71},{"start":30475,"end":30527,"pitch":72,"velocity":33},{"start":30527,"end":30599,"pitch":64,"velocity":69},{"start":30604,"end":30655,"pitch":72,"velocity":40},{"start":30675,"end":30706,"pitch":60,"velocity":87},{"start":30706,"end":30737,"pitch":64,"velocity":75},{"start":30737,"end":30777,"pitch":55,"velocity":62},{"start":30777,"end":30823,"pitch":60,"velocity":77},{"start":30823,"end":30844,"pitch":72,"velocity":44},{"start":30844,"end":30880,"pitch":60,"velocity":81},{"start":30880,"end":30936,"pitch":64,"velocity":73},{"start":30936,"end":30972,"pitch":64,"velocity":59},{"start":30972,"end":31053,"pitch":60,"velocity":75},{"start":31053,"end":31099,"pitch":72,"velocity":42},{"start":31099,"end":31155,"pitch":64,"velocity":57},{"start":31155,"end":31247,"pitch":72,"velocity":67},{"start":31247,"end":31278,"pitch":60,"velocity":76},{"start":31278,"end":31334,"pitch":72,"velocity":33},{"start":31334,"end":31406,"pitch":72,"velocity":57},{"start":31406,"end":31447,"pitch":64,"velocity":56},{"start":31447,"end":31478,"pitch":52,"velocity":51},{"start":31478,"end":31508,"pitch":60,"velocity":64},{"start":31508,"end":31570,"pitch":72,"velocity":56},{"start":31570,"end":31611,"pitch":74,"velocity":23},{"start":31611,"end":31662,"pitch":74,"velocity":64},{"start":31662,"end":31728,"pitch":55,"velocity":73},{"start":31728,"end":31774,"pitch":64,"velocity":74},{"start":31774,"end":31795,"pitch":60,"velocity":52},{"start":31795,"end":31851,"pitch":64,"velocity":57},{"start":31851,"end":31892,"pitch":72,"velocity":40},{"start":31892,"end":31953,"pitch":48,"velocity":54},{"start":31968,"end":32024,"pitch":64,"velocity":53},{"start":32024,"end":32065,"pitch":59,"velocity":50},{"start":32070,"end":32106,"pitch":60,"velocity":26},{"start":32116,"end":32137,"pitch":64,"velocity":42},{"start":32137,"end":32224,"pitch":60,"velocity":74},{"start":32224,"end":32270,"pitch":60,"velocity":78},{"start":32270,"end":32310,"pitch":60,"velocity":69},{"start":32316,"end":32341,"pitch":64,"velocity":49},{"start":32341,"end":32429,"pitch":52,"velocity":63},{"start":32429,"end":32464,"pitch":64,"velocity":58},{"start":32464,"end":32500,"pitch":55,"velocity":83},{"start":32500,"end":32531,"pitch":59,"velocity":63},{"start":32556,"end":32561,"pitch":64,"velocity":77},{"start":32561,"end":32658,"pitch":55,"velocity":75},{"start":32658,"end":32694,"pitch":64,"velocity":78},{"start":32694,"end":32755,"pitch":59,"velocity":74},{"start":32755,"end":32796,"pitch":64,"velocity":64},{"start":32796,"end":32832,"pitch":64,"velocity":62},{"start":32832,"end":32883,"pitch":59,"velocity":45},{"start":32883,"end":32944,"pitch":64,"velocity":63},{"start":32944,"end":32985,"pitch":64,"velocity":56},{"start":32990,"end":33062,"pitch":72,"velocity":70},{"start":33062,"end":33113,"pitch":64,"velocity":50},{"start":33113,"end":33128,"pitch":72,"velocity":56},{"start":33128,"end":33164,"pitch":64,"velocity":55},{"start":33164,"end":33221,"pitch":52,"velocity":61},{"start":33221,"end":33272,"pitch":64,"velocity":55},{"start":33272,"end":33354,"pitch":64,"velocity":58},{"start":33354,"end":33415,"pitch":72,"velocity":59},{"start":33461,"end":33558,"pitch":74,"velocity":51},{"start":33558,"end":33619,"pitch":64,"velocity":39},{"start":33619,"end":33665,"pitch":52,"velocity":47},{"start":33686,"end":33716,"pitch":72,"velocity":74},{"start":33716,"end":33778,"pitch":60,"velocity":47},{"start":33803,"end":33808,"pitch":72,"velocity":44},{"start":33808,"end":33849,"pitch":60,"velocity":83},{"start":33849,"end":33885,"pitch":57,"velocity":77},{"start":33885,"end":33921,"pitch":48,"velocity":31},{"start":33921,"end":33957,"pitch":69,"velocity":44},{"start":33957,"end":33992,"pitch":69,"velocity":48},{"start":33992,"end":34100,"pitch":57,"velocity":87},{"start":34100,"end":34156,"pitch":65,"velocity":37},{"start":34156,"end":34187,"pitch":72,"velocity":44},{"start":34187,"end":34197,"pitch":65,"velocity":56},{"start":34197,"end":34238,"pitch":69,"velocity":44},{"start":34264,"end":34310,"pitch":65,"velocity":62},{"start":34310,"end":34381,"pitch":57,"velocity":99},{"start":34381,"end":34422,"pitch":69,"velocity":45},{"start":34422,"end":34483,"pitch":53,"velocity":61},{"start":34488,"end":34514,"pitch":65,"velocity":63},{"start":34514,"end":34560,"pitch":60,"velocity":73},{"start":34560,"end":34596,"pitch":57,"velocity":96},{"start":34596,"end":34636,"pitch":64,"velocity":60},{"start":34636,"end":34652,"pitch":60,"velocity":60},{"start":34652,"end":34718,"pitch":65,"velocity":55},{"start":34718,"end":34774,"pitch":65,"velocity":62},{"start":34774,"end":34846,"pitch":60,"velocity":60},{"start":34846,"end":34877,"pitch":72,"velocity":66},{"start":34877,"end":34958,"pitch":53,"velocity":71},{"start":34958,"end":35061,"pitch":72,"velocity":52},{"start":35061,"end":35179,"pitch":72,"velocity":55},{"start":35179,"end":35276,"pitch":65,"velocity":64},{"start":35296,"end":35362,"pitch":74,"velocity":48},{"start":35362,"end":35408,"pitch":53,"velocity":35},{"start":35408,"end":35449,"pitch":65,"velocity":58},{"start":35449,"end":35521,"pitch":74,"velocity":55},{"start":35521,"end":35597,"pitch":60,"velocity":57},{"start":35597,"end":35633,"pitch":65,"velocity":42},{"start":35633,"end":35674,"pitch":65,"velocity":46},{"start":35674,"end":35751,"pitch":60,"velocity":80},{"start":35756,"end":35771,"pitch":65,"velocity":50},{"start":35771,"end":35812,"pitch":53,"velocity":82},{"start":35812,"end":35853,"pitch":48,"velocity":55},{"start":35853,"end":35945,"pitch":60,"velocity":67},{"start":35945,"end":35981,"pitch":60,"velocity":46},{"start":35981,"end":36053,"pitch":65,"velocity":55},{"start":36053,"end":36104,"pitch":60,"velocity":75},{"start":36109,"end":36175,"pitch":68,"velocity":35},{"start":36185,"end":36221,"pitch":60,"velocity":71},{"start":36221,"end":36323,"pitch":68,"velocity":41},{"start":36323,"end":36359,"pitch":65,"velocity":67},{"start":36359,"end":36395,"pitch":56,"velocity":86},{"start":36395,"end":36431,"pitch":56,"velocity":78},{"start":36441,"end":36461,"pitch":65,"velocity":64},{"start":36461,"end":36492,"pitch":60,"velocity":91},{"start":36492,"end":36553,"pitch":65,"velocity":50},{"start":36553,"end":36620,"pitch":65,"velocity":62},{"start":36620,"end":36666,"pitch":56,"velocity":67},{"start":36666,"end":36707,"pitch":72,"velocity":56},{"start":36707,"end":36758,"pitch":72,"velocity":55},{"start":36768,"end":36840,"pitch":65,"velocity":58},{"start":36840,"end":36906,"pitch":60,"velocity":76},{"start":36906,"end":37014,"pitch":60,"velocity":83},{"start":37014,"end":37049,"pitch":65,"velocity":50},{"start":37080,"end":37121,"pitch":74,"velocity":26},{"start":37121,"end":37157,"pitch":74,"velocity":53},{"start":37157,"end":37197,"pitch":53,"velocity":54},{"start":37197,"end":37249,"pitch":53,"velocity":46},{"start":37249,"end":37279,"pitch":65,"velocity":46},{"start":37279,"end":37361,"pitch":60,"velocity":69},{"start":37361,"end":37422,"pitch":72,"velocity":48},{"start":37422,"end":37427,"pitch":72,"velocity":63},{"start":37427,"end":37478,"pitch":55,"velocity":45},{"start":37478,"end":37530,"pitch":64,"velocity":49},{"start":37530,"end":37586,"pitch":59,"velocity":64},{"start":37591,"end":37642,"pitch":79,"velocity":57},{"start":37642,"end":37688,"pitch":64,"velocity":42},{"start":37688,"end":37791,"pitch":60,"velocity":53},{"start":37791,"end":37821,"pitch":79,"velocity":55},{"start":37821,"end":37903,"pitch":60,"velocity":61},{"start":37903,"end":37934,"pitch":55,"velocity":67},{"start":37934,"end":37985,"pitch":64,"velocity":50},{"start":37985,"end":38036,"pitch":60,"velocity":74},{"start":38036,"end":38066,"pitch":64,"velocity":56},{"start":38066,"end":38118,"pitch":60,"velocity":72},{"start":38118,"end":38158,"pitch":76,"velocity":59},{"start":38158,"end":38250,"pitch":64,"velocity":57},{"start":38250,"end":38286,"pitch":76,"velocity":53},{"start":38286,"end":38353,"pitch":76,"velocity":45},{"start":38353,"end":38399,"pitch":64,"velocity":70},{"start":38399,"end":38444,"pitch":64,"velocity":77},{"start":38444,"end":38511,"pitch":64,"velocity":74},{"start":38511,"end":38552,"pitch":64,"velocity":74},{"start":38552,"end":38598,"pitch":52,"velocity":54},{"start":38624,"end":38655,"pitch":72,"velocity":39},{"start":38731,"end":38772,"pitch":60,"velocity":85},{"start":38772,"end":38803,"pitch":76,"velocity":45},{"start":38854,"end":38895,"pitch":64,"velocity":48},{"start":38895,"end":38935,"pitch":60,"velocity":69},{"start":38935,"end":38966,"pitch":60,"velocity":63},{"start":38971,"end":39022,"pitch":72,"velocity":80},{"start":39022,"end":39078,"pitch":72,"velocity":70},{"start":39078,"end":39119,"pitch":72,"velocity":52},{"start":39119,"end":39150,"pitch":52,"velocity":45},{"start":39201,"end":39222,"pitch":64,"velocity":44},{"start":39222,"end":39303,"pitch":72,"velocity":43},{"start":39303,"end":39421,"pitch":64,"velocity":41},{"start":39421,"end":39478,"pitch":79,"velocity":66},{"start":39478,"end":39503,"pitch":79,"velocity":63},{"start":39503,"end":39539,"pitch":47,"velocity":48},{"start":39539,"end":39569,"pitch":59,"velocity":68},{"start":39569,"end":39636,"pitch":67,"velocity":50},{"start":39651,"end":39677,"pitch":79,"velocity":46},{"start":39677,"end":39769,"pitch":59,"velocity":87},{"start":39769,"end":39815,"pitch":64,"velocity":47},{"start":39815,"end":39896,"pitch":59,"velocity":57},{"start":39896,"end":39937,"pitch":76,"velocity":60},{"start":39937,"end":39973,"pitch":88,"velocity":42},{"start":40004,"end":40045,"pitch":88,"velocity":38},{"start":40065,"end":40101,"pitch":76,"velocity":40},{"start":40106,"end":40152,"pitch":76,"velocity":56},{"start":40152,"end":40188,"pitch":76,"velocity":65},{"start":40188,"end":40219,"pitch":52,"velocity":60},{"start":40219,"end":40249,"pitch":76,"velocity":50},{"start":40280,"end":40341,"pitch":59,"velocity":57},{"start":40341,"end":40392,"pitch":74,"velocity":42},{"start":40392,"end":40438,"pitch":74,"velocity":47},{"start":40459,"end":40515,"pitch":64,"velocity":62},{"start":40515,"end":40566,"pitch":55,"velocity":59},{"start":40571,"end":40602,"pitch":64,"velocity":31},{"start":40602,"end":40689,"pitch":64,"velocity":52},{"start":40689,"end":40730,"pitch":64,"velocity":70},{"start":40730,"end":40806,"pitch":64,"velocity":65},{"start":40806,"end":40842,"pitch":76,"velocity":64},{"start":40842,"end":40868,"pitch":76,"velocity":60},{"start":40868,"end":40919,"pitch":55,"velocity":73},{"start":40919,"end":40949,"pitch":64,"velocity":56},{"start":40949,"end":40980,"pitch":40,"velocity":42},{"start":41021,"end":41051,"pitch":64,"velocity":49},{"start":41051,"end":41149,"pitch":72,"velocity":70},{"start":41149,"end":41205,"pitch":72,"velocity":39},{"start":41205,"end":41231,"pitch":65,"velocity":66},{"start":41231,"end":41261,"pitch":57,"velocity":78},{"start":41261,"end":41302,"pitch":79,"velocity":51},{"start":41302,"end":41343,"pitch":65,"velocity":61},{"start":41343,"end":41369,"pitch":60,"velocity":72},{"start":41369,"end":41405,"pitch":69,"velocity":42},{"start":41405,"end":41440,"pitch":53,"velocity":44},{"start":41445,"end":41481,"pitch":48,"velocity":64},{"start":41481,"end":41548,"pitch":79,"velocity":55},{"start":41548,"end":41588,"pitch":65,"velocity":46},{"start":41588,"end":41609,"pitch":57,"velocity":67},{"start":41609,"end":41665,"pitch":65,"velocity":45},{"start":41665,"end":41685,"pitch":60,"velocity":70},{"start":41685,"end":41731,"pitch":48,"velocity":52},{"start":41731,"end":41767,"pitch":76,"velocity":41},{"start":41767,"end":41834,"pitch":57,"velocity":78},{"start":41834,"end":41859,"pitch":65,"velocity":61},{"start":41859,"end":41920,"pitch":57,"velocity":93},{"start":41936,"end":41956,"pitch":65,"velocity":54},{"start":41956,"end":41982,"pitch":69,"velocity":45},{"start":41982,"end":42064,"pitch":65,"velocity":35},{"start":42064,"end":42074,"pitch":65,"velocity":43},{"start":42074,"end":42146,"pitch":57,"velocity":99},{"start":42171,"end":42176,"pitch":74,"velocity":51},{"start":42176,"end":42207,"pitch":69,"velocity":38},{"start":42207,"end":42294,"pitch":57,"velocity":83},{"start":42294,"end":42335,"pitch":69,"velocity":38},{"start":42335,"end":42371,"pitch":65,"velocity":49},{"start":42371,"end":42406,"pitch":57,"velocity":80},{"start":42406,"end":42447,"pitch":74,"velocity":46},{"start":42447,"end":42478,"pitch":74,"velocity":48},{"start":42478,"end":42514,"pitch":74,"velocity":48},{"start":42529,"end":42570,"pitch":69,"velocity":55},{"start":42570,"end":42590,"pitch":69,"velocity":44},{"start":42590,"end":42636,"pitch":57,"velocity":92},{"start":42636,"end":42687,"pitch":72,"velocity":62},{"start":42687,"end":42723,"pitch":65,"velocity":42},{"start":42759,"end":42830,"pitch":60,"velocity":55},{"start":42830,"end":42856,"pitch":41,"velocity":52},{"start":42867,"end":42897,"pitch":65,"velocity":59},{"start":42897,"end":42928,"pitch":41,"velocity":51},{"start":42928,"end":42974,"pitch":72,"velocity":40},{"start":42974,"end":43035,"pitch":65,"velocity":56},{"start":43035,"end":43091,"pitch":60,"velocity":67},{"start":43091,"end":43102,"pitch":56,"velocity":70},{"start":43102,"end":43127,"pitch":65,"velocity":52},{"start":43127,"end":43158,"pitch":56,"velocity":77},{"start":43158,"end":43219,"pitch":60,"velocity":64},{"start":43219,"end":43260,"pitch":60,"velocity":78},{"start":43260,"end":43316,"pitch":56,"velocity":72},{"start":43332,"end":43357,"pitch":65,"velocity":58},{"start":43357,"end":43413,"pitch":60,"velocity":87},{"start":43413,"end":43449,"pitch":60,"velocity":76},{"start":43449,"end":43500,"pitch":65,"velocity":51},{"start":43500,"end":43510,"pitch":60,"velocity":67},{"start":43510,"end":43566,"pitch":48,"velocity":74},{"start":43566,"end":43628,"pitch":76,"velocity":45},{"start":43628,"end":43669,"pitch":76,"velocity":50},{"start":43669,"end":43704,"pitch":76,"velocity":55},{"start":43704,"end":43736,"pitch":76,"velocity":54},{"start":43736,"end":43776,"pitch":56,"velocity":60},{"start":43776,"end":43812,"pitch":68,"velocity":38},{"start":43817,"end":43853,"pitch":76,"velocity":39},{"start":43853,"end":43894,"pitch":48,"velocity":64},{"start":43894,"end":43950,"pitch":65,"velocity":56},{"start":43950,"end":43971,"pitch":56,"velocity":89},{"start":43971,"end":44027,"pitch":60,"velocity":69},{"start":44027,"end":44063,"pitch":79,"velocity":54},{"start":44063,"end":44119,"pitch":56,"velocity":73},{"start":44119,"end":44155,"pitch":65,"velocity":60},{"start":44155,"end":44200,"pitch":53,"velocity":64},{"start":44200,"end":44241,"pitch":60,"velocity":62},{"start":44252,"end":44272,"pitch":79,"velocity":44},{"start":44272,"end":44318,"pitch":56,"velocity":73},{"start":44318,"end":44359,"pitch":60,"velocity":78},{"start":44359,"end":44420,"pitch":60,"velocity":74},{"start":44420,"end":44430,"pitch":65,"velocity":53},{"start":44430,"end":44487,"pitch":60,"velocity":69},{"start":44487,"end":44517,"pitch":65,"velocity":51},{"start":44517,"end":44584,"pitch":41,"velocity":59},{"start":44584,"end":44691,"pitch":65,"velocity":46},{"start":44691,"end":44727,"pitch":74,"velocity":41},{"start":44748,"end":44809,"pitch":60,"velocity":70},{"start":44809,"end":44819,"pitch":65,"velocity":49},{"start":44819,"end":44870,"pitch":56,"velocity":67},{"start":44870,"end":44901,"pitch":75,"velocity":32},{"start":44901,"end":44947,"pitch":41,"velocity":59},{"start":44947,"end":44978,"pitch":74,"velocity":65},{"start":44983,"end":45100,"pitch":74,"velocity":63},{"start":45100,"end":45131,"pitch":74,"velocity":72},{"start":45131,"end":45182,"pitch":76,"velocity":40},{"start":45310,"end":45345,"pitch":74,"velocity":93},{"start":45345,"end":45422,"pitch":74,"velocity":80},{"start":45422,"end":45484,"pitch":74,"velocity":89},{"start":45484,"end":45540,"pitch":74,"velocity":84},{"start":45540,"end":45581,"pitch":74,"velocity":78},{"start":45581,"end":45698,"pitch":74,"velocity":90},{"start":45698,"end":45811,"pitch":74,"velocity":87},{"start":45811,"end":46061,"pitch":74,"velocity":64},{"start":46061,"end":46245,"pitch":74,"velocity":59},{"start":46245,"end":46424,"pitch":74,"velocity":48},{"start":46767,"end":46787,"pitch":64,"velocity":40},{"start":46787,"end":46818,"pitch":55,"velocity":74},{"start":46818,"end":46848,"pitch":60,"velocity":82},{"start":46848,"end":46940,"pitch":64,"velocity":64},{"start":46940,"end":46981,"pitch":60,"velocity":79},{"start":46986,"end":47068,"pitch":64,"velocity":53},{"start":47068,"end":47099,"pitch":48,"velocity":65},{"start":47099,"end":47150,"pitch":76,"velocity":38},{"start":47180,"end":47206,"pitch":60,"velocity":79},{"start":47227,"end":47283,"pitch":64,"velocity":92},{"start":47283,"end":47329,"pitch":60,"velocity":82},{"start":47329,"end":47370,"pitch":64,"velocity":90},{"start":47370,"end":47447,"pitch":55,"velocity":72},{"start":47452,"end":47493,"pitch":64,"velocity":74},{"start":47493,"end":47569,"pitch":60,"velocity":84},{"start":47569,"end":47682,"pitch":64,"velocity":61},{"start":47682,"end":47738,"pitch":72,"velocity":86},{"start":47738,"end":47799,"pitch":60,"velocity":77},{"start":47799,"end":47835,"pitch":72,"velocity":76},{"start":47835,"end":47871,"pitch":48,"velocity":43},{"start":47871,"end":47906,"pitch":72,"velocity":62},{"start":47906,"end":48029,"pitch":64,"velocity":56},{"start":48034,"end":48137,"pitch":72,"velocity":53},{"start":48157,"end":48188,"pitch":74,"velocity":55},{"start":48188,"end":48219,"pitch":60,"velocity":74},{"start":48219,"end":48259,"pitch":60,"velocity":67},{"start":48259,"end":48326,"pitch":64,"velocity":58},{"start":48326,"end":48382,"pitch":64,"velocity":64},{"start":48382,"end":48433,"pitch":72,"velocity":28},{"start":48433,"end":48464,"pitch":72,"velocity":43},{"start":48499,"end":48597,"pitch":64,"velocity":65},{"start":48632,"end":48673,"pitch":64,"velocity":51},{"start":48673,"end":48704,"pitch":60,"velocity":72},{"start":48704,"end":48734,"pitch":60,"velocity":62},{"start":48734,"end":48791,"pitch":64,"velocity":48},{"start":48811,"end":48847,"pitch":59,"velocity":65},{"start":48847,"end":48883,"pitch":59,"velocity":71},{"start":48883,"end":48929,"pitch":64,"velocity":57},{"start":48929,"end":48965,"pitch":59,"velocity":72},{"start":48965,"end":49036,"pitch":64,"velocity":61},{"start":49036,"end":49072,"pitch":59,"velocity":80},{"start":49077,"end":49113,"pitch":64,"velocity":85},{"start":49113,"end":49195,"pitch":64,"velocity":64},{"start":49195,"end":49266,"pitch":64,"velocity":68},{"start":49266,"end":49312,"pitch":64,"velocity":65},{"start":49312,"end":49348,"pitch":64,"velocity":74},{"start":49348,"end":49384,"pitch":59,"velocity":68},{"start":49384,"end":49420,"pitch":55,"velocity":67},{"start":49420,"end":49486,"pitch":64,"velocity":47},{"start":49486,"end":49537,"pitch":59,"velocity":72},{"start":49537,"end":49593,"pitch":72,"velocity":57},{"start":49593,"end":49655,"pitch":72,"velocity":57},{"start":49655,"end":49711,"pitch":64,"velocity":40},{"start":49711,"end":49726,"pitch":59,"velocity":54},{"start":49726,"end":49757,"pitch":64,"velocity":46},{"start":49757,"end":49808,"pitch":64,"velocity":62},{"start":49808,"end":49854,"pitch":55,"velocity":60},{"start":49854,"end":49895,"pitch":64,"velocity":67},{"start":49895,"end":49931,"pitch":64,"velocity":67},{"start":49931,"end":49982,"pitch":64,"velocity":63},{"start":49982,"end":50048,"pitch":74,"velocity":48},{"start":50048,"end":50110,"pitch":64,"velocity":57},{"start":50110,"end":50156,"pitch":64,"velocity":55},{"start":50156,"end":50207,"pitch":72,"velocity":26},{"start":50207,"end":50258,"pitch":72,"velocity":60},{"start":50258,"end":50289,"pitch":55,"velocity":83},{"start":50289,"end":50319,"pitch":59,"velocity":62},{"start":50340,"end":50370,"pitch":68,"velocity":39},{"start":50401,"end":50447,"pitch":60,"velocity":73},{"start":50447,"end":50524,"pitch":60,"velocity":59},{"start":50524,"end":50529,"pitch":60,"velocity":61},{"start":50529,"end":50590,"pitch":57,"velocity":76},{"start":50615,"end":50626,"pitch":60,"velocity":66},{"start":50626,"end":50667,"pitch":57,"velocity":60},{"start":50667,"end":50718,"pitch":72,"velocity":50},{"start":50718,"end":50739,"pitch":65,"velocity":51},{"start":50739,"end":50790,"pitch":57,"velocity":83},{"start":50790,"end":50831,"pitch":65,"velocity":50},{"start":50831,"end":50871,"pitch":60,"velocity":65},{"start":50871,"end":50902,"pitch":57,"velocity":100},{"start":50902,"end":50933,"pitch":69,"velocity":43},{"start":50933,"end":51030,"pitch":64,"velocity":75},{"start":51030,"end":51081,"pitch":69,"velocity":48},{"start":51086,"end":51127,"pitch":65,"velocity":49},{"start":51127,"end":51193,"pitch":65,"velocity":67},{"start":51193,"end":51219,"pitch":64,"velocity":55},{"start":51219,"end":51260,"pitch":60,"velocity":53},{"start":51260,"end":51301,"pitch":65,"velocity":53},{"start":51301,"end":51362,"pitch":65,"velocity":51},{"start":51362,"end":51398,"pitch":72,"velocity":65},{"start":51398,"end":51484,"pitch":60,"velocity":71},{"start":51484,"end":51490,"pitch":65,"velocity":55},{"start":51490,"end":51587,"pitch":60,"velocity":70},{"start":51587,"end":51643,"pitch":72,"velocity":54},{"start":51643,"end":51715,"pitch":65,"velocity":52},{"start":51715,"end":51781,"pitch":65,"velocity":50},{"start":51781,"end":51827,"pitch":74,"velocity":33},{"start":51827,"end":51868,"pitch":74,"velocity":66},{"start":51868,"end":51960,"pitch":74,"velocity":63},{"start":51960,"end":51986,"pitch":69,"velocity":44},{"start":51986,"end":52047,"pitch":57,"velocity":73},{"start":52052,"end":52093,"pitch":69,"velocity":48},{"start":52093,"end":52129,"pitch":77,"velocity":36},{"start":52129,"end":52170,"pitch":60,"velocity":73},{"start":52170,"end":52221,"pitch":65,"velocity":61},{"start":52221,"end":52251,"pitch":60,"velocity":78},{"start":52251,"end":52282,"pitch":60,"velocity":71},{"start":52287,"end":52338,"pitch":65,"velocity":46},{"start":52338,"end":52456,"pitch":60,"velocity":82},{"start":52456,"end":52502,"pitch":56,"velocity":62},{"start":52512,"end":52574,"pitch":65,"velocity":49},{"start":52574,"end":52594,"pitch":65,"velocity":54},{"start":52594,"end":52630,"pitch":60,"velocity":77},{"start":52630,"end":52747,"pitch":65,"velocity":64},{"start":52747,"end":52804,"pitch":64,"velocity":59},{"start":52804,"end":52860,"pitch":60,"velocity":66},{"start":52860,"end":52962,"pitch":65,"velocity":51},{"start":52962,"end":53013,"pitch":64,"velocity":42},{"start":53013,"end":53054,"pitch":64,"velocity":46},{"start":53054,"end":53090,"pitch":53,"velocity":60},{"start":53090,"end":53207,"pitch":65,"velocity":64},{"start":53212,"end":53253,"pitch":72,"velocity":58},{"start":53253,"end":53320,"pitch":65,"velocity":50},{"start":53320,"end":53366,"pitch":72,"velocity":40},{"start":53366,"end":53397,"pitch":56,"velocity":42},{"start":53417,"end":53489,"pitch":72,"velocity":54},{"start":53489,"end":53550,"pitch":72,"velocity":51},{"start":53550,"end":53555,"pitch":65,"velocity":60},{"start":53555,"end":53606,"pitch":60,"velocity":79},{"start":53606,"end":53662,"pitch":74,"velocity":32},{"start":53662,"end":53775,"pitch":74,"velocity":66},{"start":53775,"end":53851,"pitch":65,"velocity":49},{"start":53887,"end":53938,"pitch":72,"velocity":72},{"start":53938,"end":54005,"pitch":72,"velocity":63},{"start":54005,"end":54061,"pitch":64,"velocity":50},{"start":54091,"end":54127,"pitch":60,"velocity":33},{"start":54127,"end":54163,"pitch":64,"velocity":56},{"start":54163,"end":54225,"pitch":60,"velocity":62},{"start":54225,"end":54271,"pitch":72,"velocity":50},{"start":54307,"end":54353,"pitch":60,"velocity":71},{"start":54353,"end":54388,"pitch":72,"velocity":44},{"start":54388,"end":54475,"pitch":64,"velocity":56},{"start":54475,"end":54511,"pitch":64,"velocity":74},{"start":54511,"end":54593,"pitch":55,"velocity":65},{"start":54593,"end":54623,"pitch":64,"velocity":86},{"start":54623,"end":54659,"pitch":72,"velocity":43},{"start":54700,"end":54751,"pitch":72,"velocity":34},{"start":54751,"end":54812,"pitch":64,"velocity":60},{"start":54812,"end":54879,"pitch":72,"velocity":53},{"start":54879,"end":54894,"pitch":55,"velocity":74},{"start":54894,"end":54930,"pitch":60,"velocity":67},{"start":54930,"end":54991,"pitch":72,"velocity":40},{"start":54991,"end":55047,"pitch":55,"velocity":81},{"start":55047,"end":55104,"pitch":72,"velocity":70},{"start":55104,"end":55155,"pitch":72,"velocity":58},{"start":55155,"end":55247,"pitch":72,"velocity":44},{"start":55247,"end":55278,"pitch":60,"velocity":75},{"start":55278,"end":55324,"pitch":64,"velocity":69},{"start":55324,"end":55390,"pitch":52,"velocity":52},{"start":55390,"end":55431,"pitch":64,"velocity":63},{"start":55431,"end":55497,"pitch":72,"velocity":45},{"start":55497,"end":55533,"pitch":74,"velocity":41},{"start":55533,"end":55574,"pitch":60,"velocity":65},{"start":55574,"end":55666,"pitch":60,"velocity":57},{"start":55666,"end":55707,"pitch":74,"velocity":44},{"start":55717,"end":55794,"pitch":55,"velocity":81},{"start":55794,"end":55845,"pitch":59,"velocity":43},{"start":55845,"end":55896,"pitch":64,"velocity":57},{"start":55896,"end":55942,"pitch":55,"velocity":69},{"start":55942,"end":55973,"pitch":60,"velocity":37},{"start":55973,"end":56039,"pitch":60,"velocity":73},{"start":56039,"end":56070,"pitch":55,"velocity":97},{"start":56070,"end":56121,"pitch":60,"velocity":79},{"start":56121,"end":56172,"pitch":60,"velocity":57},{"start":56172,"end":56208,"pitch":64,"velocity":54},{"start":56208,"end":56239,"pitch":76,"velocity":43},{"start":56239,"end":56310,"pitch":52,"velocity":65},{"start":56310,"end":56423,"pitch":64,"velocity":43},{"start":56423,"end":56535,"pitch":64,"velocity":64},{"start":56535,"end":56632,"pitch":64,"velocity":74},{"start":56632,"end":56698,"pitch":64,"velocity":67},{"start":56698,"end":56760,"pitch":64,"velocity":72},{"start":56760,"end":56795,"pitch":64,"velocity":56},{"start":56795,"end":56837,"pitch":55,"velocity":79},{"start":56837,"end":56878,"pitch":59,"velocity":48},{"start":56878,"end":56990,"pitch":72,"velocity":76},{"start":56990,"end":57046,"pitch":72,"velocity":68},{"start":57046,"end":57077,"pitch":72,"velocity":59},{"start":57077,"end":57149,"pitch":52,"velocity":43},{"start":57149,"end":57230,"pitch":52,"velocity":50},{"start":57235,"end":57286,"pitch":72,"velocity":49},{"start":57348,"end":57450,"pitch":74,"velocity":42},{"start":57450,"end":57496,"pitch":64,"velocity":65},{"start":57496,"end":57562,"pitch":64,"velocity":60},{"start":57567,"end":57608,"pitch":72,"velocity":80},{"start":57608,"end":57675,"pitch":72,"velocity":78},{"start":57675,"end":57731,"pitch":65,"velocity":74},{"start":57731,"end":57798,"pitch":72,"velocity":40},{"start":57798,"end":57874,"pitch":72,"velocity":42},{"start":57874,"end":57905,"pitch":77,"velocity":46},{"start":57905,"end":57936,"pitch":60,"velocity":53},{"start":57936,"end":58012,"pitch":53,"velocity":68},{"start":58018,"end":58053,"pitch":72,"velocity":43},{"start":58053,"end":58084,"pitch":57,"velocity":95},{"start":58084,"end":58140,"pitch":57,"velocity":88},{"start":58140,"end":58201,"pitch":65,"velocity":68},{"start":58201,"end":58232,"pitch":48,"velocity":41},{"start":58252,"end":58293,"pitch":72,"velocity":45},{"start":58304,"end":58370,"pitch":69,"velocity":53},{"start":58370,"end":58401,"pitch":65,"velocity":82},{"start":58401,"end":58436,"pitch":65,"velocity":79},{"start":58436,"end":58482,"pitch":65,"velocity":67},{"start":58482,"end":58513,"pitch":65,"velocity":59},{"start":58513,"end":58564,"pitch":65,"velocity":61},{"start":58564,"end":58595,"pitch":64,"velocity":57},{"start":58595,"end":58652,"pitch":65,"velocity":53},{"start":58652,"end":58718,"pitch":65,"velocity":45},{"start":58718,"end":58769,"pitch":72,"velocity":61},{"start":58769,"end":58830,"pitch":53,"velocity":60},{"start":58830,"end":58943,"pitch":72,"velocity":42},{"start":58943,"end":59009,"pitch":60,"velocity":82},{"start":59009,"end":59065,"pitch":72,"velocity":40},{"start":59065,"end":59127,"pitch":72,"velocity":42},{"start":59132,"end":59203,"pitch":69,"velocity":42},{"start":59203,"end":59239,"pitch":65,"velocity":43},{"start":59290,"end":59331,"pitch":69,"velocity":42},{"start":59331,"end":59362,"pitch":69,"velocity":41},{"start":59408,"end":59454,"pitch":69,"velocity":45},{"start":59475,"end":59515,"pitch":60,"velocity":68},{"start":59515,"end":59618,"pitch":65,"velocity":53},{"start":59618,"end":59648,"pitch":53,"velocity":64},{"start":59648,"end":59689,"pitch":56,"velocity":80},{"start":59689,"end":59858,"pitch":65,"velocity":50},{"start":59863,"end":59899,"pitch":65,"velocity":62},{"start":59899,"end":59985,"pitch":56,"velocity":71},{"start":59985,"end":60016,"pitch":72,"velocity":42},{"start":60098,"end":60144,"pitch":68,"velocity":46},{"start":60144,"end":60169,"pitch":68,"velocity":43},{"start":60169,"end":60205,"pitch":65,"velocity":72},{"start":60205,"end":60271,"pitch":65,"velocity":61},{"start":60271,"end":60313,"pitch":53,"velocity":63},{"start":60318,"end":60374,"pitch":65,"velocity":69},{"start":60374,"end":60435,"pitch":65,"velocity":73},{"start":60435,"end":60548,"pitch":65,"velocity":66},{"start":60548,"end":60589,"pitch":72,"velocity":53},{"start":60589,"end":60665,"pitch":65,"velocity":57},{"start":60665,"end":60722,"pitch":65,"velocity":51},{"start":60722,"end":60732,"pitch":60,"velocity":73},{"start":60732,"end":60778,"pitch":53,"velocity":45},{"start":60778,"end":60844,"pitch":72,"velocity":52},{"start":60844,"end":60885,"pitch":53,"velocity":64},{"start":60890,"end":60931,"pitch":65,"velocity":67},{"start":60931,"end":60967,"pitch":65,"velocity":69},{"start":60967,"end":61003,"pitch":74,"velocity":26},{"start":61003,"end":61043,"pitch":74,"velocity":52},{"start":61043,"end":61074,"pitch":48,"velocity":41},{"start":61120,"end":61161,"pitch":65,"velocity":49},{"start":61161,"end":61233,"pitch":60,"velocity":72},{"start":61233,"end":61264,"pitch":72,"velocity":56},{"start":61264,"end":61299,"pitch":60,"velocity":60},{"start":61350,"end":61432,"pitch":64,"velocity":67},{"start":61432,"end":61473,"pitch":64,"velocity":54},{"start":61473,"end":61519,"pitch":64,"velocity":53},{"start":61519,"end":61529,"pitch":79,"velocity":45},{"start":61529,"end":61585,"pitch":60,"velocity":87},{"start":61585,"end":61662,"pitch":60,"velocity":81},{"start":61662,"end":61703,"pitch":52,"velocity":39},{"start":61703,"end":61734,"pitch":64,"velocity":68},{"start":61734,"end":61769,"pitch":60,"velocity":75},{"start":61769,"end":61815,"pitch":60,"velocity":60},{"start":61815,"end":61856,"pitch":64,"velocity":58},{"start":61856,"end":61938,"pitch":60,"velocity":73},{"start":61938,"end":61969,"pitch":76,"velocity":77},{"start":61969,"end":62040,"pitch":76,"velocity":69},{"start":62040,"end":62153,"pitch":76,"velocity":47},{"start":62153,"end":62189,"pitch":76,"velocity":52},{"start":62189,"end":62225,"pitch":64,"velocity":56},{"start":62225,"end":62265,"pitch":52,"velocity":39},{"start":62265,"end":62316,"pitch":64,"velocity":68},{"start":62316,"end":62342,"pitch":60,"velocity":75},{"start":62342,"end":62388,"pitch":64,"velocity":69},{"start":62388,"end":62414,"pitch":60,"velocity":65},{"start":62414,"end":62444,"pitch":64,"velocity":68},{"start":62444,"end":62495,"pitch":55,"velocity":64},{"start":62495,"end":62526,"pitch":64,"velocity":51},{"start":62526,"end":62567,"pitch":48,"velocity":75},{"start":62567,"end":62608,"pitch":55,"velocity":69},{"start":62608,"end":62643,"pitch":64,"velocity":55},{"start":62643,"end":62730,"pitch":52,"velocity":60},{"start":62730,"end":62792,"pitch":64,"velocity":51},{"start":62792,"end":62838,"pitch":60,"velocity":81},{"start":62838,"end":62904,"pitch":72,"velocity":50},{"start":62904,"end":62950,"pitch":60,"velocity":75},{"start":62950,"end":63007,"pitch":72,"velocity":47},{"start":63007,"end":63058,"pitch":64,"velocity":64},{"start":63058,"end":63068,"pitch":55,"velocity":68},{"start":63068,"end":63129,"pitch":72,"velocity":59},{"start":63129,"end":63185,"pitch":55,"velocity":72},{"start":63185,"end":63211,"pitch":72,"velocity":50},{"start":63211,"end":63262,"pitch":59,"velocity":86},{"start":63262,"end":63293,"pitch":59,"velocity":65},{"start":63293,"end":63349,"pitch":79,"velocity":53},{"start":63349,"end":63380,"pitch":79,"velocity":62},{"start":63380,"end":63400,"pitch":79,"velocity":62},{"start":63400,"end":63441,"pitch":72,"velocity":41},{"start":63441,"end":63472,"pitch":79,"velocity":62},{"start":63472,"end":63523,"pitch":55,"velocity":60},{"start":63523,"end":63574,"pitch":79,"velocity":55},{"start":63574,"end":63640,"pitch":79,"velocity":40},{"start":63640,"end":63686,"pitch":64,"velocity":55},{"start":63686,"end":63727,"pitch":55,"velocity":78},{"start":63727,"end":63768,"pitch":52,"velocity":48},{"start":63768,"end":63819,"pitch":76,"velocity":58},{"start":63819,"end":63876,"pitch":55,"velocity":76},{"start":63876,"end":63932,"pitch":64,"velocity":52},{"start":63932,"end":63983,"pitch":76,"velocity":68},{"start":63983,"end":64034,"pitch":64,"velocity":48},{"start":64034,"end":64065,"pitch":59,"velocity":76},{"start":64065,"end":64106,"pitch":76,"velocity":58},{"start":64106,"end":64157,"pitch":64,"velocity":64},{"start":64157,"end":64233,"pitch":59,"velocity":62},{"start":64233,"end":64269,"pitch":74,"velocity":39},{"start":64269,"end":64325,"pitch":55,"velocity":86},{"start":64325,"end":64366,"pitch":64,"velocity":60},{"start":64366,"end":64402,"pitch":64,"velocity":65},{"start":64402,"end":64443,"pitch":59,"velocity":68},{"start":64468,"end":64489,"pitch":64,"velocity":72},{"start":64489,"end":64560,"pitch":59,"velocity":82},{"start":64560,"end":64601,"pitch":64,"velocity":67},{"start":64601,"end":64647,"pitch":55,"velocity":77},{"start":64647,"end":64678,"pitch":55,"velocity":66},{"start":64678,"end":64709,"pitch":76,"velocity":63},{"start":64709,"end":64786,"pitch":55,"velocity":72},{"start":64786,"end":64852,"pitch":76,"velocity":48},{"start":64852,"end":64893,"pitch":59,"velocity":45},{"start":64918,"end":64934,"pitch":72,"velocity":79},{"start":64934,"end":64959,"pitch":59,"velocity":53},{"start":64959,"end":65015,"pitch":76,"velocity":53},{"start":65021,"end":65107,"pitch":65,"velocity":64},{"start":65107,"end":65143,"pitch":48,"velocity":56},{"start":65143,"end":65189,"pitch":79,"velocity":58},{"start":65189,"end":65225,"pitch":60,"velocity":71},{"start":65225,"end":65322,"pitch":48,"velocity":55},{"start":65322,"end":65373,"pitch":79,"velocity":56},{"start":65373,"end":65419,"pitch":65,"velocity":64},{"start":65419,"end":65450,"pitch":57,"velocity":97},{"start":65450,"end":65490,"pitch":57,"velocity":90},{"start":65490,"end":65536,"pitch":65,"velocity":57},{"start":65536,"end":65563,"pitch":41,"velocity":56},{"start":65563,"end":65609,"pitch":57,"velocity":86},{"start":65609,"end":65655,"pitch":76,"velocity":44},{"start":65655,"end":65716,"pitch":69,"velocity":40},{"start":65716,"end":65721,"pitch":65,"velocity":50},{"start":65721,"end":65787,"pitch":69,"velocity":52},{"start":65787,"end":65828,"pitch":48,"velocity":54},{"start":65828,"end":65874,"pitch":69,"velocity":50},{"start":65874,"end":65900,"pitch":69,"velocity":39},{"start":65900,"end":65946,"pitch":48,"velocity":59},{"start":65951,"end":65971,"pitch":69,"velocity":39},{"start":65971,"end":66007,"pitch":57,"velocity":95},{"start":66007,"end":66033,"pitch":57,"velocity":95},{"start":66033,"end":66063,"pitch":41,"velocity":63},{"start":66063,"end":66099,"pitch":74,"velocity":79},{"start":66099,"end":66170,"pitch":74,"velocity":51},{"start":66170,"end":66176,"pitch":65,"velocity":47},{"start":66176,"end":66242,"pitch":60,"velocity":54},{"start":66242,"end":66283,"pitch":60,"velocity":58},{"start":66283,"end":66339,"pitch":69,"velocity":54},{"start":66339,"end":66375,"pitch":69,"velocity":53},{"start":66400,"end":66442,"pitch":65,"velocity":46},{"start":66442,"end":66472,"pitch":57,"velocity":90},{"start":66472,"end":66518,"pitch":65,"velocity":42},{"start":66518,"end":66554,"pitch":72,"velocity":52},{"start":66554,"end":66580,"pitch":60,"velocity":58},{"start":66580,"end":66631,"pitch":57,"velocity":78},{"start":66631,"end":66713,"pitch":69,"velocity":44},{"start":66713,"end":66738,"pitch":60,"velocity":63},{"start":66738,"end":66784,"pitch":69,"velocity":36},{"start":66784,"end":66789,"pitch":77,"velocity":44},{"start":66789,"end":66825,"pitch":57,"velocity":63},{"start":66825,"end":66856,"pitch":60,"velocity":72},{"start":66856,"end":66902,"pitch":65,"velocity":41},{"start":66902,"end":66917,"pitch":65,"velocity":58},{"start":66917,"end":66978,"pitch":60,"velocity":76},{"start":66978,"end":67039,"pitch":79,"velocity":40},{"start":67039,"end":67070,"pitch":48,"velocity":39},{"start":67070,"end":67116,"pitch":60,"velocity":81},{"start":67116,"end":67203,"pitch":53,"velocity":61},{"start":67208,"end":67244,"pitch":65,"velocity":39},{"start":67244,"end":67274,"pitch":48,"velocity":61},{"start":67274,"end":67316,"pitch":56,"velocity":73},{"start":67316,"end":67357,"pitch":65,"velocity":68},{"start":67357,"end":67428,"pitch":65,"velocity":64},{"start":67428,"end":67454,"pitch":76,"velocity":40},{"start":67454,"end":67505,"pitch":60,"velocity":68},{"start":67505,"end":67536,"pitch":60,"velocity":62},{"start":67536,"end":67576,"pitch":65,"velocity":71},{"start":67576,"end":67617,"pitch":65,"velocity":65},{"start":67617,"end":67648,"pitch":56,"velocity":65},{"start":67648,"end":67679,"pitch":68,"velocity":36},{"start":67679,"end":67709,"pitch":56,"velocity":77},{"start":67709,"end":67771,"pitch":65,"velocity":45},{"start":67771,"end":67811,"pitch":65,"velocity":51},{"start":67811,"end":67832,"pitch":56,"velocity":80},{"start":67832,"end":67883,"pitch":60,"velocity":69},{"start":67883,"end":67944,"pitch":79,"velocity":42},{"start":67944,"end":67995,"pitch":48,"velocity":69},{"start":67995,"end":68051,"pitch":65,"velocity":62},{"start":68051,"end":68057,"pitch":53,"velocity":59},{"start":68057,"end":68118,"pitch":56,"velocity":64},{"start":68118,"end":68154,"pitch":65,"velocity":45},{"start":68154,"end":68180,"pitch":65,"velocity":56},{"start":68180,"end":68226,"pitch":48,"velocity":72},{"start":68231,"end":68302,"pitch":65,"velocity":65},{"start":68302,"end":68338,"pitch":56,"velocity":88},{"start":68338,"end":68394,"pitch":76,"velocity":34},{"start":68399,"end":68420,"pitch":60,"velocity":72},{"start":68420,"end":68456,"pitch":48,"velocity":59},{"start":68456,"end":68507,"pitch":65,"velocity":53},{"start":68507,"end":68573,"pitch":65,"velocity":53},{"start":68573,"end":68629,"pitch":60,"velocity":53},{"start":68634,"end":68691,"pitch":59,"velocity":29},{"start":68691,"end":68721,"pitch":79,"velocity":51},{"start":68721,"end":68772,"pitch":59,"velocity":70},{"start":68772,"end":68823,"pitch":55,"velocity":57},{"start":68823,"end":68849,"pitch":55,"velocity":80},{"start":68849,"end":68890,"pitch":64,"velocity":57},{"start":68890,"end":68966,"pitch":55,"velocity":79},{"start":68966,"end":68997,"pitch":52,"velocity":81},{"start":68997,"end":69028,"pitch":52,"velocity":76},{"start":69028,"end":69100,"pitch":76,"velocity":51},{"start":69100,"end":69125,"pitch":55,"velocity":72},{"start":69125,"end":69207,"pitch":48,"velocity":78},{"start":69207,"end":69330,"pitch":48,"velocity":79},{"start":69330,"end":69560,"pitch":48,"velocity":85},{"start":69560,"end":69595,"pitch":48,"velocity":80},{"start":69606,"end":69641,"pitch":55,"velocity":57},{"start":69641,"end":69687,"pitch":43,"velocity":44},{"start":69728,"end":69789,"pitch":60,"velocity":53},{"start":69789,"end":69871,"pitch":48,"velocity":92},{"start":69871,"end":69959,"pitch":48,"velocity":84},{"start":69959,"end":70061,"pitch":48,"velocity":89},{"start":70061,"end":70117,"pitch":48,"velocity":96},{"start":70117,"end":70183,"pitch":48,"velocity":85},{"start":70183,"end":70260,"pitch":79,"velocity":84},{"start":70260,"end":70362,"pitch":50,"velocity":68},{"start":70362,"end":70413,"pitch":79,"velocity":74},{"start":70413,"end":70444,"pitch":79,"velocity":47},{"start":70444,"end":70475,"pitch":48,"velocity":103},{"start":70475,"end":70531,"pitch":48,"velocity":91},{"start":70531,"end":70592,"pitch":79,"velocity":61},{"start":70592,"end":70643,"pitch":52,"velocity":45},{"start":70643,"end":70679,"pitch":74,"velocity":51},{"start":70689,"end":70771,"pitch":64,"velocity":53},{"start":70771,"end":70802,"pitch":47,"velocity":77},{"start":70802,"end":70853,"pitch":47,"velocity":84},{"start":70853,"end":70889,"pitch":59,"velocity":43},{"start":70889,"end":70925,"pitch":47,"velocity":83},{"start":70940,"end":70996,"pitch":55,"velocity":73},{"start":70996,"end":71027,"pitch":47,"velocity":90},{"start":71027,"end":71068,"pitch":47,"velocity":82},{"start":71068,"end":71139,"pitch":47,"velocity":75},{"start":71149,"end":71195,"pitch":55,"velocity":80},{"start":71195,"end":71226,"pitch":76,"velocity":41},{"start":71226,"end":71313,"pitch":47,"velocity":71},{"start":71313,"end":71374,"pitch":74,"velocity":53},{"start":71374,"end":71379,"pitch":59,"velocity":48},{"start":71379,"end":71584,"pitch":55,"velocity":74},{"start":71584,"end":71630,"pitch":59,"velocity":48},{"start":71630,"end":71670,"pitch":76,"velocity":43},{"start":71676,"end":71819,"pitch":47,"velocity":65},{"start":71819,"end":71911,"pitch":64,"velocity":45},{"start":72018,"end":72070,"pitch":79,"velocity":88},{"start":72070,"end":72121,"pitch":47,"velocity":70},{"start":72121,"end":72151,"pitch":60,"velocity":39},{"start":72207,"end":72253,"pitch":79,"velocity":62},{"start":72253,"end":72279,"pitch":76,"velocity":75},{"start":72279,"end":72310,"pitch":79,"velocity":70},{"start":72310,"end":72345,"pitch":47,"velocity":60},{"start":72345,"end":72391,"pitch":88,"velocity":44},{"start":72442,"end":72483,"pitch":60,"velocity":40},{"start":72483,"end":72529,"pitch":72,"velocity":44},{"start":72529,"end":72566,"pitch":72,"velocity":52},{"start":72566,"end":72591,"pitch":60,"velocity":58},{"start":72591,"end":72627,"pitch":41,"velocity":94},{"start":72627,"end":72739,"pitch":41,"velocity":86},{"start":72744,"end":72755,"pitch":57,"velocity":87},{"start":72755,"end":72790,"pitch":72,"velocity":59},{"start":72790,"end":72847,"pitch":60,"velocity":54},{"start":72847,"end":72877,"pitch":65,"velocity":40},{"start":72949,"end":72979,"pitch":53,"velocity":70},{"start":72979,"end":73015,"pitch":53,"velocity":83},{"start":73015,"end":73051,"pitch":53,"velocity":73},{"start":73051,"end":73138,"pitch":76,"velocity":35},{"start":73204,"end":73214,"pitch":57,"velocity":88},{"start":73214,"end":73271,"pitch":76,"velocity":38},{"start":73271,"end":73398,"pitch":60,"velocity":52},{"start":73398,"end":73465,"pitch":53,"velocity":76},{"start":73465,"end":73532,"pitch":76,"velocity":44},{"start":73542,"end":73552,"pitch":60,"velocity":46},{"start":73552,"end":73603,"pitch":41,"velocity":80},{"start":73629,"end":73634,"pitch":60,"velocity":41},{"start":73634,"end":73670,"pitch":48,"velocity":90},{"start":73670,"end":73721,"pitch":57,"velocity":47},{"start":73721,"end":73782,"pitch":72,"velocity":48},{"start":73782,"end":73813,"pitch":41,"velocity":86},{"start":73813,"end":73853,"pitch":53,"velocity":94},{"start":73853,"end":73905,"pitch":53,"velocity":74},{"start":73910,"end":73945,"pitch":72,"velocity":47},{"start":73945,"end":74037,"pitch":41,"velocity":103},{"start":74037,"end":74068,"pitch":53,"velocity":80},{"start":74068,"end":74119,"pitch":53,"velocity":77},{"start":74119,"end":74170,"pitch":48,"velocity":45},{"start":74170,"end":74180,"pitch":60,"velocity":41},{"start":74180,"end":74262,"pitch":53,"velocity":66},{"start":74262,"end":74298,"pitch":53,"velocity":57},{"start":74298,"end":74319,"pitch":65,"velocity":34},{"start":74319,"end":74365,"pitch":79,"velocity":55},{"start":74365,"end":74396,"pitch":56,"velocity":68},{"start":74396,"end":74447,"pitch":79,"velocity":70},{"start":74447,"end":74482,"pitch":53,"velocity":76},{"start":74482,"end":74513,"pitch":79,"velocity":73},{"start":74513,"end":74544,"pitch":65,"velocity":44},{"start":74544,"end":74579,"pitch":79,"velocity":80},{"start":74579,"end":74646,"pitch":79,"velocity":74},{"start":74646,"end":74707,"pitch":79,"velocity":79},{"start":74707,"end":74748,"pitch":79,"velocity":86},{"start":74748,"end":74789,"pitch":79,"velocity":80},{"start":74789,"end":74825,"pitch":41,"velocity":76},{"start":74825,"end":74886,"pitch":79,"velocity":85},{"start":74886,"end":74978,"pitch":41,"velocity":89},{"start":74978,"end":75009,"pitch":79,"velocity":70},{"start":75009,"end":75039,"pitch":53,"velocity":59},{"start":75039,"end":75075,"pitch":56,"velocity":42},{"start":75075,"end":75121,"pitch":53,"velocity":54},{"start":75121,"end":75157,"pitch":41,"velocity":85},{"start":75157,"end":75193,"pitch":65,"velocity":43},{"start":75239,"end":75244,"pitch":56,"velocity":70},{"start":75244,"end":75275,"pitch":81,"velocity":56},{"start":75275,"end":75310,"pitch":81,"velocity":64},{"start":75310,"end":75341,"pitch":48,"velocity":72},{"start":75341,"end":75387,"pitch":81,"velocity":52},{"start":75387,"end":75454,"pitch":81,"velocity":43},{"start":75454,"end":75484,"pitch":53,"velocity":78},{"start":75484,"end":75515,"pitch":60,"velocity":55},{"start":75515,"end":75571,"pitch":48,"velocity":65},{"start":75571,"end":75602,"pitch":81,"velocity":63},{"start":75602,"end":75648,"pitch":81,"velocity":50},{"start":75648,"end":75699,"pitch":60,"velocity":53},{"start":75699,"end":75724,"pitch":56,"velocity":74},{"start":75724,"end":75755,"pitch":81,"velocity":53},{"start":75755,"end":75801,"pitch":48,"velocity":88},{"start":75801,"end":75857,"pitch":81,"velocity":64},{"start":75857,"end":75918,"pitch":81,"velocity":51},{"start":75918,"end":75969,"pitch":81,"velocity":56},{"start":75969,"end":75990,"pitch":81,"velocity":68},{"start":75990,"end":76031,"pitch":41,"velocity":85},{"start":76031,"end":76062,"pitch":79,"velocity":45},{"start":76062,"end":76103,"pitch":55,"velocity":70},{"start":76103,"end":76134,"pitch":52,"velocity":37},{"start":76159,"end":76200,"pitch":88,"velocity":32},{"start":76200,"end":76241,"pitch":76,"velocity":54},{"start":76241,"end":76271,"pitch":79,"velocity":29},{"start":76271,"end":76302,"pitch":79,"velocity":44},{"start":76338,"end":76379,"pitch":64,"velocity":59},{"start":76379,"end":76430,"pitch":79,"velocity":55},{"start":76450,"end":76486,"pitch":60,"velocity":77},{"start":76486,"end":76517,"pitch":76,"velocity":53},{"start":76517,"end":76578,"pitch":64,"velocity":46},{"start":76614,"end":76644,"pitch":76,"velocity":56},{"start":76644,"end":76701,"pitch":52,"velocity":62},{"start":76701,"end":76726,"pitch":72,"velocity":47},{"start":76726,"end":76787,"pitch":76,"velocity":73},{"start":76787,"end":76844,"pitch":48,"velocity":68},{"start":76849,"end":76884,"pitch":79,"velocity":40},{"start":76910,"end":76951,"pitch":52,"velocity":61},{"start":76957,"end":77028,"pitch":76,"velocity":54},{"start":77028,"end":77094,"pitch":60,"velocity":79},{"start":77094,"end":77146,"pitch":60,"velocity":70},{"start":77146,"end":77186,"pitch":76,"velocity":45},{"start":77186,"end":77227,"pitch":72,"velocity":49},{"start":77227,"end":77278,"pitch":52,"velocity":63},{"start":77278,"end":77309,"pitch":79,"velocity":29},{"start":77309,"end":77340,"pitch":79,"velocity":52},{"start":77340,"end":77421,"pitch":60,"velocity":56},{"start":77421,"end":77452,"pitch":76,"velocity":48},{"start":77452,"end":77503,"pitch":60,"velocity":67},{"start":77503,"end":77534,"pitch":48,"velocity":66},{"start":77534,"end":77580,"pitch":81,"velocity":36},{"start":77580,"end":77621,"pitch":81,"velocity":47},{"start":77621,"end":77646,"pitch":60,"velocity":60},{"start":77646,"end":77677,"pitch":81,"velocity":45},{"start":77677,"end":77713,"pitch":81,"velocity":52},{"start":77713,"end":77769,"pitch":60,"velocity":65},{"start":77769,"end":77795,"pitch":79,"velocity":48},{"start":77795,"end":77826,"pitch":60,"velocity":59},{"start":77826,"end":77877,"pitch":59,"velocity":41},{"start":77877,"end":77948,"pitch":76,"velocity":50},{"start":77948,"end":77989,"pitch":55,"velocity":64},{"start":77989,"end":78030,"pitch":59,"velocity":60},{"start":78030,"end":78106,"pitch":59,"velocity":59},{"start":78106,"end":78127,"pitch":76,"velocity":49},{"start":78127,"end":78178,"pitch":52,"velocity":49},{"start":78178,"end":78224,"pitch":47,"velocity":46},{"start":78224,"end":78260,"pitch":59,"velocity":57},{"start":78260,"end":78306,"pitch":52,"velocity":69},{"start":78306,"end":78336,"pitch":43,"velocity":39},{"start":78336,"end":78377,"pitch":76,"velocity":45},{"start":78377,"end":78418,"pitch":59,"velocity":56},{"start":78418,"end":78449,"pitch":76,"velocity":31},{"start":78449,"end":78479,"pitch":76,"velocity":58},{"start":78479,"end":78571,"pitch":64,"velocity":47},{"start":78571,"end":78592,"pitch":76,"velocity":55},{"start":78592,"end":78622,"pitch":55,"velocity":80},{"start":78622,"end":78679,"pitch":76,"velocity":47},{"start":78679,"end":78740,"pitch":79,"velocity":51},{"start":78740,"end":78766,"pitch":52,"velocity":60},{"start":78766,"end":78797,"pitch":55,"velocity":79},{"start":78797,"end":78868,"pitch":64,"velocity":54},{"start":78868,"end":78899,"pitch":59,"velocity":63},{"start":78899,"end":79016,"pitch":64,"velocity":54},{"start":79032,"end":79052,"pitch":76,"velocity":48},{"start":79052,"end":79139,"pitch":55,"velocity":86},{"start":79139,"end":79164,"pitch":79,"velocity":42},{"start":79164,"end":79251,"pitch":52,"velocity":58},{"start":79256,"end":79302,"pitch":76,"velocity":46},{"start":79302,"end":79369,"pitch":40,"velocity":46},{"start":79369,"end":79394,"pitch":81,"velocity":41},{"start":79394,"end":79481,"pitch":52,"velocity":66},{"start":79481,"end":79532,"pitch":81,"velocity":51},{"start":79532,"end":79543,"pitch":81,"velocity":47},{"start":79543,"end":79589,"pitch":64,"velocity":41},{"start":79589,"end":79625,"pitch":67,"velocity":32},{"start":79625,"end":79671,"pitch":67,"velocity":51},{"start":79717,"end":79742,"pitch":83,"velocity":58},{"start":79742,"end":79793,"pitch":60,"velocity":71},{"start":79793,"end":79824,"pitch":60,"velocity":59},{"start":79824,"end":79865,"pitch":76,"velocity":51},{"start":79865,"end":79921,"pitch":65,"velocity":54},{"start":79921,"end":79947,"pitch":76,"velocity":41},{"start":79947,"end":80008,"pitch":57,"velocity":84},{"start":80018,"end":80049,"pitch":79,"velocity":33},{"start":80049,"end":80090,"pitch":79,"velocity":49},{"start":80090,"end":80136,"pitch":65,"velocity":44},{"start":80136,"end":80182,"pitch":76,"velocity":48},{"start":80182,"end":80233,"pitch":76,"velocity":40},{"start":80233,"end":80284,"pitch":69,"velocity":44},{"start":80284,"end":80340,"pitch":76,"velocity":47},{"start":80340,"end":80376,"pitch":76,"velocity":48},{"start":80376,"end":80386,"pitch":69,"velocity":43},{"start":80386,"end":80417,"pitch":41,"velocity":74},{"start":80417,"end":80478,"pitch":76,"velocity":56},{"start":80478,"end":80509,"pitch":79,"velocity":26},{"start":80509,"end":80576,"pitch":79,"velocity":55},{"start":80576,"end":80632,"pitch":57,"velocity":85},{"start":80632,"end":80688,"pitch":69,"velocity":54},{"start":80688,"end":80693,"pitch":69,"velocity":65},{"start":80693,"end":80734,"pitch":76,"velocity":48},{"start":80734,"end":80785,"pitch":76,"velocity":48},{"start":80785,"end":80826,"pitch":69,"velocity":51},{"start":80851,"end":80918,"pitch":65,"velocity":49},{"start":80918,"end":80938,"pitch":57,"velocity":79},{"start":80938,"end":80974,"pitch":41,"velocity":65},{"start":80974,"end":81010,"pitch":79,"velocity":47},{"start":81010,"end":81045,"pitch":57,"velocity":90},{"start":81045,"end":81091,"pitch":57,"velocity":82},{"start":81091,"end":81158,"pitch":65,"velocity":45},{"start":81158,"end":81204,"pitch":77,"velocity":28},{"start":81204,"end":81245,"pitch":81,"velocity":36},{"start":81245,"end":81280,"pitch":81,"velocity":44},{"start":81280,"end":81317,"pitch":69,"velocity":50},{"start":81317,"end":81353,"pitch":69,"velocity":45},{"start":81353,"end":81429,"pitch":57,"velocity":88},{"start":81429,"end":81465,"pitch":79,"velocity":48},{"start":81465,"end":81506,"pitch":53,"velocity":69},{"start":81506,"end":81542,"pitch":65,"velocity":56},{"start":81542,"end":81577,"pitch":65,"velocity":58},{"start":81577,"end":81618,"pitch":65,"velocity":53},{"start":81618,"end":81664,"pitch":60,"velocity":65},{"start":81664,"end":81710,"pitch":72,"velocity":46},{"start":81710,"end":81720,"pitch":56,"velocity":67},{"start":81720,"end":81787,"pitch":48,"velocity":74},{"start":81787,"end":81833,"pitch":72,"velocity":55},{"start":81833,"end":81899,"pitch":60,"velocity":50},{"start":81899,"end":81930,"pitch":65,"velocity":43},{"start":81930,"end":81971,"pitch":60,"velocity":58},{"start":81971,"end":82012,"pitch":53,"velocity":54},{"start":82017,"end":82083,"pitch":72,"velocity":56},{"start":82083,"end":82119,"pitch":53,"velocity":55},{"start":82119,"end":82160,"pitch":68,"velocity":43},{"start":82160,"end":82227,"pitch":56,"velocity":75},{"start":82227,"end":82252,"pitch":72,"velocity":54},{"start":82252,"end":82288,"pitch":68,"velocity":40},{"start":82319,"end":82344,"pitch":60,"velocity":58},{"start":82344,"end":82385,"pitch":74,"velocity":49},{"start":82405,"end":82457,"pitch":53,"velocity":67},{"start":82457,"end":82503,"pitch":72,"velocity":49},{"start":82503,"end":82554,"pitch":65,"velocity":47},{"start":82559,"end":82594,"pitch":56,"velocity":65},{"start":82594,"end":82615,"pitch":56,"velocity":74},{"start":82615,"end":82651,"pitch":53,"velocity":74},{"start":82651,"end":82686,"pitch":65,"velocity":41},{"start":82686,"end":82732,"pitch":72,"velocity":57},{"start":82732,"end":82768,"pitch":56,"velocity":74},{"start":82768,"end":82799,"pitch":60,"velocity":68},{"start":82799,"end":82835,"pitch":56,"velocity":83},{"start":82835,"end":82911,"pitch":56,"velocity":75},{"start":82911,"end":82942,"pitch":72,"velocity":45},{"start":82942,"end":82998,"pitch":56,"velocity":74},{"start":82998,"end":83034,"pitch":53,"velocity":55},{"start":83034,"end":83085,"pitch":79,"velocity":44},{"start":83091,"end":83137,"pitch":60,"velocity":67},{"start":83137,"end":83208,"pitch":76,"velocity":39},{"start":83208,"end":83259,"pitch":65,"velocity":46},{"start":83259,"end":83264,"pitch":65,"velocity":64},{"start":83264,"end":83331,"pitch":74,"velocity":38},{"start":83331,"end":83377,"pitch":55,"velocity":70},{"start":83377,"end":83402,"pitch":67,"velocity":43},{"start":83402,"end":83438,"pitch":52,"velocity":49},{"start":83438,"end":83479,"pitch":55,"velocity":80},{"start":83504,"end":83520,"pitch":76,"velocity":47},{"start":83520,"end":83591,"pitch":64,"velocity":63},{"start":83591,"end":83627,"pitch":60,"velocity":69},{"start":83647,"end":83688,"pitch":76,"velocity":43},{"start":83693,"end":83698,"pitch":79,"velocity":31},{"start":83698,"end":83739,"pitch":60,"velocity":62},{"start":83739,"end":83775,"pitch":79,"velocity":54},{"start":83775,"end":83811,"pitch":64,"velocity":44},{"start":83826,"end":83841,"pitch":60,"velocity":62},{"start":83841,"end":83898,"pitch":76,"velocity":54},{"start":83898,"end":83924,"pitch":79,"velocity":43},{"start":83954,"end":83990,"pitch":76,"velocity":40},{"start":83990,"end":84031,"pitch":60,"velocity":56},{"start":84031,"end":84062,"pitch":55,"velocity":85},{"start":84067,"end":84113,"pitch":76,"velocity":41},{"start":84113,"end":84149,"pitch":48,"velocity":74},{"start":84149,"end":84179,"pitch":64,"velocity":43},{"start":84179,"end":84230,"pitch":79,"velocity":35},{"start":84230,"end":84271,"pitch":79,"velocity":52},{"start":84292,"end":84302,"pitch":76,"velocity":43},{"start":84302,"end":84348,"pitch":55,"velocity":72},{"start":84348,"end":84424,"pitch":60,"velocity":60},{"start":84424,"end":84486,"pitch":52,"velocity":68},{"start":84486,"end":84527,"pitch":55,"velocity":62},{"start":84527,"end":84588,"pitch":76,"velocity":50},{"start":84654,"end":84680,"pitch":79,"velocity":46},{"start":84680,"end":84716,"pitch":60,"velocity":68},{"start":84716,"end":84767,"pitch":55,"velocity":75},{"start":84772,"end":84839,"pitch":64,"velocity":57},{"start":84839,"end":84875,"pitch":55,"velocity":58},{"start":84875,"end":84915,"pitch":81,"velocity":41},{"start":84915,"end":84966,"pitch":55,"velocity":53},{"start":84982,"end":85018,"pitch":64,"velocity":49},{"start":85018,"end":85104,"pitch":52,"velocity":58},{"start":85104,"end":85222,"pitch":79,"velocity":37},{"start":85227,"end":85293,"pitch":67,"velocity":36},{"start":85299,"end":85334,"pitch":59,"velocity":49},{"start":85339,"end":85385,"pitch":76,"velocity":47},{"start":85385,"end":85416,"pitch":59,"velocity":58},{"start":85416,"end":85452,"pitch":52,"velocity":63},{"start":85452,"end":85488,"pitch":76,"velocity":42},{"start":85513,"end":85564,"pitch":59,"velocity":59},{"start":85564,"end":85579,"pitch":59,"velocity":66},{"start":85579,"end":85615,"pitch":79,"velocity":42},{"start":85615,"end":85672,"pitch":59,"velocity":62},{"start":85672,"end":85718,"pitch":76,"velocity":36},{"start":85759,"end":85789,"pitch":55,"velocity":69},{"start":85789,"end":85830,"pitch":64,"velocity":44},{"start":85830,"end":85887,"pitch":55,"velocity":81},{"start":85887,"end":85922,"pitch":76,"velocity":34},{"start":85958,"end":86024,"pitch":59,"velocity":49},{"start":86024,"end":86060,"pitch":79,"velocity":51},{"start":86060,"end":86091,"pitch":64,"velocity":39},{"start":86091,"end":86142,"pitch":59,"velocity":60},{"start":86142,"end":86173,"pitch":64,"velocity":53},{"start":86173,"end":86213,"pitch":64,"velocity":59},{"start":86213,"end":86275,"pitch":59,"velocity":54},{"start":86275,"end":86285,"pitch":55,"velocity":83},{"start":86285,"end":86331,"pitch":59,"velocity":45},{"start":86331,"end":86367,"pitch":47,"velocity":59},{"start":86377,"end":86433,"pitch":76,"velocity":49},{"start":86433,"end":86479,"pitch":55,"velocity":70},{"start":86489,"end":86510,"pitch":64,"velocity":53},{"start":86510,"end":86541,"pitch":79,"velocity":55},{"start":86541,"end":86587,"pitch":47,"velocity":52},{"start":86597,"end":86623,"pitch":76,"velocity":50},{"start":86623,"end":86674,"pitch":40,"velocity":48},{"start":86674,"end":86710,"pitch":59,"velocity":49},{"start":86710,"end":86756,"pitch":81,"velocity":49},{"start":86756,"end":86822,"pitch":64,"velocity":33},{"start":86822,"end":86853,"pitch":81,"velocity":45},{"start":86853,"end":86934,"pitch":64,"velocity":45},{"start":86939,"end":86945,"pitch":59,"velocity":74},{"start":86945,"end":86985,"pitch":55,"velocity":73},{"start":86985,"end":87036,"pitch":59,"velocity":67},{"start":87062,"end":87088,"pitch":83,"velocity":51},{"start":87088,"end":87128,"pitch":65,"velocity":49},{"start":87128,"end":87164,"pitch":65,"velocity":54},{"start":87180,"end":87210,"pitch":76,"velocity":44},{"start":87210,"end":87251,"pitch":76,"velocity":52},{"start":87251,"end":87302,"pitch":76,"velocity":54},{"start":87302,"end":87333,"pitch":60,"velocity":60},{"start":87333,"end":87374,"pitch":76,"velocity":56},{"start":87374,"end":87404,"pitch":79,"velocity":42},{"start":87409,"end":87451,"pitch":79,"velocity":37},{"start":87451,"end":87481,"pitch":57,"velocity":86},{"start":87487,"end":87517,"pitch":69,"velocity":44},{"start":87522,"end":87573,"pitch":69,"velocity":49},{"start":87573,"end":87625,"pitch":76,"velocity":34},{"start":87625,"end":87660,"pitch":76,"velocity":56},{"start":87660,"end":87716,"pitch":76,"velocity":54},{"start":87716,"end":87722,"pitch":76,"velocity":52},{"start":87722,"end":87798,"pitch":53,"velocity":43},{"start":87798,"end":87824,"pitch":57,"velocity":77},{"start":87824,"end":87854,"pitch":48,"velocity":55},{"start":87859,"end":87900,"pitch":79,"velocity":56},{"start":87900,"end":87941,"pitch":69,"velocity":39},{"start":87941,"end":87982,"pitch":53,"velocity":61},{"start":87982,"end":88064,"pitch":69,"velocity":53},{"start":88064,"end":88079,"pitch":57,"velocity":89},{"start":88079,"end":88130,"pitch":60,"velocity":62},{"start":88130,"end":88151,"pitch":57,"velocity":82},{"start":88151,"end":88197,"pitch":53,"velocity":66},{"start":88197,"end":88253,"pitch":65,"velocity":46},{"start":88253,"end":88315,"pitch":60,"velocity":58},{"start":88315,"end":88350,"pitch":79,"velocity":55},{"start":88350,"end":88402,"pitch":79,"velocity":57},{"start":88432,"end":88463,"pitch":69,"velocity":41},{"start":88463,"end":88509,"pitch":69,"velocity":43},{"start":88509,"end":88555,"pitch":69,"velocity":45},{"start":88555,"end":88585,"pitch":81,"velocity":35},{"start":88585,"end":88616,"pitch":81,"velocity":42},{"start":88667,"end":88698,"pitch":69,"velocity":56},{"start":88698,"end":88734,"pitch":69,"velocity":49},{"start":88734,"end":88795,"pitch":57,"velocity":74},{"start":88795,"end":88861,"pitch":79,"velocity":46},{"start":88861,"end":88902,"pitch":60,"velocity":56},{"start":88902,"end":88958,"pitch":60,"velocity":63},{"start":88958,"end":89020,"pitch":60,"velocity":58},{"start":89020,"end":89045,"pitch":72,"velocity":59},{"start":89045,"end":89086,"pitch":56,"velocity":75},{"start":89086,"end":89132,"pitch":60,"velocity":65},{"start":89132,"end":89194,"pitch":72,"velocity":50},{"start":89209,"end":89240,"pitch":74,"velocity":25},{"start":89240,"end":89271,"pitch":74,"velocity":56},{"start":89271,"end":89301,"pitch":68,"velocity":51},{"start":89301,"end":89362,"pitch":56,"velocity":58},{"start":89362,"end":89414,"pitch":72,"velocity":48},{"start":89449,"end":89470,"pitch":68,"velocity":49},{"start":89470,"end":89500,"pitch":60,"velocity":77},{"start":89500,"end":89572,"pitch":65,"velocity":55},{"start":89572,"end":89577,"pitch":60,"velocity":70},{"start":89577,"end":89633,"pitch":72,"velocity":60},{"start":89633,"end":89643,"pitch":68,"velocity":39},{"start":89643,"end":89700,"pitch":60,"velocity":59},{"start":89700,"end":89741,"pitch":74,"velocity":42},{"start":89741,"end":89781,"pitch":60,"velocity":51},{"start":89781,"end":89817,"pitch":72,"velocity":44},{"start":89817,"end":89853,"pitch":72,"velocity":53},{"start":89853,"end":89894,"pitch":48,"velocity":78},{"start":89919,"end":89950,"pitch":72,"velocity":49},{"start":89950,"end":89970,"pitch":60,"velocity":75},{"start":89970,"end":90032,"pitch":53,"velocity":75},{"start":90032,"end":90063,"pitch":72,"velocity":53},{"start":90063,"end":90109,"pitch":53,"velocity":81},{"start":90119,"end":90155,"pitch":65,"velocity":44},{"start":90155,"end":90175,"pitch":74,"velocity":54},{"start":90175,"end":90206,"pitch":60,"velocity":67},{"start":90206,"end":90262,"pitch":56,"velocity":61},{"start":90262,"end":90293,"pitch":72,"velocity":58},{"start":90293,"end":90323,"pitch":72,"velocity":48},{"start":90323,"end":90349,"pitch":60,"velocity":62},{"start":90349,"end":90395,"pitch":68,"velocity":50},{"start":90405,"end":90446,"pitch":79,"velocity":62},{"start":90446,"end":90492,"pitch":60,"velocity":83},{"start":90492,"end":90553,"pitch":56,"velocity":63},{"start":90553,"end":90579,"pitch":76,"velocity":46},{"start":90579,"end":90610,"pitch":60,"velocity":67},{"start":90610,"end":90681,"pitch":53,"velocity":58},{"start":90681,"end":90717,"pitch":60,"velocity":62},{"start":90717,"end":90747,"pitch":74,"velocity":59},{"start":90747,"end":90814,"pitch":55,"velocity":72},{"start":90814,"end":90850,"pitch":64,"velocity":56},{"start":90850,"end":90922,"pitch":55,"velocity":77},{"start":90922,"end":90957,"pitch":64,"velocity":52},{"start":90973,"end":90983,"pitch":72,"velocity":60},{"start":90983,"end":91029,"pitch":64,"velocity":45},{"start":91029,"end":91085,"pitch":48,"velocity":50},{"start":91085,"end":91198,"pitch":40,"velocity":44},{"start":91223,"end":91279,"pitch":72,"velocity":80},{"start":91279,"end":91310,"pitch":72,"velocity":82},{"start":91310,"end":91387,"pitch":60,"velocity":55},{"start":91387,"end":91504,"pitch":72,"velocity":86},{"start":91504,"end":91611,"pitch":72,"velocity":88},{"start":91611,"end":91713,"pitch":48,"velocity":46},{"start":91713,"end":91811,"pitch":72,"velocity":85},{"start":91811,"end":92015,"pitch":48,"velocity":54},{"start":92015,"end":92143,"pitch":72,"velocity":64},{"start":92143,"end":92210,"pitch":40,"velocity":40},{"start":92373,"end":92623,"pitch":60,"velocity":59},{"start":92628,"end":92690,"pitch":40,"velocity":45},{"start":92690,"end":92808,"pitch":60,"velocity":54},{"start":92808,"end":92946,"pitch":40,"velocity":44},{"start":93017,"end":93079,"pitch":40,"velocity":42},{"start":93094,"end":93227,"pitch":72,"velocity":47},{"start":93227,"end":93262,"pitch":40,"velocity":46},{"start":93262,"end":93564,"pitch":55,"velocity":56},{"start":93564,"end":93631,"pitch":72,"velocity":41},{"start":93692,"end":93799,"pitch":60,"velocity":58},{"start":93815,"end":93881,"pitch":60,"velocity":57},{"start":93881,"end":93927,"pitch":52,"velocity":68},{"start":93927,"end":93983,"pitch":55,"velocity":53},{"start":93983,"end":94034,"pitch":52,"velocity":67},{"start":94034,"end":94346,"pitch":52,"velocity":54}],"ppq":220,"tempo":120,"timeSig":{"num":4,"den":4},"view":{},"overrides":{},"chordView":{}}],"activeTrackId":"bass","updated":1735689600}